M48
; DRILL file {KiCad (5.1.5)-3} date 9/30/2020 1:47:14 PM
; FORMAT={-:-/ absolute / inch / decimal}
; #@! TF.CreationDate,2020-09-30T13:47:14-04:00
; #@! TF.GenerationSoftware,Kicad,Pcbnew,(5.1.5)-3
; #@! TF.FileFunction,Plated,1,2,PTH
FMAT,2
INCH
T1C0.0118
T2C0.0157
T3C0.0276
T4C0.0315
T5C0.0433
T6C0.0472
T7C0.0591
%
G90
G05
T1
X3.4205Y-2.923
X3.4215Y-3.0
X3.422Y-3.026
X3.422Y-3.051
X3.546Y-3.0
X3.56Y-2.945
X3.65Y-3.1425
X3.654Y-3.051
X3.736Y-2.923
X3.7365Y-3.0
X3.7365Y-3.0255
X3.745Y-3.143
X3.759Y-3.0505
X3.822Y-2.9745
X3.884Y-3.115
T2
X2.115Y-3.515
X2.925Y-3.535
X3.005Y-2.695
X3.025Y-2.925
X3.04Y-3.14
X3.15Y-1.85
X3.165Y-3.235
X3.1768Y-2.0547
X3.2Y-2.55
X3.22Y-3.045
X3.22Y-3.115
X3.285Y-2.925
X3.2853Y-2.8393
X3.361Y-3.0965
X3.4495Y-2.7285
X3.45Y-3.715
X3.45Y-3.985
X3.5128Y-2.0547
X3.545Y-2.845
X3.7025Y-2.53
X3.7645Y-3.1095
X3.7797Y-2.0547
X3.7804Y-2.8
X3.7846Y-2.675
X3.8478Y-3.2572
X3.884Y-2.159
X3.905Y-2.96
X3.95Y-2.62
X3.9703Y-2.2452
X3.975Y-3.1846
X3.975Y-3.265
X3.996Y-2.858
X4.0985Y-2.3735
X4.1427Y-2.5553
X4.1427Y-2.7583
T3
X2.0882Y-3.7024
X2.0882Y-3.9976
X2.285Y-3.7024
X2.285Y-3.9976
X3.0724Y-3.7024
X3.0724Y-3.85
X3.0724Y-3.9976
X2.0882Y-2.7024
X2.0882Y-2.9976
X2.285Y-2.7024
X2.285Y-2.9976
X3.0724Y-2.7024
X3.0724Y-2.85
X3.0724Y-2.9976
T4
X3.275Y-2.675
X3.3734Y-2.675
X3.35Y-3.3
X3.35Y-3.3984
X3.5316Y-2.675
X3.63Y-2.675
X3.1Y-3.25
X3.1Y-3.35
X3.1Y-3.45
X2.8Y-3.25
X2.8Y-3.35
X2.8Y-3.45
T5
X2.425Y-3.25
X2.425Y-3.35
X2.425Y-3.45
X3.35Y-3.65
X3.35Y-4.05
X3.55Y-3.65
X3.55Y-4.05
T6
X2.1Y-2.0
X2.1Y-2.4291
X2.5252Y-2.0
X2.5291Y-2.4291
X2.75Y-2.0547
X2.75Y-2.35
T7
X3.1Y-1.7
X3.3Y-1.7
X1.8Y-2.8
X1.8Y-3.4
X1.8Y-3.6
X1.8Y-3.8
X1.8Y-4.0
X2.3Y-4.3
X2.5Y-4.3
X2.7Y-4.3
X2.9Y-4.3
X1.8Y-3.1
X1.8Y-4.3
X2.0Y-4.3
X1.8Y-1.9
X1.8Y-2.1
X1.8Y-2.3
X1.8Y-2.5
X3.55Y-1.7
X3.75Y-1.7
X3.95Y-1.7
X4.15Y-1.7
X2.2Y-1.7
X2.4Y-1.7
X2.6Y-1.7
X2.8Y-1.7
X3.2Y-4.3
X3.4Y-4.3
X3.6Y-4.3
X3.8Y-4.3
X4.15Y-3.4
X4.15Y-3.6
X4.15Y-3.8
X4.15Y-4.0
T0
M30
