G04 #@! TF.GenerationSoftware,KiCad,Pcbnew,(5.1.5)-3*
G04 #@! TF.CreationDate,2020-09-28T21:35:28-04:00*
G04 #@! TF.ProjectId,PowerSync,506f7765-7253-4796-9e63-2e6b69636164,rev?*
G04 #@! TF.SameCoordinates,Original*
G04 #@! TF.FileFunction,Soldermask,Top*
G04 #@! TF.FilePolarity,Negative*
%FSLAX46Y46*%
G04 Gerber Fmt 4.6, Leading zero omitted, Abs format (unit mm)*
G04 Created by KiCad (PCBNEW (5.1.5)-3) date 2020-09-28 21:35:28*
%MOMM*%
%LPD*%
G04 APERTURE LIST*
%ADD10C,0.100000*%
G04 APERTURE END LIST*
D10*
G36*
X91403326Y-102802578D02*
G01*
X91403329Y-102802579D01*
X91403328Y-102802579D01*
X91776631Y-102957206D01*
X92112596Y-103181690D01*
X92398310Y-103467404D01*
X92622794Y-103803369D01*
X92622795Y-103803371D01*
X92777422Y-104176674D01*
X92856250Y-104572968D01*
X92856250Y-104977032D01*
X92777422Y-105373326D01*
X92777421Y-105373328D01*
X92622794Y-105746631D01*
X92398310Y-106082596D01*
X92112596Y-106368310D01*
X91776631Y-106592794D01*
X91776630Y-106592795D01*
X91776629Y-106592795D01*
X91403326Y-106747422D01*
X91007032Y-106826250D01*
X90602968Y-106826250D01*
X90206674Y-106747422D01*
X89833371Y-106592795D01*
X89833370Y-106592795D01*
X89833369Y-106592794D01*
X89497404Y-106368310D01*
X89211690Y-106082596D01*
X88987206Y-105746631D01*
X88832579Y-105373328D01*
X88832578Y-105373326D01*
X88753750Y-104977032D01*
X88753750Y-104572968D01*
X88832578Y-104176674D01*
X88987205Y-103803371D01*
X88987206Y-103803369D01*
X89211690Y-103467404D01*
X89497404Y-103181690D01*
X89833369Y-102957206D01*
X90206672Y-102802579D01*
X90206671Y-102802579D01*
X90206674Y-102802578D01*
X90602968Y-102723750D01*
X91007032Y-102723750D01*
X91403326Y-102802578D01*
G37*
G36*
X82696250Y-106826250D02*
G01*
X78593750Y-106826250D01*
X78593750Y-102723750D01*
X82696250Y-102723750D01*
X82696250Y-106826250D01*
G37*
G36*
X86323326Y-102802578D02*
G01*
X86323329Y-102802579D01*
X86323328Y-102802579D01*
X86696631Y-102957206D01*
X87032596Y-103181690D01*
X87318310Y-103467404D01*
X87542794Y-103803369D01*
X87542795Y-103803371D01*
X87697422Y-104176674D01*
X87776250Y-104572968D01*
X87776250Y-104977032D01*
X87697422Y-105373326D01*
X87697421Y-105373328D01*
X87542794Y-105746631D01*
X87318310Y-106082596D01*
X87032596Y-106368310D01*
X86696631Y-106592794D01*
X86696630Y-106592795D01*
X86696629Y-106592795D01*
X86323326Y-106747422D01*
X85927032Y-106826250D01*
X85522968Y-106826250D01*
X85126674Y-106747422D01*
X84753371Y-106592795D01*
X84753370Y-106592795D01*
X84753369Y-106592794D01*
X84417404Y-106368310D01*
X84131690Y-106082596D01*
X83907206Y-105746631D01*
X83752579Y-105373328D01*
X83752578Y-105373326D01*
X83673750Y-104977032D01*
X83673750Y-104572968D01*
X83752578Y-104176674D01*
X83907205Y-103803371D01*
X83907206Y-103803369D01*
X84131690Y-103467404D01*
X84417404Y-103181690D01*
X84753369Y-102957206D01*
X85126672Y-102802579D01*
X85126671Y-102802579D01*
X85126674Y-102802578D01*
X85522968Y-102723750D01*
X85927032Y-102723750D01*
X86323326Y-102802578D01*
G37*
G36*
X181756250Y-106826250D02*
G01*
X177653750Y-106826250D01*
X177653750Y-102723750D01*
X181756250Y-102723750D01*
X181756250Y-106826250D01*
G37*
G36*
X119343326Y-102802578D02*
G01*
X119343329Y-102802579D01*
X119343328Y-102802579D01*
X119716631Y-102957206D01*
X120052596Y-103181690D01*
X120338310Y-103467404D01*
X120562794Y-103803369D01*
X120562795Y-103803371D01*
X120717422Y-104176674D01*
X120796250Y-104572968D01*
X120796250Y-104977032D01*
X120717422Y-105373326D01*
X120717421Y-105373328D01*
X120562794Y-105746631D01*
X120338310Y-106082596D01*
X120052596Y-106368310D01*
X119716631Y-106592794D01*
X119716630Y-106592795D01*
X119716629Y-106592795D01*
X119343326Y-106747422D01*
X118947032Y-106826250D01*
X118542968Y-106826250D01*
X118146674Y-106747422D01*
X117773371Y-106592795D01*
X117773370Y-106592795D01*
X117773369Y-106592794D01*
X117437404Y-106368310D01*
X117151690Y-106082596D01*
X116927206Y-105746631D01*
X116772579Y-105373328D01*
X116772578Y-105373326D01*
X116693750Y-104977032D01*
X116693750Y-104572968D01*
X116772578Y-104176674D01*
X116927205Y-103803371D01*
X116927206Y-103803369D01*
X117151690Y-103467404D01*
X117437404Y-103181690D01*
X117773369Y-102957206D01*
X118146672Y-102802579D01*
X118146671Y-102802579D01*
X118146674Y-102802578D01*
X118542968Y-102723750D01*
X118947032Y-102723750D01*
X119343326Y-102802578D01*
G37*
G36*
X109183326Y-102802578D02*
G01*
X109183329Y-102802579D01*
X109183328Y-102802579D01*
X109556631Y-102957206D01*
X109892596Y-103181690D01*
X110178310Y-103467404D01*
X110402794Y-103803369D01*
X110402795Y-103803371D01*
X110557422Y-104176674D01*
X110636250Y-104572968D01*
X110636250Y-104977032D01*
X110557422Y-105373326D01*
X110557421Y-105373328D01*
X110402794Y-105746631D01*
X110178310Y-106082596D01*
X109892596Y-106368310D01*
X109556631Y-106592794D01*
X109556630Y-106592795D01*
X109556629Y-106592795D01*
X109183326Y-106747422D01*
X108787032Y-106826250D01*
X108382968Y-106826250D01*
X107986674Y-106747422D01*
X107613371Y-106592795D01*
X107613370Y-106592795D01*
X107613369Y-106592794D01*
X107277404Y-106368310D01*
X106991690Y-106082596D01*
X106767206Y-105746631D01*
X106612579Y-105373328D01*
X106612578Y-105373326D01*
X106533750Y-104977032D01*
X106533750Y-104572968D01*
X106612578Y-104176674D01*
X106767205Y-103803371D01*
X106767206Y-103803369D01*
X106991690Y-103467404D01*
X107277404Y-103181690D01*
X107613369Y-102957206D01*
X107986672Y-102802579D01*
X107986671Y-102802579D01*
X107986674Y-102802578D01*
X108382968Y-102723750D01*
X108787032Y-102723750D01*
X109183326Y-102802578D01*
G37*
G36*
X105556250Y-106826250D02*
G01*
X101453750Y-106826250D01*
X101453750Y-102723750D01*
X105556250Y-102723750D01*
X105556250Y-106826250D01*
G37*
G36*
X96483326Y-102802578D02*
G01*
X96483329Y-102802579D01*
X96483328Y-102802579D01*
X96856631Y-102957206D01*
X97192596Y-103181690D01*
X97478310Y-103467404D01*
X97702794Y-103803369D01*
X97702795Y-103803371D01*
X97857422Y-104176674D01*
X97936250Y-104572968D01*
X97936250Y-104977032D01*
X97857422Y-105373326D01*
X97857421Y-105373328D01*
X97702794Y-105746631D01*
X97478310Y-106082596D01*
X97192596Y-106368310D01*
X96856631Y-106592794D01*
X96856630Y-106592795D01*
X96856629Y-106592795D01*
X96483326Y-106747422D01*
X96087032Y-106826250D01*
X95682968Y-106826250D01*
X95286674Y-106747422D01*
X94913371Y-106592795D01*
X94913370Y-106592795D01*
X94913369Y-106592794D01*
X94577404Y-106368310D01*
X94291690Y-106082596D01*
X94067206Y-105746631D01*
X93912579Y-105373328D01*
X93912578Y-105373326D01*
X93833750Y-104977032D01*
X93833750Y-104572968D01*
X93912578Y-104176674D01*
X94067205Y-103803371D01*
X94067206Y-103803369D01*
X94291690Y-103467404D01*
X94577404Y-103181690D01*
X94913369Y-102957206D01*
X95286672Y-102802579D01*
X95286671Y-102802579D01*
X95286674Y-102802578D01*
X95682968Y-102723750D01*
X96087032Y-102723750D01*
X96483326Y-102802578D01*
G37*
G36*
X114263326Y-102802578D02*
G01*
X114263329Y-102802579D01*
X114263328Y-102802579D01*
X114636631Y-102957206D01*
X114972596Y-103181690D01*
X115258310Y-103467404D01*
X115482794Y-103803369D01*
X115482795Y-103803371D01*
X115637422Y-104176674D01*
X115716250Y-104572968D01*
X115716250Y-104977032D01*
X115637422Y-105373326D01*
X115637421Y-105373328D01*
X115482794Y-105746631D01*
X115258310Y-106082596D01*
X114972596Y-106368310D01*
X114636631Y-106592794D01*
X114636630Y-106592795D01*
X114636629Y-106592795D01*
X114263326Y-106747422D01*
X113867032Y-106826250D01*
X113462968Y-106826250D01*
X113066674Y-106747422D01*
X112693371Y-106592795D01*
X112693370Y-106592795D01*
X112693369Y-106592794D01*
X112357404Y-106368310D01*
X112071690Y-106082596D01*
X111847206Y-105746631D01*
X111692579Y-105373328D01*
X111692578Y-105373326D01*
X111613750Y-104977032D01*
X111613750Y-104572968D01*
X111692578Y-104176674D01*
X111847205Y-103803371D01*
X111847206Y-103803369D01*
X112071690Y-103467404D01*
X112357404Y-103181690D01*
X112693369Y-102957206D01*
X113066672Y-102802579D01*
X113066671Y-102802579D01*
X113066674Y-102802578D01*
X113462968Y-102723750D01*
X113867032Y-102723750D01*
X114263326Y-102802578D01*
G37*
G36*
X180303326Y-97722578D02*
G01*
X180656562Y-97868893D01*
X180676631Y-97877206D01*
X181012596Y-98101690D01*
X181298310Y-98387404D01*
X181434348Y-98591000D01*
X181522795Y-98723371D01*
X181677422Y-99096674D01*
X181756250Y-99492968D01*
X181756250Y-99897032D01*
X181677422Y-100293326D01*
X181673043Y-100303897D01*
X181522794Y-100666631D01*
X181298310Y-101002596D01*
X181012596Y-101288310D01*
X180676631Y-101512794D01*
X180676630Y-101512795D01*
X180676629Y-101512795D01*
X180303326Y-101667422D01*
X179907032Y-101746250D01*
X179502968Y-101746250D01*
X179106674Y-101667422D01*
X178733371Y-101512795D01*
X178733370Y-101512795D01*
X178733369Y-101512794D01*
X178397404Y-101288310D01*
X178111690Y-101002596D01*
X177887206Y-100666631D01*
X177736957Y-100303897D01*
X177732578Y-100293326D01*
X177653750Y-99897032D01*
X177653750Y-99492968D01*
X177732578Y-99096674D01*
X177887205Y-98723371D01*
X177975652Y-98591000D01*
X178111690Y-98387404D01*
X178397404Y-98101690D01*
X178733369Y-97877206D01*
X178753438Y-97868893D01*
X179106674Y-97722578D01*
X179502968Y-97643750D01*
X179907032Y-97643750D01*
X180303326Y-97722578D01*
G37*
G36*
X99133674Y-100218465D02*
G01*
X99171367Y-100229899D01*
X99206103Y-100248466D01*
X99236548Y-100273452D01*
X99261534Y-100303897D01*
X99280101Y-100338633D01*
X99291535Y-100376326D01*
X99296000Y-100421661D01*
X99296000Y-101508339D01*
X99291535Y-101553674D01*
X99280101Y-101591367D01*
X99261534Y-101626103D01*
X99236548Y-101656548D01*
X99206103Y-101681534D01*
X99171367Y-101700101D01*
X99133674Y-101711535D01*
X99088339Y-101716000D01*
X98251661Y-101716000D01*
X98206326Y-101711535D01*
X98168633Y-101700101D01*
X98133897Y-101681534D01*
X98103452Y-101656548D01*
X98078466Y-101626103D01*
X98059899Y-101591367D01*
X98048465Y-101553674D01*
X98044000Y-101508339D01*
X98044000Y-100421661D01*
X98048465Y-100376326D01*
X98059899Y-100338633D01*
X98078466Y-100303897D01*
X98103452Y-100273452D01*
X98133897Y-100248466D01*
X98168633Y-100229899D01*
X98206326Y-100218465D01*
X98251661Y-100214000D01*
X99088339Y-100214000D01*
X99133674Y-100218465D01*
G37*
G36*
X101183674Y-100218465D02*
G01*
X101221367Y-100229899D01*
X101256103Y-100248466D01*
X101286548Y-100273452D01*
X101311534Y-100303897D01*
X101330101Y-100338633D01*
X101341535Y-100376326D01*
X101346000Y-100421661D01*
X101346000Y-101508339D01*
X101341535Y-101553674D01*
X101330101Y-101591367D01*
X101311534Y-101626103D01*
X101286548Y-101656548D01*
X101256103Y-101681534D01*
X101221367Y-101700101D01*
X101183674Y-101711535D01*
X101138339Y-101716000D01*
X100301661Y-101716000D01*
X100256326Y-101711535D01*
X100218633Y-101700101D01*
X100183897Y-101681534D01*
X100153452Y-101656548D01*
X100128466Y-101626103D01*
X100109899Y-101591367D01*
X100098465Y-101553674D01*
X100094000Y-101508339D01*
X100094000Y-100421661D01*
X100098465Y-100376326D01*
X100109899Y-100338633D01*
X100128466Y-100303897D01*
X100153452Y-100273452D01*
X100183897Y-100248466D01*
X100218633Y-100229899D01*
X100256326Y-100218465D01*
X100301661Y-100214000D01*
X101138339Y-100214000D01*
X101183674Y-100218465D01*
G37*
G36*
X148756000Y-101131000D02*
G01*
X147154000Y-101131000D01*
X147154000Y-99529000D01*
X148756000Y-99529000D01*
X148756000Y-101131000D01*
G37*
G36*
X155106000Y-101131000D02*
G01*
X153504000Y-101131000D01*
X153504000Y-99529000D01*
X155106000Y-99529000D01*
X155106000Y-101131000D01*
G37*
G36*
X162143674Y-99583465D02*
G01*
X162181367Y-99594899D01*
X162216103Y-99613466D01*
X162246548Y-99638452D01*
X162271534Y-99668897D01*
X162290101Y-99703633D01*
X162301535Y-99741326D01*
X162306000Y-99786661D01*
X162306000Y-100873339D01*
X162301535Y-100918674D01*
X162290101Y-100956367D01*
X162271534Y-100991103D01*
X162246548Y-101021548D01*
X162216103Y-101046534D01*
X162181367Y-101065101D01*
X162143674Y-101076535D01*
X162098339Y-101081000D01*
X161261661Y-101081000D01*
X161216326Y-101076535D01*
X161178633Y-101065101D01*
X161143897Y-101046534D01*
X161113452Y-101021548D01*
X161088466Y-100991103D01*
X161069899Y-100956367D01*
X161058465Y-100918674D01*
X161054000Y-100873339D01*
X161054000Y-99786661D01*
X161058465Y-99741326D01*
X161069899Y-99703633D01*
X161088466Y-99668897D01*
X161113452Y-99638452D01*
X161143897Y-99613466D01*
X161178633Y-99594899D01*
X161216326Y-99583465D01*
X161261661Y-99579000D01*
X162098339Y-99579000D01*
X162143674Y-99583465D01*
G37*
G36*
X160093674Y-99583465D02*
G01*
X160131367Y-99594899D01*
X160166103Y-99613466D01*
X160196548Y-99638452D01*
X160221534Y-99668897D01*
X160240101Y-99703633D01*
X160251535Y-99741326D01*
X160256000Y-99786661D01*
X160256000Y-100873339D01*
X160251535Y-100918674D01*
X160240101Y-100956367D01*
X160221534Y-100991103D01*
X160196548Y-101021548D01*
X160166103Y-101046534D01*
X160131367Y-101065101D01*
X160093674Y-101076535D01*
X160048339Y-101081000D01*
X159211661Y-101081000D01*
X159166326Y-101076535D01*
X159128633Y-101065101D01*
X159093897Y-101046534D01*
X159063452Y-101021548D01*
X159038466Y-100991103D01*
X159019899Y-100956367D01*
X159008465Y-100918674D01*
X159004000Y-100873339D01*
X159004000Y-99786661D01*
X159008465Y-99741326D01*
X159019899Y-99703633D01*
X159038466Y-99668897D01*
X159063452Y-99638452D01*
X159093897Y-99613466D01*
X159128633Y-99594899D01*
X159166326Y-99583465D01*
X159211661Y-99579000D01*
X160048339Y-99579000D01*
X160093674Y-99583465D01*
G37*
G36*
X165173674Y-99583465D02*
G01*
X165211367Y-99594899D01*
X165246103Y-99613466D01*
X165276548Y-99638452D01*
X165301534Y-99668897D01*
X165320101Y-99703633D01*
X165331535Y-99741326D01*
X165336000Y-99786661D01*
X165336000Y-100873339D01*
X165331535Y-100918674D01*
X165320101Y-100956367D01*
X165301534Y-100991103D01*
X165276548Y-101021548D01*
X165246103Y-101046534D01*
X165211367Y-101065101D01*
X165173674Y-101076535D01*
X165128339Y-101081000D01*
X164291661Y-101081000D01*
X164246326Y-101076535D01*
X164208633Y-101065101D01*
X164173897Y-101046534D01*
X164143452Y-101021548D01*
X164118466Y-100991103D01*
X164099899Y-100956367D01*
X164088465Y-100918674D01*
X164084000Y-100873339D01*
X164084000Y-99786661D01*
X164088465Y-99741326D01*
X164099899Y-99703633D01*
X164118466Y-99668897D01*
X164143452Y-99638452D01*
X164173897Y-99613466D01*
X164208633Y-99594899D01*
X164246326Y-99583465D01*
X164291661Y-99579000D01*
X165128339Y-99579000D01*
X165173674Y-99583465D01*
G37*
G36*
X167223674Y-99583465D02*
G01*
X167261367Y-99594899D01*
X167296103Y-99613466D01*
X167326548Y-99638452D01*
X167351534Y-99668897D01*
X167370101Y-99703633D01*
X167381535Y-99741326D01*
X167386000Y-99786661D01*
X167386000Y-100873339D01*
X167381535Y-100918674D01*
X167370101Y-100956367D01*
X167351534Y-100991103D01*
X167326548Y-101021548D01*
X167296103Y-101046534D01*
X167261367Y-101065101D01*
X167223674Y-101076535D01*
X167178339Y-101081000D01*
X166341661Y-101081000D01*
X166296326Y-101076535D01*
X166258633Y-101065101D01*
X166223897Y-101046534D01*
X166193452Y-101021548D01*
X166168466Y-100991103D01*
X166149899Y-100956367D01*
X166138465Y-100918674D01*
X166134000Y-100873339D01*
X166134000Y-99786661D01*
X166138465Y-99741326D01*
X166149899Y-99703633D01*
X166168466Y-99668897D01*
X166193452Y-99638452D01*
X166223897Y-99613466D01*
X166258633Y-99594899D01*
X166296326Y-99583465D01*
X166341661Y-99579000D01*
X167178339Y-99579000D01*
X167223674Y-99583465D01*
G37*
G36*
X142756000Y-100846000D02*
G01*
X140454000Y-100846000D01*
X140454000Y-98544000D01*
X142756000Y-98544000D01*
X142756000Y-100846000D01*
G37*
G36*
X131639898Y-98560218D02*
G01*
X131780734Y-98588232D01*
X131990203Y-98674997D01*
X132178720Y-98800960D01*
X132339040Y-98961280D01*
X132465003Y-99149797D01*
X132551768Y-99359266D01*
X132596000Y-99581636D01*
X132596000Y-99808364D01*
X132551768Y-100030734D01*
X132465003Y-100240203D01*
X132339040Y-100428720D01*
X132178720Y-100589040D01*
X131990203Y-100715003D01*
X131780734Y-100801768D01*
X131669549Y-100823884D01*
X131558365Y-100846000D01*
X131331635Y-100846000D01*
X131220451Y-100823884D01*
X131109266Y-100801768D01*
X130899797Y-100715003D01*
X130711280Y-100589040D01*
X130550960Y-100428720D01*
X130424997Y-100240203D01*
X130338232Y-100030734D01*
X130294000Y-99808364D01*
X130294000Y-99581636D01*
X130338232Y-99359266D01*
X130424997Y-99149797D01*
X130550960Y-98961280D01*
X130711280Y-98800960D01*
X130899797Y-98674997D01*
X131109266Y-98588232D01*
X131250102Y-98560218D01*
X131331635Y-98544000D01*
X131558365Y-98544000D01*
X131639898Y-98560218D01*
G37*
G36*
X154538642Y-97019781D02*
G01*
X154684414Y-97080162D01*
X154684416Y-97080163D01*
X154815608Y-97167822D01*
X154927178Y-97279392D01*
X155014837Y-97410584D01*
X155014838Y-97410586D01*
X155075219Y-97556358D01*
X155106000Y-97711107D01*
X155106000Y-97868893D01*
X155075219Y-98023642D01*
X155042890Y-98101690D01*
X155014837Y-98169416D01*
X154927178Y-98300608D01*
X154815608Y-98412178D01*
X154684416Y-98499837D01*
X154684415Y-98499838D01*
X154684414Y-98499838D01*
X154538642Y-98560219D01*
X154383893Y-98591000D01*
X154226107Y-98591000D01*
X154071358Y-98560219D01*
X153925586Y-98499838D01*
X153925585Y-98499838D01*
X153925584Y-98499837D01*
X153794392Y-98412178D01*
X153682822Y-98300608D01*
X153595163Y-98169416D01*
X153567110Y-98101690D01*
X153534781Y-98023642D01*
X153504000Y-97868893D01*
X153504000Y-97711107D01*
X153534781Y-97556358D01*
X153595162Y-97410586D01*
X153595163Y-97410584D01*
X153682822Y-97279392D01*
X153794392Y-97167822D01*
X153925584Y-97080163D01*
X153925586Y-97080162D01*
X154071358Y-97019781D01*
X154226107Y-96989000D01*
X154383893Y-96989000D01*
X154538642Y-97019781D01*
G37*
G36*
X148188642Y-97019781D02*
G01*
X148334414Y-97080162D01*
X148334416Y-97080163D01*
X148465608Y-97167822D01*
X148577178Y-97279392D01*
X148664837Y-97410584D01*
X148664838Y-97410586D01*
X148725219Y-97556358D01*
X148756000Y-97711107D01*
X148756000Y-97868893D01*
X148725219Y-98023642D01*
X148692890Y-98101690D01*
X148664837Y-98169416D01*
X148577178Y-98300608D01*
X148465608Y-98412178D01*
X148334416Y-98499837D01*
X148334415Y-98499838D01*
X148334414Y-98499838D01*
X148188642Y-98560219D01*
X148033893Y-98591000D01*
X147876107Y-98591000D01*
X147721358Y-98560219D01*
X147575586Y-98499838D01*
X147575585Y-98499838D01*
X147575584Y-98499837D01*
X147444392Y-98412178D01*
X147332822Y-98300608D01*
X147245163Y-98169416D01*
X147217110Y-98101690D01*
X147184781Y-98023642D01*
X147154000Y-97868893D01*
X147154000Y-97711107D01*
X147184781Y-97556358D01*
X147245162Y-97410586D01*
X147245163Y-97410584D01*
X147332822Y-97279392D01*
X147444392Y-97167822D01*
X147575584Y-97080163D01*
X147575586Y-97080162D01*
X147721358Y-97019781D01*
X147876107Y-96989000D01*
X148033893Y-96989000D01*
X148188642Y-97019781D01*
G37*
G36*
X86914059Y-96372860D02*
G01*
X87045926Y-96427481D01*
X87050732Y-96429472D01*
X87173735Y-96511660D01*
X87278340Y-96616265D01*
X87336493Y-96703297D01*
X87360529Y-96739270D01*
X87417140Y-96875941D01*
X87439629Y-96989000D01*
X87446000Y-97021033D01*
X87446000Y-97168967D01*
X87417140Y-97314059D01*
X87360528Y-97450732D01*
X87278340Y-97573735D01*
X87173735Y-97678340D01*
X87050732Y-97760528D01*
X87050731Y-97760529D01*
X87050730Y-97760529D01*
X86914059Y-97817140D01*
X86768968Y-97846000D01*
X86621032Y-97846000D01*
X86475941Y-97817140D01*
X86339270Y-97760529D01*
X86339269Y-97760529D01*
X86339268Y-97760528D01*
X86216265Y-97678340D01*
X86111660Y-97573735D01*
X86029472Y-97450732D01*
X85972860Y-97314059D01*
X85944000Y-97168967D01*
X85944000Y-97021033D01*
X85950372Y-96989000D01*
X85972860Y-96875941D01*
X86029471Y-96739270D01*
X86053507Y-96703297D01*
X86111660Y-96616265D01*
X86216265Y-96511660D01*
X86339268Y-96429472D01*
X86344075Y-96427481D01*
X86475941Y-96372860D01*
X86621032Y-96344000D01*
X86768968Y-96344000D01*
X86914059Y-96372860D01*
G37*
G36*
X111914059Y-96372860D02*
G01*
X112045926Y-96427481D01*
X112050732Y-96429472D01*
X112173735Y-96511660D01*
X112278340Y-96616265D01*
X112336493Y-96703297D01*
X112360529Y-96739270D01*
X112417140Y-96875941D01*
X112439629Y-96989000D01*
X112446000Y-97021033D01*
X112446000Y-97168967D01*
X112417140Y-97314059D01*
X112360528Y-97450732D01*
X112278340Y-97573735D01*
X112173735Y-97678340D01*
X112050732Y-97760528D01*
X112050731Y-97760529D01*
X112050730Y-97760529D01*
X111914059Y-97817140D01*
X111768968Y-97846000D01*
X111621032Y-97846000D01*
X111475941Y-97817140D01*
X111339270Y-97760529D01*
X111339269Y-97760529D01*
X111339268Y-97760528D01*
X111216265Y-97678340D01*
X111111660Y-97573735D01*
X111029472Y-97450732D01*
X110972860Y-97314059D01*
X110944000Y-97168967D01*
X110944000Y-97021033D01*
X110950372Y-96989000D01*
X110972860Y-96875941D01*
X111029471Y-96739270D01*
X111053507Y-96703297D01*
X111111660Y-96616265D01*
X111216265Y-96511660D01*
X111339268Y-96429472D01*
X111344075Y-96427481D01*
X111475941Y-96372860D01*
X111621032Y-96344000D01*
X111768968Y-96344000D01*
X111914059Y-96372860D01*
G37*
G36*
X91914059Y-96372860D02*
G01*
X92045926Y-96427481D01*
X92050732Y-96429472D01*
X92173735Y-96511660D01*
X92278340Y-96616265D01*
X92336493Y-96703297D01*
X92360529Y-96739270D01*
X92417140Y-96875941D01*
X92439629Y-96989000D01*
X92446000Y-97021033D01*
X92446000Y-97168967D01*
X92417140Y-97314059D01*
X92360528Y-97450732D01*
X92278340Y-97573735D01*
X92173735Y-97678340D01*
X92050732Y-97760528D01*
X92050731Y-97760529D01*
X92050730Y-97760529D01*
X91914059Y-97817140D01*
X91768968Y-97846000D01*
X91621032Y-97846000D01*
X91475941Y-97817140D01*
X91339270Y-97760529D01*
X91339269Y-97760529D01*
X91339268Y-97760528D01*
X91216265Y-97678340D01*
X91111660Y-97573735D01*
X91029472Y-97450732D01*
X90972860Y-97314059D01*
X90944000Y-97168967D01*
X90944000Y-97021033D01*
X90950372Y-96989000D01*
X90972860Y-96875941D01*
X91029471Y-96739270D01*
X91053507Y-96703297D01*
X91111660Y-96616265D01*
X91216265Y-96511660D01*
X91339268Y-96429472D01*
X91344075Y-96427481D01*
X91475941Y-96372860D01*
X91621032Y-96344000D01*
X91768968Y-96344000D01*
X91914059Y-96372860D01*
G37*
G36*
X165311000Y-97111000D02*
G01*
X164109000Y-97111000D01*
X164109000Y-94659000D01*
X165311000Y-94659000D01*
X165311000Y-97111000D01*
G37*
G36*
X161011000Y-97111000D02*
G01*
X159809000Y-97111000D01*
X159809000Y-94659000D01*
X161011000Y-94659000D01*
X161011000Y-97111000D01*
G37*
G36*
X131585472Y-94739392D02*
G01*
X131780734Y-94778232D01*
X131928850Y-94839584D01*
X131975477Y-94858897D01*
X131990203Y-94864997D01*
X132178720Y-94990960D01*
X132339040Y-95151280D01*
X132457717Y-95328893D01*
X132465004Y-95339799D01*
X132466131Y-95342520D01*
X132524586Y-95483642D01*
X132551768Y-95549267D01*
X132596000Y-95771635D01*
X132596000Y-95998365D01*
X132551768Y-96220733D01*
X132466131Y-96427481D01*
X132465003Y-96430203D01*
X132339040Y-96618720D01*
X132178720Y-96779040D01*
X131990203Y-96905003D01*
X131780734Y-96991768D01*
X131669549Y-97013884D01*
X131558365Y-97036000D01*
X131331635Y-97036000D01*
X131220451Y-97013884D01*
X131109266Y-96991768D01*
X130899797Y-96905003D01*
X130711280Y-96779040D01*
X130550960Y-96618720D01*
X130424997Y-96430203D01*
X130423870Y-96427481D01*
X130338232Y-96220733D01*
X130294000Y-95998365D01*
X130294000Y-95771635D01*
X130338232Y-95549267D01*
X130365415Y-95483642D01*
X130423869Y-95342520D01*
X130424996Y-95339799D01*
X130432283Y-95328893D01*
X130550960Y-95151280D01*
X130711280Y-94990960D01*
X130899797Y-94864997D01*
X130914524Y-94858897D01*
X130961150Y-94839584D01*
X131109266Y-94778232D01*
X131304528Y-94739392D01*
X131331635Y-94734000D01*
X131558365Y-94734000D01*
X131585472Y-94739392D01*
G37*
G36*
X142756000Y-97036000D02*
G01*
X140454000Y-97036000D01*
X140454000Y-94734000D01*
X142756000Y-94734000D01*
X142756000Y-97036000D01*
G37*
G36*
X118326000Y-96736000D02*
G01*
X116624000Y-96736000D01*
X116624000Y-95034000D01*
X118326000Y-95034000D01*
X118326000Y-96736000D01*
G37*
G36*
X120223228Y-95066703D02*
G01*
X120378100Y-95130853D01*
X120517481Y-95223985D01*
X120636015Y-95342519D01*
X120729147Y-95481900D01*
X120793297Y-95636772D01*
X120826000Y-95801184D01*
X120826000Y-95968816D01*
X120793297Y-96133228D01*
X120729147Y-96288100D01*
X120636015Y-96427481D01*
X120517481Y-96546015D01*
X120378100Y-96639147D01*
X120223228Y-96703297D01*
X120058816Y-96736000D01*
X119891184Y-96736000D01*
X119726772Y-96703297D01*
X119571900Y-96639147D01*
X119432519Y-96546015D01*
X119313985Y-96427481D01*
X119220853Y-96288100D01*
X119156703Y-96133228D01*
X119124000Y-95968816D01*
X119124000Y-95801184D01*
X119156703Y-95636772D01*
X119220853Y-95481900D01*
X119313985Y-95342519D01*
X119432519Y-95223985D01*
X119571900Y-95130853D01*
X119726772Y-95066703D01*
X119891184Y-95034000D01*
X120058816Y-95034000D01*
X120223228Y-95066703D01*
G37*
G36*
X125311000Y-96736000D02*
G01*
X123609000Y-96736000D01*
X123609000Y-95034000D01*
X125311000Y-95034000D01*
X125311000Y-96736000D01*
G37*
G36*
X127208228Y-95066703D02*
G01*
X127363100Y-95130853D01*
X127502481Y-95223985D01*
X127621015Y-95342519D01*
X127714147Y-95481900D01*
X127778297Y-95636772D01*
X127811000Y-95801184D01*
X127811000Y-95968816D01*
X127778297Y-96133228D01*
X127714147Y-96288100D01*
X127621015Y-96427481D01*
X127502481Y-96546015D01*
X127363100Y-96639147D01*
X127208228Y-96703297D01*
X127043816Y-96736000D01*
X126876184Y-96736000D01*
X126711772Y-96703297D01*
X126556900Y-96639147D01*
X126417519Y-96546015D01*
X126298985Y-96427481D01*
X126205853Y-96288100D01*
X126141703Y-96133228D01*
X126109000Y-95968816D01*
X126109000Y-95801184D01*
X126141703Y-95636772D01*
X126205853Y-95481900D01*
X126298985Y-95342519D01*
X126417519Y-95223985D01*
X126556900Y-95130853D01*
X126711772Y-95066703D01*
X126876184Y-95034000D01*
X127043816Y-95034000D01*
X127208228Y-95066703D01*
G37*
G36*
X180303326Y-92642578D02*
G01*
X180662938Y-92791534D01*
X180676631Y-92797206D01*
X181012596Y-93021690D01*
X181298310Y-93307404D01*
X181522794Y-93643369D01*
X181522795Y-93643371D01*
X181677422Y-94016674D01*
X181756250Y-94412968D01*
X181756250Y-94817032D01*
X181677422Y-95213326D01*
X181565453Y-95483643D01*
X181522794Y-95586631D01*
X181298310Y-95922596D01*
X181012596Y-96208310D01*
X180676631Y-96432794D01*
X180676630Y-96432795D01*
X180676629Y-96432795D01*
X180303326Y-96587422D01*
X179907032Y-96666250D01*
X179502968Y-96666250D01*
X179106674Y-96587422D01*
X178733371Y-96432795D01*
X178733370Y-96432795D01*
X178733369Y-96432794D01*
X178397404Y-96208310D01*
X178111690Y-95922596D01*
X177887206Y-95586631D01*
X177844547Y-95483643D01*
X177732578Y-95213326D01*
X177653750Y-94817032D01*
X177653750Y-94412968D01*
X177732578Y-94016674D01*
X177887205Y-93643371D01*
X177887206Y-93643369D01*
X178111690Y-93307404D01*
X178397404Y-93021690D01*
X178733369Y-92797206D01*
X178747062Y-92791534D01*
X179106674Y-92642578D01*
X179502968Y-92563750D01*
X179907032Y-92563750D01*
X180303326Y-92642578D01*
G37*
G36*
X82446060Y-96416060D02*
G01*
X78843940Y-96416060D01*
X78843940Y-92813940D01*
X82446060Y-92813940D01*
X82446060Y-96416060D01*
G37*
G36*
X148188642Y-94479781D02*
G01*
X148334414Y-94540162D01*
X148334416Y-94540163D01*
X148465608Y-94627822D01*
X148577178Y-94739392D01*
X148657028Y-94858897D01*
X148664838Y-94870586D01*
X148725219Y-95016358D01*
X148756000Y-95171107D01*
X148756000Y-95328893D01*
X148725219Y-95483642D01*
X148698036Y-95549267D01*
X148664837Y-95629416D01*
X148577178Y-95760608D01*
X148465608Y-95872178D01*
X148334416Y-95959837D01*
X148334415Y-95959838D01*
X148334414Y-95959838D01*
X148188642Y-96020219D01*
X148033893Y-96051000D01*
X147876107Y-96051000D01*
X147721358Y-96020219D01*
X147575586Y-95959838D01*
X147575585Y-95959838D01*
X147575584Y-95959837D01*
X147444392Y-95872178D01*
X147332822Y-95760608D01*
X147245163Y-95629416D01*
X147211964Y-95549267D01*
X147184781Y-95483642D01*
X147154000Y-95328893D01*
X147154000Y-95171107D01*
X147184781Y-95016358D01*
X147245162Y-94870586D01*
X147252972Y-94858897D01*
X147332822Y-94739392D01*
X147444392Y-94627822D01*
X147575584Y-94540163D01*
X147575586Y-94540162D01*
X147721358Y-94479781D01*
X147876107Y-94449000D01*
X148033893Y-94449000D01*
X148188642Y-94479781D01*
G37*
G36*
X154538642Y-94479781D02*
G01*
X154684414Y-94540162D01*
X154684416Y-94540163D01*
X154815608Y-94627822D01*
X154927178Y-94739392D01*
X155007028Y-94858897D01*
X155014838Y-94870586D01*
X155075219Y-95016358D01*
X155106000Y-95171107D01*
X155106000Y-95328893D01*
X155075219Y-95483642D01*
X155048036Y-95549267D01*
X155014837Y-95629416D01*
X154927178Y-95760608D01*
X154815608Y-95872178D01*
X154684416Y-95959837D01*
X154684415Y-95959838D01*
X154684414Y-95959838D01*
X154538642Y-96020219D01*
X154383893Y-96051000D01*
X154226107Y-96051000D01*
X154071358Y-96020219D01*
X153925586Y-95959838D01*
X153925585Y-95959838D01*
X153925584Y-95959837D01*
X153794392Y-95872178D01*
X153682822Y-95760608D01*
X153595163Y-95629416D01*
X153561964Y-95549267D01*
X153534781Y-95483642D01*
X153504000Y-95328893D01*
X153504000Y-95171107D01*
X153534781Y-95016358D01*
X153595162Y-94870586D01*
X153602972Y-94858897D01*
X153682822Y-94739392D01*
X153794392Y-94627822D01*
X153925584Y-94540163D01*
X153925586Y-94540162D01*
X154071358Y-94479781D01*
X154226107Y-94449000D01*
X154383893Y-94449000D01*
X154538642Y-94479781D01*
G37*
G36*
X168228674Y-94773465D02*
G01*
X168266367Y-94784899D01*
X168301103Y-94803466D01*
X168331548Y-94828452D01*
X168356534Y-94858897D01*
X168375101Y-94893633D01*
X168386535Y-94931326D01*
X168391000Y-94976661D01*
X168391000Y-95813339D01*
X168386535Y-95858674D01*
X168375101Y-95896367D01*
X168356534Y-95931103D01*
X168331548Y-95961548D01*
X168301103Y-95986534D01*
X168266367Y-96005101D01*
X168228674Y-96016535D01*
X168183339Y-96021000D01*
X167096661Y-96021000D01*
X167051326Y-96016535D01*
X167013633Y-96005101D01*
X166978897Y-95986534D01*
X166948452Y-95961548D01*
X166923466Y-95931103D01*
X166904899Y-95896367D01*
X166893465Y-95858674D01*
X166889000Y-95813339D01*
X166889000Y-94976661D01*
X166893465Y-94931326D01*
X166904899Y-94893633D01*
X166923466Y-94858897D01*
X166948452Y-94828452D01*
X166978897Y-94803466D01*
X167013633Y-94784899D01*
X167051326Y-94773465D01*
X167096661Y-94769000D01*
X168183339Y-94769000D01*
X168228674Y-94773465D01*
G37*
G36*
X111914059Y-92622860D02*
G01*
X112012593Y-92663674D01*
X112050732Y-92679472D01*
X112173735Y-92761660D01*
X112278340Y-92866265D01*
X112360528Y-92989268D01*
X112417140Y-93125941D01*
X112446000Y-93271033D01*
X112446000Y-93418967D01*
X112417140Y-93564059D01*
X112360528Y-93700732D01*
X112278340Y-93823735D01*
X112173735Y-93928340D01*
X112050732Y-94010528D01*
X112050731Y-94010529D01*
X112050730Y-94010529D01*
X111914059Y-94067140D01*
X111768968Y-94096000D01*
X111621032Y-94096000D01*
X111475941Y-94067140D01*
X111339270Y-94010529D01*
X111339269Y-94010529D01*
X111339268Y-94010528D01*
X111216265Y-93928340D01*
X111111660Y-93823735D01*
X111029472Y-93700732D01*
X110972860Y-93564059D01*
X110944000Y-93418967D01*
X110944000Y-93271033D01*
X110972860Y-93125941D01*
X111029472Y-92989268D01*
X111111660Y-92866265D01*
X111216265Y-92761660D01*
X111339268Y-92679472D01*
X111377408Y-92663674D01*
X111475941Y-92622860D01*
X111621032Y-92594000D01*
X111768968Y-92594000D01*
X111914059Y-92622860D01*
G37*
G36*
X168228674Y-92723465D02*
G01*
X168266367Y-92734899D01*
X168301103Y-92753466D01*
X168331548Y-92778452D01*
X168356534Y-92808897D01*
X168375101Y-92843633D01*
X168386535Y-92881326D01*
X168391000Y-92926661D01*
X168391000Y-93763339D01*
X168386535Y-93808674D01*
X168375101Y-93846367D01*
X168356534Y-93881103D01*
X168331548Y-93911548D01*
X168301103Y-93936534D01*
X168266367Y-93955101D01*
X168228674Y-93966535D01*
X168183339Y-93971000D01*
X167096661Y-93971000D01*
X167051326Y-93966535D01*
X167013633Y-93955101D01*
X166978897Y-93936534D01*
X166948452Y-93911548D01*
X166923466Y-93881103D01*
X166904899Y-93846367D01*
X166893465Y-93808674D01*
X166889000Y-93763339D01*
X166889000Y-92926661D01*
X166893465Y-92881326D01*
X166904899Y-92843633D01*
X166923466Y-92808897D01*
X166948452Y-92778452D01*
X166978897Y-92753466D01*
X167013633Y-92734899D01*
X167051326Y-92723465D01*
X167096661Y-92719000D01*
X168183339Y-92719000D01*
X168228674Y-92723465D01*
G37*
G36*
X135311000Y-92976000D02*
G01*
X134559000Y-92976000D01*
X134559000Y-92474000D01*
X135311000Y-92474000D01*
X135311000Y-92976000D01*
G37*
G36*
X133411000Y-92976000D02*
G01*
X132659000Y-92976000D01*
X132659000Y-91174000D01*
X133411000Y-91174000D01*
X133411000Y-92976000D01*
G37*
G36*
X139918674Y-91328465D02*
G01*
X139956367Y-91339899D01*
X139991103Y-91358466D01*
X140021548Y-91383452D01*
X140046534Y-91413897D01*
X140065101Y-91448633D01*
X140076535Y-91486326D01*
X140081000Y-91531661D01*
X140081000Y-92618339D01*
X140076535Y-92663674D01*
X140065101Y-92701367D01*
X140046534Y-92736103D01*
X140021548Y-92766548D01*
X139991103Y-92791534D01*
X139956367Y-92810101D01*
X139918674Y-92821535D01*
X139873339Y-92826000D01*
X139036661Y-92826000D01*
X138991326Y-92821535D01*
X138953633Y-92810101D01*
X138918897Y-92791534D01*
X138888452Y-92766548D01*
X138863466Y-92736103D01*
X138844899Y-92701367D01*
X138833465Y-92663674D01*
X138829000Y-92618339D01*
X138829000Y-91531661D01*
X138833465Y-91486326D01*
X138844899Y-91448633D01*
X138863466Y-91413897D01*
X138888452Y-91383452D01*
X138918897Y-91358466D01*
X138953633Y-91339899D01*
X138991326Y-91328465D01*
X139036661Y-91324000D01*
X139873339Y-91324000D01*
X139918674Y-91328465D01*
G37*
G36*
X137868674Y-91328465D02*
G01*
X137906367Y-91339899D01*
X137941103Y-91358466D01*
X137971548Y-91383452D01*
X137996534Y-91413897D01*
X138015101Y-91448633D01*
X138026535Y-91486326D01*
X138031000Y-91531661D01*
X138031000Y-92618339D01*
X138026535Y-92663674D01*
X138015101Y-92701367D01*
X137996534Y-92736103D01*
X137971548Y-92766548D01*
X137941103Y-92791534D01*
X137906367Y-92810101D01*
X137868674Y-92821535D01*
X137823339Y-92826000D01*
X136986661Y-92826000D01*
X136941326Y-92821535D01*
X136903633Y-92810101D01*
X136868897Y-92791534D01*
X136838452Y-92766548D01*
X136813466Y-92736103D01*
X136794899Y-92701367D01*
X136783465Y-92663674D01*
X136779000Y-92618339D01*
X136779000Y-91531661D01*
X136783465Y-91486326D01*
X136794899Y-91448633D01*
X136813466Y-91413897D01*
X136838452Y-91383452D01*
X136868897Y-91358466D01*
X136903633Y-91339899D01*
X136941326Y-91328465D01*
X136986661Y-91324000D01*
X137823339Y-91324000D01*
X137868674Y-91328465D01*
G37*
G36*
X135311000Y-91676000D02*
G01*
X134559000Y-91676000D01*
X134559000Y-91174000D01*
X135311000Y-91174000D01*
X135311000Y-91676000D01*
G37*
G36*
X180303326Y-87562578D02*
G01*
X180676629Y-87717205D01*
X180676631Y-87717206D01*
X181012596Y-87941690D01*
X181298310Y-88227404D01*
X181497825Y-88526000D01*
X181522795Y-88563371D01*
X181677422Y-88936674D01*
X181756250Y-89332968D01*
X181756250Y-89737032D01*
X181677422Y-90133326D01*
X181535482Y-90476000D01*
X181522794Y-90506631D01*
X181298310Y-90842596D01*
X181012596Y-91128310D01*
X180676631Y-91352794D01*
X180676630Y-91352795D01*
X180676629Y-91352795D01*
X180303326Y-91507422D01*
X179907032Y-91586250D01*
X179502968Y-91586250D01*
X179106674Y-91507422D01*
X178733371Y-91352795D01*
X178733370Y-91352795D01*
X178733369Y-91352794D01*
X178397404Y-91128310D01*
X178111690Y-90842596D01*
X177887206Y-90506631D01*
X177874518Y-90476000D01*
X177732578Y-90133326D01*
X177653750Y-89737032D01*
X177653750Y-89332968D01*
X177732578Y-88936674D01*
X177887205Y-88563371D01*
X177912175Y-88526000D01*
X178111690Y-88227404D01*
X178397404Y-87941690D01*
X178733369Y-87717206D01*
X178733371Y-87717205D01*
X179106674Y-87562578D01*
X179502968Y-87483750D01*
X179907032Y-87483750D01*
X180303326Y-87562578D01*
G37*
G36*
X80871905Y-87743789D02*
G01*
X81170350Y-87803153D01*
X81498122Y-87938921D01*
X81793109Y-88136025D01*
X82043975Y-88386891D01*
X82241079Y-88681878D01*
X82376847Y-89009650D01*
X82446060Y-89357611D01*
X82446060Y-89712389D01*
X82376847Y-90060350D01*
X82241079Y-90388122D01*
X82043975Y-90683109D01*
X81793109Y-90933975D01*
X81498122Y-91131079D01*
X81170350Y-91266847D01*
X80883019Y-91324000D01*
X80822390Y-91336060D01*
X80467610Y-91336060D01*
X80406981Y-91324000D01*
X80119650Y-91266847D01*
X79791878Y-91131079D01*
X79496891Y-90933975D01*
X79246025Y-90683109D01*
X79048921Y-90388122D01*
X78913153Y-90060350D01*
X78843940Y-89712389D01*
X78843940Y-89357611D01*
X78913153Y-89009650D01*
X79048921Y-88681878D01*
X79246025Y-88386891D01*
X79496891Y-88136025D01*
X79791878Y-87938921D01*
X80119650Y-87803153D01*
X80418095Y-87743789D01*
X80467610Y-87733940D01*
X80822390Y-87733940D01*
X80871905Y-87743789D01*
G37*
G36*
X161021000Y-91126000D02*
G01*
X159469000Y-91126000D01*
X159469000Y-86674000D01*
X161021000Y-86674000D01*
X161021000Y-91126000D01*
G37*
G36*
X166921000Y-91126000D02*
G01*
X165369000Y-91126000D01*
X165369000Y-86674000D01*
X166921000Y-86674000D01*
X166921000Y-91126000D01*
G37*
G36*
X145471000Y-91071000D02*
G01*
X144719000Y-91071000D01*
X144719000Y-90569000D01*
X145471000Y-90569000D01*
X145471000Y-91071000D01*
G37*
G36*
X143571000Y-91071000D02*
G01*
X142819000Y-91071000D01*
X142819000Y-89269000D01*
X143571000Y-89269000D01*
X143571000Y-91071000D01*
G37*
G36*
X91914059Y-88872860D02*
G01*
X92037341Y-88923925D01*
X92050732Y-88929472D01*
X92173735Y-89011660D01*
X92278340Y-89116265D01*
X92360528Y-89239268D01*
X92360529Y-89239270D01*
X92374915Y-89274000D01*
X92417140Y-89375941D01*
X92446000Y-89521033D01*
X92446000Y-89668967D01*
X92417140Y-89814059D01*
X92360528Y-89950732D01*
X92278340Y-90073735D01*
X92173735Y-90178340D01*
X92050732Y-90260528D01*
X92050731Y-90260529D01*
X92050730Y-90260529D01*
X91914059Y-90317140D01*
X91768968Y-90346000D01*
X91621032Y-90346000D01*
X91475941Y-90317140D01*
X91339270Y-90260529D01*
X91339269Y-90260529D01*
X91339268Y-90260528D01*
X91216265Y-90178340D01*
X91111660Y-90073735D01*
X91029472Y-89950732D01*
X90972860Y-89814059D01*
X90944000Y-89668967D01*
X90944000Y-89521033D01*
X90972860Y-89375941D01*
X91015085Y-89274000D01*
X91029471Y-89239270D01*
X91029472Y-89239268D01*
X91111660Y-89116265D01*
X91216265Y-89011660D01*
X91339268Y-88929472D01*
X91352660Y-88923925D01*
X91475941Y-88872860D01*
X91621032Y-88844000D01*
X91768968Y-88844000D01*
X91914059Y-88872860D01*
G37*
G36*
X112446000Y-90346000D02*
G01*
X110944000Y-90346000D01*
X110944000Y-88844000D01*
X112446000Y-88844000D01*
X112446000Y-90346000D01*
G37*
G36*
X86914059Y-88872860D02*
G01*
X87037341Y-88923925D01*
X87050732Y-88929472D01*
X87173735Y-89011660D01*
X87278340Y-89116265D01*
X87360528Y-89239268D01*
X87360529Y-89239270D01*
X87374915Y-89274000D01*
X87417140Y-89375941D01*
X87446000Y-89521033D01*
X87446000Y-89668967D01*
X87417140Y-89814059D01*
X87360528Y-89950732D01*
X87278340Y-90073735D01*
X87173735Y-90178340D01*
X87050732Y-90260528D01*
X87050731Y-90260529D01*
X87050730Y-90260529D01*
X86914059Y-90317140D01*
X86768968Y-90346000D01*
X86621032Y-90346000D01*
X86475941Y-90317140D01*
X86339270Y-90260529D01*
X86339269Y-90260529D01*
X86339268Y-90260528D01*
X86216265Y-90178340D01*
X86111660Y-90073735D01*
X86029472Y-89950732D01*
X85972860Y-89814059D01*
X85944000Y-89668967D01*
X85944000Y-89521033D01*
X85972860Y-89375941D01*
X86015085Y-89274000D01*
X86029471Y-89239270D01*
X86029472Y-89239268D01*
X86111660Y-89116265D01*
X86216265Y-89011660D01*
X86339268Y-88929472D01*
X86352660Y-88923925D01*
X86475941Y-88872860D01*
X86621032Y-88844000D01*
X86768968Y-88844000D01*
X86914059Y-88872860D01*
G37*
G36*
X145471000Y-89771000D02*
G01*
X144719000Y-89771000D01*
X144719000Y-89269000D01*
X145471000Y-89269000D01*
X145471000Y-89771000D01*
G37*
G36*
X123263674Y-88153465D02*
G01*
X123301367Y-88164899D01*
X123336103Y-88183466D01*
X123366548Y-88208452D01*
X123391534Y-88238897D01*
X123410101Y-88273633D01*
X123421535Y-88311326D01*
X123426000Y-88356661D01*
X123426000Y-89443339D01*
X123421535Y-89488674D01*
X123410101Y-89526367D01*
X123391534Y-89561103D01*
X123366548Y-89591548D01*
X123336103Y-89616534D01*
X123301367Y-89635101D01*
X123263674Y-89646535D01*
X123218339Y-89651000D01*
X122381661Y-89651000D01*
X122336326Y-89646535D01*
X122298633Y-89635101D01*
X122263897Y-89616534D01*
X122233452Y-89591548D01*
X122208466Y-89561103D01*
X122189899Y-89526367D01*
X122178465Y-89488674D01*
X122174000Y-89443339D01*
X122174000Y-88356661D01*
X122178465Y-88311326D01*
X122189899Y-88273633D01*
X122208466Y-88238897D01*
X122233452Y-88208452D01*
X122263897Y-88183466D01*
X122298633Y-88164899D01*
X122336326Y-88153465D01*
X122381661Y-88149000D01*
X123218339Y-88149000D01*
X123263674Y-88153465D01*
G37*
G36*
X120233674Y-88153465D02*
G01*
X120271367Y-88164899D01*
X120306103Y-88183466D01*
X120336548Y-88208452D01*
X120361534Y-88238897D01*
X120380101Y-88273633D01*
X120391535Y-88311326D01*
X120396000Y-88356661D01*
X120396000Y-89443339D01*
X120391535Y-89488674D01*
X120380101Y-89526367D01*
X120361534Y-89561103D01*
X120336548Y-89591548D01*
X120306103Y-89616534D01*
X120271367Y-89635101D01*
X120233674Y-89646535D01*
X120188339Y-89651000D01*
X119351661Y-89651000D01*
X119306326Y-89646535D01*
X119268633Y-89635101D01*
X119233897Y-89616534D01*
X119203452Y-89591548D01*
X119178466Y-89561103D01*
X119159899Y-89526367D01*
X119148465Y-89488674D01*
X119144000Y-89443339D01*
X119144000Y-88356661D01*
X119148465Y-88311326D01*
X119159899Y-88273633D01*
X119178466Y-88238897D01*
X119203452Y-88208452D01*
X119233897Y-88183466D01*
X119268633Y-88164899D01*
X119306326Y-88153465D01*
X119351661Y-88149000D01*
X120188339Y-88149000D01*
X120233674Y-88153465D01*
G37*
G36*
X118183674Y-88153465D02*
G01*
X118221367Y-88164899D01*
X118256103Y-88183466D01*
X118286548Y-88208452D01*
X118311534Y-88238897D01*
X118330101Y-88273633D01*
X118341535Y-88311326D01*
X118346000Y-88356661D01*
X118346000Y-89443339D01*
X118341535Y-89488674D01*
X118330101Y-89526367D01*
X118311534Y-89561103D01*
X118286548Y-89591548D01*
X118256103Y-89616534D01*
X118221367Y-89635101D01*
X118183674Y-89646535D01*
X118138339Y-89651000D01*
X117301661Y-89651000D01*
X117256326Y-89646535D01*
X117218633Y-89635101D01*
X117183897Y-89616534D01*
X117153452Y-89591548D01*
X117128466Y-89561103D01*
X117109899Y-89526367D01*
X117098465Y-89488674D01*
X117094000Y-89443339D01*
X117094000Y-88356661D01*
X117098465Y-88311326D01*
X117109899Y-88273633D01*
X117128466Y-88238897D01*
X117153452Y-88208452D01*
X117183897Y-88183466D01*
X117218633Y-88164899D01*
X117256326Y-88153465D01*
X117301661Y-88149000D01*
X118138339Y-88149000D01*
X118183674Y-88153465D01*
G37*
G36*
X125313674Y-88153465D02*
G01*
X125351367Y-88164899D01*
X125386103Y-88183466D01*
X125416548Y-88208452D01*
X125441534Y-88238897D01*
X125460101Y-88273633D01*
X125471535Y-88311326D01*
X125476000Y-88356661D01*
X125476000Y-89443339D01*
X125471535Y-89488674D01*
X125460101Y-89526367D01*
X125441534Y-89561103D01*
X125416548Y-89591548D01*
X125386103Y-89616534D01*
X125351367Y-89635101D01*
X125313674Y-89646535D01*
X125268339Y-89651000D01*
X124431661Y-89651000D01*
X124386326Y-89646535D01*
X124348633Y-89635101D01*
X124313897Y-89616534D01*
X124283452Y-89591548D01*
X124258466Y-89561103D01*
X124239899Y-89526367D01*
X124228465Y-89488674D01*
X124224000Y-89443339D01*
X124224000Y-88356661D01*
X124228465Y-88311326D01*
X124239899Y-88273633D01*
X124258466Y-88238897D01*
X124283452Y-88208452D01*
X124313897Y-88183466D01*
X124348633Y-88164899D01*
X124386326Y-88153465D01*
X124431661Y-88149000D01*
X125268339Y-88149000D01*
X125313674Y-88153465D01*
G37*
G36*
X132915674Y-87645465D02*
G01*
X132953367Y-87656899D01*
X132988103Y-87675466D01*
X133018548Y-87700452D01*
X133043534Y-87730897D01*
X133062101Y-87765633D01*
X133073535Y-87803326D01*
X133078000Y-87848661D01*
X133078000Y-88935339D01*
X133073535Y-88980674D01*
X133062101Y-89018367D01*
X133043534Y-89053103D01*
X133018548Y-89083548D01*
X132988103Y-89108534D01*
X132953367Y-89127101D01*
X132915674Y-89138535D01*
X132870339Y-89143000D01*
X132033661Y-89143000D01*
X131988326Y-89138535D01*
X131950633Y-89127101D01*
X131915897Y-89108534D01*
X131885452Y-89083548D01*
X131860466Y-89053103D01*
X131841899Y-89018367D01*
X131830465Y-88980674D01*
X131826000Y-88935339D01*
X131826000Y-87848661D01*
X131830465Y-87803326D01*
X131841899Y-87765633D01*
X131860466Y-87730897D01*
X131885452Y-87700452D01*
X131915897Y-87675466D01*
X131950633Y-87656899D01*
X131988326Y-87645465D01*
X132033661Y-87641000D01*
X132870339Y-87641000D01*
X132915674Y-87645465D01*
G37*
G36*
X134965674Y-87645465D02*
G01*
X135003367Y-87656899D01*
X135038103Y-87675466D01*
X135068548Y-87700452D01*
X135093534Y-87730897D01*
X135112101Y-87765633D01*
X135123535Y-87803326D01*
X135128000Y-87848661D01*
X135128000Y-88935339D01*
X135123535Y-88980674D01*
X135112101Y-89018367D01*
X135093534Y-89053103D01*
X135068548Y-89083548D01*
X135038103Y-89108534D01*
X135003367Y-89127101D01*
X134965674Y-89138535D01*
X134920339Y-89143000D01*
X134083661Y-89143000D01*
X134038326Y-89138535D01*
X134000633Y-89127101D01*
X133965897Y-89108534D01*
X133935452Y-89083548D01*
X133910466Y-89053103D01*
X133891899Y-89018367D01*
X133880465Y-88980674D01*
X133876000Y-88935339D01*
X133876000Y-87848661D01*
X133880465Y-87803326D01*
X133891899Y-87765633D01*
X133910466Y-87730897D01*
X133935452Y-87700452D01*
X133965897Y-87675466D01*
X134000633Y-87656899D01*
X134038326Y-87645465D01*
X134083661Y-87641000D01*
X134920339Y-87641000D01*
X134965674Y-87645465D01*
G37*
G36*
X111349549Y-83326116D02*
G01*
X111460734Y-83348232D01*
X111670203Y-83434997D01*
X111858720Y-83560960D01*
X112019040Y-83721280D01*
X112145003Y-83909797D01*
X112231768Y-84119266D01*
X112276000Y-84341636D01*
X112276000Y-84568364D01*
X112231768Y-84790734D01*
X112145003Y-85000203D01*
X112019040Y-85188720D01*
X111858720Y-85349040D01*
X111670203Y-85475003D01*
X111460734Y-85561768D01*
X111349549Y-85583884D01*
X111238365Y-85606000D01*
X111011635Y-85606000D01*
X110900451Y-85583884D01*
X110789266Y-85561768D01*
X110579797Y-85475003D01*
X110391280Y-85349040D01*
X110230960Y-85188720D01*
X110104997Y-85000203D01*
X110018232Y-84790734D01*
X109974000Y-84568364D01*
X109974000Y-84341636D01*
X110018232Y-84119266D01*
X110104997Y-83909797D01*
X110230960Y-83721280D01*
X110391280Y-83560960D01*
X110579797Y-83434997D01*
X110789266Y-83348232D01*
X110900451Y-83326116D01*
X111011635Y-83304000D01*
X111238365Y-83304000D01*
X111349549Y-83326116D01*
G37*
G36*
X102116000Y-85606000D02*
G01*
X99814000Y-85606000D01*
X99814000Y-83304000D01*
X102116000Y-83304000D01*
X102116000Y-85606000D01*
G37*
G36*
X85949549Y-83326116D02*
G01*
X86060734Y-83348232D01*
X86270203Y-83434997D01*
X86458720Y-83560960D01*
X86619040Y-83721280D01*
X86745003Y-83909797D01*
X86831768Y-84119266D01*
X86876000Y-84341636D01*
X86876000Y-84568364D01*
X86831768Y-84790734D01*
X86745003Y-85000203D01*
X86619040Y-85188720D01*
X86458720Y-85349040D01*
X86270203Y-85475003D01*
X86060734Y-85561768D01*
X85949549Y-85583884D01*
X85838365Y-85606000D01*
X85611635Y-85606000D01*
X85500451Y-85583884D01*
X85389266Y-85561768D01*
X85179797Y-85475003D01*
X84991280Y-85349040D01*
X84830960Y-85188720D01*
X84704997Y-85000203D01*
X84618232Y-84790734D01*
X84574000Y-84568364D01*
X84574000Y-84341636D01*
X84618232Y-84119266D01*
X84704997Y-83909797D01*
X84830960Y-83721280D01*
X84991280Y-83560960D01*
X85179797Y-83434997D01*
X85389266Y-83348232D01*
X85500451Y-83326116D01*
X85611635Y-83304000D01*
X85838365Y-83304000D01*
X85949549Y-83326116D01*
G37*
G36*
X97036000Y-85606000D02*
G01*
X94734000Y-85606000D01*
X94734000Y-83304000D01*
X97036000Y-83304000D01*
X97036000Y-85606000D01*
G37*
G36*
X165173674Y-83073465D02*
G01*
X165211367Y-83084899D01*
X165246103Y-83103466D01*
X165276548Y-83128452D01*
X165301534Y-83158897D01*
X165320101Y-83193633D01*
X165331535Y-83231326D01*
X165336000Y-83276661D01*
X165336000Y-84363339D01*
X165331535Y-84408674D01*
X165320101Y-84446367D01*
X165301534Y-84481103D01*
X165276548Y-84511548D01*
X165246103Y-84536534D01*
X165211367Y-84555101D01*
X165173674Y-84566535D01*
X165128339Y-84571000D01*
X164291661Y-84571000D01*
X164246326Y-84566535D01*
X164208633Y-84555101D01*
X164173897Y-84536534D01*
X164143452Y-84511548D01*
X164118466Y-84481103D01*
X164099899Y-84446367D01*
X164088465Y-84408674D01*
X164084000Y-84363339D01*
X164084000Y-83276661D01*
X164088465Y-83231326D01*
X164099899Y-83193633D01*
X164118466Y-83158897D01*
X164143452Y-83128452D01*
X164173897Y-83103466D01*
X164208633Y-83084899D01*
X164246326Y-83073465D01*
X164291661Y-83069000D01*
X165128339Y-83069000D01*
X165173674Y-83073465D01*
G37*
G36*
X162778674Y-83073465D02*
G01*
X162816367Y-83084899D01*
X162851103Y-83103466D01*
X162881548Y-83128452D01*
X162906534Y-83158897D01*
X162925101Y-83193633D01*
X162936535Y-83231326D01*
X162941000Y-83276661D01*
X162941000Y-84363339D01*
X162936535Y-84408674D01*
X162925101Y-84446367D01*
X162906534Y-84481103D01*
X162881548Y-84511548D01*
X162851103Y-84536534D01*
X162816367Y-84555101D01*
X162778674Y-84566535D01*
X162733339Y-84571000D01*
X161896661Y-84571000D01*
X161851326Y-84566535D01*
X161813633Y-84555101D01*
X161778897Y-84536534D01*
X161748452Y-84511548D01*
X161723466Y-84481103D01*
X161704899Y-84446367D01*
X161693465Y-84408674D01*
X161689000Y-84363339D01*
X161689000Y-83276661D01*
X161693465Y-83231326D01*
X161704899Y-83193633D01*
X161723466Y-83158897D01*
X161748452Y-83128452D01*
X161778897Y-83103466D01*
X161813633Y-83084899D01*
X161851326Y-83073465D01*
X161896661Y-83069000D01*
X162733339Y-83069000D01*
X162778674Y-83073465D01*
G37*
G36*
X167223674Y-83073465D02*
G01*
X167261367Y-83084899D01*
X167296103Y-83103466D01*
X167326548Y-83128452D01*
X167351534Y-83158897D01*
X167370101Y-83193633D01*
X167381535Y-83231326D01*
X167386000Y-83276661D01*
X167386000Y-84363339D01*
X167381535Y-84408674D01*
X167370101Y-84446367D01*
X167351534Y-84481103D01*
X167326548Y-84511548D01*
X167296103Y-84536534D01*
X167261367Y-84555101D01*
X167223674Y-84566535D01*
X167178339Y-84571000D01*
X166341661Y-84571000D01*
X166296326Y-84566535D01*
X166258633Y-84555101D01*
X166223897Y-84536534D01*
X166193452Y-84511548D01*
X166168466Y-84481103D01*
X166149899Y-84446367D01*
X166138465Y-84408674D01*
X166134000Y-84363339D01*
X166134000Y-83276661D01*
X166138465Y-83231326D01*
X166149899Y-83193633D01*
X166168466Y-83158897D01*
X166193452Y-83128452D01*
X166223897Y-83103466D01*
X166258633Y-83084899D01*
X166296326Y-83073465D01*
X166341661Y-83069000D01*
X167178339Y-83069000D01*
X167223674Y-83073465D01*
G37*
G36*
X160728674Y-83073465D02*
G01*
X160766367Y-83084899D01*
X160801103Y-83103466D01*
X160831548Y-83128452D01*
X160856534Y-83158897D01*
X160875101Y-83193633D01*
X160886535Y-83231326D01*
X160891000Y-83276661D01*
X160891000Y-84363339D01*
X160886535Y-84408674D01*
X160875101Y-84446367D01*
X160856534Y-84481103D01*
X160831548Y-84511548D01*
X160801103Y-84536534D01*
X160766367Y-84555101D01*
X160728674Y-84566535D01*
X160683339Y-84571000D01*
X159846661Y-84571000D01*
X159801326Y-84566535D01*
X159763633Y-84555101D01*
X159728897Y-84536534D01*
X159698452Y-84511548D01*
X159673466Y-84481103D01*
X159654899Y-84446367D01*
X159643465Y-84408674D01*
X159639000Y-84363339D01*
X159639000Y-83276661D01*
X159643465Y-83231326D01*
X159654899Y-83193633D01*
X159673466Y-83158897D01*
X159698452Y-83128452D01*
X159728897Y-83103466D01*
X159763633Y-83084899D01*
X159801326Y-83073465D01*
X159846661Y-83069000D01*
X160683339Y-83069000D01*
X160728674Y-83073465D01*
G37*
G36*
X124824903Y-80592075D02*
G01*
X125040269Y-80681282D01*
X125052571Y-80686378D01*
X125257466Y-80823285D01*
X125431715Y-80997534D01*
X125568622Y-81202429D01*
X125662925Y-81430097D01*
X125711000Y-81671787D01*
X125711000Y-81918213D01*
X125662925Y-82159903D01*
X125568622Y-82387571D01*
X125431715Y-82592466D01*
X125257466Y-82766715D01*
X125052571Y-82903622D01*
X125052570Y-82903623D01*
X125052569Y-82903623D01*
X124824903Y-82997925D01*
X124583214Y-83046000D01*
X124336786Y-83046000D01*
X124095097Y-82997925D01*
X123867431Y-82903623D01*
X123867430Y-82903623D01*
X123867429Y-82903622D01*
X123662534Y-82766715D01*
X123488285Y-82592466D01*
X123351378Y-82387571D01*
X123257075Y-82159903D01*
X123209000Y-81918213D01*
X123209000Y-81671787D01*
X123257075Y-81430097D01*
X123351378Y-81202429D01*
X123488285Y-80997534D01*
X123662534Y-80823285D01*
X123867429Y-80686378D01*
X123879732Y-80681282D01*
X124095097Y-80592075D01*
X124336786Y-80544000D01*
X124583214Y-80544000D01*
X124824903Y-80592075D01*
G37*
G36*
X160728674Y-79263465D02*
G01*
X160766367Y-79274899D01*
X160801103Y-79293466D01*
X160831548Y-79318452D01*
X160856534Y-79348897D01*
X160875101Y-79383633D01*
X160886535Y-79421326D01*
X160891000Y-79466661D01*
X160891000Y-80553339D01*
X160886535Y-80598674D01*
X160875101Y-80636367D01*
X160856534Y-80671103D01*
X160831548Y-80701548D01*
X160801103Y-80726534D01*
X160766367Y-80745101D01*
X160728674Y-80756535D01*
X160683339Y-80761000D01*
X159846661Y-80761000D01*
X159801326Y-80756535D01*
X159763633Y-80745101D01*
X159728897Y-80726534D01*
X159698452Y-80701548D01*
X159673466Y-80671103D01*
X159654899Y-80636367D01*
X159643465Y-80598674D01*
X159639000Y-80553339D01*
X159639000Y-79466661D01*
X159643465Y-79421326D01*
X159654899Y-79383633D01*
X159673466Y-79348897D01*
X159698452Y-79318452D01*
X159728897Y-79293466D01*
X159763633Y-79274899D01*
X159801326Y-79263465D01*
X159846661Y-79259000D01*
X160683339Y-79259000D01*
X160728674Y-79263465D01*
G37*
G36*
X165173674Y-79263465D02*
G01*
X165211367Y-79274899D01*
X165246103Y-79293466D01*
X165276548Y-79318452D01*
X165301534Y-79348897D01*
X165320101Y-79383633D01*
X165331535Y-79421326D01*
X165336000Y-79466661D01*
X165336000Y-80553339D01*
X165331535Y-80598674D01*
X165320101Y-80636367D01*
X165301534Y-80671103D01*
X165276548Y-80701548D01*
X165246103Y-80726534D01*
X165211367Y-80745101D01*
X165173674Y-80756535D01*
X165128339Y-80761000D01*
X164291661Y-80761000D01*
X164246326Y-80756535D01*
X164208633Y-80745101D01*
X164173897Y-80726534D01*
X164143452Y-80701548D01*
X164118466Y-80671103D01*
X164099899Y-80636367D01*
X164088465Y-80598674D01*
X164084000Y-80553339D01*
X164084000Y-79466661D01*
X164088465Y-79421326D01*
X164099899Y-79383633D01*
X164118466Y-79348897D01*
X164143452Y-79318452D01*
X164173897Y-79293466D01*
X164208633Y-79274899D01*
X164246326Y-79263465D01*
X164291661Y-79259000D01*
X165128339Y-79259000D01*
X165173674Y-79263465D01*
G37*
G36*
X167223674Y-79263465D02*
G01*
X167261367Y-79274899D01*
X167296103Y-79293466D01*
X167326548Y-79318452D01*
X167351534Y-79348897D01*
X167370101Y-79383633D01*
X167381535Y-79421326D01*
X167386000Y-79466661D01*
X167386000Y-80553339D01*
X167381535Y-80598674D01*
X167370101Y-80636367D01*
X167351534Y-80671103D01*
X167326548Y-80701548D01*
X167296103Y-80726534D01*
X167261367Y-80745101D01*
X167223674Y-80756535D01*
X167178339Y-80761000D01*
X166341661Y-80761000D01*
X166296326Y-80756535D01*
X166258633Y-80745101D01*
X166223897Y-80726534D01*
X166193452Y-80701548D01*
X166168466Y-80671103D01*
X166149899Y-80636367D01*
X166138465Y-80598674D01*
X166134000Y-80553339D01*
X166134000Y-79466661D01*
X166138465Y-79421326D01*
X166149899Y-79383633D01*
X166168466Y-79348897D01*
X166193452Y-79318452D01*
X166223897Y-79293466D01*
X166258633Y-79274899D01*
X166296326Y-79263465D01*
X166341661Y-79259000D01*
X167178339Y-79259000D01*
X167223674Y-79263465D01*
G37*
G36*
X162778674Y-79263465D02*
G01*
X162816367Y-79274899D01*
X162851103Y-79293466D01*
X162881548Y-79318452D01*
X162906534Y-79348897D01*
X162925101Y-79383633D01*
X162936535Y-79421326D01*
X162941000Y-79466661D01*
X162941000Y-80553339D01*
X162936535Y-80598674D01*
X162925101Y-80636367D01*
X162906534Y-80671103D01*
X162881548Y-80701548D01*
X162851103Y-80726534D01*
X162816367Y-80745101D01*
X162778674Y-80756535D01*
X162733339Y-80761000D01*
X161896661Y-80761000D01*
X161851326Y-80756535D01*
X161813633Y-80745101D01*
X161778897Y-80726534D01*
X161748452Y-80701548D01*
X161723466Y-80671103D01*
X161704899Y-80636367D01*
X161693465Y-80598674D01*
X161689000Y-80553339D01*
X161689000Y-79466661D01*
X161693465Y-79421326D01*
X161704899Y-79383633D01*
X161723466Y-79348897D01*
X161748452Y-79318452D01*
X161778897Y-79293466D01*
X161813633Y-79274899D01*
X161851326Y-79263465D01*
X161896661Y-79259000D01*
X162733339Y-79259000D01*
X162778674Y-79263465D01*
G37*
G36*
X81243326Y-76132578D02*
G01*
X81616472Y-76287140D01*
X81616631Y-76287206D01*
X81952596Y-76511690D01*
X82238310Y-76797404D01*
X82462794Y-77133369D01*
X82462795Y-77133371D01*
X82617422Y-77506674D01*
X82696250Y-77902968D01*
X82696250Y-78307032D01*
X82617422Y-78703326D01*
X82462795Y-79076629D01*
X82462794Y-79076631D01*
X82238310Y-79412596D01*
X81952596Y-79698310D01*
X81616631Y-79922794D01*
X81616630Y-79922795D01*
X81616629Y-79922795D01*
X81243326Y-80077422D01*
X80847032Y-80156250D01*
X80442968Y-80156250D01*
X80046674Y-80077422D01*
X79673371Y-79922795D01*
X79673370Y-79922795D01*
X79673369Y-79922794D01*
X79337404Y-79698310D01*
X79051690Y-79412596D01*
X78827206Y-79076631D01*
X78827205Y-79076629D01*
X78672578Y-78703326D01*
X78593750Y-78307032D01*
X78593750Y-77902968D01*
X78672578Y-77506674D01*
X78827205Y-77133371D01*
X78827206Y-77133369D01*
X79051690Y-76797404D01*
X79337404Y-76511690D01*
X79673369Y-76287206D01*
X79673528Y-76287140D01*
X80046674Y-76132578D01*
X80442968Y-76053750D01*
X80847032Y-76053750D01*
X81243326Y-76132578D01*
G37*
G36*
X86914059Y-78592860D02*
G01*
X87050732Y-78649472D01*
X87173735Y-78731660D01*
X87278340Y-78836265D01*
X87360528Y-78959268D01*
X87417140Y-79095941D01*
X87446000Y-79241033D01*
X87446000Y-79388967D01*
X87417140Y-79534059D01*
X87360528Y-79670732D01*
X87278340Y-79793735D01*
X87173735Y-79898340D01*
X87050732Y-79980528D01*
X87050731Y-79980529D01*
X87050730Y-79980529D01*
X86914059Y-80037140D01*
X86768968Y-80066000D01*
X86621032Y-80066000D01*
X86475941Y-80037140D01*
X86339270Y-79980529D01*
X86339269Y-79980529D01*
X86339268Y-79980528D01*
X86216265Y-79898340D01*
X86111660Y-79793735D01*
X86029472Y-79670732D01*
X85972860Y-79534059D01*
X85944000Y-79388967D01*
X85944000Y-79241033D01*
X85972860Y-79095941D01*
X86029472Y-78959268D01*
X86111660Y-78836265D01*
X86216265Y-78731660D01*
X86339268Y-78649472D01*
X86475941Y-78592860D01*
X86621032Y-78564000D01*
X86768968Y-78564000D01*
X86914059Y-78592860D01*
G37*
G36*
X91914059Y-78592860D02*
G01*
X92050732Y-78649472D01*
X92173735Y-78731660D01*
X92278340Y-78836265D01*
X92360528Y-78959268D01*
X92417140Y-79095941D01*
X92446000Y-79241033D01*
X92446000Y-79388967D01*
X92417140Y-79534059D01*
X92360528Y-79670732D01*
X92278340Y-79793735D01*
X92173735Y-79898340D01*
X92050732Y-79980528D01*
X92050731Y-79980529D01*
X92050730Y-79980529D01*
X91914059Y-80037140D01*
X91768968Y-80066000D01*
X91621032Y-80066000D01*
X91475941Y-80037140D01*
X91339270Y-79980529D01*
X91339269Y-79980529D01*
X91339268Y-79980528D01*
X91216265Y-79898340D01*
X91111660Y-79793735D01*
X91029472Y-79670732D01*
X90972860Y-79534059D01*
X90944000Y-79388967D01*
X90944000Y-79241033D01*
X90972860Y-79095941D01*
X91029472Y-78959268D01*
X91111660Y-78836265D01*
X91216265Y-78731660D01*
X91339268Y-78649472D01*
X91475941Y-78592860D01*
X91621032Y-78564000D01*
X91768968Y-78564000D01*
X91914059Y-78592860D01*
G37*
G36*
X111914059Y-78592860D02*
G01*
X112050732Y-78649472D01*
X112173735Y-78731660D01*
X112278340Y-78836265D01*
X112360528Y-78959268D01*
X112417140Y-79095941D01*
X112446000Y-79241033D01*
X112446000Y-79388967D01*
X112417140Y-79534059D01*
X112360528Y-79670732D01*
X112278340Y-79793735D01*
X112173735Y-79898340D01*
X112050732Y-79980528D01*
X112050731Y-79980529D01*
X112050730Y-79980529D01*
X111914059Y-80037140D01*
X111768968Y-80066000D01*
X111621032Y-80066000D01*
X111475941Y-80037140D01*
X111339270Y-79980529D01*
X111339269Y-79980529D01*
X111339268Y-79980528D01*
X111216265Y-79898340D01*
X111111660Y-79793735D01*
X111029472Y-79670732D01*
X110972860Y-79534059D01*
X110944000Y-79388967D01*
X110944000Y-79241033D01*
X110972860Y-79095941D01*
X111029472Y-78959268D01*
X111111660Y-78836265D01*
X111216265Y-78731660D01*
X111339268Y-78649472D01*
X111475941Y-78592860D01*
X111621032Y-78564000D01*
X111768968Y-78564000D01*
X111914059Y-78592860D01*
G37*
G36*
X111914059Y-74842860D02*
G01*
X112050732Y-74899472D01*
X112173735Y-74981660D01*
X112278340Y-75086265D01*
X112360528Y-75209268D01*
X112417140Y-75345941D01*
X112446000Y-75491033D01*
X112446000Y-75638967D01*
X112417140Y-75784059D01*
X112360528Y-75920732D01*
X112278340Y-76043735D01*
X112173735Y-76148340D01*
X112050732Y-76230528D01*
X112050731Y-76230529D01*
X112050730Y-76230529D01*
X111914059Y-76287140D01*
X111768968Y-76316000D01*
X111621032Y-76316000D01*
X111475941Y-76287140D01*
X111339270Y-76230529D01*
X111339269Y-76230529D01*
X111339268Y-76230528D01*
X111216265Y-76148340D01*
X111111660Y-76043735D01*
X111029472Y-75920732D01*
X110972860Y-75784059D01*
X110944000Y-75638967D01*
X110944000Y-75491033D01*
X110972860Y-75345941D01*
X111029472Y-75209268D01*
X111111660Y-75086265D01*
X111216265Y-74981660D01*
X111339268Y-74899472D01*
X111475941Y-74842860D01*
X111621032Y-74814000D01*
X111768968Y-74814000D01*
X111914059Y-74842860D01*
G37*
G36*
X125711000Y-75546000D02*
G01*
X123209000Y-75546000D01*
X123209000Y-73044000D01*
X125711000Y-73044000D01*
X125711000Y-75546000D01*
G37*
G36*
X81243326Y-69782578D02*
G01*
X81243329Y-69782579D01*
X81243328Y-69782579D01*
X81616631Y-69937206D01*
X81952596Y-70161690D01*
X82238310Y-70447404D01*
X82462794Y-70783369D01*
X82462795Y-70783371D01*
X82617422Y-71156674D01*
X82696250Y-71552968D01*
X82696250Y-71957032D01*
X82617422Y-72353326D01*
X82499412Y-72638228D01*
X82462794Y-72726631D01*
X82238310Y-73062596D01*
X81952596Y-73348310D01*
X81616631Y-73572794D01*
X81616630Y-73572795D01*
X81616629Y-73572795D01*
X81243326Y-73727422D01*
X80847032Y-73806250D01*
X80442968Y-73806250D01*
X80046674Y-73727422D01*
X79673371Y-73572795D01*
X79673370Y-73572795D01*
X79673369Y-73572794D01*
X79337404Y-73348310D01*
X79051690Y-73062596D01*
X78827206Y-72726631D01*
X78790588Y-72638228D01*
X78672578Y-72353326D01*
X78593750Y-71957032D01*
X78593750Y-71552968D01*
X78672578Y-71156674D01*
X78827205Y-70783371D01*
X78827206Y-70783369D01*
X79051690Y-70447404D01*
X79337404Y-70161690D01*
X79673369Y-69937206D01*
X80046672Y-69782579D01*
X80046671Y-69782579D01*
X80046674Y-69782578D01*
X80442968Y-69703750D01*
X80847032Y-69703750D01*
X81243326Y-69782578D01*
G37*
G36*
X162776000Y-73241000D02*
G01*
X161074000Y-73241000D01*
X161074000Y-71539000D01*
X162776000Y-71539000D01*
X162776000Y-73241000D01*
G37*
G36*
X164673228Y-71571703D02*
G01*
X164828100Y-71635853D01*
X164967481Y-71728985D01*
X165086015Y-71847519D01*
X165179147Y-71986900D01*
X165243297Y-72141772D01*
X165276000Y-72306184D01*
X165276000Y-72473816D01*
X165243297Y-72638228D01*
X165179147Y-72793100D01*
X165086015Y-72932481D01*
X164967481Y-73051015D01*
X164828100Y-73144147D01*
X164673228Y-73208297D01*
X164508816Y-73241000D01*
X164341184Y-73241000D01*
X164176772Y-73208297D01*
X164021900Y-73144147D01*
X163882519Y-73051015D01*
X163763985Y-72932481D01*
X163670853Y-72793100D01*
X163606703Y-72638228D01*
X163574000Y-72473816D01*
X163574000Y-72306184D01*
X163606703Y-72141772D01*
X163670853Y-71986900D01*
X163763985Y-71847519D01*
X163882519Y-71728985D01*
X164021900Y-71635853D01*
X164176772Y-71571703D01*
X164341184Y-71539000D01*
X164508816Y-71539000D01*
X164673228Y-71571703D01*
G37*
G36*
X91914059Y-71092860D02*
G01*
X92050732Y-71149472D01*
X92173735Y-71231660D01*
X92278340Y-71336265D01*
X92360528Y-71459268D01*
X92417140Y-71595941D01*
X92446000Y-71741033D01*
X92446000Y-71888967D01*
X92417140Y-72034059D01*
X92360528Y-72170732D01*
X92278340Y-72293735D01*
X92173735Y-72398340D01*
X92050732Y-72480528D01*
X92050731Y-72480529D01*
X92050730Y-72480529D01*
X91914059Y-72537140D01*
X91768968Y-72566000D01*
X91621032Y-72566000D01*
X91475941Y-72537140D01*
X91339270Y-72480529D01*
X91339269Y-72480529D01*
X91339268Y-72480528D01*
X91216265Y-72398340D01*
X91111660Y-72293735D01*
X91029472Y-72170732D01*
X90972860Y-72034059D01*
X90944000Y-71888967D01*
X90944000Y-71741033D01*
X90972860Y-71595941D01*
X91029472Y-71459268D01*
X91111660Y-71336265D01*
X91216265Y-71231660D01*
X91339268Y-71149472D01*
X91475941Y-71092860D01*
X91621032Y-71064000D01*
X91768968Y-71064000D01*
X91914059Y-71092860D01*
G37*
G36*
X86914059Y-71092860D02*
G01*
X87050732Y-71149472D01*
X87173735Y-71231660D01*
X87278340Y-71336265D01*
X87360528Y-71459268D01*
X87417140Y-71595941D01*
X87446000Y-71741033D01*
X87446000Y-71888967D01*
X87417140Y-72034059D01*
X87360528Y-72170732D01*
X87278340Y-72293735D01*
X87173735Y-72398340D01*
X87050732Y-72480528D01*
X87050731Y-72480529D01*
X87050730Y-72480529D01*
X86914059Y-72537140D01*
X86768968Y-72566000D01*
X86621032Y-72566000D01*
X86475941Y-72537140D01*
X86339270Y-72480529D01*
X86339269Y-72480529D01*
X86339268Y-72480528D01*
X86216265Y-72398340D01*
X86111660Y-72293735D01*
X86029472Y-72170732D01*
X85972860Y-72034059D01*
X85944000Y-71888967D01*
X85944000Y-71741033D01*
X85972860Y-71595941D01*
X86029472Y-71459268D01*
X86111660Y-71336265D01*
X86216265Y-71231660D01*
X86339268Y-71149472D01*
X86475941Y-71092860D01*
X86621032Y-71064000D01*
X86768968Y-71064000D01*
X86914059Y-71092860D01*
G37*
G36*
X112446000Y-72566000D02*
G01*
X110944000Y-72566000D01*
X110944000Y-71064000D01*
X112446000Y-71064000D01*
X112446000Y-72566000D01*
G37*
G36*
X137123326Y-62162578D02*
G01*
X137123329Y-62162579D01*
X137123328Y-62162579D01*
X137496631Y-62317206D01*
X137832596Y-62541690D01*
X138118310Y-62827404D01*
X138224876Y-62986892D01*
X138342795Y-63163371D01*
X138497422Y-63536674D01*
X138576250Y-63932968D01*
X138576250Y-64337032D01*
X138497422Y-64733326D01*
X138497421Y-64733328D01*
X138342794Y-65106631D01*
X138118310Y-65442596D01*
X137832596Y-65728310D01*
X137496631Y-65952794D01*
X137496630Y-65952795D01*
X137496629Y-65952795D01*
X137123326Y-66107422D01*
X136727032Y-66186250D01*
X136322968Y-66186250D01*
X135926674Y-66107422D01*
X135553371Y-65952795D01*
X135553370Y-65952795D01*
X135553369Y-65952794D01*
X135217404Y-65728310D01*
X134931690Y-65442596D01*
X134707206Y-65106631D01*
X134552579Y-64733328D01*
X134552578Y-64733326D01*
X134473750Y-64337032D01*
X134473750Y-63932968D01*
X134552578Y-63536674D01*
X134707205Y-63163371D01*
X134825124Y-62986892D01*
X134931690Y-62827404D01*
X135217404Y-62541690D01*
X135553369Y-62317206D01*
X135926672Y-62162579D01*
X135926671Y-62162579D01*
X135926674Y-62162578D01*
X136322968Y-62083750D01*
X136727032Y-62083750D01*
X137123326Y-62162578D01*
G37*
G36*
X105556250Y-66186250D02*
G01*
X101453750Y-66186250D01*
X101453750Y-62083750D01*
X105556250Y-62083750D01*
X105556250Y-66186250D01*
G37*
G36*
X91403326Y-62162578D02*
G01*
X91403329Y-62162579D01*
X91403328Y-62162579D01*
X91776631Y-62317206D01*
X92112596Y-62541690D01*
X92398310Y-62827404D01*
X92504876Y-62986892D01*
X92622795Y-63163371D01*
X92777422Y-63536674D01*
X92856250Y-63932968D01*
X92856250Y-64337032D01*
X92777422Y-64733326D01*
X92777421Y-64733328D01*
X92622794Y-65106631D01*
X92398310Y-65442596D01*
X92112596Y-65728310D01*
X91776631Y-65952794D01*
X91776630Y-65952795D01*
X91776629Y-65952795D01*
X91403326Y-66107422D01*
X91007032Y-66186250D01*
X90602968Y-66186250D01*
X90206674Y-66107422D01*
X89833371Y-65952795D01*
X89833370Y-65952795D01*
X89833369Y-65952794D01*
X89497404Y-65728310D01*
X89211690Y-65442596D01*
X88987206Y-65106631D01*
X88832579Y-64733328D01*
X88832578Y-64733326D01*
X88753750Y-64337032D01*
X88753750Y-63932968D01*
X88832578Y-63536674D01*
X88987205Y-63163371D01*
X89105124Y-62986892D01*
X89211690Y-62827404D01*
X89497404Y-62541690D01*
X89833369Y-62317206D01*
X90206672Y-62162579D01*
X90206671Y-62162579D01*
X90206674Y-62162578D01*
X90602968Y-62083750D01*
X91007032Y-62083750D01*
X91403326Y-62162578D01*
G37*
G36*
X86323326Y-62162578D02*
G01*
X86323329Y-62162579D01*
X86323328Y-62162579D01*
X86696631Y-62317206D01*
X87032596Y-62541690D01*
X87318310Y-62827404D01*
X87424876Y-62986892D01*
X87542795Y-63163371D01*
X87697422Y-63536674D01*
X87776250Y-63932968D01*
X87776250Y-64337032D01*
X87697422Y-64733326D01*
X87697421Y-64733328D01*
X87542794Y-65106631D01*
X87318310Y-65442596D01*
X87032596Y-65728310D01*
X86696631Y-65952794D01*
X86696630Y-65952795D01*
X86696629Y-65952795D01*
X86323326Y-66107422D01*
X85927032Y-66186250D01*
X85522968Y-66186250D01*
X85126674Y-66107422D01*
X84753371Y-65952795D01*
X84753370Y-65952795D01*
X84753369Y-65952794D01*
X84417404Y-65728310D01*
X84131690Y-65442596D01*
X83907206Y-65106631D01*
X83752579Y-64733328D01*
X83752578Y-64733326D01*
X83673750Y-64337032D01*
X83673750Y-63932968D01*
X83752578Y-63536674D01*
X83907205Y-63163371D01*
X84025124Y-62986892D01*
X84131690Y-62827404D01*
X84417404Y-62541690D01*
X84753369Y-62317206D01*
X85126672Y-62162579D01*
X85126671Y-62162579D01*
X85126674Y-62162578D01*
X85522968Y-62083750D01*
X85927032Y-62083750D01*
X86323326Y-62162578D01*
G37*
G36*
X82696250Y-66186250D02*
G01*
X78593750Y-66186250D01*
X78593750Y-62083750D01*
X82696250Y-62083750D01*
X82696250Y-66186250D01*
G37*
G36*
X96483326Y-62162578D02*
G01*
X96483329Y-62162579D01*
X96483328Y-62162579D01*
X96856631Y-62317206D01*
X97192596Y-62541690D01*
X97478310Y-62827404D01*
X97584876Y-62986892D01*
X97702795Y-63163371D01*
X97857422Y-63536674D01*
X97936250Y-63932968D01*
X97936250Y-64337032D01*
X97857422Y-64733326D01*
X97857421Y-64733328D01*
X97702794Y-65106631D01*
X97478310Y-65442596D01*
X97192596Y-65728310D01*
X96856631Y-65952794D01*
X96856630Y-65952795D01*
X96856629Y-65952795D01*
X96483326Y-66107422D01*
X96087032Y-66186250D01*
X95682968Y-66186250D01*
X95286674Y-66107422D01*
X94913371Y-65952795D01*
X94913370Y-65952795D01*
X94913369Y-65952794D01*
X94577404Y-65728310D01*
X94291690Y-65442596D01*
X94067206Y-65106631D01*
X93912579Y-64733328D01*
X93912578Y-64733326D01*
X93833750Y-64337032D01*
X93833750Y-63932968D01*
X93912578Y-63536674D01*
X94067205Y-63163371D01*
X94185124Y-62986892D01*
X94291690Y-62827404D01*
X94577404Y-62541690D01*
X94913369Y-62317206D01*
X95286672Y-62162579D01*
X95286671Y-62162579D01*
X95286674Y-62162578D01*
X95682968Y-62083750D01*
X96087032Y-62083750D01*
X96483326Y-62162578D01*
G37*
G36*
X180303326Y-62162578D02*
G01*
X180303329Y-62162579D01*
X180303328Y-62162579D01*
X180676631Y-62317206D01*
X181012596Y-62541690D01*
X181298310Y-62827404D01*
X181404876Y-62986892D01*
X181522795Y-63163371D01*
X181677422Y-63536674D01*
X181756250Y-63932968D01*
X181756250Y-64337032D01*
X181677422Y-64733326D01*
X181677421Y-64733328D01*
X181522794Y-65106631D01*
X181298310Y-65442596D01*
X181012596Y-65728310D01*
X180676631Y-65952794D01*
X180676630Y-65952795D01*
X180676629Y-65952795D01*
X180303326Y-66107422D01*
X179907032Y-66186250D01*
X179502968Y-66186250D01*
X179106674Y-66107422D01*
X178733371Y-65952795D01*
X178733370Y-65952795D01*
X178733369Y-65952794D01*
X178397404Y-65728310D01*
X178111690Y-65442596D01*
X177887206Y-65106631D01*
X177732579Y-64733328D01*
X177732578Y-64733326D01*
X177653750Y-64337032D01*
X177653750Y-63932968D01*
X177732578Y-63536674D01*
X177887205Y-63163371D01*
X178005124Y-62986892D01*
X178111690Y-62827404D01*
X178397404Y-62541690D01*
X178733369Y-62317206D01*
X179106672Y-62162579D01*
X179106671Y-62162579D01*
X179106674Y-62162578D01*
X179502968Y-62083750D01*
X179907032Y-62083750D01*
X180303326Y-62162578D01*
G37*
G36*
X175223326Y-62162578D02*
G01*
X175223329Y-62162579D01*
X175223328Y-62162579D01*
X175596631Y-62317206D01*
X175932596Y-62541690D01*
X176218310Y-62827404D01*
X176324876Y-62986892D01*
X176442795Y-63163371D01*
X176597422Y-63536674D01*
X176676250Y-63932968D01*
X176676250Y-64337032D01*
X176597422Y-64733326D01*
X176597421Y-64733328D01*
X176442794Y-65106631D01*
X176218310Y-65442596D01*
X175932596Y-65728310D01*
X175596631Y-65952794D01*
X175596630Y-65952795D01*
X175596629Y-65952795D01*
X175223326Y-66107422D01*
X174827032Y-66186250D01*
X174422968Y-66186250D01*
X174026674Y-66107422D01*
X173653371Y-65952795D01*
X173653370Y-65952795D01*
X173653369Y-65952794D01*
X173317404Y-65728310D01*
X173031690Y-65442596D01*
X172807206Y-65106631D01*
X172652579Y-64733328D01*
X172652578Y-64733326D01*
X172573750Y-64337032D01*
X172573750Y-63932968D01*
X172652578Y-63536674D01*
X172807205Y-63163371D01*
X172925124Y-62986892D01*
X173031690Y-62827404D01*
X173317404Y-62541690D01*
X173653369Y-62317206D01*
X174026672Y-62162579D01*
X174026671Y-62162579D01*
X174026674Y-62162578D01*
X174422968Y-62083750D01*
X174827032Y-62083750D01*
X175223326Y-62162578D01*
G37*
G36*
X170143326Y-62162578D02*
G01*
X170143329Y-62162579D01*
X170143328Y-62162579D01*
X170516631Y-62317206D01*
X170852596Y-62541690D01*
X171138310Y-62827404D01*
X171244876Y-62986892D01*
X171362795Y-63163371D01*
X171517422Y-63536674D01*
X171596250Y-63932968D01*
X171596250Y-64337032D01*
X171517422Y-64733326D01*
X171517421Y-64733328D01*
X171362794Y-65106631D01*
X171138310Y-65442596D01*
X170852596Y-65728310D01*
X170516631Y-65952794D01*
X170516630Y-65952795D01*
X170516629Y-65952795D01*
X170143326Y-66107422D01*
X169747032Y-66186250D01*
X169342968Y-66186250D01*
X168946674Y-66107422D01*
X168573371Y-65952795D01*
X168573370Y-65952795D01*
X168573369Y-65952794D01*
X168237404Y-65728310D01*
X167951690Y-65442596D01*
X167727206Y-65106631D01*
X167572579Y-64733328D01*
X167572578Y-64733326D01*
X167493750Y-64337032D01*
X167493750Y-63932968D01*
X167572578Y-63536674D01*
X167727205Y-63163371D01*
X167845124Y-62986892D01*
X167951690Y-62827404D01*
X168237404Y-62541690D01*
X168573369Y-62317206D01*
X168946672Y-62162579D01*
X168946671Y-62162579D01*
X168946674Y-62162578D01*
X169342968Y-62083750D01*
X169747032Y-62083750D01*
X170143326Y-62162578D01*
G37*
G36*
X166516250Y-66186250D02*
G01*
X162413750Y-66186250D01*
X162413750Y-62083750D01*
X166516250Y-62083750D01*
X166516250Y-66186250D01*
G37*
G36*
X142203326Y-62162578D02*
G01*
X142203329Y-62162579D01*
X142203328Y-62162579D01*
X142576631Y-62317206D01*
X142912596Y-62541690D01*
X143198310Y-62827404D01*
X143304876Y-62986892D01*
X143422795Y-63163371D01*
X143577422Y-63536674D01*
X143656250Y-63932968D01*
X143656250Y-64337032D01*
X143577422Y-64733326D01*
X143577421Y-64733328D01*
X143422794Y-65106631D01*
X143198310Y-65442596D01*
X142912596Y-65728310D01*
X142576631Y-65952794D01*
X142576630Y-65952795D01*
X142576629Y-65952795D01*
X142203326Y-66107422D01*
X141807032Y-66186250D01*
X141402968Y-66186250D01*
X141006674Y-66107422D01*
X140633371Y-65952795D01*
X140633370Y-65952795D01*
X140633369Y-65952794D01*
X140297404Y-65728310D01*
X140011690Y-65442596D01*
X139787206Y-65106631D01*
X139632579Y-64733328D01*
X139632578Y-64733326D01*
X139553750Y-64337032D01*
X139553750Y-63932968D01*
X139632578Y-63536674D01*
X139787205Y-63163371D01*
X139905124Y-62986892D01*
X140011690Y-62827404D01*
X140297404Y-62541690D01*
X140633369Y-62317206D01*
X141006672Y-62162579D01*
X141006671Y-62162579D01*
X141006674Y-62162578D01*
X141402968Y-62083750D01*
X141807032Y-62083750D01*
X142203326Y-62162578D01*
G37*
G36*
X132043326Y-62162578D02*
G01*
X132043329Y-62162579D01*
X132043328Y-62162579D01*
X132416631Y-62317206D01*
X132752596Y-62541690D01*
X133038310Y-62827404D01*
X133144876Y-62986892D01*
X133262795Y-63163371D01*
X133417422Y-63536674D01*
X133496250Y-63932968D01*
X133496250Y-64337032D01*
X133417422Y-64733326D01*
X133417421Y-64733328D01*
X133262794Y-65106631D01*
X133038310Y-65442596D01*
X132752596Y-65728310D01*
X132416631Y-65952794D01*
X132416630Y-65952795D01*
X132416629Y-65952795D01*
X132043326Y-66107422D01*
X131647032Y-66186250D01*
X131242968Y-66186250D01*
X130846674Y-66107422D01*
X130473371Y-65952795D01*
X130473370Y-65952795D01*
X130473369Y-65952794D01*
X130137404Y-65728310D01*
X129851690Y-65442596D01*
X129627206Y-65106631D01*
X129472579Y-64733328D01*
X129472578Y-64733326D01*
X129393750Y-64337032D01*
X129393750Y-63932968D01*
X129472578Y-63536674D01*
X129627205Y-63163371D01*
X129745124Y-62986892D01*
X129851690Y-62827404D01*
X130137404Y-62541690D01*
X130473369Y-62317206D01*
X130846672Y-62162579D01*
X130846671Y-62162579D01*
X130846674Y-62162578D01*
X131242968Y-62083750D01*
X131647032Y-62083750D01*
X132043326Y-62162578D01*
G37*
G36*
X128416250Y-66186250D02*
G01*
X124313750Y-66186250D01*
X124313750Y-62083750D01*
X128416250Y-62083750D01*
X128416250Y-66186250D01*
G37*
G36*
X119343326Y-62162578D02*
G01*
X119343329Y-62162579D01*
X119343328Y-62162579D01*
X119716631Y-62317206D01*
X120052596Y-62541690D01*
X120338310Y-62827404D01*
X120444876Y-62986892D01*
X120562795Y-63163371D01*
X120717422Y-63536674D01*
X120796250Y-63932968D01*
X120796250Y-64337032D01*
X120717422Y-64733326D01*
X120717421Y-64733328D01*
X120562794Y-65106631D01*
X120338310Y-65442596D01*
X120052596Y-65728310D01*
X119716631Y-65952794D01*
X119716630Y-65952795D01*
X119716629Y-65952795D01*
X119343326Y-66107422D01*
X118947032Y-66186250D01*
X118542968Y-66186250D01*
X118146674Y-66107422D01*
X117773371Y-65952795D01*
X117773370Y-65952795D01*
X117773369Y-65952794D01*
X117437404Y-65728310D01*
X117151690Y-65442596D01*
X116927206Y-65106631D01*
X116772579Y-64733328D01*
X116772578Y-64733326D01*
X116693750Y-64337032D01*
X116693750Y-63932968D01*
X116772578Y-63536674D01*
X116927205Y-63163371D01*
X117045124Y-62986892D01*
X117151690Y-62827404D01*
X117437404Y-62541690D01*
X117773369Y-62317206D01*
X118146672Y-62162579D01*
X118146671Y-62162579D01*
X118146674Y-62162578D01*
X118542968Y-62083750D01*
X118947032Y-62083750D01*
X119343326Y-62162578D01*
G37*
G36*
X114263326Y-62162578D02*
G01*
X114263329Y-62162579D01*
X114263328Y-62162579D01*
X114636631Y-62317206D01*
X114972596Y-62541690D01*
X115258310Y-62827404D01*
X115364876Y-62986892D01*
X115482795Y-63163371D01*
X115637422Y-63536674D01*
X115716250Y-63932968D01*
X115716250Y-64337032D01*
X115637422Y-64733326D01*
X115637421Y-64733328D01*
X115482794Y-65106631D01*
X115258310Y-65442596D01*
X114972596Y-65728310D01*
X114636631Y-65952794D01*
X114636630Y-65952795D01*
X114636629Y-65952795D01*
X114263326Y-66107422D01*
X113867032Y-66186250D01*
X113462968Y-66186250D01*
X113066674Y-66107422D01*
X112693371Y-65952795D01*
X112693370Y-65952795D01*
X112693369Y-65952794D01*
X112357404Y-65728310D01*
X112071690Y-65442596D01*
X111847206Y-65106631D01*
X111692579Y-64733328D01*
X111692578Y-64733326D01*
X111613750Y-64337032D01*
X111613750Y-63932968D01*
X111692578Y-63536674D01*
X111847205Y-63163371D01*
X111965124Y-62986892D01*
X112071690Y-62827404D01*
X112357404Y-62541690D01*
X112693369Y-62317206D01*
X113066672Y-62162579D01*
X113066671Y-62162579D01*
X113066674Y-62162578D01*
X113462968Y-62083750D01*
X113867032Y-62083750D01*
X114263326Y-62162578D01*
G37*
G36*
X109183326Y-62162578D02*
G01*
X109183329Y-62162579D01*
X109183328Y-62162579D01*
X109556631Y-62317206D01*
X109892596Y-62541690D01*
X110178310Y-62827404D01*
X110284876Y-62986892D01*
X110402795Y-63163371D01*
X110557422Y-63536674D01*
X110636250Y-63932968D01*
X110636250Y-64337032D01*
X110557422Y-64733326D01*
X110557421Y-64733328D01*
X110402794Y-65106631D01*
X110178310Y-65442596D01*
X109892596Y-65728310D01*
X109556631Y-65952794D01*
X109556630Y-65952795D01*
X109556629Y-65952795D01*
X109183326Y-66107422D01*
X108787032Y-66186250D01*
X108382968Y-66186250D01*
X107986674Y-66107422D01*
X107613371Y-65952795D01*
X107613370Y-65952795D01*
X107613369Y-65952794D01*
X107277404Y-65728310D01*
X106991690Y-65442596D01*
X106767206Y-65106631D01*
X106612579Y-64733328D01*
X106612578Y-64733326D01*
X106533750Y-64337032D01*
X106533750Y-63932968D01*
X106612578Y-63536674D01*
X106767205Y-63163371D01*
X106885124Y-62986892D01*
X106991690Y-62827404D01*
X107277404Y-62541690D01*
X107613369Y-62317206D01*
X107986672Y-62162579D01*
X107986671Y-62162579D01*
X107986674Y-62162578D01*
X108382968Y-62083750D01*
X108787032Y-62083750D01*
X109183326Y-62162578D01*
G37*
G36*
X151026060Y-65936060D02*
G01*
X147423940Y-65936060D01*
X147423940Y-62333940D01*
X151026060Y-62333940D01*
X151026060Y-65936060D01*
G37*
G36*
X154531905Y-62343789D02*
G01*
X154830350Y-62403153D01*
X155158122Y-62538921D01*
X155453109Y-62736025D01*
X155703975Y-62986891D01*
X155901079Y-63281878D01*
X156036847Y-63609650D01*
X156106060Y-63957611D01*
X156106060Y-64312389D01*
X156036847Y-64660350D01*
X155901079Y-64988122D01*
X155703975Y-65283109D01*
X155453109Y-65533975D01*
X155158122Y-65731079D01*
X154830350Y-65866847D01*
X154531905Y-65926211D01*
X154482390Y-65936060D01*
X154127610Y-65936060D01*
X154078095Y-65926211D01*
X153779650Y-65866847D01*
X153451878Y-65731079D01*
X153156891Y-65533975D01*
X152906025Y-65283109D01*
X152708921Y-64988122D01*
X152573153Y-64660350D01*
X152503940Y-64312389D01*
X152503940Y-63957611D01*
X152573153Y-63609650D01*
X152708921Y-63281878D01*
X152906025Y-62986891D01*
X153156891Y-62736025D01*
X153451878Y-62538921D01*
X153779650Y-62403153D01*
X154078095Y-62343789D01*
X154127610Y-62333940D01*
X154482390Y-62333940D01*
X154531905Y-62343789D01*
G37*
M02*
