G04 #@! TF.GenerationSoftware,KiCad,Pcbnew,(5.1.5)-3*
G04 #@! TF.CreationDate,2020-09-28T21:35:28-04:00*
G04 #@! TF.ProjectId,PowerSync,506f7765-7253-4796-9e63-2e6b69636164,rev?*
G04 #@! TF.SameCoordinates,Original*
G04 #@! TF.FileFunction,Legend,Top*
G04 #@! TF.FilePolarity,Positive*
%FSLAX46Y46*%
G04 Gerber Fmt 4.6, Leading zero omitted, Abs format (unit mm)*
G04 Created by KiCad (PCBNEW (5.1.5)-3) date 2020-09-28 21:35:28*
%MOMM*%
%LPD*%
G04 APERTURE LIST*
%ADD10C,0.300000*%
%ADD11C,0.120000*%
%ADD12C,0.150000*%
%ADD13C,0.250000*%
G04 APERTURE END LIST*
D10*
X124748809Y-106449642D02*
X124748809Y-103449642D01*
X125510714Y-103449642D01*
X125701190Y-103592500D01*
X125796428Y-103735357D01*
X125891666Y-104021071D01*
X125891666Y-104449642D01*
X125796428Y-104735357D01*
X125701190Y-104878214D01*
X125510714Y-105021071D01*
X124748809Y-105021071D01*
X127034523Y-106449642D02*
X126844047Y-106306785D01*
X126748809Y-106163928D01*
X126653571Y-105878214D01*
X126653571Y-105021071D01*
X126748809Y-104735357D01*
X126844047Y-104592500D01*
X127034523Y-104449642D01*
X127320238Y-104449642D01*
X127510714Y-104592500D01*
X127605952Y-104735357D01*
X127701190Y-105021071D01*
X127701190Y-105878214D01*
X127605952Y-106163928D01*
X127510714Y-106306785D01*
X127320238Y-106449642D01*
X127034523Y-106449642D01*
X128367857Y-104449642D02*
X128748809Y-106449642D01*
X129129761Y-105021071D01*
X129510714Y-106449642D01*
X129891666Y-104449642D01*
X131415476Y-106306785D02*
X131225000Y-106449642D01*
X130844047Y-106449642D01*
X130653571Y-106306785D01*
X130558333Y-106021071D01*
X130558333Y-104878214D01*
X130653571Y-104592500D01*
X130844047Y-104449642D01*
X131225000Y-104449642D01*
X131415476Y-104592500D01*
X131510714Y-104878214D01*
X131510714Y-105163928D01*
X130558333Y-105449642D01*
X132367857Y-106449642D02*
X132367857Y-104449642D01*
X132367857Y-105021071D02*
X132463095Y-104735357D01*
X132558333Y-104592500D01*
X132748809Y-104449642D01*
X132939285Y-104449642D01*
X135129761Y-106449642D02*
X135129761Y-103449642D01*
X135605952Y-103449642D01*
X135891666Y-103592500D01*
X136082142Y-103878214D01*
X136177380Y-104163928D01*
X136272619Y-104735357D01*
X136272619Y-105163928D01*
X136177380Y-105735357D01*
X136082142Y-106021071D01*
X135891666Y-106306785D01*
X135605952Y-106449642D01*
X135129761Y-106449642D01*
X137415476Y-106449642D02*
X137225000Y-106306785D01*
X137129761Y-106163928D01*
X137034523Y-105878214D01*
X137034523Y-105021071D01*
X137129761Y-104735357D01*
X137225000Y-104592500D01*
X137415476Y-104449642D01*
X137701190Y-104449642D01*
X137891666Y-104592500D01*
X137986904Y-104735357D01*
X138082142Y-105021071D01*
X138082142Y-105878214D01*
X137986904Y-106163928D01*
X137891666Y-106306785D01*
X137701190Y-106449642D01*
X137415476Y-106449642D01*
X138939285Y-106449642D02*
X138939285Y-104449642D01*
X138939285Y-104735357D02*
X139034523Y-104592500D01*
X139225000Y-104449642D01*
X139510714Y-104449642D01*
X139701190Y-104592500D01*
X139796428Y-104878214D01*
X139796428Y-106449642D01*
X139796428Y-104878214D02*
X139891666Y-104592500D01*
X140082142Y-104449642D01*
X140367857Y-104449642D01*
X140558333Y-104592500D01*
X140653571Y-104878214D01*
X140653571Y-106449642D01*
X142463095Y-106449642D02*
X142463095Y-104878214D01*
X142367857Y-104592500D01*
X142177380Y-104449642D01*
X141796428Y-104449642D01*
X141605952Y-104592500D01*
X142463095Y-106306785D02*
X142272619Y-106449642D01*
X141796428Y-106449642D01*
X141605952Y-106306785D01*
X141510714Y-106021071D01*
X141510714Y-105735357D01*
X141605952Y-105449642D01*
X141796428Y-105306785D01*
X142272619Y-105306785D01*
X142463095Y-105163928D01*
X143415476Y-106449642D02*
X143415476Y-104449642D01*
X143415476Y-103449642D02*
X143320238Y-103592500D01*
X143415476Y-103735357D01*
X143510714Y-103592500D01*
X143415476Y-103449642D01*
X143415476Y-103735357D01*
X144367857Y-104449642D02*
X144367857Y-106449642D01*
X144367857Y-104735357D02*
X144463095Y-104592500D01*
X144653571Y-104449642D01*
X144939285Y-104449642D01*
X145129761Y-104592500D01*
X145225000Y-104878214D01*
X145225000Y-106449642D01*
X147605952Y-106306785D02*
X147891666Y-106449642D01*
X148367857Y-106449642D01*
X148558333Y-106306785D01*
X148653571Y-106163928D01*
X148748809Y-105878214D01*
X148748809Y-105592500D01*
X148653571Y-105306785D01*
X148558333Y-105163928D01*
X148367857Y-105021071D01*
X147986904Y-104878214D01*
X147796428Y-104735357D01*
X147701190Y-104592500D01*
X147605952Y-104306785D01*
X147605952Y-104021071D01*
X147701190Y-103735357D01*
X147796428Y-103592500D01*
X147986904Y-103449642D01*
X148463095Y-103449642D01*
X148748809Y-103592500D01*
X149415476Y-104449642D02*
X149891666Y-106449642D01*
X150367857Y-104449642D02*
X149891666Y-106449642D01*
X149701190Y-107163928D01*
X149605952Y-107306785D01*
X149415476Y-107449642D01*
X151129761Y-104449642D02*
X151129761Y-106449642D01*
X151129761Y-104735357D02*
X151225000Y-104592500D01*
X151415476Y-104449642D01*
X151701190Y-104449642D01*
X151891666Y-104592500D01*
X151986904Y-104878214D01*
X151986904Y-106449642D01*
X153796428Y-106306785D02*
X153605952Y-106449642D01*
X153225000Y-106449642D01*
X153034523Y-106306785D01*
X152939285Y-106163928D01*
X152844047Y-105878214D01*
X152844047Y-105021071D01*
X152939285Y-104735357D01*
X153034523Y-104592500D01*
X153225000Y-104449642D01*
X153605952Y-104449642D01*
X153796428Y-104592500D01*
X154653571Y-106449642D02*
X154653571Y-103449642D01*
X155510714Y-106449642D02*
X155510714Y-104878214D01*
X155415476Y-104592500D01*
X155225000Y-104449642D01*
X154939285Y-104449642D01*
X154748809Y-104592500D01*
X154653571Y-104735357D01*
X156463095Y-106449642D02*
X156463095Y-104449642D01*
X156463095Y-105021071D02*
X156558333Y-104735357D01*
X156653571Y-104592500D01*
X156844047Y-104449642D01*
X157034523Y-104449642D01*
X157986904Y-106449642D02*
X157796428Y-106306785D01*
X157701190Y-106163928D01*
X157605952Y-105878214D01*
X157605952Y-105021071D01*
X157701190Y-104735357D01*
X157796428Y-104592500D01*
X157986904Y-104449642D01*
X158272619Y-104449642D01*
X158463095Y-104592500D01*
X158558333Y-104735357D01*
X158653571Y-105021071D01*
X158653571Y-105878214D01*
X158558333Y-106163928D01*
X158463095Y-106306785D01*
X158272619Y-106449642D01*
X157986904Y-106449642D01*
X159510714Y-104449642D02*
X159510714Y-106449642D01*
X159510714Y-104735357D02*
X159605952Y-104592500D01*
X159796428Y-104449642D01*
X160082142Y-104449642D01*
X160272619Y-104592500D01*
X160367857Y-104878214D01*
X160367857Y-106449642D01*
X161320238Y-106449642D02*
X161320238Y-104449642D01*
X161320238Y-103449642D02*
X161225000Y-103592500D01*
X161320238Y-103735357D01*
X161415476Y-103592500D01*
X161320238Y-103449642D01*
X161320238Y-103735357D01*
X162082142Y-104449642D02*
X163129761Y-104449642D01*
X162082142Y-106449642D01*
X163129761Y-106449642D01*
X164653571Y-106306785D02*
X164463095Y-106449642D01*
X164082142Y-106449642D01*
X163891666Y-106306785D01*
X163796428Y-106021071D01*
X163796428Y-104878214D01*
X163891666Y-104592500D01*
X164082142Y-104449642D01*
X164463095Y-104449642D01*
X164653571Y-104592500D01*
X164748809Y-104878214D01*
X164748809Y-105163928D01*
X163796428Y-105449642D01*
X165605952Y-106449642D02*
X165605952Y-104449642D01*
X165605952Y-105021071D02*
X165701190Y-104735357D01*
X165796428Y-104592500D01*
X165986904Y-104449642D01*
X166177380Y-104449642D01*
X168939285Y-107592500D02*
X168844047Y-107449642D01*
X168653571Y-107021071D01*
X168558333Y-106735357D01*
X168463095Y-106306785D01*
X168367857Y-105592500D01*
X168367857Y-105021071D01*
X168463095Y-104306785D01*
X168558333Y-103878214D01*
X168653571Y-103592500D01*
X168844047Y-103163928D01*
X168939285Y-103021071D01*
X170653571Y-103449642D02*
X169701190Y-103449642D01*
X169605952Y-104878214D01*
X169701190Y-104735357D01*
X169891666Y-104592500D01*
X170367857Y-104592500D01*
X170558333Y-104735357D01*
X170653571Y-104878214D01*
X170748809Y-105163928D01*
X170748809Y-105878214D01*
X170653571Y-106163928D01*
X170558333Y-106306785D01*
X170367857Y-106449642D01*
X169891666Y-106449642D01*
X169701190Y-106306785D01*
X169605952Y-106163928D01*
X171320238Y-103449642D02*
X171986904Y-106449642D01*
X172653571Y-103449642D01*
X173129761Y-107592500D02*
X173225000Y-107449642D01*
X173415476Y-107021071D01*
X173510714Y-106735357D01*
X173605952Y-106306785D01*
X173701190Y-105592500D01*
X173701190Y-105021071D01*
X173605952Y-104306785D01*
X173510714Y-103878214D01*
X173415476Y-103592500D01*
X173225000Y-103163928D01*
X173129761Y-103021071D01*
D11*
X149460000Y-86169500D02*
X155321000Y-86169500D01*
X149460000Y-69913500D02*
X155321000Y-69913500D01*
X155321000Y-69913500D02*
X155321000Y-86169500D01*
X124460000Y-86169500D02*
X149460000Y-86169500D01*
X124460000Y-69913500D02*
X149460000Y-69913500D01*
X132580000Y-78045000D02*
G75*
G03X132580000Y-78045000I-8120000J0D01*
G01*
X132541000Y-78045000D02*
X116379000Y-78045000D01*
X132540000Y-78085000D02*
X116380000Y-78085000D01*
X132540000Y-78125000D02*
X116380000Y-78125000D01*
X132540000Y-78165000D02*
X116380000Y-78165000D01*
X132539000Y-78205000D02*
X116381000Y-78205000D01*
X132538000Y-78245000D02*
X116382000Y-78245000D01*
X132537000Y-78285000D02*
X116383000Y-78285000D01*
X132536000Y-78325000D02*
X116384000Y-78325000D01*
X132534000Y-78365000D02*
X116386000Y-78365000D01*
X132533000Y-78405000D02*
X116387000Y-78405000D01*
X132531000Y-78445000D02*
X116389000Y-78445000D01*
X132529000Y-78485000D02*
X116391000Y-78485000D01*
X132526000Y-78525000D02*
X116394000Y-78525000D01*
X132524000Y-78565000D02*
X116396000Y-78565000D01*
X132521000Y-78605000D02*
X116399000Y-78605000D01*
X132518000Y-78645000D02*
X116402000Y-78645000D01*
X132515000Y-78685000D02*
X116405000Y-78685000D01*
X132512000Y-78725000D02*
X116408000Y-78725000D01*
X132509000Y-78766000D02*
X116411000Y-78766000D01*
X132505000Y-78806000D02*
X116415000Y-78806000D01*
X132501000Y-78846000D02*
X116419000Y-78846000D01*
X132497000Y-78886000D02*
X116423000Y-78886000D01*
X132493000Y-78926000D02*
X116427000Y-78926000D01*
X132488000Y-78966000D02*
X116432000Y-78966000D01*
X132484000Y-79006000D02*
X116436000Y-79006000D01*
X132479000Y-79046000D02*
X116441000Y-79046000D01*
X132474000Y-79086000D02*
X116446000Y-79086000D01*
X132468000Y-79126000D02*
X116452000Y-79126000D01*
X132463000Y-79166000D02*
X116457000Y-79166000D01*
X132457000Y-79206000D02*
X116463000Y-79206000D01*
X132451000Y-79246000D02*
X116469000Y-79246000D01*
X132445000Y-79286000D02*
X116475000Y-79286000D01*
X132439000Y-79326000D02*
X116481000Y-79326000D01*
X132432000Y-79366000D02*
X116488000Y-79366000D01*
X132426000Y-79406000D02*
X116494000Y-79406000D01*
X132419000Y-79446000D02*
X116501000Y-79446000D01*
X132412000Y-79486000D02*
X116508000Y-79486000D01*
X132404000Y-79526000D02*
X116516000Y-79526000D01*
X132397000Y-79566000D02*
X116523000Y-79566000D01*
X132389000Y-79606000D02*
X116531000Y-79606000D01*
X132381000Y-79646000D02*
X116539000Y-79646000D01*
X132373000Y-79686000D02*
X116547000Y-79686000D01*
X132365000Y-79726000D02*
X116555000Y-79726000D01*
X132356000Y-79766000D02*
X116564000Y-79766000D01*
X132347000Y-79806000D02*
X116573000Y-79806000D01*
X132338000Y-79846000D02*
X116582000Y-79846000D01*
X132329000Y-79886000D02*
X116591000Y-79886000D01*
X132320000Y-79926000D02*
X116600000Y-79926000D01*
X132310000Y-79966000D02*
X116610000Y-79966000D01*
X132300000Y-80006000D02*
X116620000Y-80006000D01*
X132290000Y-80046000D02*
X116630000Y-80046000D01*
X132280000Y-80086000D02*
X116640000Y-80086000D01*
X132270000Y-80126000D02*
X116650000Y-80126000D01*
X132259000Y-80166000D02*
X116661000Y-80166000D01*
X132248000Y-80206000D02*
X116672000Y-80206000D01*
X132237000Y-80246000D02*
X116683000Y-80246000D01*
X132225000Y-80286000D02*
X116695000Y-80286000D01*
X132214000Y-80326000D02*
X116706000Y-80326000D01*
X132202000Y-80366000D02*
X125900000Y-80366000D01*
X123020000Y-80366000D02*
X116718000Y-80366000D01*
X132190000Y-80406000D02*
X125900000Y-80406000D01*
X123020000Y-80406000D02*
X116730000Y-80406000D01*
X132178000Y-80446000D02*
X125900000Y-80446000D01*
X123020000Y-80446000D02*
X116742000Y-80446000D01*
X132165000Y-80486000D02*
X125900000Y-80486000D01*
X123020000Y-80486000D02*
X116755000Y-80486000D01*
X132153000Y-80526000D02*
X125900000Y-80526000D01*
X123020000Y-80526000D02*
X116767000Y-80526000D01*
X132140000Y-80566000D02*
X125900000Y-80566000D01*
X123020000Y-80566000D02*
X116780000Y-80566000D01*
X132126000Y-80606000D02*
X125900000Y-80606000D01*
X123020000Y-80606000D02*
X116794000Y-80606000D01*
X132113000Y-80646000D02*
X125900000Y-80646000D01*
X123020000Y-80646000D02*
X116807000Y-80646000D01*
X132099000Y-80686000D02*
X125900000Y-80686000D01*
X123020000Y-80686000D02*
X116821000Y-80686000D01*
X132085000Y-80726000D02*
X125900000Y-80726000D01*
X123020000Y-80726000D02*
X116835000Y-80726000D01*
X132071000Y-80766000D02*
X125900000Y-80766000D01*
X123020000Y-80766000D02*
X116849000Y-80766000D01*
X132057000Y-80806000D02*
X125900000Y-80806000D01*
X123020000Y-80806000D02*
X116863000Y-80806000D01*
X132042000Y-80846000D02*
X125900000Y-80846000D01*
X123020000Y-80846000D02*
X116878000Y-80846000D01*
X132028000Y-80886000D02*
X125900000Y-80886000D01*
X123020000Y-80886000D02*
X116892000Y-80886000D01*
X132013000Y-80926000D02*
X125900000Y-80926000D01*
X123020000Y-80926000D02*
X116907000Y-80926000D01*
X131997000Y-80966000D02*
X125900000Y-80966000D01*
X123020000Y-80966000D02*
X116923000Y-80966000D01*
X131982000Y-81006000D02*
X125900000Y-81006000D01*
X123020000Y-81006000D02*
X116938000Y-81006000D01*
X131966000Y-81046000D02*
X125900000Y-81046000D01*
X123020000Y-81046000D02*
X116954000Y-81046000D01*
X131950000Y-81086000D02*
X125900000Y-81086000D01*
X123020000Y-81086000D02*
X116970000Y-81086000D01*
X131934000Y-81126000D02*
X125900000Y-81126000D01*
X123020000Y-81126000D02*
X116986000Y-81126000D01*
X131917000Y-81166000D02*
X125900000Y-81166000D01*
X123020000Y-81166000D02*
X117003000Y-81166000D01*
X131900000Y-81206000D02*
X125900000Y-81206000D01*
X123020000Y-81206000D02*
X117020000Y-81206000D01*
X131883000Y-81246000D02*
X125900000Y-81246000D01*
X123020000Y-81246000D02*
X117037000Y-81246000D01*
X131866000Y-81286000D02*
X125900000Y-81286000D01*
X123020000Y-81286000D02*
X117054000Y-81286000D01*
X131849000Y-81326000D02*
X125900000Y-81326000D01*
X123020000Y-81326000D02*
X117071000Y-81326000D01*
X131831000Y-81366000D02*
X125900000Y-81366000D01*
X123020000Y-81366000D02*
X117089000Y-81366000D01*
X131813000Y-81406000D02*
X125900000Y-81406000D01*
X123020000Y-81406000D02*
X117107000Y-81406000D01*
X131794000Y-81446000D02*
X125900000Y-81446000D01*
X123020000Y-81446000D02*
X117126000Y-81446000D01*
X131776000Y-81486000D02*
X125900000Y-81486000D01*
X123020000Y-81486000D02*
X117144000Y-81486000D01*
X131757000Y-81526000D02*
X125900000Y-81526000D01*
X123020000Y-81526000D02*
X117163000Y-81526000D01*
X131738000Y-81566000D02*
X125900000Y-81566000D01*
X123020000Y-81566000D02*
X117182000Y-81566000D01*
X131718000Y-81606000D02*
X125900000Y-81606000D01*
X123020000Y-81606000D02*
X117202000Y-81606000D01*
X131699000Y-81646000D02*
X125900000Y-81646000D01*
X123020000Y-81646000D02*
X117221000Y-81646000D01*
X131679000Y-81686000D02*
X125900000Y-81686000D01*
X123020000Y-81686000D02*
X117241000Y-81686000D01*
X131659000Y-81726000D02*
X125900000Y-81726000D01*
X123020000Y-81726000D02*
X117261000Y-81726000D01*
X131638000Y-81766000D02*
X125900000Y-81766000D01*
X123020000Y-81766000D02*
X117282000Y-81766000D01*
X131617000Y-81806000D02*
X125900000Y-81806000D01*
X123020000Y-81806000D02*
X117303000Y-81806000D01*
X131596000Y-81846000D02*
X125900000Y-81846000D01*
X123020000Y-81846000D02*
X117324000Y-81846000D01*
X131575000Y-81886000D02*
X125900000Y-81886000D01*
X123020000Y-81886000D02*
X117345000Y-81886000D01*
X131554000Y-81926000D02*
X125900000Y-81926000D01*
X123020000Y-81926000D02*
X117366000Y-81926000D01*
X131532000Y-81966000D02*
X125900000Y-81966000D01*
X123020000Y-81966000D02*
X117388000Y-81966000D01*
X131509000Y-82006000D02*
X125900000Y-82006000D01*
X123020000Y-82006000D02*
X117411000Y-82006000D01*
X131487000Y-82046000D02*
X125900000Y-82046000D01*
X123020000Y-82046000D02*
X117433000Y-82046000D01*
X131464000Y-82086000D02*
X125900000Y-82086000D01*
X123020000Y-82086000D02*
X117456000Y-82086000D01*
X131441000Y-82126000D02*
X125900000Y-82126000D01*
X123020000Y-82126000D02*
X117479000Y-82126000D01*
X131418000Y-82166000D02*
X125900000Y-82166000D01*
X123020000Y-82166000D02*
X117502000Y-82166000D01*
X131394000Y-82206000D02*
X125900000Y-82206000D01*
X123020000Y-82206000D02*
X117526000Y-82206000D01*
X131370000Y-82246000D02*
X125900000Y-82246000D01*
X123020000Y-82246000D02*
X117550000Y-82246000D01*
X131346000Y-82286000D02*
X125900000Y-82286000D01*
X123020000Y-82286000D02*
X117574000Y-82286000D01*
X131321000Y-82326000D02*
X125900000Y-82326000D01*
X123020000Y-82326000D02*
X117599000Y-82326000D01*
X131296000Y-82366000D02*
X125900000Y-82366000D01*
X123020000Y-82366000D02*
X117624000Y-82366000D01*
X131271000Y-82406000D02*
X125900000Y-82406000D01*
X123020000Y-82406000D02*
X117649000Y-82406000D01*
X131245000Y-82446000D02*
X125900000Y-82446000D01*
X123020000Y-82446000D02*
X117675000Y-82446000D01*
X131219000Y-82486000D02*
X125900000Y-82486000D01*
X123020000Y-82486000D02*
X117701000Y-82486000D01*
X131193000Y-82526000D02*
X125900000Y-82526000D01*
X123020000Y-82526000D02*
X117727000Y-82526000D01*
X131166000Y-82566000D02*
X125900000Y-82566000D01*
X123020000Y-82566000D02*
X117754000Y-82566000D01*
X131139000Y-82606000D02*
X125900000Y-82606000D01*
X123020000Y-82606000D02*
X117781000Y-82606000D01*
X131112000Y-82646000D02*
X125900000Y-82646000D01*
X123020000Y-82646000D02*
X117808000Y-82646000D01*
X131084000Y-82686000D02*
X125900000Y-82686000D01*
X123020000Y-82686000D02*
X117836000Y-82686000D01*
X131056000Y-82726000D02*
X125900000Y-82726000D01*
X123020000Y-82726000D02*
X117864000Y-82726000D01*
X131028000Y-82766000D02*
X125900000Y-82766000D01*
X123020000Y-82766000D02*
X117892000Y-82766000D01*
X130999000Y-82806000D02*
X125900000Y-82806000D01*
X123020000Y-82806000D02*
X117921000Y-82806000D01*
X130970000Y-82846000D02*
X125900000Y-82846000D01*
X123020000Y-82846000D02*
X117950000Y-82846000D01*
X130940000Y-82886000D02*
X125900000Y-82886000D01*
X123020000Y-82886000D02*
X117980000Y-82886000D01*
X130910000Y-82926000D02*
X125900000Y-82926000D01*
X123020000Y-82926000D02*
X118010000Y-82926000D01*
X130880000Y-82966000D02*
X125900000Y-82966000D01*
X123020000Y-82966000D02*
X118040000Y-82966000D01*
X130850000Y-83006000D02*
X125900000Y-83006000D01*
X123020000Y-83006000D02*
X118070000Y-83006000D01*
X130818000Y-83046000D02*
X125900000Y-83046000D01*
X123020000Y-83046000D02*
X118102000Y-83046000D01*
X130787000Y-83086000D02*
X125900000Y-83086000D01*
X123020000Y-83086000D02*
X118133000Y-83086000D01*
X130755000Y-83126000D02*
X125900000Y-83126000D01*
X123020000Y-83126000D02*
X118165000Y-83126000D01*
X130723000Y-83166000D02*
X125900000Y-83166000D01*
X123020000Y-83166000D02*
X118197000Y-83166000D01*
X130690000Y-83206000D02*
X125900000Y-83206000D01*
X123020000Y-83206000D02*
X118230000Y-83206000D01*
X130657000Y-83246000D02*
X118263000Y-83246000D01*
X130623000Y-83286000D02*
X118297000Y-83286000D01*
X130589000Y-83326000D02*
X118331000Y-83326000D01*
X130555000Y-83366000D02*
X118365000Y-83366000D01*
X130520000Y-83406000D02*
X118400000Y-83406000D01*
X130485000Y-83446000D02*
X118435000Y-83446000D01*
X130449000Y-83486000D02*
X118471000Y-83486000D01*
X130412000Y-83526000D02*
X118508000Y-83526000D01*
X130376000Y-83566000D02*
X118544000Y-83566000D01*
X130338000Y-83606000D02*
X118582000Y-83606000D01*
X130300000Y-83646000D02*
X118620000Y-83646000D01*
X130262000Y-83686000D02*
X118658000Y-83686000D01*
X130223000Y-83726000D02*
X118697000Y-83726000D01*
X130184000Y-83766000D02*
X118736000Y-83766000D01*
X130144000Y-83806000D02*
X118776000Y-83806000D01*
X130103000Y-83846000D02*
X118817000Y-83846000D01*
X130062000Y-83886000D02*
X118858000Y-83886000D01*
X130020000Y-83926000D02*
X118900000Y-83926000D01*
X129978000Y-83966000D02*
X118942000Y-83966000D01*
X129935000Y-84006000D02*
X118985000Y-84006000D01*
X129892000Y-84046000D02*
X119028000Y-84046000D01*
X129848000Y-84086000D02*
X119072000Y-84086000D01*
X129803000Y-84126000D02*
X119117000Y-84126000D01*
X129757000Y-84166000D02*
X119163000Y-84166000D01*
X129711000Y-84206000D02*
X119209000Y-84206000D01*
X129664000Y-84246000D02*
X119256000Y-84246000D01*
X129616000Y-84286000D02*
X119304000Y-84286000D01*
X129568000Y-84326000D02*
X119352000Y-84326000D01*
X129519000Y-84366000D02*
X119401000Y-84366000D01*
X129469000Y-84406000D02*
X119451000Y-84406000D01*
X129418000Y-84446000D02*
X119502000Y-84446000D01*
X129366000Y-84486000D02*
X119554000Y-84486000D01*
X129314000Y-84526000D02*
X119606000Y-84526000D01*
X129260000Y-84566000D02*
X119660000Y-84566000D01*
X129206000Y-84606000D02*
X119714000Y-84606000D01*
X129151000Y-84646000D02*
X119769000Y-84646000D01*
X129094000Y-84686000D02*
X119826000Y-84686000D01*
X129037000Y-84726000D02*
X119883000Y-84726000D01*
X128979000Y-84766000D02*
X119941000Y-84766000D01*
X128919000Y-84806000D02*
X120001000Y-84806000D01*
X128858000Y-84846000D02*
X120062000Y-84846000D01*
X128796000Y-84886000D02*
X120124000Y-84886000D01*
X128733000Y-84926000D02*
X120187000Y-84926000D01*
X128669000Y-84966000D02*
X120251000Y-84966000D01*
X128603000Y-85006000D02*
X120317000Y-85006000D01*
X128536000Y-85046000D02*
X120384000Y-85046000D01*
X128467000Y-85086000D02*
X120453000Y-85086000D01*
X128396000Y-85126000D02*
X120524000Y-85126000D01*
X128324000Y-85166000D02*
X120596000Y-85166000D01*
X128250000Y-85206000D02*
X120670000Y-85206000D01*
X128175000Y-85246000D02*
X120745000Y-85246000D01*
X128097000Y-85286000D02*
X120823000Y-85286000D01*
X128017000Y-85326000D02*
X120903000Y-85326000D01*
X127935000Y-85366000D02*
X120985000Y-85366000D01*
X127850000Y-85406000D02*
X121070000Y-85406000D01*
X127763000Y-85446000D02*
X121157000Y-85446000D01*
X127673000Y-85486000D02*
X121247000Y-85486000D01*
X127580000Y-85526000D02*
X121340000Y-85526000D01*
X127484000Y-85566000D02*
X121436000Y-85566000D01*
X127384000Y-85606000D02*
X121536000Y-85606000D01*
X127280000Y-85646000D02*
X121640000Y-85646000D01*
X127171000Y-85686000D02*
X121749000Y-85686000D01*
X127057000Y-85726000D02*
X121863000Y-85726000D01*
X126938000Y-85766000D02*
X121982000Y-85766000D01*
X126811000Y-85806000D02*
X122109000Y-85806000D01*
X126678000Y-85846000D02*
X122242000Y-85846000D01*
X126534000Y-85886000D02*
X122386000Y-85886000D01*
X126380000Y-85926000D02*
X122540000Y-85926000D01*
X126212000Y-85966000D02*
X122708000Y-85966000D01*
X126024000Y-86006000D02*
X122896000Y-86006000D01*
X125811000Y-86046000D02*
X123109000Y-86046000D01*
X125558000Y-86086000D02*
X123362000Y-86086000D01*
X125225000Y-86126000D02*
X123695000Y-86126000D01*
X129015000Y-69355509D02*
X129015000Y-70955509D01*
X129815000Y-70155509D02*
X128215000Y-70155509D01*
X161028748Y-80720000D02*
X161551252Y-80720000D01*
X161028748Y-79300000D02*
X161551252Y-79300000D01*
X121345000Y-95885000D02*
G75*
G03X121345000Y-95885000I-2620000J0D01*
G01*
X118725000Y-93305000D02*
X118725000Y-98465000D01*
X118765000Y-93305000D02*
X118765000Y-98465000D01*
X118805000Y-93306000D02*
X118805000Y-98464000D01*
X118845000Y-93307000D02*
X118845000Y-98463000D01*
X118885000Y-93309000D02*
X118885000Y-98461000D01*
X118925000Y-93312000D02*
X118925000Y-98458000D01*
X118965000Y-93316000D02*
X118965000Y-94845000D01*
X118965000Y-96925000D02*
X118965000Y-98454000D01*
X119005000Y-93320000D02*
X119005000Y-94845000D01*
X119005000Y-96925000D02*
X119005000Y-98450000D01*
X119045000Y-93324000D02*
X119045000Y-94845000D01*
X119045000Y-96925000D02*
X119045000Y-98446000D01*
X119085000Y-93329000D02*
X119085000Y-94845000D01*
X119085000Y-96925000D02*
X119085000Y-98441000D01*
X119125000Y-93335000D02*
X119125000Y-94845000D01*
X119125000Y-96925000D02*
X119125000Y-98435000D01*
X119165000Y-93342000D02*
X119165000Y-94845000D01*
X119165000Y-96925000D02*
X119165000Y-98428000D01*
X119205000Y-93349000D02*
X119205000Y-94845000D01*
X119205000Y-96925000D02*
X119205000Y-98421000D01*
X119245000Y-93357000D02*
X119245000Y-94845000D01*
X119245000Y-96925000D02*
X119245000Y-98413000D01*
X119285000Y-93365000D02*
X119285000Y-94845000D01*
X119285000Y-96925000D02*
X119285000Y-98405000D01*
X119325000Y-93374000D02*
X119325000Y-94845000D01*
X119325000Y-96925000D02*
X119325000Y-98396000D01*
X119365000Y-93384000D02*
X119365000Y-94845000D01*
X119365000Y-96925000D02*
X119365000Y-98386000D01*
X119405000Y-93394000D02*
X119405000Y-94845000D01*
X119405000Y-96925000D02*
X119405000Y-98376000D01*
X119446000Y-93405000D02*
X119446000Y-94845000D01*
X119446000Y-96925000D02*
X119446000Y-98365000D01*
X119486000Y-93417000D02*
X119486000Y-94845000D01*
X119486000Y-96925000D02*
X119486000Y-98353000D01*
X119526000Y-93430000D02*
X119526000Y-94845000D01*
X119526000Y-96925000D02*
X119526000Y-98340000D01*
X119566000Y-93443000D02*
X119566000Y-94845000D01*
X119566000Y-96925000D02*
X119566000Y-98327000D01*
X119606000Y-93457000D02*
X119606000Y-94845000D01*
X119606000Y-96925000D02*
X119606000Y-98313000D01*
X119646000Y-93471000D02*
X119646000Y-94845000D01*
X119646000Y-96925000D02*
X119646000Y-98299000D01*
X119686000Y-93487000D02*
X119686000Y-94845000D01*
X119686000Y-96925000D02*
X119686000Y-98283000D01*
X119726000Y-93503000D02*
X119726000Y-94845000D01*
X119726000Y-96925000D02*
X119726000Y-98267000D01*
X119766000Y-93520000D02*
X119766000Y-94845000D01*
X119766000Y-96925000D02*
X119766000Y-98250000D01*
X119806000Y-93537000D02*
X119806000Y-94845000D01*
X119806000Y-96925000D02*
X119806000Y-98233000D01*
X119846000Y-93556000D02*
X119846000Y-94845000D01*
X119846000Y-96925000D02*
X119846000Y-98214000D01*
X119886000Y-93575000D02*
X119886000Y-94845000D01*
X119886000Y-96925000D02*
X119886000Y-98195000D01*
X119926000Y-93595000D02*
X119926000Y-94845000D01*
X119926000Y-96925000D02*
X119926000Y-98175000D01*
X119966000Y-93617000D02*
X119966000Y-94845000D01*
X119966000Y-96925000D02*
X119966000Y-98153000D01*
X120006000Y-93638000D02*
X120006000Y-94845000D01*
X120006000Y-96925000D02*
X120006000Y-98132000D01*
X120046000Y-93661000D02*
X120046000Y-94845000D01*
X120046000Y-96925000D02*
X120046000Y-98109000D01*
X120086000Y-93685000D02*
X120086000Y-94845000D01*
X120086000Y-96925000D02*
X120086000Y-98085000D01*
X120126000Y-93710000D02*
X120126000Y-94845000D01*
X120126000Y-96925000D02*
X120126000Y-98060000D01*
X120166000Y-93736000D02*
X120166000Y-94845000D01*
X120166000Y-96925000D02*
X120166000Y-98034000D01*
X120206000Y-93763000D02*
X120206000Y-94845000D01*
X120206000Y-96925000D02*
X120206000Y-98007000D01*
X120246000Y-93790000D02*
X120246000Y-94845000D01*
X120246000Y-96925000D02*
X120246000Y-97980000D01*
X120286000Y-93820000D02*
X120286000Y-94845000D01*
X120286000Y-96925000D02*
X120286000Y-97950000D01*
X120326000Y-93850000D02*
X120326000Y-94845000D01*
X120326000Y-96925000D02*
X120326000Y-97920000D01*
X120366000Y-93881000D02*
X120366000Y-94845000D01*
X120366000Y-96925000D02*
X120366000Y-97889000D01*
X120406000Y-93914000D02*
X120406000Y-94845000D01*
X120406000Y-96925000D02*
X120406000Y-97856000D01*
X120446000Y-93948000D02*
X120446000Y-94845000D01*
X120446000Y-96925000D02*
X120446000Y-97822000D01*
X120486000Y-93984000D02*
X120486000Y-94845000D01*
X120486000Y-96925000D02*
X120486000Y-97786000D01*
X120526000Y-94021000D02*
X120526000Y-94845000D01*
X120526000Y-96925000D02*
X120526000Y-97749000D01*
X120566000Y-94059000D02*
X120566000Y-94845000D01*
X120566000Y-96925000D02*
X120566000Y-97711000D01*
X120606000Y-94100000D02*
X120606000Y-94845000D01*
X120606000Y-96925000D02*
X120606000Y-97670000D01*
X120646000Y-94142000D02*
X120646000Y-94845000D01*
X120646000Y-96925000D02*
X120646000Y-97628000D01*
X120686000Y-94186000D02*
X120686000Y-94845000D01*
X120686000Y-96925000D02*
X120686000Y-97584000D01*
X120726000Y-94232000D02*
X120726000Y-94845000D01*
X120726000Y-96925000D02*
X120726000Y-97538000D01*
X120766000Y-94280000D02*
X120766000Y-94845000D01*
X120766000Y-96925000D02*
X120766000Y-97490000D01*
X120806000Y-94331000D02*
X120806000Y-94845000D01*
X120806000Y-96925000D02*
X120806000Y-97439000D01*
X120846000Y-94385000D02*
X120846000Y-94845000D01*
X120846000Y-96925000D02*
X120846000Y-97385000D01*
X120886000Y-94442000D02*
X120886000Y-94845000D01*
X120886000Y-96925000D02*
X120886000Y-97328000D01*
X120926000Y-94502000D02*
X120926000Y-94845000D01*
X120926000Y-96925000D02*
X120926000Y-97268000D01*
X120966000Y-94566000D02*
X120966000Y-94845000D01*
X120966000Y-96925000D02*
X120966000Y-97204000D01*
X121006000Y-94634000D02*
X121006000Y-94845000D01*
X121006000Y-96925000D02*
X121006000Y-97136000D01*
X121046000Y-94707000D02*
X121046000Y-97063000D01*
X121086000Y-94787000D02*
X121086000Y-96983000D01*
X121126000Y-94874000D02*
X121126000Y-96896000D01*
X121166000Y-94970000D02*
X121166000Y-96800000D01*
X121206000Y-95080000D02*
X121206000Y-96690000D01*
X121246000Y-95208000D02*
X121246000Y-96562000D01*
X121286000Y-95367000D02*
X121286000Y-96403000D01*
X121326000Y-95601000D02*
X121326000Y-96169000D01*
X115920225Y-94410000D02*
X116420225Y-94410000D01*
X116170225Y-94160000D02*
X116170225Y-94660000D01*
X133738252Y-87682000D02*
X133215748Y-87682000D01*
X133738252Y-89102000D02*
X133215748Y-89102000D01*
X165996252Y-80720000D02*
X165473748Y-80720000D01*
X165996252Y-79300000D02*
X165473748Y-79300000D01*
X123155225Y-94160000D02*
X123155225Y-94660000D01*
X122905225Y-94410000D02*
X123405225Y-94410000D01*
X128311000Y-95601000D02*
X128311000Y-96169000D01*
X128271000Y-95367000D02*
X128271000Y-96403000D01*
X128231000Y-95208000D02*
X128231000Y-96562000D01*
X128191000Y-95080000D02*
X128191000Y-96690000D01*
X128151000Y-94970000D02*
X128151000Y-96800000D01*
X128111000Y-94874000D02*
X128111000Y-96896000D01*
X128071000Y-94787000D02*
X128071000Y-96983000D01*
X128031000Y-94707000D02*
X128031000Y-97063000D01*
X127991000Y-96925000D02*
X127991000Y-97136000D01*
X127991000Y-94634000D02*
X127991000Y-94845000D01*
X127951000Y-96925000D02*
X127951000Y-97204000D01*
X127951000Y-94566000D02*
X127951000Y-94845000D01*
X127911000Y-96925000D02*
X127911000Y-97268000D01*
X127911000Y-94502000D02*
X127911000Y-94845000D01*
X127871000Y-96925000D02*
X127871000Y-97328000D01*
X127871000Y-94442000D02*
X127871000Y-94845000D01*
X127831000Y-96925000D02*
X127831000Y-97385000D01*
X127831000Y-94385000D02*
X127831000Y-94845000D01*
X127791000Y-96925000D02*
X127791000Y-97439000D01*
X127791000Y-94331000D02*
X127791000Y-94845000D01*
X127751000Y-96925000D02*
X127751000Y-97490000D01*
X127751000Y-94280000D02*
X127751000Y-94845000D01*
X127711000Y-96925000D02*
X127711000Y-97538000D01*
X127711000Y-94232000D02*
X127711000Y-94845000D01*
X127671000Y-96925000D02*
X127671000Y-97584000D01*
X127671000Y-94186000D02*
X127671000Y-94845000D01*
X127631000Y-96925000D02*
X127631000Y-97628000D01*
X127631000Y-94142000D02*
X127631000Y-94845000D01*
X127591000Y-96925000D02*
X127591000Y-97670000D01*
X127591000Y-94100000D02*
X127591000Y-94845000D01*
X127551000Y-96925000D02*
X127551000Y-97711000D01*
X127551000Y-94059000D02*
X127551000Y-94845000D01*
X127511000Y-96925000D02*
X127511000Y-97749000D01*
X127511000Y-94021000D02*
X127511000Y-94845000D01*
X127471000Y-96925000D02*
X127471000Y-97786000D01*
X127471000Y-93984000D02*
X127471000Y-94845000D01*
X127431000Y-96925000D02*
X127431000Y-97822000D01*
X127431000Y-93948000D02*
X127431000Y-94845000D01*
X127391000Y-96925000D02*
X127391000Y-97856000D01*
X127391000Y-93914000D02*
X127391000Y-94845000D01*
X127351000Y-96925000D02*
X127351000Y-97889000D01*
X127351000Y-93881000D02*
X127351000Y-94845000D01*
X127311000Y-96925000D02*
X127311000Y-97920000D01*
X127311000Y-93850000D02*
X127311000Y-94845000D01*
X127271000Y-96925000D02*
X127271000Y-97950000D01*
X127271000Y-93820000D02*
X127271000Y-94845000D01*
X127231000Y-96925000D02*
X127231000Y-97980000D01*
X127231000Y-93790000D02*
X127231000Y-94845000D01*
X127191000Y-96925000D02*
X127191000Y-98007000D01*
X127191000Y-93763000D02*
X127191000Y-94845000D01*
X127151000Y-96925000D02*
X127151000Y-98034000D01*
X127151000Y-93736000D02*
X127151000Y-94845000D01*
X127111000Y-96925000D02*
X127111000Y-98060000D01*
X127111000Y-93710000D02*
X127111000Y-94845000D01*
X127071000Y-96925000D02*
X127071000Y-98085000D01*
X127071000Y-93685000D02*
X127071000Y-94845000D01*
X127031000Y-96925000D02*
X127031000Y-98109000D01*
X127031000Y-93661000D02*
X127031000Y-94845000D01*
X126991000Y-96925000D02*
X126991000Y-98132000D01*
X126991000Y-93638000D02*
X126991000Y-94845000D01*
X126951000Y-96925000D02*
X126951000Y-98153000D01*
X126951000Y-93617000D02*
X126951000Y-94845000D01*
X126911000Y-96925000D02*
X126911000Y-98175000D01*
X126911000Y-93595000D02*
X126911000Y-94845000D01*
X126871000Y-96925000D02*
X126871000Y-98195000D01*
X126871000Y-93575000D02*
X126871000Y-94845000D01*
X126831000Y-96925000D02*
X126831000Y-98214000D01*
X126831000Y-93556000D02*
X126831000Y-94845000D01*
X126791000Y-96925000D02*
X126791000Y-98233000D01*
X126791000Y-93537000D02*
X126791000Y-94845000D01*
X126751000Y-96925000D02*
X126751000Y-98250000D01*
X126751000Y-93520000D02*
X126751000Y-94845000D01*
X126711000Y-96925000D02*
X126711000Y-98267000D01*
X126711000Y-93503000D02*
X126711000Y-94845000D01*
X126671000Y-96925000D02*
X126671000Y-98283000D01*
X126671000Y-93487000D02*
X126671000Y-94845000D01*
X126631000Y-96925000D02*
X126631000Y-98299000D01*
X126631000Y-93471000D02*
X126631000Y-94845000D01*
X126591000Y-96925000D02*
X126591000Y-98313000D01*
X126591000Y-93457000D02*
X126591000Y-94845000D01*
X126551000Y-96925000D02*
X126551000Y-98327000D01*
X126551000Y-93443000D02*
X126551000Y-94845000D01*
X126511000Y-96925000D02*
X126511000Y-98340000D01*
X126511000Y-93430000D02*
X126511000Y-94845000D01*
X126471000Y-96925000D02*
X126471000Y-98353000D01*
X126471000Y-93417000D02*
X126471000Y-94845000D01*
X126431000Y-96925000D02*
X126431000Y-98365000D01*
X126431000Y-93405000D02*
X126431000Y-94845000D01*
X126390000Y-96925000D02*
X126390000Y-98376000D01*
X126390000Y-93394000D02*
X126390000Y-94845000D01*
X126350000Y-96925000D02*
X126350000Y-98386000D01*
X126350000Y-93384000D02*
X126350000Y-94845000D01*
X126310000Y-96925000D02*
X126310000Y-98396000D01*
X126310000Y-93374000D02*
X126310000Y-94845000D01*
X126270000Y-96925000D02*
X126270000Y-98405000D01*
X126270000Y-93365000D02*
X126270000Y-94845000D01*
X126230000Y-96925000D02*
X126230000Y-98413000D01*
X126230000Y-93357000D02*
X126230000Y-94845000D01*
X126190000Y-96925000D02*
X126190000Y-98421000D01*
X126190000Y-93349000D02*
X126190000Y-94845000D01*
X126150000Y-96925000D02*
X126150000Y-98428000D01*
X126150000Y-93342000D02*
X126150000Y-94845000D01*
X126110000Y-96925000D02*
X126110000Y-98435000D01*
X126110000Y-93335000D02*
X126110000Y-94845000D01*
X126070000Y-96925000D02*
X126070000Y-98441000D01*
X126070000Y-93329000D02*
X126070000Y-94845000D01*
X126030000Y-96925000D02*
X126030000Y-98446000D01*
X126030000Y-93324000D02*
X126030000Y-94845000D01*
X125990000Y-96925000D02*
X125990000Y-98450000D01*
X125990000Y-93320000D02*
X125990000Y-94845000D01*
X125950000Y-96925000D02*
X125950000Y-98454000D01*
X125950000Y-93316000D02*
X125950000Y-94845000D01*
X125910000Y-93312000D02*
X125910000Y-98458000D01*
X125870000Y-93309000D02*
X125870000Y-98461000D01*
X125830000Y-93307000D02*
X125830000Y-98463000D01*
X125790000Y-93306000D02*
X125790000Y-98464000D01*
X125750000Y-93305000D02*
X125750000Y-98465000D01*
X125710000Y-93305000D02*
X125710000Y-98465000D01*
X128330000Y-95885000D02*
G75*
G03X128330000Y-95885000I-2620000J0D01*
G01*
X165996252Y-84530000D02*
X165473748Y-84530000D01*
X165996252Y-83110000D02*
X165473748Y-83110000D01*
X165795000Y-72390000D02*
G75*
G03X165795000Y-72390000I-2620000J0D01*
G01*
X163175000Y-69810000D02*
X163175000Y-74970000D01*
X163215000Y-69810000D02*
X163215000Y-74970000D01*
X163255000Y-69811000D02*
X163255000Y-74969000D01*
X163295000Y-69812000D02*
X163295000Y-74968000D01*
X163335000Y-69814000D02*
X163335000Y-74966000D01*
X163375000Y-69817000D02*
X163375000Y-74963000D01*
X163415000Y-69821000D02*
X163415000Y-71350000D01*
X163415000Y-73430000D02*
X163415000Y-74959000D01*
X163455000Y-69825000D02*
X163455000Y-71350000D01*
X163455000Y-73430000D02*
X163455000Y-74955000D01*
X163495000Y-69829000D02*
X163495000Y-71350000D01*
X163495000Y-73430000D02*
X163495000Y-74951000D01*
X163535000Y-69834000D02*
X163535000Y-71350000D01*
X163535000Y-73430000D02*
X163535000Y-74946000D01*
X163575000Y-69840000D02*
X163575000Y-71350000D01*
X163575000Y-73430000D02*
X163575000Y-74940000D01*
X163615000Y-69847000D02*
X163615000Y-71350000D01*
X163615000Y-73430000D02*
X163615000Y-74933000D01*
X163655000Y-69854000D02*
X163655000Y-71350000D01*
X163655000Y-73430000D02*
X163655000Y-74926000D01*
X163695000Y-69862000D02*
X163695000Y-71350000D01*
X163695000Y-73430000D02*
X163695000Y-74918000D01*
X163735000Y-69870000D02*
X163735000Y-71350000D01*
X163735000Y-73430000D02*
X163735000Y-74910000D01*
X163775000Y-69879000D02*
X163775000Y-71350000D01*
X163775000Y-73430000D02*
X163775000Y-74901000D01*
X163815000Y-69889000D02*
X163815000Y-71350000D01*
X163815000Y-73430000D02*
X163815000Y-74891000D01*
X163855000Y-69899000D02*
X163855000Y-71350000D01*
X163855000Y-73430000D02*
X163855000Y-74881000D01*
X163896000Y-69910000D02*
X163896000Y-71350000D01*
X163896000Y-73430000D02*
X163896000Y-74870000D01*
X163936000Y-69922000D02*
X163936000Y-71350000D01*
X163936000Y-73430000D02*
X163936000Y-74858000D01*
X163976000Y-69935000D02*
X163976000Y-71350000D01*
X163976000Y-73430000D02*
X163976000Y-74845000D01*
X164016000Y-69948000D02*
X164016000Y-71350000D01*
X164016000Y-73430000D02*
X164016000Y-74832000D01*
X164056000Y-69962000D02*
X164056000Y-71350000D01*
X164056000Y-73430000D02*
X164056000Y-74818000D01*
X164096000Y-69976000D02*
X164096000Y-71350000D01*
X164096000Y-73430000D02*
X164096000Y-74804000D01*
X164136000Y-69992000D02*
X164136000Y-71350000D01*
X164136000Y-73430000D02*
X164136000Y-74788000D01*
X164176000Y-70008000D02*
X164176000Y-71350000D01*
X164176000Y-73430000D02*
X164176000Y-74772000D01*
X164216000Y-70025000D02*
X164216000Y-71350000D01*
X164216000Y-73430000D02*
X164216000Y-74755000D01*
X164256000Y-70042000D02*
X164256000Y-71350000D01*
X164256000Y-73430000D02*
X164256000Y-74738000D01*
X164296000Y-70061000D02*
X164296000Y-71350000D01*
X164296000Y-73430000D02*
X164296000Y-74719000D01*
X164336000Y-70080000D02*
X164336000Y-71350000D01*
X164336000Y-73430000D02*
X164336000Y-74700000D01*
X164376000Y-70100000D02*
X164376000Y-71350000D01*
X164376000Y-73430000D02*
X164376000Y-74680000D01*
X164416000Y-70122000D02*
X164416000Y-71350000D01*
X164416000Y-73430000D02*
X164416000Y-74658000D01*
X164456000Y-70143000D02*
X164456000Y-71350000D01*
X164456000Y-73430000D02*
X164456000Y-74637000D01*
X164496000Y-70166000D02*
X164496000Y-71350000D01*
X164496000Y-73430000D02*
X164496000Y-74614000D01*
X164536000Y-70190000D02*
X164536000Y-71350000D01*
X164536000Y-73430000D02*
X164536000Y-74590000D01*
X164576000Y-70215000D02*
X164576000Y-71350000D01*
X164576000Y-73430000D02*
X164576000Y-74565000D01*
X164616000Y-70241000D02*
X164616000Y-71350000D01*
X164616000Y-73430000D02*
X164616000Y-74539000D01*
X164656000Y-70268000D02*
X164656000Y-71350000D01*
X164656000Y-73430000D02*
X164656000Y-74512000D01*
X164696000Y-70295000D02*
X164696000Y-71350000D01*
X164696000Y-73430000D02*
X164696000Y-74485000D01*
X164736000Y-70325000D02*
X164736000Y-71350000D01*
X164736000Y-73430000D02*
X164736000Y-74455000D01*
X164776000Y-70355000D02*
X164776000Y-71350000D01*
X164776000Y-73430000D02*
X164776000Y-74425000D01*
X164816000Y-70386000D02*
X164816000Y-71350000D01*
X164816000Y-73430000D02*
X164816000Y-74394000D01*
X164856000Y-70419000D02*
X164856000Y-71350000D01*
X164856000Y-73430000D02*
X164856000Y-74361000D01*
X164896000Y-70453000D02*
X164896000Y-71350000D01*
X164896000Y-73430000D02*
X164896000Y-74327000D01*
X164936000Y-70489000D02*
X164936000Y-71350000D01*
X164936000Y-73430000D02*
X164936000Y-74291000D01*
X164976000Y-70526000D02*
X164976000Y-71350000D01*
X164976000Y-73430000D02*
X164976000Y-74254000D01*
X165016000Y-70564000D02*
X165016000Y-71350000D01*
X165016000Y-73430000D02*
X165016000Y-74216000D01*
X165056000Y-70605000D02*
X165056000Y-71350000D01*
X165056000Y-73430000D02*
X165056000Y-74175000D01*
X165096000Y-70647000D02*
X165096000Y-71350000D01*
X165096000Y-73430000D02*
X165096000Y-74133000D01*
X165136000Y-70691000D02*
X165136000Y-71350000D01*
X165136000Y-73430000D02*
X165136000Y-74089000D01*
X165176000Y-70737000D02*
X165176000Y-71350000D01*
X165176000Y-73430000D02*
X165176000Y-74043000D01*
X165216000Y-70785000D02*
X165216000Y-71350000D01*
X165216000Y-73430000D02*
X165216000Y-73995000D01*
X165256000Y-70836000D02*
X165256000Y-71350000D01*
X165256000Y-73430000D02*
X165256000Y-73944000D01*
X165296000Y-70890000D02*
X165296000Y-71350000D01*
X165296000Y-73430000D02*
X165296000Y-73890000D01*
X165336000Y-70947000D02*
X165336000Y-71350000D01*
X165336000Y-73430000D02*
X165336000Y-73833000D01*
X165376000Y-71007000D02*
X165376000Y-71350000D01*
X165376000Y-73430000D02*
X165376000Y-73773000D01*
X165416000Y-71071000D02*
X165416000Y-71350000D01*
X165416000Y-73430000D02*
X165416000Y-73709000D01*
X165456000Y-71139000D02*
X165456000Y-71350000D01*
X165456000Y-73430000D02*
X165456000Y-73641000D01*
X165496000Y-71212000D02*
X165496000Y-73568000D01*
X165536000Y-71292000D02*
X165536000Y-73488000D01*
X165576000Y-71379000D02*
X165576000Y-73401000D01*
X165616000Y-71475000D02*
X165616000Y-73305000D01*
X165656000Y-71585000D02*
X165656000Y-73195000D01*
X165696000Y-71713000D02*
X165696000Y-73067000D01*
X165736000Y-71872000D02*
X165736000Y-72908000D01*
X165776000Y-72106000D02*
X165776000Y-72674000D01*
X160370225Y-70915000D02*
X160870225Y-70915000D01*
X160620225Y-70665000D02*
X160620225Y-71165000D01*
X99433748Y-101675000D02*
X99956252Y-101675000D01*
X99433748Y-100255000D02*
X99956252Y-100255000D01*
X166930000Y-94631252D02*
X166930000Y-94108748D01*
X168350000Y-94631252D02*
X168350000Y-94108748D01*
X92745000Y-85925000D02*
X92745000Y-82985000D01*
X92505000Y-85925000D02*
X92505000Y-82985000D01*
X92625000Y-85925000D02*
X92625000Y-82985000D01*
X87065000Y-84455000D02*
X88085000Y-84455000D01*
X94545000Y-84455000D02*
X93525000Y-84455000D01*
X88085000Y-85925000D02*
X93525000Y-85925000D01*
X88085000Y-82985000D02*
X88085000Y-85925000D01*
X93525000Y-82985000D02*
X88085000Y-82985000D01*
X93525000Y-85925000D02*
X93525000Y-82985000D01*
X103325000Y-82985000D02*
X103325000Y-85925000D01*
X103325000Y-85925000D02*
X108765000Y-85925000D01*
X108765000Y-85925000D02*
X108765000Y-82985000D01*
X108765000Y-82985000D02*
X103325000Y-82985000D01*
X102305000Y-84455000D02*
X103325000Y-84455000D01*
X109785000Y-84455000D02*
X108765000Y-84455000D01*
X104225000Y-82985000D02*
X104225000Y-85925000D01*
X104345000Y-82985000D02*
X104345000Y-85925000D01*
X104105000Y-82985000D02*
X104105000Y-85925000D01*
X139245000Y-101165000D02*
X139245000Y-98225000D01*
X139245000Y-98225000D02*
X133805000Y-98225000D01*
X133805000Y-98225000D02*
X133805000Y-101165000D01*
X133805000Y-101165000D02*
X139245000Y-101165000D01*
X140265000Y-99695000D02*
X139245000Y-99695000D01*
X132785000Y-99695000D02*
X133805000Y-99695000D01*
X138345000Y-101165000D02*
X138345000Y-98225000D01*
X138225000Y-101165000D02*
X138225000Y-98225000D01*
X138465000Y-101165000D02*
X138465000Y-98225000D01*
X138465000Y-97355000D02*
X138465000Y-94415000D01*
X138225000Y-97355000D02*
X138225000Y-94415000D01*
X138345000Y-97355000D02*
X138345000Y-94415000D01*
X132785000Y-95885000D02*
X133805000Y-95885000D01*
X140265000Y-95885000D02*
X139245000Y-95885000D01*
X133805000Y-97355000D02*
X139245000Y-97355000D01*
X133805000Y-94415000D02*
X133805000Y-97355000D01*
X139245000Y-94415000D02*
X133805000Y-94415000D01*
X139245000Y-97355000D02*
X139245000Y-94415000D01*
X113855000Y-86925000D02*
X113855000Y-88135000D01*
X112555000Y-86925000D02*
X113855000Y-86925000D01*
X113705000Y-87085000D02*
X84695000Y-87085000D01*
X84695000Y-87085000D02*
X84695000Y-99605000D01*
X84695000Y-99605000D02*
X113705000Y-99605000D01*
X113705000Y-99605000D02*
X113705000Y-87085000D01*
X103925000Y-93005000D02*
X103925000Y-91905000D01*
X103925000Y-93705000D02*
X103925000Y-94805000D01*
X103755000Y-93005000D02*
X104155000Y-93705000D01*
X104555000Y-93005000D02*
X103355000Y-93005000D01*
X103355000Y-93005000D02*
X103355000Y-93705000D01*
X103355000Y-93705000D02*
X104555000Y-93705000D01*
X104555000Y-93705000D02*
X104555000Y-93005000D01*
X104555000Y-75925000D02*
X104555000Y-75225000D01*
X103355000Y-75925000D02*
X104555000Y-75925000D01*
X103355000Y-75225000D02*
X103355000Y-75925000D01*
X104555000Y-75225000D02*
X103355000Y-75225000D01*
X103755000Y-75225000D02*
X104155000Y-75925000D01*
X103925000Y-75925000D02*
X103925000Y-77025000D01*
X103925000Y-75225000D02*
X103925000Y-74125000D01*
X113705000Y-81825000D02*
X113705000Y-69305000D01*
X84695000Y-81825000D02*
X113705000Y-81825000D01*
X84695000Y-69305000D02*
X84695000Y-81825000D01*
X113705000Y-69305000D02*
X84695000Y-69305000D01*
X112555000Y-69145000D02*
X113855000Y-69145000D01*
X113855000Y-69145000D02*
X113855000Y-70355000D01*
X118483748Y-89610000D02*
X119006252Y-89610000D01*
X118483748Y-88190000D02*
X119006252Y-88190000D01*
X123563748Y-88190000D02*
X124086252Y-88190000D01*
X123563748Y-89610000D02*
X124086252Y-89610000D01*
X138168748Y-91365000D02*
X138691252Y-91365000D01*
X138168748Y-92785000D02*
X138691252Y-92785000D01*
X161028748Y-84530000D02*
X161551252Y-84530000D01*
X161028748Y-83110000D02*
X161551252Y-83110000D01*
X165996252Y-101040000D02*
X165473748Y-101040000D01*
X165996252Y-99620000D02*
X165473748Y-99620000D01*
X160916252Y-99620000D02*
X160393748Y-99620000D01*
X160916252Y-101040000D02*
X160393748Y-101040000D01*
X143445000Y-91330000D02*
X144845000Y-91330000D01*
X144845000Y-89010000D02*
X142945000Y-89010000D01*
X134685000Y-90915000D02*
X132785000Y-90915000D01*
X133285000Y-93235000D02*
X134685000Y-93235000D01*
D12*
X160870000Y-86275000D02*
X160870000Y-86400000D01*
X165520000Y-86275000D02*
X165520000Y-86500000D01*
X165520000Y-91525000D02*
X165520000Y-91300000D01*
X160870000Y-91525000D02*
X160870000Y-91300000D01*
X160870000Y-86275000D02*
X165520000Y-86275000D01*
X160870000Y-91525000D02*
X165520000Y-91525000D01*
X160870000Y-86400000D02*
X159520000Y-86400000D01*
X160935000Y-94260000D02*
X160935000Y-94385000D01*
X164185000Y-94260000D02*
X164185000Y-94485000D01*
X164185000Y-97510000D02*
X164185000Y-97285000D01*
X160935000Y-97510000D02*
X160935000Y-97285000D01*
X160935000Y-94260000D02*
X164185000Y-94260000D01*
X160935000Y-97510000D02*
X164185000Y-97510000D01*
X160935000Y-94385000D02*
X159860000Y-94385000D01*
D11*
X149077795Y-95465816D02*
G75*
G02X149805000Y-95990000I-1122795J-2324184D01*
G01*
X146856193Y-95433600D02*
G75*
G03X145355000Y-97790000I1098807J-2356400D01*
G01*
X146856193Y-100146400D02*
G75*
G02X145355000Y-97790000I1098807J2356400D01*
G01*
X149077795Y-100114184D02*
G75*
G03X149805000Y-99590000I-1122795J2324184D01*
G01*
X149805000Y-99590000D02*
X149805000Y-95990000D01*
X156155000Y-99590000D02*
X156155000Y-95990000D01*
X155427795Y-100114184D02*
G75*
G03X156155000Y-99590000I-1122795J2324184D01*
G01*
X153206193Y-100146400D02*
G75*
G02X151705000Y-97790000I1098807J2356400D01*
G01*
X153206193Y-95433600D02*
G75*
G03X151705000Y-97790000I1098807J-2356400D01*
G01*
X155427795Y-95465816D02*
G75*
G02X156155000Y-95990000I-1122795J-2324184D01*
G01*
D12*
X134067142Y-78211666D02*
X134114761Y-78259285D01*
X134162380Y-78402142D01*
X134162380Y-78497380D01*
X134114761Y-78640238D01*
X134019523Y-78735476D01*
X133924285Y-78783095D01*
X133733809Y-78830714D01*
X133590952Y-78830714D01*
X133400476Y-78783095D01*
X133305238Y-78735476D01*
X133210000Y-78640238D01*
X133162380Y-78497380D01*
X133162380Y-78402142D01*
X133210000Y-78259285D01*
X133257619Y-78211666D01*
X134162380Y-77259285D02*
X134162380Y-77830714D01*
X134162380Y-77545000D02*
X133162380Y-77545000D01*
X133305238Y-77640238D01*
X133400476Y-77735476D01*
X133448095Y-77830714D01*
X161123333Y-78717142D02*
X161075714Y-78764761D01*
X160932857Y-78812380D01*
X160837619Y-78812380D01*
X160694761Y-78764761D01*
X160599523Y-78669523D01*
X160551904Y-78574285D01*
X160504285Y-78383809D01*
X160504285Y-78240952D01*
X160551904Y-78050476D01*
X160599523Y-77955238D01*
X160694761Y-77860000D01*
X160837619Y-77812380D01*
X160932857Y-77812380D01*
X161075714Y-77860000D01*
X161123333Y-77907619D01*
X161504285Y-77907619D02*
X161551904Y-77860000D01*
X161647142Y-77812380D01*
X161885238Y-77812380D01*
X161980476Y-77860000D01*
X162028095Y-77907619D01*
X162075714Y-78002857D01*
X162075714Y-78098095D01*
X162028095Y-78240952D01*
X161456666Y-78812380D01*
X162075714Y-78812380D01*
X118558333Y-92492142D02*
X118510714Y-92539761D01*
X118367857Y-92587380D01*
X118272619Y-92587380D01*
X118129761Y-92539761D01*
X118034523Y-92444523D01*
X117986904Y-92349285D01*
X117939285Y-92158809D01*
X117939285Y-92015952D01*
X117986904Y-91825476D01*
X118034523Y-91730238D01*
X118129761Y-91635000D01*
X118272619Y-91587380D01*
X118367857Y-91587380D01*
X118510714Y-91635000D01*
X118558333Y-91682619D01*
X118891666Y-91587380D02*
X119510714Y-91587380D01*
X119177380Y-91968333D01*
X119320238Y-91968333D01*
X119415476Y-92015952D01*
X119463095Y-92063571D01*
X119510714Y-92158809D01*
X119510714Y-92396904D01*
X119463095Y-92492142D01*
X119415476Y-92539761D01*
X119320238Y-92587380D01*
X119034523Y-92587380D01*
X118939285Y-92539761D01*
X118891666Y-92492142D01*
X136104333Y-88749142D02*
X136056714Y-88796761D01*
X135913857Y-88844380D01*
X135818619Y-88844380D01*
X135675761Y-88796761D01*
X135580523Y-88701523D01*
X135532904Y-88606285D01*
X135485285Y-88415809D01*
X135485285Y-88272952D01*
X135532904Y-88082476D01*
X135580523Y-87987238D01*
X135675761Y-87892000D01*
X135818619Y-87844380D01*
X135913857Y-87844380D01*
X136056714Y-87892000D01*
X136104333Y-87939619D01*
X136961476Y-88177714D02*
X136961476Y-88844380D01*
X136723380Y-87796761D02*
X136485285Y-88511047D01*
X137104333Y-88511047D01*
X165568333Y-82017142D02*
X165520714Y-82064761D01*
X165377857Y-82112380D01*
X165282619Y-82112380D01*
X165139761Y-82064761D01*
X165044523Y-81969523D01*
X164996904Y-81874285D01*
X164949285Y-81683809D01*
X164949285Y-81540952D01*
X164996904Y-81350476D01*
X165044523Y-81255238D01*
X165139761Y-81160000D01*
X165282619Y-81112380D01*
X165377857Y-81112380D01*
X165520714Y-81160000D01*
X165568333Y-81207619D01*
X166473095Y-81112380D02*
X165996904Y-81112380D01*
X165949285Y-81588571D01*
X165996904Y-81540952D01*
X166092142Y-81493333D01*
X166330238Y-81493333D01*
X166425476Y-81540952D01*
X166473095Y-81588571D01*
X166520714Y-81683809D01*
X166520714Y-81921904D01*
X166473095Y-82017142D01*
X166425476Y-82064761D01*
X166330238Y-82112380D01*
X166092142Y-82112380D01*
X165996904Y-82064761D01*
X165949285Y-82017142D01*
X125543333Y-92492142D02*
X125495714Y-92539761D01*
X125352857Y-92587380D01*
X125257619Y-92587380D01*
X125114761Y-92539761D01*
X125019523Y-92444523D01*
X124971904Y-92349285D01*
X124924285Y-92158809D01*
X124924285Y-92015952D01*
X124971904Y-91825476D01*
X125019523Y-91730238D01*
X125114761Y-91635000D01*
X125257619Y-91587380D01*
X125352857Y-91587380D01*
X125495714Y-91635000D01*
X125543333Y-91682619D01*
X126400476Y-91587380D02*
X126210000Y-91587380D01*
X126114761Y-91635000D01*
X126067142Y-91682619D01*
X125971904Y-91825476D01*
X125924285Y-92015952D01*
X125924285Y-92396904D01*
X125971904Y-92492142D01*
X126019523Y-92539761D01*
X126114761Y-92587380D01*
X126305238Y-92587380D01*
X126400476Y-92539761D01*
X126448095Y-92492142D01*
X126495714Y-92396904D01*
X126495714Y-92158809D01*
X126448095Y-92063571D01*
X126400476Y-92015952D01*
X126305238Y-91968333D01*
X126114761Y-91968333D01*
X126019523Y-92015952D01*
X125971904Y-92063571D01*
X125924285Y-92158809D01*
X165568333Y-85827142D02*
X165520714Y-85874761D01*
X165377857Y-85922380D01*
X165282619Y-85922380D01*
X165139761Y-85874761D01*
X165044523Y-85779523D01*
X164996904Y-85684285D01*
X164949285Y-85493809D01*
X164949285Y-85350952D01*
X164996904Y-85160476D01*
X165044523Y-85065238D01*
X165139761Y-84970000D01*
X165282619Y-84922380D01*
X165377857Y-84922380D01*
X165520714Y-84970000D01*
X165568333Y-85017619D01*
X165901666Y-84922380D02*
X166568333Y-84922380D01*
X166139761Y-85922380D01*
X163008333Y-68997142D02*
X162960714Y-69044761D01*
X162817857Y-69092380D01*
X162722619Y-69092380D01*
X162579761Y-69044761D01*
X162484523Y-68949523D01*
X162436904Y-68854285D01*
X162389285Y-68663809D01*
X162389285Y-68520952D01*
X162436904Y-68330476D01*
X162484523Y-68235238D01*
X162579761Y-68140000D01*
X162722619Y-68092380D01*
X162817857Y-68092380D01*
X162960714Y-68140000D01*
X163008333Y-68187619D01*
X163579761Y-68520952D02*
X163484523Y-68473333D01*
X163436904Y-68425714D01*
X163389285Y-68330476D01*
X163389285Y-68282857D01*
X163436904Y-68187619D01*
X163484523Y-68140000D01*
X163579761Y-68092380D01*
X163770238Y-68092380D01*
X163865476Y-68140000D01*
X163913095Y-68187619D01*
X163960714Y-68282857D01*
X163960714Y-68330476D01*
X163913095Y-68425714D01*
X163865476Y-68473333D01*
X163770238Y-68520952D01*
X163579761Y-68520952D01*
X163484523Y-68568571D01*
X163436904Y-68616190D01*
X163389285Y-68711428D01*
X163389285Y-68901904D01*
X163436904Y-68997142D01*
X163484523Y-69044761D01*
X163579761Y-69092380D01*
X163770238Y-69092380D01*
X163865476Y-69044761D01*
X163913095Y-68997142D01*
X163960714Y-68901904D01*
X163960714Y-68711428D01*
X163913095Y-68616190D01*
X163865476Y-68568571D01*
X163770238Y-68520952D01*
X99528333Y-99672142D02*
X99480714Y-99719761D01*
X99337857Y-99767380D01*
X99242619Y-99767380D01*
X99099761Y-99719761D01*
X99004523Y-99624523D01*
X98956904Y-99529285D01*
X98909285Y-99338809D01*
X98909285Y-99195952D01*
X98956904Y-99005476D01*
X99004523Y-98910238D01*
X99099761Y-98815000D01*
X99242619Y-98767380D01*
X99337857Y-98767380D01*
X99480714Y-98815000D01*
X99528333Y-98862619D01*
X100004523Y-99767380D02*
X100195000Y-99767380D01*
X100290238Y-99719761D01*
X100337857Y-99672142D01*
X100433095Y-99529285D01*
X100480714Y-99338809D01*
X100480714Y-98957857D01*
X100433095Y-98862619D01*
X100385476Y-98815000D01*
X100290238Y-98767380D01*
X100099761Y-98767380D01*
X100004523Y-98815000D01*
X99956904Y-98862619D01*
X99909285Y-98957857D01*
X99909285Y-99195952D01*
X99956904Y-99291190D01*
X100004523Y-99338809D01*
X100099761Y-99386428D01*
X100290238Y-99386428D01*
X100385476Y-99338809D01*
X100433095Y-99291190D01*
X100480714Y-99195952D01*
X166347142Y-95012857D02*
X166394761Y-95060476D01*
X166442380Y-95203333D01*
X166442380Y-95298571D01*
X166394761Y-95441428D01*
X166299523Y-95536666D01*
X166204285Y-95584285D01*
X166013809Y-95631904D01*
X165870952Y-95631904D01*
X165680476Y-95584285D01*
X165585238Y-95536666D01*
X165490000Y-95441428D01*
X165442380Y-95298571D01*
X165442380Y-95203333D01*
X165490000Y-95060476D01*
X165537619Y-95012857D01*
X166442380Y-94060476D02*
X166442380Y-94631904D01*
X166442380Y-94346190D02*
X165442380Y-94346190D01*
X165585238Y-94441428D01*
X165680476Y-94536666D01*
X165728095Y-94631904D01*
X165442380Y-93441428D02*
X165442380Y-93346190D01*
X165490000Y-93250952D01*
X165537619Y-93203333D01*
X165632857Y-93155714D01*
X165823333Y-93108095D01*
X166061428Y-93108095D01*
X166251904Y-93155714D01*
X166347142Y-93203333D01*
X166394761Y-93250952D01*
X166442380Y-93346190D01*
X166442380Y-93441428D01*
X166394761Y-93536666D01*
X166347142Y-93584285D01*
X166251904Y-93631904D01*
X166061428Y-93679523D01*
X165823333Y-93679523D01*
X165632857Y-93631904D01*
X165537619Y-93584285D01*
X165490000Y-93536666D01*
X165442380Y-93441428D01*
X90066904Y-87377380D02*
X90066904Y-86377380D01*
X90305000Y-86377380D01*
X90447857Y-86425000D01*
X90543095Y-86520238D01*
X90590714Y-86615476D01*
X90638333Y-86805952D01*
X90638333Y-86948809D01*
X90590714Y-87139285D01*
X90543095Y-87234523D01*
X90447857Y-87329761D01*
X90305000Y-87377380D01*
X90066904Y-87377380D01*
X91590714Y-87377380D02*
X91019285Y-87377380D01*
X91305000Y-87377380D02*
X91305000Y-86377380D01*
X91209761Y-86520238D01*
X91114523Y-86615476D01*
X91019285Y-86663095D01*
X95623095Y-87007380D02*
X95623095Y-86007380D01*
X96194523Y-87007380D02*
X95765952Y-86435952D01*
X96194523Y-86007380D02*
X95623095Y-86578809D01*
X105306904Y-82437380D02*
X105306904Y-81437380D01*
X105545000Y-81437380D01*
X105687857Y-81485000D01*
X105783095Y-81580238D01*
X105830714Y-81675476D01*
X105878333Y-81865952D01*
X105878333Y-82008809D01*
X105830714Y-82199285D01*
X105783095Y-82294523D01*
X105687857Y-82389761D01*
X105545000Y-82437380D01*
X105306904Y-82437380D01*
X106259285Y-81532619D02*
X106306904Y-81485000D01*
X106402142Y-81437380D01*
X106640238Y-81437380D01*
X106735476Y-81485000D01*
X106783095Y-81532619D01*
X106830714Y-81627857D01*
X106830714Y-81723095D01*
X106783095Y-81865952D01*
X106211666Y-82437380D01*
X106830714Y-82437380D01*
X100703095Y-82807380D02*
X100703095Y-81807380D01*
X101274523Y-82807380D02*
X100845952Y-82235952D01*
X101274523Y-81807380D02*
X100703095Y-82378809D01*
X135786904Y-102617380D02*
X135786904Y-101617380D01*
X136025000Y-101617380D01*
X136167857Y-101665000D01*
X136263095Y-101760238D01*
X136310714Y-101855476D01*
X136358333Y-102045952D01*
X136358333Y-102188809D01*
X136310714Y-102379285D01*
X136263095Y-102474523D01*
X136167857Y-102569761D01*
X136025000Y-102617380D01*
X135786904Y-102617380D01*
X136691666Y-101617380D02*
X137310714Y-101617380D01*
X136977380Y-101998333D01*
X137120238Y-101998333D01*
X137215476Y-102045952D01*
X137263095Y-102093571D01*
X137310714Y-102188809D01*
X137310714Y-102426904D01*
X137263095Y-102522142D01*
X137215476Y-102569761D01*
X137120238Y-102617380D01*
X136834523Y-102617380D01*
X136739285Y-102569761D01*
X136691666Y-102522142D01*
X141343095Y-102247380D02*
X141343095Y-101247380D01*
X141914523Y-102247380D02*
X141485952Y-101675952D01*
X141914523Y-101247380D02*
X141343095Y-101818809D01*
X135786904Y-98807380D02*
X135786904Y-97807380D01*
X136025000Y-97807380D01*
X136167857Y-97855000D01*
X136263095Y-97950238D01*
X136310714Y-98045476D01*
X136358333Y-98235952D01*
X136358333Y-98378809D01*
X136310714Y-98569285D01*
X136263095Y-98664523D01*
X136167857Y-98759761D01*
X136025000Y-98807380D01*
X135786904Y-98807380D01*
X137215476Y-98140714D02*
X137215476Y-98807380D01*
X136977380Y-97759761D02*
X136739285Y-98474047D01*
X137358333Y-98474047D01*
X141343095Y-98437380D02*
X141343095Y-97437380D01*
X141914523Y-98437380D02*
X141485952Y-97865952D01*
X141914523Y-97437380D02*
X141343095Y-98008809D01*
D13*
X77513571Y-79322857D02*
X77513571Y-79037142D01*
X77442142Y-78894285D01*
X77370714Y-78822857D01*
X77156428Y-78680000D01*
X76870714Y-78608571D01*
X76299285Y-78608571D01*
X76156428Y-78680000D01*
X76085000Y-78751428D01*
X76013571Y-78894285D01*
X76013571Y-79180000D01*
X76085000Y-79322857D01*
X76156428Y-79394285D01*
X76299285Y-79465714D01*
X76656428Y-79465714D01*
X76799285Y-79394285D01*
X76870714Y-79322857D01*
X76942142Y-79180000D01*
X76942142Y-78894285D01*
X76870714Y-78751428D01*
X76799285Y-78680000D01*
X76656428Y-78608571D01*
X76013571Y-78180000D02*
X77513571Y-77680000D01*
X76013571Y-77180000D01*
X77085000Y-76751428D02*
X77085000Y-76037142D01*
X77513571Y-76894285D02*
X76013571Y-76394285D01*
X77513571Y-75894285D01*
X77370714Y-74537142D02*
X77442142Y-74608571D01*
X77513571Y-74822857D01*
X77513571Y-74965714D01*
X77442142Y-75180000D01*
X77299285Y-75322857D01*
X77156428Y-75394285D01*
X76870714Y-75465714D01*
X76656428Y-75465714D01*
X76370714Y-75394285D01*
X76227857Y-75322857D01*
X76085000Y-75180000D01*
X76013571Y-74965714D01*
X76013571Y-74822857D01*
X76085000Y-74608571D01*
X76156428Y-74537142D01*
X76942142Y-73894285D02*
X76942142Y-72751428D01*
X77513571Y-72037142D02*
X76013571Y-72037142D01*
X77513571Y-71322857D02*
X76013571Y-71322857D01*
X77513571Y-70465714D01*
X76013571Y-70465714D01*
X77513571Y-96575000D02*
X77513571Y-97432142D01*
X77513571Y-97003571D02*
X76013571Y-97003571D01*
X76227857Y-97146428D01*
X76370714Y-97289285D01*
X76442142Y-97432142D01*
X76156428Y-96003571D02*
X76085000Y-95932142D01*
X76013571Y-95789285D01*
X76013571Y-95432142D01*
X76085000Y-95289285D01*
X76156428Y-95217857D01*
X76299285Y-95146428D01*
X76442142Y-95146428D01*
X76656428Y-95217857D01*
X77513571Y-96075000D01*
X77513571Y-95146428D01*
X76013571Y-94717857D02*
X77513571Y-94217857D01*
X76013571Y-93717857D01*
X77513571Y-93217857D02*
X76013571Y-93217857D01*
X76013571Y-92860714D01*
X76085000Y-92646428D01*
X76227857Y-92503571D01*
X76370714Y-92432142D01*
X76656428Y-92360714D01*
X76870714Y-92360714D01*
X77156428Y-92432142D01*
X77299285Y-92503571D01*
X77442142Y-92646428D01*
X77513571Y-92860714D01*
X77513571Y-93217857D01*
X77370714Y-90860714D02*
X77442142Y-90932142D01*
X77513571Y-91146428D01*
X77513571Y-91289285D01*
X77442142Y-91503571D01*
X77299285Y-91646428D01*
X77156428Y-91717857D01*
X76870714Y-91789285D01*
X76656428Y-91789285D01*
X76370714Y-91717857D01*
X76227857Y-91646428D01*
X76085000Y-91503571D01*
X76013571Y-91289285D01*
X76013571Y-91146428D01*
X76085000Y-90932142D01*
X76156428Y-90860714D01*
X76942142Y-90217857D02*
X76942142Y-89075000D01*
X77513571Y-88360714D02*
X76013571Y-88360714D01*
X77513571Y-87646428D02*
X76013571Y-87646428D01*
X77513571Y-86789285D01*
X76013571Y-86789285D01*
X147907857Y-59503571D02*
X147193571Y-59503571D01*
X147122142Y-60217857D01*
X147193571Y-60146428D01*
X147336428Y-60075000D01*
X147693571Y-60075000D01*
X147836428Y-60146428D01*
X147907857Y-60217857D01*
X147979285Y-60360714D01*
X147979285Y-60717857D01*
X147907857Y-60860714D01*
X147836428Y-60932142D01*
X147693571Y-61003571D01*
X147336428Y-61003571D01*
X147193571Y-60932142D01*
X147122142Y-60860714D01*
X148407857Y-59503571D02*
X148907857Y-61003571D01*
X149407857Y-59503571D01*
X149907857Y-61003571D02*
X149907857Y-59503571D01*
X150265000Y-59503571D01*
X150479285Y-59575000D01*
X150622142Y-59717857D01*
X150693571Y-59860714D01*
X150765000Y-60146428D01*
X150765000Y-60360714D01*
X150693571Y-60646428D01*
X150622142Y-60789285D01*
X150479285Y-60932142D01*
X150265000Y-61003571D01*
X149907857Y-61003571D01*
X152265000Y-60860714D02*
X152193571Y-60932142D01*
X151979285Y-61003571D01*
X151836428Y-61003571D01*
X151622142Y-60932142D01*
X151479285Y-60789285D01*
X151407857Y-60646428D01*
X151336428Y-60360714D01*
X151336428Y-60146428D01*
X151407857Y-59860714D01*
X151479285Y-59717857D01*
X151622142Y-59575000D01*
X151836428Y-59503571D01*
X151979285Y-59503571D01*
X152193571Y-59575000D01*
X152265000Y-59646428D01*
X152907857Y-60432142D02*
X154050714Y-60432142D01*
X154765000Y-61003571D02*
X154765000Y-59503571D01*
X155479285Y-61003571D02*
X155479285Y-59503571D01*
X156336428Y-61003571D01*
X156336428Y-59503571D01*
X130556428Y-59575000D02*
X130413571Y-59503571D01*
X130199285Y-59503571D01*
X129985000Y-59575000D01*
X129842142Y-59717857D01*
X129770714Y-59860714D01*
X129699285Y-60146428D01*
X129699285Y-60360714D01*
X129770714Y-60646428D01*
X129842142Y-60789285D01*
X129985000Y-60932142D01*
X130199285Y-61003571D01*
X130342142Y-61003571D01*
X130556428Y-60932142D01*
X130627857Y-60860714D01*
X130627857Y-60360714D01*
X130342142Y-60360714D01*
X131270714Y-61003571D02*
X131270714Y-59503571D01*
X132127857Y-61003571D01*
X132127857Y-59503571D01*
X132842142Y-61003571D02*
X132842142Y-59503571D01*
X133199285Y-59503571D01*
X133413571Y-59575000D01*
X133556428Y-59717857D01*
X133627857Y-59860714D01*
X133699285Y-60146428D01*
X133699285Y-60360714D01*
X133627857Y-60646428D01*
X133556428Y-60789285D01*
X133413571Y-60932142D01*
X133199285Y-61003571D01*
X132842142Y-61003571D01*
X134342142Y-60432142D02*
X135485000Y-60432142D01*
X136913571Y-59503571D02*
X136199285Y-59503571D01*
X136127857Y-60217857D01*
X136199285Y-60146428D01*
X136342142Y-60075000D01*
X136699285Y-60075000D01*
X136842142Y-60146428D01*
X136913571Y-60217857D01*
X136985000Y-60360714D01*
X136985000Y-60717857D01*
X136913571Y-60860714D01*
X136842142Y-60932142D01*
X136699285Y-61003571D01*
X136342142Y-61003571D01*
X136199285Y-60932142D01*
X136127857Y-60860714D01*
X137413571Y-59503571D02*
X137913571Y-61003571D01*
X138413571Y-59503571D01*
X81872142Y-60432142D02*
X83015000Y-60432142D01*
X82443571Y-61003571D02*
X82443571Y-59860714D01*
X83800714Y-61003571D02*
X84086428Y-61003571D01*
X84229285Y-60932142D01*
X84300714Y-60860714D01*
X84443571Y-60646428D01*
X84515000Y-60360714D01*
X84515000Y-59789285D01*
X84443571Y-59646428D01*
X84372142Y-59575000D01*
X84229285Y-59503571D01*
X83943571Y-59503571D01*
X83800714Y-59575000D01*
X83729285Y-59646428D01*
X83657857Y-59789285D01*
X83657857Y-60146428D01*
X83729285Y-60289285D01*
X83800714Y-60360714D01*
X83943571Y-60432142D01*
X84229285Y-60432142D01*
X84372142Y-60360714D01*
X84443571Y-60289285D01*
X84515000Y-60146428D01*
X84943571Y-59503571D02*
X85443571Y-61003571D01*
X85943571Y-59503571D01*
X86372142Y-60575000D02*
X87086428Y-60575000D01*
X86229285Y-61003571D02*
X86729285Y-59503571D01*
X87229285Y-61003571D01*
X88586428Y-60860714D02*
X88515000Y-60932142D01*
X88300714Y-61003571D01*
X88157857Y-61003571D01*
X87943571Y-60932142D01*
X87800714Y-60789285D01*
X87729285Y-60646428D01*
X87657857Y-60360714D01*
X87657857Y-60146428D01*
X87729285Y-59860714D01*
X87800714Y-59717857D01*
X87943571Y-59575000D01*
X88157857Y-59503571D01*
X88300714Y-59503571D01*
X88515000Y-59575000D01*
X88586428Y-59646428D01*
X89229285Y-60432142D02*
X90372142Y-60432142D01*
X91372142Y-59503571D02*
X91657857Y-59503571D01*
X91800714Y-59575000D01*
X91943571Y-59717857D01*
X92015000Y-60003571D01*
X92015000Y-60503571D01*
X91943571Y-60789285D01*
X91800714Y-60932142D01*
X91657857Y-61003571D01*
X91372142Y-61003571D01*
X91229285Y-60932142D01*
X91086428Y-60789285D01*
X91015000Y-60503571D01*
X91015000Y-60003571D01*
X91086428Y-59717857D01*
X91229285Y-59575000D01*
X91372142Y-59503571D01*
X92657857Y-59503571D02*
X92657857Y-60717857D01*
X92729285Y-60860714D01*
X92800714Y-60932142D01*
X92943571Y-61003571D01*
X93229285Y-61003571D01*
X93372142Y-60932142D01*
X93443571Y-60860714D01*
X93515000Y-60717857D01*
X93515000Y-59503571D01*
X94015000Y-59503571D02*
X94872142Y-59503571D01*
X94443571Y-61003571D02*
X94443571Y-59503571D01*
X104732142Y-60432142D02*
X105875000Y-60432142D01*
X106660714Y-61003571D02*
X106946428Y-61003571D01*
X107089285Y-60932142D01*
X107160714Y-60860714D01*
X107303571Y-60646428D01*
X107375000Y-60360714D01*
X107375000Y-59789285D01*
X107303571Y-59646428D01*
X107232142Y-59575000D01*
X107089285Y-59503571D01*
X106803571Y-59503571D01*
X106660714Y-59575000D01*
X106589285Y-59646428D01*
X106517857Y-59789285D01*
X106517857Y-60146428D01*
X106589285Y-60289285D01*
X106660714Y-60360714D01*
X106803571Y-60432142D01*
X107089285Y-60432142D01*
X107232142Y-60360714D01*
X107303571Y-60289285D01*
X107375000Y-60146428D01*
X107803571Y-59503571D02*
X108303571Y-61003571D01*
X108803571Y-59503571D01*
X109232142Y-60575000D02*
X109946428Y-60575000D01*
X109089285Y-61003571D02*
X109589285Y-59503571D01*
X110089285Y-61003571D01*
X111446428Y-60860714D02*
X111375000Y-60932142D01*
X111160714Y-61003571D01*
X111017857Y-61003571D01*
X110803571Y-60932142D01*
X110660714Y-60789285D01*
X110589285Y-60646428D01*
X110517857Y-60360714D01*
X110517857Y-60146428D01*
X110589285Y-59860714D01*
X110660714Y-59717857D01*
X110803571Y-59575000D01*
X111017857Y-59503571D01*
X111160714Y-59503571D01*
X111375000Y-59575000D01*
X111446428Y-59646428D01*
X112089285Y-60432142D02*
X113232142Y-60432142D01*
X114232142Y-59503571D02*
X114517857Y-59503571D01*
X114660714Y-59575000D01*
X114803571Y-59717857D01*
X114875000Y-60003571D01*
X114875000Y-60503571D01*
X114803571Y-60789285D01*
X114660714Y-60932142D01*
X114517857Y-61003571D01*
X114232142Y-61003571D01*
X114089285Y-60932142D01*
X113946428Y-60789285D01*
X113875000Y-60503571D01*
X113875000Y-60003571D01*
X113946428Y-59717857D01*
X114089285Y-59575000D01*
X114232142Y-59503571D01*
X115517857Y-59503571D02*
X115517857Y-60717857D01*
X115589285Y-60860714D01*
X115660714Y-60932142D01*
X115803571Y-61003571D01*
X116089285Y-61003571D01*
X116232142Y-60932142D01*
X116303571Y-60860714D01*
X116375000Y-60717857D01*
X116375000Y-59503571D01*
X116875000Y-59503571D02*
X117732142Y-59503571D01*
X117303571Y-61003571D02*
X117303571Y-59503571D01*
X82765000Y-101643571D02*
X81907857Y-101643571D01*
X82336428Y-101643571D02*
X82336428Y-100143571D01*
X82193571Y-100357857D01*
X82050714Y-100500714D01*
X81907857Y-100572142D01*
X83336428Y-100286428D02*
X83407857Y-100215000D01*
X83550714Y-100143571D01*
X83907857Y-100143571D01*
X84050714Y-100215000D01*
X84122142Y-100286428D01*
X84193571Y-100429285D01*
X84193571Y-100572142D01*
X84122142Y-100786428D01*
X83265000Y-101643571D01*
X84193571Y-101643571D01*
X84622142Y-100143571D02*
X85122142Y-101643571D01*
X85622142Y-100143571D01*
X86122142Y-101643571D02*
X86122142Y-100143571D01*
X86479285Y-100143571D01*
X86693571Y-100215000D01*
X86836428Y-100357857D01*
X86907857Y-100500714D01*
X86979285Y-100786428D01*
X86979285Y-101000714D01*
X86907857Y-101286428D01*
X86836428Y-101429285D01*
X86693571Y-101572142D01*
X86479285Y-101643571D01*
X86122142Y-101643571D01*
X88479285Y-101500714D02*
X88407857Y-101572142D01*
X88193571Y-101643571D01*
X88050714Y-101643571D01*
X87836428Y-101572142D01*
X87693571Y-101429285D01*
X87622142Y-101286428D01*
X87550714Y-101000714D01*
X87550714Y-100786428D01*
X87622142Y-100500714D01*
X87693571Y-100357857D01*
X87836428Y-100215000D01*
X88050714Y-100143571D01*
X88193571Y-100143571D01*
X88407857Y-100215000D01*
X88479285Y-100286428D01*
X89122142Y-101072142D02*
X90265000Y-101072142D01*
X91265000Y-100143571D02*
X91550714Y-100143571D01*
X91693571Y-100215000D01*
X91836428Y-100357857D01*
X91907857Y-100643571D01*
X91907857Y-101143571D01*
X91836428Y-101429285D01*
X91693571Y-101572142D01*
X91550714Y-101643571D01*
X91265000Y-101643571D01*
X91122142Y-101572142D01*
X90979285Y-101429285D01*
X90907857Y-101143571D01*
X90907857Y-100643571D01*
X90979285Y-100357857D01*
X91122142Y-100215000D01*
X91265000Y-100143571D01*
X92550714Y-100143571D02*
X92550714Y-101357857D01*
X92622142Y-101500714D01*
X92693571Y-101572142D01*
X92836428Y-101643571D01*
X93122142Y-101643571D01*
X93265000Y-101572142D01*
X93336428Y-101500714D01*
X93407857Y-101357857D01*
X93407857Y-100143571D01*
X93907857Y-100143571D02*
X94765000Y-100143571D01*
X94336428Y-101643571D02*
X94336428Y-100143571D01*
X167227857Y-59503571D02*
X166513571Y-59503571D01*
X166442142Y-60217857D01*
X166513571Y-60146428D01*
X166656428Y-60075000D01*
X167013571Y-60075000D01*
X167156428Y-60146428D01*
X167227857Y-60217857D01*
X167299285Y-60360714D01*
X167299285Y-60717857D01*
X167227857Y-60860714D01*
X167156428Y-60932142D01*
X167013571Y-61003571D01*
X166656428Y-61003571D01*
X166513571Y-60932142D01*
X166442142Y-60860714D01*
X167727857Y-59503571D02*
X168227857Y-61003571D01*
X168727857Y-59503571D01*
X169227857Y-61003571D02*
X169227857Y-59503571D01*
X169585000Y-59503571D01*
X169799285Y-59575000D01*
X169942142Y-59717857D01*
X170013571Y-59860714D01*
X170085000Y-60146428D01*
X170085000Y-60360714D01*
X170013571Y-60646428D01*
X169942142Y-60789285D01*
X169799285Y-60932142D01*
X169585000Y-61003571D01*
X169227857Y-61003571D01*
X171585000Y-60860714D02*
X171513571Y-60932142D01*
X171299285Y-61003571D01*
X171156428Y-61003571D01*
X170942142Y-60932142D01*
X170799285Y-60789285D01*
X170727857Y-60646428D01*
X170656428Y-60360714D01*
X170656428Y-60146428D01*
X170727857Y-59860714D01*
X170799285Y-59717857D01*
X170942142Y-59575000D01*
X171156428Y-59503571D01*
X171299285Y-59503571D01*
X171513571Y-59575000D01*
X171585000Y-59646428D01*
X172227857Y-60432142D02*
X173370714Y-60432142D01*
X174370714Y-59503571D02*
X174656428Y-59503571D01*
X174799285Y-59575000D01*
X174942142Y-59717857D01*
X175013571Y-60003571D01*
X175013571Y-60503571D01*
X174942142Y-60789285D01*
X174799285Y-60932142D01*
X174656428Y-61003571D01*
X174370714Y-61003571D01*
X174227857Y-60932142D01*
X174085000Y-60789285D01*
X174013571Y-60503571D01*
X174013571Y-60003571D01*
X174085000Y-59717857D01*
X174227857Y-59575000D01*
X174370714Y-59503571D01*
X175656428Y-59503571D02*
X175656428Y-60717857D01*
X175727857Y-60860714D01*
X175799285Y-60932142D01*
X175942142Y-61003571D01*
X176227857Y-61003571D01*
X176370714Y-60932142D01*
X176442142Y-60860714D01*
X176513571Y-60717857D01*
X176513571Y-59503571D01*
X177013571Y-59503571D02*
X177870714Y-59503571D01*
X177442142Y-61003571D02*
X177442142Y-59503571D01*
X106982142Y-100215000D02*
X106839285Y-100143571D01*
X106625000Y-100143571D01*
X106410714Y-100215000D01*
X106267857Y-100357857D01*
X106196428Y-100500714D01*
X106125000Y-100786428D01*
X106125000Y-101000714D01*
X106196428Y-101286428D01*
X106267857Y-101429285D01*
X106410714Y-101572142D01*
X106625000Y-101643571D01*
X106767857Y-101643571D01*
X106982142Y-101572142D01*
X107053571Y-101500714D01*
X107053571Y-101000714D01*
X106767857Y-101000714D01*
X107696428Y-101643571D02*
X107696428Y-100143571D01*
X108553571Y-101643571D01*
X108553571Y-100143571D01*
X109267857Y-101643571D02*
X109267857Y-100143571D01*
X109625000Y-100143571D01*
X109839285Y-100215000D01*
X109982142Y-100357857D01*
X110053571Y-100500714D01*
X110125000Y-100786428D01*
X110125000Y-101000714D01*
X110053571Y-101286428D01*
X109982142Y-101429285D01*
X109839285Y-101572142D01*
X109625000Y-101643571D01*
X109267857Y-101643571D01*
X110767857Y-101072142D02*
X111910714Y-101072142D01*
X113410714Y-101643571D02*
X112553571Y-101643571D01*
X112982142Y-101643571D02*
X112982142Y-100143571D01*
X112839285Y-100357857D01*
X112696428Y-100500714D01*
X112553571Y-100572142D01*
X113982142Y-100286428D02*
X114053571Y-100215000D01*
X114196428Y-100143571D01*
X114553571Y-100143571D01*
X114696428Y-100215000D01*
X114767857Y-100286428D01*
X114839285Y-100429285D01*
X114839285Y-100572142D01*
X114767857Y-100786428D01*
X113910714Y-101643571D01*
X114839285Y-101643571D01*
X115267857Y-100143571D02*
X115767857Y-101643571D01*
X116267857Y-100143571D01*
X175145000Y-98297857D02*
X175073571Y-98440714D01*
X175073571Y-98655000D01*
X175145000Y-98869285D01*
X175287857Y-99012142D01*
X175430714Y-99083571D01*
X175716428Y-99155000D01*
X175930714Y-99155000D01*
X176216428Y-99083571D01*
X176359285Y-99012142D01*
X176502142Y-98869285D01*
X176573571Y-98655000D01*
X176573571Y-98512142D01*
X176502142Y-98297857D01*
X176430714Y-98226428D01*
X175930714Y-98226428D01*
X175930714Y-98512142D01*
X176573571Y-97583571D02*
X175073571Y-97583571D01*
X176573571Y-96726428D01*
X175073571Y-96726428D01*
X176573571Y-96012142D02*
X175073571Y-96012142D01*
X175073571Y-95655000D01*
X175145000Y-95440714D01*
X175287857Y-95297857D01*
X175430714Y-95226428D01*
X175716428Y-95155000D01*
X175930714Y-95155000D01*
X176216428Y-95226428D01*
X176359285Y-95297857D01*
X176502142Y-95440714D01*
X176573571Y-95655000D01*
X176573571Y-96012142D01*
D12*
X114647380Y-96714047D02*
X113647380Y-96714047D01*
X114647380Y-96142619D02*
X114075952Y-96571190D01*
X113647380Y-96142619D02*
X114218809Y-96714047D01*
X114647380Y-95190238D02*
X114647380Y-95761666D01*
X114647380Y-95475952D02*
X113647380Y-95475952D01*
X113790238Y-95571190D01*
X113885476Y-95666428D01*
X113933095Y-95761666D01*
X113742619Y-94809285D02*
X113695000Y-94761666D01*
X113647380Y-94666428D01*
X113647380Y-94428333D01*
X113695000Y-94333095D01*
X113742619Y-94285476D01*
X113837857Y-94237857D01*
X113933095Y-94237857D01*
X114075952Y-94285476D01*
X114647380Y-94856904D01*
X114647380Y-94237857D01*
X113647380Y-93952142D02*
X114647380Y-93618809D01*
X113647380Y-93285476D01*
X114647380Y-92952142D02*
X113647380Y-92952142D01*
X113647380Y-92714047D01*
X113695000Y-92571190D01*
X113790238Y-92475952D01*
X113885476Y-92428333D01*
X114075952Y-92380714D01*
X114218809Y-92380714D01*
X114409285Y-92428333D01*
X114504523Y-92475952D01*
X114599761Y-92571190D01*
X114647380Y-92714047D01*
X114647380Y-92952142D01*
X114552142Y-91380714D02*
X114599761Y-91428333D01*
X114647380Y-91571190D01*
X114647380Y-91666428D01*
X114599761Y-91809285D01*
X114504523Y-91904523D01*
X114409285Y-91952142D01*
X114218809Y-91999761D01*
X114075952Y-91999761D01*
X113885476Y-91952142D01*
X113790238Y-91904523D01*
X113695000Y-91809285D01*
X113647380Y-91666428D01*
X113647380Y-91571190D01*
X113695000Y-91428333D01*
X113742619Y-91380714D01*
X114647380Y-90428333D02*
X114647380Y-90999761D01*
X114647380Y-90714047D02*
X113647380Y-90714047D01*
X113790238Y-90809285D01*
X113885476Y-90904523D01*
X113933095Y-90999761D01*
X114647380Y-78386428D02*
X113647380Y-78386428D01*
X114647380Y-77815000D02*
X114075952Y-78243571D01*
X113647380Y-77815000D02*
X114218809Y-78386428D01*
X114647380Y-77338809D02*
X114647380Y-77148333D01*
X114599761Y-77053095D01*
X114552142Y-77005476D01*
X114409285Y-76910238D01*
X114218809Y-76862619D01*
X113837857Y-76862619D01*
X113742619Y-76910238D01*
X113695000Y-76957857D01*
X113647380Y-77053095D01*
X113647380Y-77243571D01*
X113695000Y-77338809D01*
X113742619Y-77386428D01*
X113837857Y-77434047D01*
X114075952Y-77434047D01*
X114171190Y-77386428D01*
X114218809Y-77338809D01*
X114266428Y-77243571D01*
X114266428Y-77053095D01*
X114218809Y-76957857D01*
X114171190Y-76910238D01*
X114075952Y-76862619D01*
X113647380Y-76576904D02*
X114647380Y-76243571D01*
X113647380Y-75910238D01*
X114361666Y-75624523D02*
X114361666Y-75148333D01*
X114647380Y-75719761D02*
X113647380Y-75386428D01*
X114647380Y-75053095D01*
X114552142Y-74148333D02*
X114599761Y-74195952D01*
X114647380Y-74338809D01*
X114647380Y-74434047D01*
X114599761Y-74576904D01*
X114504523Y-74672142D01*
X114409285Y-74719761D01*
X114218809Y-74767380D01*
X114075952Y-74767380D01*
X113885476Y-74719761D01*
X113790238Y-74672142D01*
X113695000Y-74576904D01*
X113647380Y-74434047D01*
X113647380Y-74338809D01*
X113695000Y-74195952D01*
X113742619Y-74148333D01*
X114647380Y-73195952D02*
X114647380Y-73767380D01*
X114647380Y-73481666D02*
X113647380Y-73481666D01*
X113790238Y-73576904D01*
X113885476Y-73672142D01*
X113933095Y-73767380D01*
X118578333Y-87702380D02*
X118245000Y-87226190D01*
X118006904Y-87702380D02*
X118006904Y-86702380D01*
X118387857Y-86702380D01*
X118483095Y-86750000D01*
X118530714Y-86797619D01*
X118578333Y-86892857D01*
X118578333Y-87035714D01*
X118530714Y-87130952D01*
X118483095Y-87178571D01*
X118387857Y-87226190D01*
X118006904Y-87226190D01*
X119530714Y-87702380D02*
X118959285Y-87702380D01*
X119245000Y-87702380D02*
X119245000Y-86702380D01*
X119149761Y-86845238D01*
X119054523Y-86940476D01*
X118959285Y-86988095D01*
X123658333Y-87702380D02*
X123325000Y-87226190D01*
X123086904Y-87702380D02*
X123086904Y-86702380D01*
X123467857Y-86702380D01*
X123563095Y-86750000D01*
X123610714Y-86797619D01*
X123658333Y-86892857D01*
X123658333Y-87035714D01*
X123610714Y-87130952D01*
X123563095Y-87178571D01*
X123467857Y-87226190D01*
X123086904Y-87226190D01*
X124039285Y-86797619D02*
X124086904Y-86750000D01*
X124182142Y-86702380D01*
X124420238Y-86702380D01*
X124515476Y-86750000D01*
X124563095Y-86797619D01*
X124610714Y-86892857D01*
X124610714Y-86988095D01*
X124563095Y-87130952D01*
X123991666Y-87702380D01*
X124610714Y-87702380D01*
X138263333Y-90877380D02*
X137930000Y-90401190D01*
X137691904Y-90877380D02*
X137691904Y-89877380D01*
X138072857Y-89877380D01*
X138168095Y-89925000D01*
X138215714Y-89972619D01*
X138263333Y-90067857D01*
X138263333Y-90210714D01*
X138215714Y-90305952D01*
X138168095Y-90353571D01*
X138072857Y-90401190D01*
X137691904Y-90401190D01*
X138596666Y-89877380D02*
X139215714Y-89877380D01*
X138882380Y-90258333D01*
X139025238Y-90258333D01*
X139120476Y-90305952D01*
X139168095Y-90353571D01*
X139215714Y-90448809D01*
X139215714Y-90686904D01*
X139168095Y-90782142D01*
X139120476Y-90829761D01*
X139025238Y-90877380D01*
X138739523Y-90877380D01*
X138644285Y-90829761D01*
X138596666Y-90782142D01*
X161123333Y-82622380D02*
X160790000Y-82146190D01*
X160551904Y-82622380D02*
X160551904Y-81622380D01*
X160932857Y-81622380D01*
X161028095Y-81670000D01*
X161075714Y-81717619D01*
X161123333Y-81812857D01*
X161123333Y-81955714D01*
X161075714Y-82050952D01*
X161028095Y-82098571D01*
X160932857Y-82146190D01*
X160551904Y-82146190D01*
X161980476Y-81955714D02*
X161980476Y-82622380D01*
X161742380Y-81574761D02*
X161504285Y-82289047D01*
X162123333Y-82289047D01*
X165568333Y-102432380D02*
X165235000Y-101956190D01*
X164996904Y-102432380D02*
X164996904Y-101432380D01*
X165377857Y-101432380D01*
X165473095Y-101480000D01*
X165520714Y-101527619D01*
X165568333Y-101622857D01*
X165568333Y-101765714D01*
X165520714Y-101860952D01*
X165473095Y-101908571D01*
X165377857Y-101956190D01*
X164996904Y-101956190D01*
X166473095Y-101432380D02*
X165996904Y-101432380D01*
X165949285Y-101908571D01*
X165996904Y-101860952D01*
X166092142Y-101813333D01*
X166330238Y-101813333D01*
X166425476Y-101860952D01*
X166473095Y-101908571D01*
X166520714Y-102003809D01*
X166520714Y-102241904D01*
X166473095Y-102337142D01*
X166425476Y-102384761D01*
X166330238Y-102432380D01*
X166092142Y-102432380D01*
X165996904Y-102384761D01*
X165949285Y-102337142D01*
X160488333Y-102432380D02*
X160155000Y-101956190D01*
X159916904Y-102432380D02*
X159916904Y-101432380D01*
X160297857Y-101432380D01*
X160393095Y-101480000D01*
X160440714Y-101527619D01*
X160488333Y-101622857D01*
X160488333Y-101765714D01*
X160440714Y-101860952D01*
X160393095Y-101908571D01*
X160297857Y-101956190D01*
X159916904Y-101956190D01*
X161345476Y-101432380D02*
X161155000Y-101432380D01*
X161059761Y-101480000D01*
X161012142Y-101527619D01*
X160916904Y-101670476D01*
X160869285Y-101860952D01*
X160869285Y-102241904D01*
X160916904Y-102337142D01*
X160964523Y-102384761D01*
X161059761Y-102432380D01*
X161250238Y-102432380D01*
X161345476Y-102384761D01*
X161393095Y-102337142D01*
X161440714Y-102241904D01*
X161440714Y-102003809D01*
X161393095Y-101908571D01*
X161345476Y-101860952D01*
X161250238Y-101813333D01*
X161059761Y-101813333D01*
X160964523Y-101860952D01*
X160916904Y-101908571D01*
X160869285Y-102003809D01*
X143383095Y-87622380D02*
X143383095Y-88431904D01*
X143430714Y-88527142D01*
X143478333Y-88574761D01*
X143573571Y-88622380D01*
X143764047Y-88622380D01*
X143859285Y-88574761D01*
X143906904Y-88527142D01*
X143954523Y-88431904D01*
X143954523Y-87622380D01*
X144954523Y-88622380D02*
X144383095Y-88622380D01*
X144668809Y-88622380D02*
X144668809Y-87622380D01*
X144573571Y-87765238D01*
X144478333Y-87860476D01*
X144383095Y-87908095D01*
X133223095Y-89527380D02*
X133223095Y-90336904D01*
X133270714Y-90432142D01*
X133318333Y-90479761D01*
X133413571Y-90527380D01*
X133604047Y-90527380D01*
X133699285Y-90479761D01*
X133746904Y-90432142D01*
X133794523Y-90336904D01*
X133794523Y-89527380D01*
X134223095Y-89622619D02*
X134270714Y-89575000D01*
X134365952Y-89527380D01*
X134604047Y-89527380D01*
X134699285Y-89575000D01*
X134746904Y-89622619D01*
X134794523Y-89717857D01*
X134794523Y-89813095D01*
X134746904Y-89955952D01*
X134175476Y-90527380D01*
X134794523Y-90527380D01*
X162433095Y-84802380D02*
X162433095Y-85611904D01*
X162480714Y-85707142D01*
X162528333Y-85754761D01*
X162623571Y-85802380D01*
X162814047Y-85802380D01*
X162909285Y-85754761D01*
X162956904Y-85707142D01*
X163004523Y-85611904D01*
X163004523Y-84802380D01*
X163385476Y-84802380D02*
X164004523Y-84802380D01*
X163671190Y-85183333D01*
X163814047Y-85183333D01*
X163909285Y-85230952D01*
X163956904Y-85278571D01*
X164004523Y-85373809D01*
X164004523Y-85611904D01*
X163956904Y-85707142D01*
X163909285Y-85754761D01*
X163814047Y-85802380D01*
X163528333Y-85802380D01*
X163433095Y-85754761D01*
X163385476Y-85707142D01*
X161798095Y-92787380D02*
X161798095Y-93596904D01*
X161845714Y-93692142D01*
X161893333Y-93739761D01*
X161988571Y-93787380D01*
X162179047Y-93787380D01*
X162274285Y-93739761D01*
X162321904Y-93692142D01*
X162369523Y-93596904D01*
X162369523Y-92787380D01*
X163274285Y-93120714D02*
X163274285Y-93787380D01*
X163036190Y-92739761D02*
X162798095Y-93454047D01*
X163417142Y-93454047D01*
X144942619Y-97885238D02*
X144895000Y-97980476D01*
X144799761Y-98075714D01*
X144656904Y-98218571D01*
X144609285Y-98313809D01*
X144609285Y-98409047D01*
X144847380Y-98361428D02*
X144799761Y-98456666D01*
X144704523Y-98551904D01*
X144514047Y-98599523D01*
X144180714Y-98599523D01*
X143990238Y-98551904D01*
X143895000Y-98456666D01*
X143847380Y-98361428D01*
X143847380Y-98170952D01*
X143895000Y-98075714D01*
X143990238Y-97980476D01*
X144180714Y-97932857D01*
X144514047Y-97932857D01*
X144704523Y-97980476D01*
X144799761Y-98075714D01*
X144847380Y-98170952D01*
X144847380Y-98361428D01*
X144847380Y-96980476D02*
X144847380Y-97551904D01*
X144847380Y-97266190D02*
X143847380Y-97266190D01*
X143990238Y-97361428D01*
X144085476Y-97456666D01*
X144133095Y-97551904D01*
X151292619Y-97885238D02*
X151245000Y-97980476D01*
X151149761Y-98075714D01*
X151006904Y-98218571D01*
X150959285Y-98313809D01*
X150959285Y-98409047D01*
X151197380Y-98361428D02*
X151149761Y-98456666D01*
X151054523Y-98551904D01*
X150864047Y-98599523D01*
X150530714Y-98599523D01*
X150340238Y-98551904D01*
X150245000Y-98456666D01*
X150197380Y-98361428D01*
X150197380Y-98170952D01*
X150245000Y-98075714D01*
X150340238Y-97980476D01*
X150530714Y-97932857D01*
X150864047Y-97932857D01*
X151054523Y-97980476D01*
X151149761Y-98075714D01*
X151197380Y-98170952D01*
X151197380Y-98361428D01*
X150292619Y-97551904D02*
X150245000Y-97504285D01*
X150197380Y-97409047D01*
X150197380Y-97170952D01*
X150245000Y-97075714D01*
X150292619Y-97028095D01*
X150387857Y-96980476D01*
X150483095Y-96980476D01*
X150625952Y-97028095D01*
X151197380Y-97599523D01*
X151197380Y-96980476D01*
M02*
