%FSLAX45Y45*%
G04 Gerber Fmt 4.5, Leading zero omitted, Abs format (unit mm)*
G04 Created by KiCad (PCBNEW (5.1.5)-3) date 2020-09-30 13:47:15*
%MOMM*%
%LPD*%
G04 APERTURE LIST*
%TA.AperFunction,Profile*%
%ADD10C,0.050000*%
%TD*%
%ADD11C,0.200000*%
%ADD12C,0.300000*%
G04 APERTURE END LIST*
D10*
X10795000Y-4000500D02*
X10858500Y-4064000D01*
X4318000Y-11239500D02*
X4254500Y-11176000D01*
X4318000Y-4000500D02*
X4254500Y-4064000D01*
X10795000Y-11239500D02*
X10858500Y-11176000D01*
X10795000Y-11239500D02*
X4318000Y-11239500D01*
X10858500Y-4064000D02*
X10858500Y-11176000D01*
X4318000Y-4000500D02*
X10795000Y-4000500D01*
X4254500Y-11176000D02*
X4254500Y-4064000D01*
D11*
X8673070Y-7409420D02*
X8703070Y-7439420D01*
X8703070Y-7409420D02*
X8673070Y-7439420D01*
X8675610Y-7605000D02*
X8705610Y-7635000D01*
X8705610Y-7605000D02*
X8675610Y-7635000D01*
X8676880Y-7671040D02*
X8706880Y-7701040D01*
X8706880Y-7671040D02*
X8676880Y-7701040D01*
X8676880Y-7734540D02*
X8706880Y-7764540D01*
X8706880Y-7734540D02*
X8676880Y-7764540D01*
X8991840Y-7605000D02*
X9021840Y-7635000D01*
X9021840Y-7605000D02*
X8991840Y-7635000D01*
X9027400Y-7465300D02*
X9057400Y-7495300D01*
X9057400Y-7465300D02*
X9027400Y-7495300D01*
X9256000Y-7966950D02*
X9286000Y-7996950D01*
X9286000Y-7966950D02*
X9256000Y-7996950D01*
X9266160Y-7734540D02*
X9296160Y-7764540D01*
X9296160Y-7734540D02*
X9266160Y-7764540D01*
X9474440Y-7409420D02*
X9504440Y-7439420D01*
X9504440Y-7409420D02*
X9474440Y-7439420D01*
X9475710Y-7605000D02*
X9505710Y-7635000D01*
X9505710Y-7605000D02*
X9475710Y-7635000D01*
X9475710Y-7669770D02*
X9505710Y-7699770D01*
X9505710Y-7669770D02*
X9475710Y-7699770D01*
X9497300Y-7968220D02*
X9527300Y-7998220D01*
X9527300Y-7968220D02*
X9497300Y-7998220D01*
X9532860Y-7733270D02*
X9562860Y-7763270D01*
X9562860Y-7733270D02*
X9532860Y-7763270D01*
X9692880Y-7540230D02*
X9722880Y-7570230D01*
X9722880Y-7540230D02*
X9692880Y-7570230D01*
X9850360Y-7897100D02*
X9880360Y-7927100D01*
X9880360Y-7897100D02*
X9850360Y-7927100D01*
X5392100Y-8928100D02*
G75*
G03X5392100Y-8928100I-20000J0D01*
G01*
X7449500Y-8978900D02*
G75*
G03X7449500Y-8978900I-20000J0D01*
G01*
X7652700Y-6845300D02*
G75*
G03X7652700Y-6845300I-20000J0D01*
G01*
X7703500Y-7429500D02*
G75*
G03X7703500Y-7429500I-20000J0D01*
G01*
X7741600Y-7975600D02*
G75*
G03X7741600Y-7975600I-20000J0D01*
G01*
X8021000Y-4699000D02*
G75*
G03X8021000Y-4699000I-20000J0D01*
G01*
X8059100Y-8216900D02*
G75*
G03X8059100Y-8216900I-20000J0D01*
G01*
X8089010Y-5219000D02*
G75*
G03X8089010Y-5219000I-20000J0D01*
G01*
X8148000Y-6477000D02*
G75*
G03X8148000Y-6477000I-20000J0D01*
G01*
X8198800Y-7734300D02*
G75*
G03X8198800Y-7734300I-20000J0D01*
G01*
X8198800Y-7912100D02*
G75*
G03X8198800Y-7912100I-20000J0D01*
G01*
X8363900Y-7429500D02*
G75*
G03X8363900Y-7429500I-20000J0D01*
G01*
X8364720Y-7211880D02*
G75*
G03X8364720Y-7211880I-20000J0D01*
G01*
X8556940Y-7865110D02*
G75*
G03X8556940Y-7865110I-20000J0D01*
G01*
X8781730Y-6930390D02*
G75*
G03X8781730Y-6930390I-20000J0D01*
G01*
X8783000Y-9436100D02*
G75*
G03X8783000Y-9436100I-20000J0D01*
G01*
X8783000Y-10121900D02*
G75*
G03X8783000Y-10121900I-20000J0D01*
G01*
X8942450Y-5219000D02*
G75*
G03X8942450Y-5219000I-20000J0D01*
G01*
X9024300Y-7226300D02*
G75*
G03X9024300Y-7226300I-20000J0D01*
G01*
X9424350Y-6426200D02*
G75*
G03X9424350Y-6426200I-20000J0D01*
G01*
X9581830Y-7898130D02*
G75*
G03X9581830Y-7898130I-20000J0D01*
G01*
X9620500Y-5219000D02*
G75*
G03X9620500Y-5219000I-20000J0D01*
G01*
X9622100Y-7112000D02*
G75*
G03X9622100Y-7112000I-20000J0D01*
G01*
X9633000Y-6794500D02*
G75*
G03X9633000Y-6794500I-20000J0D01*
G01*
X9793350Y-8273350D02*
G75*
G03X9793350Y-8273350I-20000J0D01*
G01*
X9885360Y-5483860D02*
G75*
G03X9885360Y-5483860I-20000J0D01*
G01*
X9938700Y-7518400D02*
G75*
G03X9938700Y-7518400I-20000J0D01*
G01*
X10053000Y-6654800D02*
G75*
G03X10053000Y-6654800I-20000J0D01*
G01*
X10104435Y-5702935D02*
G75*
G03X10104435Y-5702935I-20000J0D01*
G01*
X10116500Y-8089000D02*
G75*
G03X10116500Y-8089000I-20000J0D01*
G01*
X10116500Y-8293100D02*
G75*
G03X10116500Y-8293100I-20000J0D01*
G01*
X10169922Y-7259402D02*
G75*
G03X10169922Y-7259402I-20000J0D01*
G01*
X10430190Y-6028690D02*
G75*
G03X10430190Y-6028690I-20000J0D01*
G01*
X10542499Y-6490421D02*
G75*
G03X10542499Y-6490421I-20000J0D01*
G01*
X10542499Y-7006041D02*
G75*
G03X10542499Y-7006041I-20000J0D01*
G01*
X5304000Y-9369000D02*
X5304000Y-9439000D01*
X5269000Y-9404000D02*
X5339000Y-9404000D01*
X5304000Y-10119000D02*
X5304000Y-10189000D01*
X5269000Y-10154000D02*
X5339000Y-10154000D01*
X5804000Y-9369000D02*
X5804000Y-9439000D01*
X5769000Y-9404000D02*
X5839000Y-9404000D01*
X5804000Y-10119000D02*
X5804000Y-10189000D01*
X5769000Y-10154000D02*
X5839000Y-10154000D01*
X7804000Y-9369000D02*
X7804000Y-9439000D01*
X7769000Y-9404000D02*
X7839000Y-9404000D01*
X7804000Y-9744000D02*
X7804000Y-9814000D01*
X7769000Y-9779000D02*
X7839000Y-9779000D01*
X7804000Y-10119000D02*
X7804000Y-10189000D01*
X7769000Y-10154000D02*
X7839000Y-10154000D01*
X5304000Y-6829000D02*
X5304000Y-6899000D01*
X5269000Y-6864000D02*
X5339000Y-6864000D01*
X5304000Y-7579000D02*
X5304000Y-7649000D01*
X5269000Y-7614000D02*
X5339000Y-7614000D01*
X5804000Y-6829000D02*
X5804000Y-6899000D01*
X5769000Y-6864000D02*
X5839000Y-6864000D01*
X5804000Y-7579000D02*
X5804000Y-7649000D01*
X5769000Y-7614000D02*
X5839000Y-7614000D01*
X7804000Y-6829000D02*
X7804000Y-6899000D01*
X7769000Y-6864000D02*
X7839000Y-6864000D01*
X7804000Y-7204000D02*
X7804000Y-7274000D01*
X7769000Y-7239000D02*
X7839000Y-7239000D01*
X7804000Y-7579000D02*
X7804000Y-7649000D01*
X7769000Y-7614000D02*
X7839000Y-7614000D01*
X8346784Y-6822784D02*
X8346784Y-6766215D01*
X8290215Y-6766215D01*
X8290215Y-6822784D01*
X8346784Y-6822784D01*
X8596785Y-6822784D02*
X8596785Y-6766215D01*
X8540216Y-6766215D01*
X8540216Y-6822784D01*
X8596785Y-6822784D01*
X8537285Y-8410285D02*
X8537285Y-8353715D01*
X8480716Y-8353715D01*
X8480716Y-8410285D01*
X8537285Y-8410285D01*
X8537285Y-8660285D02*
X8537285Y-8603716D01*
X8480716Y-8603716D01*
X8480716Y-8660285D01*
X8537285Y-8660285D01*
X8998485Y-6822784D02*
X8998485Y-6766215D01*
X8941916Y-6766215D01*
X8941916Y-6822784D01*
X8998485Y-6822784D01*
X9248485Y-6822784D02*
X9248485Y-6766215D01*
X9191916Y-6766215D01*
X9191916Y-6822784D01*
X9248485Y-6822784D01*
X7902284Y-8283284D02*
X7902284Y-8226715D01*
X7845715Y-8226715D01*
X7845715Y-8283284D01*
X7902284Y-8283284D01*
X7902284Y-8537285D02*
X7902284Y-8480716D01*
X7845715Y-8480716D01*
X7845715Y-8537285D01*
X7902284Y-8537285D01*
X7902284Y-8791285D02*
X7902284Y-8734716D01*
X7845715Y-8734716D01*
X7845715Y-8791285D01*
X7902284Y-8791285D01*
X7140284Y-8283284D02*
X7140284Y-8226715D01*
X7083715Y-8226715D01*
X7083715Y-8283284D01*
X7140284Y-8283284D01*
X7140284Y-8537285D02*
X7140284Y-8480716D01*
X7083715Y-8480716D01*
X7083715Y-8537285D01*
X7140284Y-8537285D01*
X7140284Y-8791285D02*
X7140284Y-8734716D01*
X7083715Y-8734716D01*
X7083715Y-8791285D01*
X7140284Y-8791285D01*
X6159500Y-8310000D02*
X6214500Y-8255000D01*
X6159500Y-8200000D01*
X6104500Y-8255000D01*
X6159500Y-8310000D01*
X6159500Y-8564000D02*
X6214500Y-8509000D01*
X6159500Y-8454000D01*
X6104500Y-8509000D01*
X6159500Y-8564000D01*
X6159500Y-8818000D02*
X6214500Y-8763000D01*
X6159500Y-8708000D01*
X6104500Y-8763000D01*
X6159500Y-8818000D01*
X8509000Y-9326000D02*
X8564000Y-9271000D01*
X8509000Y-9216000D01*
X8454000Y-9271000D01*
X8509000Y-9326000D01*
X8509000Y-10342000D02*
X8564000Y-10287000D01*
X8509000Y-10232000D01*
X8454000Y-10287000D01*
X8509000Y-10342000D01*
X9017000Y-9326000D02*
X9072000Y-9271000D01*
X9017000Y-9216000D01*
X8962000Y-9271000D01*
X9017000Y-9326000D01*
X9017000Y-10342000D02*
X9072000Y-10287000D01*
X9017000Y-10232000D01*
X8962000Y-10287000D01*
X9017000Y-10342000D01*
X5274000Y-5020000D02*
X5394000Y-5140000D01*
X5394000Y-5020000D02*
X5274000Y-5140000D01*
X5394000Y-5080000D02*
G75*
G03X5394000Y-5080000I-60000J0D01*
G01*
X5274000Y-6110000D02*
X5394000Y-6230000D01*
X5394000Y-6110000D02*
X5274000Y-6230000D01*
X5394000Y-6170000D02*
G75*
G03X5394000Y-6170000I-60000J0D01*
G01*
X6354000Y-5020000D02*
X6474000Y-5140000D01*
X6474000Y-5020000D02*
X6354000Y-5140000D01*
X6474000Y-5080000D02*
G75*
G03X6474000Y-5080000I-60000J0D01*
G01*
X6364000Y-6110000D02*
X6484000Y-6230000D01*
X6484000Y-6110000D02*
X6364000Y-6230000D01*
X6484000Y-6170000D02*
G75*
G03X6484000Y-6170000I-60000J0D01*
G01*
X6925000Y-5159000D02*
X7045000Y-5279000D01*
X7045000Y-5159000D02*
X6925000Y-5279000D01*
X7045000Y-5219000D02*
G75*
G03X7045000Y-5219000I-60000J0D01*
G01*
X6925000Y-5909000D02*
X7045000Y-6029000D01*
X7045000Y-5909000D02*
X6925000Y-6029000D01*
X7045000Y-5969000D02*
G75*
G03X7045000Y-5969000I-60000J0D01*
G01*
X7798943Y-4242943D02*
X7949057Y-4393057D01*
X7949057Y-4242943D02*
X7798943Y-4393057D01*
X7874000Y-4242943D02*
X7874000Y-4393057D01*
X7798943Y-4318000D02*
X7949057Y-4318000D01*
X8306943Y-4242943D02*
X8457057Y-4393057D01*
X8457057Y-4242943D02*
X8306943Y-4393057D01*
X8382000Y-4242943D02*
X8382000Y-4393057D01*
X8306943Y-4318000D02*
X8457057Y-4318000D01*
X4496943Y-7036943D02*
X4647057Y-7187057D01*
X4647057Y-7036943D02*
X4496943Y-7187057D01*
X4572000Y-7036943D02*
X4572000Y-7187057D01*
X4496943Y-7112000D02*
X4647057Y-7112000D01*
X4496943Y-8560943D02*
X4647057Y-8711057D01*
X4647057Y-8560943D02*
X4496943Y-8711057D01*
X4572000Y-8560943D02*
X4572000Y-8711057D01*
X4496943Y-8636000D02*
X4647057Y-8636000D01*
X4496943Y-9068943D02*
X4647057Y-9219057D01*
X4647057Y-9068943D02*
X4496943Y-9219057D01*
X4572000Y-9068943D02*
X4572000Y-9219057D01*
X4496943Y-9144000D02*
X4647057Y-9144000D01*
X4496943Y-9576943D02*
X4647057Y-9727057D01*
X4647057Y-9576943D02*
X4496943Y-9727057D01*
X4572000Y-9576943D02*
X4572000Y-9727057D01*
X4496943Y-9652000D02*
X4647057Y-9652000D01*
X4496943Y-10084943D02*
X4647057Y-10235057D01*
X4647057Y-10084943D02*
X4496943Y-10235057D01*
X4572000Y-10084943D02*
X4572000Y-10235057D01*
X4496943Y-10160000D02*
X4647057Y-10160000D01*
X5766943Y-10846943D02*
X5917057Y-10997057D01*
X5917057Y-10846943D02*
X5766943Y-10997057D01*
X5842000Y-10846943D02*
X5842000Y-10997057D01*
X5766943Y-10922000D02*
X5917057Y-10922000D01*
X6274943Y-10846943D02*
X6425057Y-10997057D01*
X6425057Y-10846943D02*
X6274943Y-10997057D01*
X6350000Y-10846943D02*
X6350000Y-10997057D01*
X6274943Y-10922000D02*
X6425057Y-10922000D01*
X6782943Y-10846943D02*
X6933057Y-10997057D01*
X6933057Y-10846943D02*
X6782943Y-10997057D01*
X6858000Y-10846943D02*
X6858000Y-10997057D01*
X6782943Y-10922000D02*
X6933057Y-10922000D01*
X7290943Y-10846943D02*
X7441057Y-10997057D01*
X7441057Y-10846943D02*
X7290943Y-10997057D01*
X7366000Y-10846943D02*
X7366000Y-10997057D01*
X7290943Y-10922000D02*
X7441057Y-10922000D01*
X4496943Y-7798943D02*
X4647057Y-7949057D01*
X4647057Y-7798943D02*
X4496943Y-7949057D01*
X4572000Y-7798943D02*
X4572000Y-7949057D01*
X4496943Y-7874000D02*
X4647057Y-7874000D01*
X4496943Y-10846943D02*
X4647057Y-10997057D01*
X4647057Y-10846943D02*
X4496943Y-10997057D01*
X4572000Y-10846943D02*
X4572000Y-10997057D01*
X4496943Y-10922000D02*
X4647057Y-10922000D01*
X5004943Y-10846943D02*
X5155057Y-10997057D01*
X5155057Y-10846943D02*
X5004943Y-10997057D01*
X5080000Y-10846943D02*
X5080000Y-10997057D01*
X5004943Y-10922000D02*
X5155057Y-10922000D01*
X4496943Y-4750943D02*
X4647057Y-4901057D01*
X4647057Y-4750943D02*
X4496943Y-4901057D01*
X4572000Y-4750943D02*
X4572000Y-4901057D01*
X4496943Y-4826000D02*
X4647057Y-4826000D01*
X4496943Y-5258943D02*
X4647057Y-5409057D01*
X4647057Y-5258943D02*
X4496943Y-5409057D01*
X4572000Y-5258943D02*
X4572000Y-5409057D01*
X4496943Y-5334000D02*
X4647057Y-5334000D01*
X4496943Y-5766943D02*
X4647057Y-5917057D01*
X4647057Y-5766943D02*
X4496943Y-5917057D01*
X4572000Y-5766943D02*
X4572000Y-5917057D01*
X4496943Y-5842000D02*
X4647057Y-5842000D01*
X4496943Y-6274943D02*
X4647057Y-6425057D01*
X4647057Y-6274943D02*
X4496943Y-6425057D01*
X4572000Y-6274943D02*
X4572000Y-6425057D01*
X4496943Y-6350000D02*
X4647057Y-6350000D01*
X8941943Y-4242943D02*
X9092057Y-4393057D01*
X9092057Y-4242943D02*
X8941943Y-4393057D01*
X9017000Y-4242943D02*
X9017000Y-4393057D01*
X8941943Y-4318000D02*
X9092057Y-4318000D01*
X9449943Y-4242943D02*
X9600057Y-4393057D01*
X9600057Y-4242943D02*
X9449943Y-4393057D01*
X9525000Y-4242943D02*
X9525000Y-4393057D01*
X9449943Y-4318000D02*
X9600057Y-4318000D01*
X9957943Y-4242943D02*
X10108057Y-4393057D01*
X10108057Y-4242943D02*
X9957943Y-4393057D01*
X10033000Y-4242943D02*
X10033000Y-4393057D01*
X9957943Y-4318000D02*
X10108057Y-4318000D01*
X10465943Y-4242943D02*
X10616057Y-4393057D01*
X10616057Y-4242943D02*
X10465943Y-4393057D01*
X10541000Y-4242943D02*
X10541000Y-4393057D01*
X10465943Y-4318000D02*
X10616057Y-4318000D01*
X5512943Y-4242943D02*
X5663057Y-4393057D01*
X5663057Y-4242943D02*
X5512943Y-4393057D01*
X5588000Y-4242943D02*
X5588000Y-4393057D01*
X5512943Y-4318000D02*
X5663057Y-4318000D01*
X6020943Y-4242943D02*
X6171057Y-4393057D01*
X6171057Y-4242943D02*
X6020943Y-4393057D01*
X6096000Y-4242943D02*
X6096000Y-4393057D01*
X6020943Y-4318000D02*
X6171057Y-4318000D01*
X6528943Y-4242943D02*
X6679057Y-4393057D01*
X6679057Y-4242943D02*
X6528943Y-4393057D01*
X6604000Y-4242943D02*
X6604000Y-4393057D01*
X6528943Y-4318000D02*
X6679057Y-4318000D01*
X7036943Y-4242943D02*
X7187057Y-4393057D01*
X7187057Y-4242943D02*
X7036943Y-4393057D01*
X7112000Y-4242943D02*
X7112000Y-4393057D01*
X7036943Y-4318000D02*
X7187057Y-4318000D01*
X8052943Y-10846943D02*
X8203057Y-10997057D01*
X8203057Y-10846943D02*
X8052943Y-10997057D01*
X8128000Y-10846943D02*
X8128000Y-10997057D01*
X8052943Y-10922000D02*
X8203057Y-10922000D01*
X8560943Y-10846943D02*
X8711057Y-10997057D01*
X8711057Y-10846943D02*
X8560943Y-10997057D01*
X8636000Y-10846943D02*
X8636000Y-10997057D01*
X8560943Y-10922000D02*
X8711057Y-10922000D01*
X9068943Y-10846943D02*
X9219057Y-10997057D01*
X9219057Y-10846943D02*
X9068943Y-10997057D01*
X9144000Y-10846943D02*
X9144000Y-10997057D01*
X9068943Y-10922000D02*
X9219057Y-10922000D01*
X9576943Y-10846943D02*
X9727057Y-10997057D01*
X9727057Y-10846943D02*
X9576943Y-10997057D01*
X9652000Y-10846943D02*
X9652000Y-10997057D01*
X9576943Y-10922000D02*
X9727057Y-10922000D01*
X10465943Y-8560943D02*
X10616057Y-8711057D01*
X10616057Y-8560943D02*
X10465943Y-8711057D01*
X10541000Y-8560943D02*
X10541000Y-8711057D01*
X10465943Y-8636000D02*
X10616057Y-8636000D01*
X10465943Y-9068943D02*
X10616057Y-9219057D01*
X10616057Y-9068943D02*
X10465943Y-9219057D01*
X10541000Y-9068943D02*
X10541000Y-9219057D01*
X10465943Y-9144000D02*
X10616057Y-9144000D01*
X10465943Y-9576943D02*
X10616057Y-9727057D01*
X10616057Y-9576943D02*
X10465943Y-9727057D01*
X10541000Y-9576943D02*
X10541000Y-9727057D01*
X10465943Y-9652000D02*
X10616057Y-9652000D01*
X10465943Y-10084943D02*
X10616057Y-10235057D01*
X10616057Y-10084943D02*
X10465943Y-10235057D01*
X10541000Y-10084943D02*
X10541000Y-10235057D01*
X10465943Y-10160000D02*
X10616057Y-10160000D01*
D12*
X4538428Y-11707714D02*
X4538428Y-11407714D01*
X4609857Y-11407714D01*
X4652714Y-11422000D01*
X4681286Y-11450571D01*
X4695571Y-11479143D01*
X4709857Y-11536286D01*
X4709857Y-11579143D01*
X4695571Y-11636286D01*
X4681286Y-11664857D01*
X4652714Y-11693429D01*
X4609857Y-11707714D01*
X4538428Y-11707714D01*
X4838428Y-11707714D02*
X4838428Y-11507714D01*
X4838428Y-11564857D02*
X4852714Y-11536286D01*
X4867000Y-11522000D01*
X4895571Y-11507714D01*
X4924143Y-11507714D01*
X5024143Y-11707714D02*
X5024143Y-11507714D01*
X5024143Y-11407714D02*
X5009857Y-11422000D01*
X5024143Y-11436286D01*
X5038428Y-11422000D01*
X5024143Y-11407714D01*
X5024143Y-11436286D01*
X5209857Y-11707714D02*
X5181286Y-11693429D01*
X5167000Y-11664857D01*
X5167000Y-11407714D01*
X5367000Y-11707714D02*
X5338428Y-11693429D01*
X5324143Y-11664857D01*
X5324143Y-11407714D01*
X5709857Y-11707714D02*
X5709857Y-11407714D01*
X5809857Y-11622000D01*
X5909857Y-11407714D01*
X5909857Y-11707714D01*
X6181286Y-11707714D02*
X6181286Y-11550571D01*
X6167000Y-11522000D01*
X6138428Y-11507714D01*
X6081286Y-11507714D01*
X6052714Y-11522000D01*
X6181286Y-11693429D02*
X6152714Y-11707714D01*
X6081286Y-11707714D01*
X6052714Y-11693429D01*
X6038428Y-11664857D01*
X6038428Y-11636286D01*
X6052714Y-11607714D01*
X6081286Y-11593429D01*
X6152714Y-11593429D01*
X6181286Y-11579143D01*
X6324143Y-11507714D02*
X6324143Y-11807714D01*
X6324143Y-11522000D02*
X6352714Y-11507714D01*
X6409857Y-11507714D01*
X6438428Y-11522000D01*
X6452714Y-11536286D01*
X6467000Y-11564857D01*
X6467000Y-11650571D01*
X6452714Y-11679143D01*
X6438428Y-11693429D01*
X6409857Y-11707714D01*
X6352714Y-11707714D01*
X6324143Y-11693429D01*
X6595571Y-11679143D02*
X6609857Y-11693429D01*
X6595571Y-11707714D01*
X6581286Y-11693429D01*
X6595571Y-11679143D01*
X6595571Y-11707714D01*
X6595571Y-11522000D02*
X6609857Y-11536286D01*
X6595571Y-11550571D01*
X6581286Y-11536286D01*
X6595571Y-11522000D01*
X6595571Y-11550571D01*
X4222000Y-12187000D02*
X4252000Y-12217000D01*
X4252000Y-12187000D02*
X4222000Y-12217000D01*
X4595571Y-12037714D02*
X4624143Y-12037714D01*
X4652714Y-12052000D01*
X4667000Y-12066286D01*
X4681286Y-12094857D01*
X4695571Y-12152000D01*
X4695571Y-12223429D01*
X4681286Y-12280571D01*
X4667000Y-12309143D01*
X4652714Y-12323429D01*
X4624143Y-12337714D01*
X4595571Y-12337714D01*
X4567000Y-12323429D01*
X4552714Y-12309143D01*
X4538428Y-12280571D01*
X4524143Y-12223429D01*
X4524143Y-12152000D01*
X4538428Y-12094857D01*
X4552714Y-12066286D01*
X4567000Y-12052000D01*
X4595571Y-12037714D01*
X4824143Y-12309143D02*
X4838428Y-12323429D01*
X4824143Y-12337714D01*
X4809857Y-12323429D01*
X4824143Y-12309143D01*
X4824143Y-12337714D01*
X4938428Y-12037714D02*
X5124143Y-12037714D01*
X5024143Y-12152000D01*
X5067000Y-12152000D01*
X5095571Y-12166286D01*
X5109857Y-12180571D01*
X5124143Y-12209143D01*
X5124143Y-12280571D01*
X5109857Y-12309143D01*
X5095571Y-12323429D01*
X5067000Y-12337714D01*
X4981286Y-12337714D01*
X4952714Y-12323429D01*
X4938428Y-12309143D01*
X5309857Y-12037714D02*
X5338428Y-12037714D01*
X5367000Y-12052000D01*
X5381286Y-12066286D01*
X5395571Y-12094857D01*
X5409857Y-12152000D01*
X5409857Y-12223429D01*
X5395571Y-12280571D01*
X5381286Y-12309143D01*
X5367000Y-12323429D01*
X5338428Y-12337714D01*
X5309857Y-12337714D01*
X5281286Y-12323429D01*
X5267000Y-12309143D01*
X5252714Y-12280571D01*
X5238428Y-12223429D01*
X5238428Y-12152000D01*
X5252714Y-12094857D01*
X5267000Y-12066286D01*
X5281286Y-12052000D01*
X5309857Y-12037714D01*
X5538428Y-12337714D02*
X5538428Y-12137714D01*
X5538428Y-12166286D02*
X5552714Y-12152000D01*
X5581286Y-12137714D01*
X5624143Y-12137714D01*
X5652714Y-12152000D01*
X5667000Y-12180571D01*
X5667000Y-12337714D01*
X5667000Y-12180571D02*
X5681286Y-12152000D01*
X5709857Y-12137714D01*
X5752714Y-12137714D01*
X5781286Y-12152000D01*
X5795571Y-12180571D01*
X5795571Y-12337714D01*
X5938428Y-12337714D02*
X5938428Y-12137714D01*
X5938428Y-12166286D02*
X5952714Y-12152000D01*
X5981286Y-12137714D01*
X6024143Y-12137714D01*
X6052714Y-12152000D01*
X6067000Y-12180571D01*
X6067000Y-12337714D01*
X6067000Y-12180571D02*
X6081286Y-12152000D01*
X6109857Y-12137714D01*
X6152714Y-12137714D01*
X6181286Y-12152000D01*
X6195571Y-12180571D01*
X6195571Y-12337714D01*
X6781286Y-12023429D02*
X6524143Y-12409143D01*
X7167000Y-12037714D02*
X7195571Y-12037714D01*
X7224143Y-12052000D01*
X7238428Y-12066286D01*
X7252714Y-12094857D01*
X7267000Y-12152000D01*
X7267000Y-12223429D01*
X7252714Y-12280571D01*
X7238428Y-12309143D01*
X7224143Y-12323429D01*
X7195571Y-12337714D01*
X7167000Y-12337714D01*
X7138428Y-12323429D01*
X7124143Y-12309143D01*
X7109857Y-12280571D01*
X7095571Y-12223429D01*
X7095571Y-12152000D01*
X7109857Y-12094857D01*
X7124143Y-12066286D01*
X7138428Y-12052000D01*
X7167000Y-12037714D01*
X7395571Y-12309143D02*
X7409857Y-12323429D01*
X7395571Y-12337714D01*
X7381286Y-12323429D01*
X7395571Y-12309143D01*
X7395571Y-12337714D01*
X7595571Y-12037714D02*
X7624143Y-12037714D01*
X7652714Y-12052000D01*
X7667000Y-12066286D01*
X7681286Y-12094857D01*
X7695571Y-12152000D01*
X7695571Y-12223429D01*
X7681286Y-12280571D01*
X7667000Y-12309143D01*
X7652714Y-12323429D01*
X7624143Y-12337714D01*
X7595571Y-12337714D01*
X7567000Y-12323429D01*
X7552714Y-12309143D01*
X7538428Y-12280571D01*
X7524143Y-12223429D01*
X7524143Y-12152000D01*
X7538428Y-12094857D01*
X7552714Y-12066286D01*
X7567000Y-12052000D01*
X7595571Y-12037714D01*
X7981286Y-12337714D02*
X7809857Y-12337714D01*
X7895571Y-12337714D02*
X7895571Y-12037714D01*
X7867000Y-12080571D01*
X7838428Y-12109143D01*
X7809857Y-12123429D01*
X8095571Y-12066286D02*
X8109857Y-12052000D01*
X8138428Y-12037714D01*
X8209857Y-12037714D01*
X8238428Y-12052000D01*
X8252714Y-12066286D01*
X8267000Y-12094857D01*
X8267000Y-12123429D01*
X8252714Y-12166286D01*
X8081286Y-12337714D01*
X8267000Y-12337714D01*
X8381286Y-12037714D02*
X8381286Y-12094857D01*
X8495571Y-12037714D02*
X8495571Y-12094857D01*
X8938428Y-12452000D02*
X8924143Y-12437714D01*
X8895571Y-12394857D01*
X8881286Y-12366286D01*
X8867000Y-12323429D01*
X8852714Y-12252000D01*
X8852714Y-12194857D01*
X8867000Y-12123429D01*
X8881286Y-12080571D01*
X8895571Y-12052000D01*
X8924143Y-12009143D01*
X8938428Y-11994857D01*
X9209857Y-12337714D02*
X9038428Y-12337714D01*
X9124143Y-12337714D02*
X9124143Y-12037714D01*
X9095571Y-12080571D01*
X9067000Y-12109143D01*
X9038428Y-12123429D01*
X9481286Y-12037714D02*
X9338428Y-12037714D01*
X9324143Y-12180571D01*
X9338428Y-12166286D01*
X9367000Y-12152000D01*
X9438428Y-12152000D01*
X9467000Y-12166286D01*
X9481286Y-12180571D01*
X9495571Y-12209143D01*
X9495571Y-12280571D01*
X9481286Y-12309143D01*
X9467000Y-12323429D01*
X9438428Y-12337714D01*
X9367000Y-12337714D01*
X9338428Y-12323429D01*
X9324143Y-12309143D01*
X9852714Y-12337714D02*
X9852714Y-12037714D01*
X9981286Y-12337714D02*
X9981286Y-12180571D01*
X9967000Y-12152000D01*
X9938428Y-12137714D01*
X9895571Y-12137714D01*
X9867000Y-12152000D01*
X9852714Y-12166286D01*
X10167000Y-12337714D02*
X10138428Y-12323429D01*
X10124143Y-12309143D01*
X10109857Y-12280571D01*
X10109857Y-12194857D01*
X10124143Y-12166286D01*
X10138428Y-12152000D01*
X10167000Y-12137714D01*
X10209857Y-12137714D01*
X10238428Y-12152000D01*
X10252714Y-12166286D01*
X10267000Y-12194857D01*
X10267000Y-12280571D01*
X10252714Y-12309143D01*
X10238428Y-12323429D01*
X10209857Y-12337714D01*
X10167000Y-12337714D01*
X10438428Y-12337714D02*
X10409857Y-12323429D01*
X10395571Y-12294857D01*
X10395571Y-12037714D01*
X10667000Y-12323429D02*
X10638428Y-12337714D01*
X10581286Y-12337714D01*
X10552714Y-12323429D01*
X10538428Y-12294857D01*
X10538428Y-12180571D01*
X10552714Y-12152000D01*
X10581286Y-12137714D01*
X10638428Y-12137714D01*
X10667000Y-12152000D01*
X10681286Y-12180571D01*
X10681286Y-12209143D01*
X10538428Y-12237714D01*
X10795571Y-12323429D02*
X10824143Y-12337714D01*
X10881286Y-12337714D01*
X10909857Y-12323429D01*
X10924143Y-12294857D01*
X10924143Y-12280571D01*
X10909857Y-12252000D01*
X10881286Y-12237714D01*
X10838428Y-12237714D01*
X10809857Y-12223429D01*
X10795571Y-12194857D01*
X10795571Y-12180571D01*
X10809857Y-12152000D01*
X10838428Y-12137714D01*
X10881286Y-12137714D01*
X10909857Y-12152000D01*
X11024143Y-12452000D02*
X11038428Y-12437714D01*
X11067000Y-12394857D01*
X11081286Y-12366286D01*
X11095571Y-12323429D01*
X11109857Y-12252000D01*
X11109857Y-12194857D01*
X11095571Y-12123429D01*
X11081286Y-12080571D01*
X11067000Y-12052000D01*
X11038428Y-12009143D01*
X11024143Y-11994857D01*
X4252000Y-12598000D02*
G75*
G03X4252000Y-12598000I-20000J0D01*
G01*
X4595571Y-12433714D02*
X4624143Y-12433714D01*
X4652714Y-12448000D01*
X4667000Y-12462286D01*
X4681286Y-12490857D01*
X4695571Y-12548000D01*
X4695571Y-12619429D01*
X4681286Y-12676571D01*
X4667000Y-12705143D01*
X4652714Y-12719429D01*
X4624143Y-12733714D01*
X4595571Y-12733714D01*
X4567000Y-12719429D01*
X4552714Y-12705143D01*
X4538428Y-12676571D01*
X4524143Y-12619429D01*
X4524143Y-12548000D01*
X4538428Y-12490857D01*
X4552714Y-12462286D01*
X4567000Y-12448000D01*
X4595571Y-12433714D01*
X4824143Y-12705143D02*
X4838428Y-12719429D01*
X4824143Y-12733714D01*
X4809857Y-12719429D01*
X4824143Y-12705143D01*
X4824143Y-12733714D01*
X5095571Y-12533714D02*
X5095571Y-12733714D01*
X5024143Y-12419429D02*
X4952714Y-12633714D01*
X5138428Y-12633714D01*
X5309857Y-12433714D02*
X5338428Y-12433714D01*
X5367000Y-12448000D01*
X5381286Y-12462286D01*
X5395571Y-12490857D01*
X5409857Y-12548000D01*
X5409857Y-12619429D01*
X5395571Y-12676571D01*
X5381286Y-12705143D01*
X5367000Y-12719429D01*
X5338428Y-12733714D01*
X5309857Y-12733714D01*
X5281286Y-12719429D01*
X5267000Y-12705143D01*
X5252714Y-12676571D01*
X5238428Y-12619429D01*
X5238428Y-12548000D01*
X5252714Y-12490857D01*
X5267000Y-12462286D01*
X5281286Y-12448000D01*
X5309857Y-12433714D01*
X5538428Y-12733714D02*
X5538428Y-12533714D01*
X5538428Y-12562286D02*
X5552714Y-12548000D01*
X5581286Y-12533714D01*
X5624143Y-12533714D01*
X5652714Y-12548000D01*
X5667000Y-12576571D01*
X5667000Y-12733714D01*
X5667000Y-12576571D02*
X5681286Y-12548000D01*
X5709857Y-12533714D01*
X5752714Y-12533714D01*
X5781286Y-12548000D01*
X5795571Y-12576571D01*
X5795571Y-12733714D01*
X5938428Y-12733714D02*
X5938428Y-12533714D01*
X5938428Y-12562286D02*
X5952714Y-12548000D01*
X5981286Y-12533714D01*
X6024143Y-12533714D01*
X6052714Y-12548000D01*
X6067000Y-12576571D01*
X6067000Y-12733714D01*
X6067000Y-12576571D02*
X6081286Y-12548000D01*
X6109857Y-12533714D01*
X6152714Y-12533714D01*
X6181286Y-12548000D01*
X6195571Y-12576571D01*
X6195571Y-12733714D01*
X6781286Y-12419429D02*
X6524143Y-12805143D01*
X7167000Y-12433714D02*
X7195571Y-12433714D01*
X7224143Y-12448000D01*
X7238428Y-12462286D01*
X7252714Y-12490857D01*
X7267000Y-12548000D01*
X7267000Y-12619429D01*
X7252714Y-12676571D01*
X7238428Y-12705143D01*
X7224143Y-12719429D01*
X7195571Y-12733714D01*
X7167000Y-12733714D01*
X7138428Y-12719429D01*
X7124143Y-12705143D01*
X7109857Y-12676571D01*
X7095571Y-12619429D01*
X7095571Y-12548000D01*
X7109857Y-12490857D01*
X7124143Y-12462286D01*
X7138428Y-12448000D01*
X7167000Y-12433714D01*
X7395571Y-12705143D02*
X7409857Y-12719429D01*
X7395571Y-12733714D01*
X7381286Y-12719429D01*
X7395571Y-12705143D01*
X7395571Y-12733714D01*
X7595571Y-12433714D02*
X7624143Y-12433714D01*
X7652714Y-12448000D01*
X7667000Y-12462286D01*
X7681286Y-12490857D01*
X7695571Y-12548000D01*
X7695571Y-12619429D01*
X7681286Y-12676571D01*
X7667000Y-12705143D01*
X7652714Y-12719429D01*
X7624143Y-12733714D01*
X7595571Y-12733714D01*
X7567000Y-12719429D01*
X7552714Y-12705143D01*
X7538428Y-12676571D01*
X7524143Y-12619429D01*
X7524143Y-12548000D01*
X7538428Y-12490857D01*
X7552714Y-12462286D01*
X7567000Y-12448000D01*
X7595571Y-12433714D01*
X7981286Y-12733714D02*
X7809857Y-12733714D01*
X7895571Y-12733714D02*
X7895571Y-12433714D01*
X7867000Y-12476571D01*
X7838428Y-12505143D01*
X7809857Y-12519429D01*
X8238428Y-12433714D02*
X8181286Y-12433714D01*
X8152714Y-12448000D01*
X8138428Y-12462286D01*
X8109857Y-12505143D01*
X8095571Y-12562286D01*
X8095571Y-12676571D01*
X8109857Y-12705143D01*
X8124143Y-12719429D01*
X8152714Y-12733714D01*
X8209857Y-12733714D01*
X8238428Y-12719429D01*
X8252714Y-12705143D01*
X8267000Y-12676571D01*
X8267000Y-12605143D01*
X8252714Y-12576571D01*
X8238428Y-12562286D01*
X8209857Y-12548000D01*
X8152714Y-12548000D01*
X8124143Y-12562286D01*
X8109857Y-12576571D01*
X8095571Y-12605143D01*
X8381286Y-12433714D02*
X8381286Y-12490857D01*
X8495571Y-12433714D02*
X8495571Y-12490857D01*
X8938428Y-12848000D02*
X8924143Y-12833714D01*
X8895571Y-12790857D01*
X8881286Y-12762286D01*
X8867000Y-12719429D01*
X8852714Y-12648000D01*
X8852714Y-12590857D01*
X8867000Y-12519429D01*
X8881286Y-12476571D01*
X8895571Y-12448000D01*
X8924143Y-12405143D01*
X8938428Y-12390857D01*
X9024143Y-12433714D02*
X9209857Y-12433714D01*
X9109857Y-12548000D01*
X9152714Y-12548000D01*
X9181286Y-12562286D01*
X9195571Y-12576571D01*
X9209857Y-12605143D01*
X9209857Y-12676571D01*
X9195571Y-12705143D01*
X9181286Y-12719429D01*
X9152714Y-12733714D01*
X9067000Y-12733714D01*
X9038428Y-12719429D01*
X9024143Y-12705143D01*
X9481286Y-12433714D02*
X9338428Y-12433714D01*
X9324143Y-12576571D01*
X9338428Y-12562286D01*
X9367000Y-12548000D01*
X9438428Y-12548000D01*
X9467000Y-12562286D01*
X9481286Y-12576571D01*
X9495571Y-12605143D01*
X9495571Y-12676571D01*
X9481286Y-12705143D01*
X9467000Y-12719429D01*
X9438428Y-12733714D01*
X9367000Y-12733714D01*
X9338428Y-12719429D01*
X9324143Y-12705143D01*
X9852714Y-12733714D02*
X9852714Y-12433714D01*
X9981286Y-12733714D02*
X9981286Y-12576571D01*
X9967000Y-12548000D01*
X9938428Y-12533714D01*
X9895571Y-12533714D01*
X9867000Y-12548000D01*
X9852714Y-12562286D01*
X10167000Y-12733714D02*
X10138428Y-12719429D01*
X10124143Y-12705143D01*
X10109857Y-12676571D01*
X10109857Y-12590857D01*
X10124143Y-12562286D01*
X10138428Y-12548000D01*
X10167000Y-12533714D01*
X10209857Y-12533714D01*
X10238428Y-12548000D01*
X10252714Y-12562286D01*
X10267000Y-12590857D01*
X10267000Y-12676571D01*
X10252714Y-12705143D01*
X10238428Y-12719429D01*
X10209857Y-12733714D01*
X10167000Y-12733714D01*
X10438428Y-12733714D02*
X10409857Y-12719429D01*
X10395571Y-12690857D01*
X10395571Y-12433714D01*
X10667000Y-12719429D02*
X10638428Y-12733714D01*
X10581286Y-12733714D01*
X10552714Y-12719429D01*
X10538428Y-12690857D01*
X10538428Y-12576571D01*
X10552714Y-12548000D01*
X10581286Y-12533714D01*
X10638428Y-12533714D01*
X10667000Y-12548000D01*
X10681286Y-12576571D01*
X10681286Y-12605143D01*
X10538428Y-12633714D01*
X10795571Y-12719429D02*
X10824143Y-12733714D01*
X10881286Y-12733714D01*
X10909857Y-12719429D01*
X10924143Y-12690857D01*
X10924143Y-12676571D01*
X10909857Y-12648000D01*
X10881286Y-12633714D01*
X10838428Y-12633714D01*
X10809857Y-12619429D01*
X10795571Y-12590857D01*
X10795571Y-12576571D01*
X10809857Y-12548000D01*
X10838428Y-12533714D01*
X10881286Y-12533714D01*
X10909857Y-12548000D01*
X11024143Y-12848000D02*
X11038428Y-12833714D01*
X11067000Y-12790857D01*
X11081286Y-12762286D01*
X11095571Y-12719429D01*
X11109857Y-12648000D01*
X11109857Y-12590857D01*
X11095571Y-12519429D01*
X11081286Y-12476571D01*
X11067000Y-12448000D01*
X11038428Y-12405143D01*
X11024143Y-12390857D01*
X4217000Y-12959000D02*
X4217000Y-13029000D01*
X4182000Y-12994000D02*
X4252000Y-12994000D01*
X4595571Y-12829714D02*
X4624143Y-12829714D01*
X4652714Y-12844000D01*
X4667000Y-12858286D01*
X4681286Y-12886857D01*
X4695571Y-12944000D01*
X4695571Y-13015429D01*
X4681286Y-13072571D01*
X4667000Y-13101143D01*
X4652714Y-13115429D01*
X4624143Y-13129714D01*
X4595571Y-13129714D01*
X4567000Y-13115429D01*
X4552714Y-13101143D01*
X4538428Y-13072571D01*
X4524143Y-13015429D01*
X4524143Y-12944000D01*
X4538428Y-12886857D01*
X4552714Y-12858286D01*
X4567000Y-12844000D01*
X4595571Y-12829714D01*
X4824143Y-13101143D02*
X4838428Y-13115429D01*
X4824143Y-13129714D01*
X4809857Y-13115429D01*
X4824143Y-13101143D01*
X4824143Y-13129714D01*
X4938428Y-12829714D02*
X5138428Y-12829714D01*
X5009857Y-13129714D01*
X5309857Y-12829714D02*
X5338428Y-12829714D01*
X5367000Y-12844000D01*
X5381286Y-12858286D01*
X5395571Y-12886857D01*
X5409857Y-12944000D01*
X5409857Y-13015429D01*
X5395571Y-13072571D01*
X5381286Y-13101143D01*
X5367000Y-13115429D01*
X5338428Y-13129714D01*
X5309857Y-13129714D01*
X5281286Y-13115429D01*
X5267000Y-13101143D01*
X5252714Y-13072571D01*
X5238428Y-13015429D01*
X5238428Y-12944000D01*
X5252714Y-12886857D01*
X5267000Y-12858286D01*
X5281286Y-12844000D01*
X5309857Y-12829714D01*
X5538428Y-13129714D02*
X5538428Y-12929714D01*
X5538428Y-12958286D02*
X5552714Y-12944000D01*
X5581286Y-12929714D01*
X5624143Y-12929714D01*
X5652714Y-12944000D01*
X5667000Y-12972571D01*
X5667000Y-13129714D01*
X5667000Y-12972571D02*
X5681286Y-12944000D01*
X5709857Y-12929714D01*
X5752714Y-12929714D01*
X5781286Y-12944000D01*
X5795571Y-12972571D01*
X5795571Y-13129714D01*
X5938428Y-13129714D02*
X5938428Y-12929714D01*
X5938428Y-12958286D02*
X5952714Y-12944000D01*
X5981286Y-12929714D01*
X6024143Y-12929714D01*
X6052714Y-12944000D01*
X6067000Y-12972571D01*
X6067000Y-13129714D01*
X6067000Y-12972571D02*
X6081286Y-12944000D01*
X6109857Y-12929714D01*
X6152714Y-12929714D01*
X6181286Y-12944000D01*
X6195571Y-12972571D01*
X6195571Y-13129714D01*
X6781286Y-12815429D02*
X6524143Y-13201143D01*
X7167000Y-12829714D02*
X7195571Y-12829714D01*
X7224143Y-12844000D01*
X7238428Y-12858286D01*
X7252714Y-12886857D01*
X7267000Y-12944000D01*
X7267000Y-13015429D01*
X7252714Y-13072571D01*
X7238428Y-13101143D01*
X7224143Y-13115429D01*
X7195571Y-13129714D01*
X7167000Y-13129714D01*
X7138428Y-13115429D01*
X7124143Y-13101143D01*
X7109857Y-13072571D01*
X7095571Y-13015429D01*
X7095571Y-12944000D01*
X7109857Y-12886857D01*
X7124143Y-12858286D01*
X7138428Y-12844000D01*
X7167000Y-12829714D01*
X7395571Y-13101143D02*
X7409857Y-13115429D01*
X7395571Y-13129714D01*
X7381286Y-13115429D01*
X7395571Y-13101143D01*
X7395571Y-13129714D01*
X7595571Y-12829714D02*
X7624143Y-12829714D01*
X7652714Y-12844000D01*
X7667000Y-12858286D01*
X7681286Y-12886857D01*
X7695571Y-12944000D01*
X7695571Y-13015429D01*
X7681286Y-13072571D01*
X7667000Y-13101143D01*
X7652714Y-13115429D01*
X7624143Y-13129714D01*
X7595571Y-13129714D01*
X7567000Y-13115429D01*
X7552714Y-13101143D01*
X7538428Y-13072571D01*
X7524143Y-13015429D01*
X7524143Y-12944000D01*
X7538428Y-12886857D01*
X7552714Y-12858286D01*
X7567000Y-12844000D01*
X7595571Y-12829714D01*
X7809857Y-12858286D02*
X7824143Y-12844000D01*
X7852714Y-12829714D01*
X7924143Y-12829714D01*
X7952714Y-12844000D01*
X7967000Y-12858286D01*
X7981286Y-12886857D01*
X7981286Y-12915429D01*
X7967000Y-12958286D01*
X7795571Y-13129714D01*
X7981286Y-13129714D01*
X8152714Y-12958286D02*
X8124143Y-12944000D01*
X8109857Y-12929714D01*
X8095571Y-12901143D01*
X8095571Y-12886857D01*
X8109857Y-12858286D01*
X8124143Y-12844000D01*
X8152714Y-12829714D01*
X8209857Y-12829714D01*
X8238428Y-12844000D01*
X8252714Y-12858286D01*
X8267000Y-12886857D01*
X8267000Y-12901143D01*
X8252714Y-12929714D01*
X8238428Y-12944000D01*
X8209857Y-12958286D01*
X8152714Y-12958286D01*
X8124143Y-12972571D01*
X8109857Y-12986857D01*
X8095571Y-13015429D01*
X8095571Y-13072571D01*
X8109857Y-13101143D01*
X8124143Y-13115429D01*
X8152714Y-13129714D01*
X8209857Y-13129714D01*
X8238428Y-13115429D01*
X8252714Y-13101143D01*
X8267000Y-13072571D01*
X8267000Y-13015429D01*
X8252714Y-12986857D01*
X8238428Y-12972571D01*
X8209857Y-12958286D01*
X8381286Y-12829714D02*
X8381286Y-12886857D01*
X8495571Y-12829714D02*
X8495571Y-12886857D01*
X8938428Y-13244000D02*
X8924143Y-13229714D01*
X8895571Y-13186857D01*
X8881286Y-13158286D01*
X8867000Y-13115429D01*
X8852714Y-13044000D01*
X8852714Y-12986857D01*
X8867000Y-12915429D01*
X8881286Y-12872571D01*
X8895571Y-12844000D01*
X8924143Y-12801143D01*
X8938428Y-12786857D01*
X9209857Y-13129714D02*
X9038428Y-13129714D01*
X9124143Y-13129714D02*
X9124143Y-12829714D01*
X9095571Y-12872571D01*
X9067000Y-12901143D01*
X9038428Y-12915429D01*
X9467000Y-12929714D02*
X9467000Y-13129714D01*
X9395571Y-12815429D02*
X9324143Y-13029714D01*
X9509857Y-13029714D01*
X9852714Y-13129714D02*
X9852714Y-12829714D01*
X9981286Y-13129714D02*
X9981286Y-12972571D01*
X9967000Y-12944000D01*
X9938428Y-12929714D01*
X9895571Y-12929714D01*
X9867000Y-12944000D01*
X9852714Y-12958286D01*
X10167000Y-13129714D02*
X10138428Y-13115429D01*
X10124143Y-13101143D01*
X10109857Y-13072571D01*
X10109857Y-12986857D01*
X10124143Y-12958286D01*
X10138428Y-12944000D01*
X10167000Y-12929714D01*
X10209857Y-12929714D01*
X10238428Y-12944000D01*
X10252714Y-12958286D01*
X10267000Y-12986857D01*
X10267000Y-13072571D01*
X10252714Y-13101143D01*
X10238428Y-13115429D01*
X10209857Y-13129714D01*
X10167000Y-13129714D01*
X10438428Y-13129714D02*
X10409857Y-13115429D01*
X10395571Y-13086857D01*
X10395571Y-12829714D01*
X10667000Y-13115429D02*
X10638428Y-13129714D01*
X10581286Y-13129714D01*
X10552714Y-13115429D01*
X10538428Y-13086857D01*
X10538428Y-12972571D01*
X10552714Y-12944000D01*
X10581286Y-12929714D01*
X10638428Y-12929714D01*
X10667000Y-12944000D01*
X10681286Y-12972571D01*
X10681286Y-13001143D01*
X10538428Y-13029714D01*
X10795571Y-13115429D02*
X10824143Y-13129714D01*
X10881286Y-13129714D01*
X10909857Y-13115429D01*
X10924143Y-13086857D01*
X10924143Y-13072571D01*
X10909857Y-13044000D01*
X10881286Y-13029714D01*
X10838428Y-13029714D01*
X10809857Y-13015429D01*
X10795571Y-12986857D01*
X10795571Y-12972571D01*
X10809857Y-12944000D01*
X10838428Y-12929714D01*
X10881286Y-12929714D01*
X10909857Y-12944000D01*
X11024143Y-13244000D02*
X11038428Y-13229714D01*
X11067000Y-13186857D01*
X11081286Y-13158286D01*
X11095571Y-13115429D01*
X11109857Y-13044000D01*
X11109857Y-12986857D01*
X11095571Y-12915429D01*
X11081286Y-12872571D01*
X11067000Y-12844000D01*
X11038428Y-12801143D01*
X11024143Y-12786857D01*
X4240284Y-13418285D02*
X4240284Y-13361716D01*
X4183715Y-13361716D01*
X4183715Y-13418285D01*
X4240284Y-13418285D01*
X4595571Y-13225714D02*
X4624143Y-13225714D01*
X4652714Y-13240000D01*
X4667000Y-13254286D01*
X4681286Y-13282857D01*
X4695571Y-13340000D01*
X4695571Y-13411429D01*
X4681286Y-13468571D01*
X4667000Y-13497143D01*
X4652714Y-13511429D01*
X4624143Y-13525714D01*
X4595571Y-13525714D01*
X4567000Y-13511429D01*
X4552714Y-13497143D01*
X4538428Y-13468571D01*
X4524143Y-13411429D01*
X4524143Y-13340000D01*
X4538428Y-13282857D01*
X4552714Y-13254286D01*
X4567000Y-13240000D01*
X4595571Y-13225714D01*
X4824143Y-13497143D02*
X4838428Y-13511429D01*
X4824143Y-13525714D01*
X4809857Y-13511429D01*
X4824143Y-13497143D01*
X4824143Y-13525714D01*
X5009857Y-13354286D02*
X4981286Y-13340000D01*
X4967000Y-13325714D01*
X4952714Y-13297143D01*
X4952714Y-13282857D01*
X4967000Y-13254286D01*
X4981286Y-13240000D01*
X5009857Y-13225714D01*
X5067000Y-13225714D01*
X5095571Y-13240000D01*
X5109857Y-13254286D01*
X5124143Y-13282857D01*
X5124143Y-13297143D01*
X5109857Y-13325714D01*
X5095571Y-13340000D01*
X5067000Y-13354286D01*
X5009857Y-13354286D01*
X4981286Y-13368571D01*
X4967000Y-13382857D01*
X4952714Y-13411429D01*
X4952714Y-13468571D01*
X4967000Y-13497143D01*
X4981286Y-13511429D01*
X5009857Y-13525714D01*
X5067000Y-13525714D01*
X5095571Y-13511429D01*
X5109857Y-13497143D01*
X5124143Y-13468571D01*
X5124143Y-13411429D01*
X5109857Y-13382857D01*
X5095571Y-13368571D01*
X5067000Y-13354286D01*
X5309857Y-13225714D02*
X5338428Y-13225714D01*
X5367000Y-13240000D01*
X5381286Y-13254286D01*
X5395571Y-13282857D01*
X5409857Y-13340000D01*
X5409857Y-13411429D01*
X5395571Y-13468571D01*
X5381286Y-13497143D01*
X5367000Y-13511429D01*
X5338428Y-13525714D01*
X5309857Y-13525714D01*
X5281286Y-13511429D01*
X5267000Y-13497143D01*
X5252714Y-13468571D01*
X5238428Y-13411429D01*
X5238428Y-13340000D01*
X5252714Y-13282857D01*
X5267000Y-13254286D01*
X5281286Y-13240000D01*
X5309857Y-13225714D01*
X5538428Y-13525714D02*
X5538428Y-13325714D01*
X5538428Y-13354286D02*
X5552714Y-13340000D01*
X5581286Y-13325714D01*
X5624143Y-13325714D01*
X5652714Y-13340000D01*
X5667000Y-13368571D01*
X5667000Y-13525714D01*
X5667000Y-13368571D02*
X5681286Y-13340000D01*
X5709857Y-13325714D01*
X5752714Y-13325714D01*
X5781286Y-13340000D01*
X5795571Y-13368571D01*
X5795571Y-13525714D01*
X5938428Y-13525714D02*
X5938428Y-13325714D01*
X5938428Y-13354286D02*
X5952714Y-13340000D01*
X5981286Y-13325714D01*
X6024143Y-13325714D01*
X6052714Y-13340000D01*
X6067000Y-13368571D01*
X6067000Y-13525714D01*
X6067000Y-13368571D02*
X6081286Y-13340000D01*
X6109857Y-13325714D01*
X6152714Y-13325714D01*
X6181286Y-13340000D01*
X6195571Y-13368571D01*
X6195571Y-13525714D01*
X6781286Y-13211429D02*
X6524143Y-13597143D01*
X7167000Y-13225714D02*
X7195571Y-13225714D01*
X7224143Y-13240000D01*
X7238428Y-13254286D01*
X7252714Y-13282857D01*
X7267000Y-13340000D01*
X7267000Y-13411429D01*
X7252714Y-13468571D01*
X7238428Y-13497143D01*
X7224143Y-13511429D01*
X7195571Y-13525714D01*
X7167000Y-13525714D01*
X7138428Y-13511429D01*
X7124143Y-13497143D01*
X7109857Y-13468571D01*
X7095571Y-13411429D01*
X7095571Y-13340000D01*
X7109857Y-13282857D01*
X7124143Y-13254286D01*
X7138428Y-13240000D01*
X7167000Y-13225714D01*
X7395571Y-13497143D02*
X7409857Y-13511429D01*
X7395571Y-13525714D01*
X7381286Y-13511429D01*
X7395571Y-13497143D01*
X7395571Y-13525714D01*
X7595571Y-13225714D02*
X7624143Y-13225714D01*
X7652714Y-13240000D01*
X7667000Y-13254286D01*
X7681286Y-13282857D01*
X7695571Y-13340000D01*
X7695571Y-13411429D01*
X7681286Y-13468571D01*
X7667000Y-13497143D01*
X7652714Y-13511429D01*
X7624143Y-13525714D01*
X7595571Y-13525714D01*
X7567000Y-13511429D01*
X7552714Y-13497143D01*
X7538428Y-13468571D01*
X7524143Y-13411429D01*
X7524143Y-13340000D01*
X7538428Y-13282857D01*
X7552714Y-13254286D01*
X7567000Y-13240000D01*
X7595571Y-13225714D01*
X7795571Y-13225714D02*
X7981286Y-13225714D01*
X7881286Y-13340000D01*
X7924143Y-13340000D01*
X7952714Y-13354286D01*
X7967000Y-13368571D01*
X7981286Y-13397143D01*
X7981286Y-13468571D01*
X7967000Y-13497143D01*
X7952714Y-13511429D01*
X7924143Y-13525714D01*
X7838428Y-13525714D01*
X7809857Y-13511429D01*
X7795571Y-13497143D01*
X8267000Y-13525714D02*
X8095571Y-13525714D01*
X8181286Y-13525714D02*
X8181286Y-13225714D01*
X8152714Y-13268571D01*
X8124143Y-13297143D01*
X8095571Y-13311429D01*
X8381286Y-13225714D02*
X8381286Y-13282857D01*
X8495571Y-13225714D02*
X8495571Y-13282857D01*
X8938428Y-13640000D02*
X8924143Y-13625714D01*
X8895571Y-13582857D01*
X8881286Y-13554286D01*
X8867000Y-13511429D01*
X8852714Y-13440000D01*
X8852714Y-13382857D01*
X8867000Y-13311429D01*
X8881286Y-13268571D01*
X8895571Y-13240000D01*
X8924143Y-13197143D01*
X8938428Y-13182857D01*
X9209857Y-13525714D02*
X9038428Y-13525714D01*
X9124143Y-13525714D02*
X9124143Y-13225714D01*
X9095571Y-13268571D01*
X9067000Y-13297143D01*
X9038428Y-13311429D01*
X9324143Y-13254286D02*
X9338428Y-13240000D01*
X9367000Y-13225714D01*
X9438428Y-13225714D01*
X9467000Y-13240000D01*
X9481286Y-13254286D01*
X9495571Y-13282857D01*
X9495571Y-13311429D01*
X9481286Y-13354286D01*
X9309857Y-13525714D01*
X9495571Y-13525714D01*
X9852714Y-13525714D02*
X9852714Y-13225714D01*
X9981286Y-13525714D02*
X9981286Y-13368571D01*
X9967000Y-13340000D01*
X9938428Y-13325714D01*
X9895571Y-13325714D01*
X9867000Y-13340000D01*
X9852714Y-13354286D01*
X10167000Y-13525714D02*
X10138428Y-13511429D01*
X10124143Y-13497143D01*
X10109857Y-13468571D01*
X10109857Y-13382857D01*
X10124143Y-13354286D01*
X10138428Y-13340000D01*
X10167000Y-13325714D01*
X10209857Y-13325714D01*
X10238428Y-13340000D01*
X10252714Y-13354286D01*
X10267000Y-13382857D01*
X10267000Y-13468571D01*
X10252714Y-13497143D01*
X10238428Y-13511429D01*
X10209857Y-13525714D01*
X10167000Y-13525714D01*
X10438428Y-13525714D02*
X10409857Y-13511429D01*
X10395571Y-13482857D01*
X10395571Y-13225714D01*
X10667000Y-13511429D02*
X10638428Y-13525714D01*
X10581286Y-13525714D01*
X10552714Y-13511429D01*
X10538428Y-13482857D01*
X10538428Y-13368571D01*
X10552714Y-13340000D01*
X10581286Y-13325714D01*
X10638428Y-13325714D01*
X10667000Y-13340000D01*
X10681286Y-13368571D01*
X10681286Y-13397143D01*
X10538428Y-13425714D01*
X10795571Y-13511429D02*
X10824143Y-13525714D01*
X10881286Y-13525714D01*
X10909857Y-13511429D01*
X10924143Y-13482857D01*
X10924143Y-13468571D01*
X10909857Y-13440000D01*
X10881286Y-13425714D01*
X10838428Y-13425714D01*
X10809857Y-13411429D01*
X10795571Y-13382857D01*
X10795571Y-13368571D01*
X10809857Y-13340000D01*
X10838428Y-13325714D01*
X10881286Y-13325714D01*
X10909857Y-13340000D01*
X11024143Y-13640000D02*
X11038428Y-13625714D01*
X11067000Y-13582857D01*
X11081286Y-13554286D01*
X11095571Y-13511429D01*
X11109857Y-13440000D01*
X11109857Y-13382857D01*
X11095571Y-13311429D01*
X11081286Y-13268571D01*
X11067000Y-13240000D01*
X11038428Y-13197143D01*
X11024143Y-13182857D01*
X4197000Y-13841000D02*
X4252000Y-13786000D01*
X4197000Y-13731000D01*
X4142000Y-13786000D01*
X4197000Y-13841000D01*
X4695571Y-13921714D02*
X4524143Y-13921714D01*
X4609857Y-13921714D02*
X4609857Y-13621714D01*
X4581286Y-13664571D01*
X4552714Y-13693143D01*
X4524143Y-13707429D01*
X4824143Y-13893143D02*
X4838428Y-13907429D01*
X4824143Y-13921714D01*
X4809857Y-13907429D01*
X4824143Y-13893143D01*
X4824143Y-13921714D01*
X5124143Y-13921714D02*
X4952714Y-13921714D01*
X5038428Y-13921714D02*
X5038428Y-13621714D01*
X5009857Y-13664571D01*
X4981286Y-13693143D01*
X4952714Y-13707429D01*
X5309857Y-13621714D02*
X5338428Y-13621714D01*
X5367000Y-13636000D01*
X5381286Y-13650286D01*
X5395571Y-13678857D01*
X5409857Y-13736000D01*
X5409857Y-13807429D01*
X5395571Y-13864571D01*
X5381286Y-13893143D01*
X5367000Y-13907429D01*
X5338428Y-13921714D01*
X5309857Y-13921714D01*
X5281286Y-13907429D01*
X5267000Y-13893143D01*
X5252714Y-13864571D01*
X5238428Y-13807429D01*
X5238428Y-13736000D01*
X5252714Y-13678857D01*
X5267000Y-13650286D01*
X5281286Y-13636000D01*
X5309857Y-13621714D01*
X5538428Y-13921714D02*
X5538428Y-13721714D01*
X5538428Y-13750286D02*
X5552714Y-13736000D01*
X5581286Y-13721714D01*
X5624143Y-13721714D01*
X5652714Y-13736000D01*
X5667000Y-13764571D01*
X5667000Y-13921714D01*
X5667000Y-13764571D02*
X5681286Y-13736000D01*
X5709857Y-13721714D01*
X5752714Y-13721714D01*
X5781286Y-13736000D01*
X5795571Y-13764571D01*
X5795571Y-13921714D01*
X5938428Y-13921714D02*
X5938428Y-13721714D01*
X5938428Y-13750286D02*
X5952714Y-13736000D01*
X5981286Y-13721714D01*
X6024143Y-13721714D01*
X6052714Y-13736000D01*
X6067000Y-13764571D01*
X6067000Y-13921714D01*
X6067000Y-13764571D02*
X6081286Y-13736000D01*
X6109857Y-13721714D01*
X6152714Y-13721714D01*
X6181286Y-13736000D01*
X6195571Y-13764571D01*
X6195571Y-13921714D01*
X6781286Y-13607429D02*
X6524143Y-13993143D01*
X7167000Y-13621714D02*
X7195571Y-13621714D01*
X7224143Y-13636000D01*
X7238428Y-13650286D01*
X7252714Y-13678857D01*
X7267000Y-13736000D01*
X7267000Y-13807429D01*
X7252714Y-13864571D01*
X7238428Y-13893143D01*
X7224143Y-13907429D01*
X7195571Y-13921714D01*
X7167000Y-13921714D01*
X7138428Y-13907429D01*
X7124143Y-13893143D01*
X7109857Y-13864571D01*
X7095571Y-13807429D01*
X7095571Y-13736000D01*
X7109857Y-13678857D01*
X7124143Y-13650286D01*
X7138428Y-13636000D01*
X7167000Y-13621714D01*
X7395571Y-13893143D02*
X7409857Y-13907429D01*
X7395571Y-13921714D01*
X7381286Y-13907429D01*
X7395571Y-13893143D01*
X7395571Y-13921714D01*
X7595571Y-13621714D02*
X7624143Y-13621714D01*
X7652714Y-13636000D01*
X7667000Y-13650286D01*
X7681286Y-13678857D01*
X7695571Y-13736000D01*
X7695571Y-13807429D01*
X7681286Y-13864571D01*
X7667000Y-13893143D01*
X7652714Y-13907429D01*
X7624143Y-13921714D01*
X7595571Y-13921714D01*
X7567000Y-13907429D01*
X7552714Y-13893143D01*
X7538428Y-13864571D01*
X7524143Y-13807429D01*
X7524143Y-13736000D01*
X7538428Y-13678857D01*
X7552714Y-13650286D01*
X7567000Y-13636000D01*
X7595571Y-13621714D01*
X7952714Y-13721714D02*
X7952714Y-13921714D01*
X7881286Y-13607429D02*
X7809857Y-13821714D01*
X7995571Y-13821714D01*
X8081286Y-13621714D02*
X8267000Y-13621714D01*
X8167000Y-13736000D01*
X8209857Y-13736000D01*
X8238428Y-13750286D01*
X8252714Y-13764571D01*
X8267000Y-13793143D01*
X8267000Y-13864571D01*
X8252714Y-13893143D01*
X8238428Y-13907429D01*
X8209857Y-13921714D01*
X8124143Y-13921714D01*
X8095571Y-13907429D01*
X8081286Y-13893143D01*
X8381286Y-13621714D02*
X8381286Y-13678857D01*
X8495571Y-13621714D02*
X8495571Y-13678857D01*
X8938428Y-14036000D02*
X8924143Y-14021714D01*
X8895571Y-13978857D01*
X8881286Y-13950286D01*
X8867000Y-13907429D01*
X8852714Y-13836000D01*
X8852714Y-13778857D01*
X8867000Y-13707429D01*
X8881286Y-13664571D01*
X8895571Y-13636000D01*
X8924143Y-13593143D01*
X8938428Y-13578857D01*
X9024143Y-13621714D02*
X9224143Y-13621714D01*
X9095571Y-13921714D01*
X9567000Y-13921714D02*
X9567000Y-13621714D01*
X9695571Y-13921714D02*
X9695571Y-13764571D01*
X9681286Y-13736000D01*
X9652714Y-13721714D01*
X9609857Y-13721714D01*
X9581286Y-13736000D01*
X9567000Y-13750286D01*
X9881286Y-13921714D02*
X9852714Y-13907429D01*
X9838428Y-13893143D01*
X9824143Y-13864571D01*
X9824143Y-13778857D01*
X9838428Y-13750286D01*
X9852714Y-13736000D01*
X9881286Y-13721714D01*
X9924143Y-13721714D01*
X9952714Y-13736000D01*
X9967000Y-13750286D01*
X9981286Y-13778857D01*
X9981286Y-13864571D01*
X9967000Y-13893143D01*
X9952714Y-13907429D01*
X9924143Y-13921714D01*
X9881286Y-13921714D01*
X10152714Y-13921714D02*
X10124143Y-13907429D01*
X10109857Y-13878857D01*
X10109857Y-13621714D01*
X10381286Y-13907429D02*
X10352714Y-13921714D01*
X10295571Y-13921714D01*
X10267000Y-13907429D01*
X10252714Y-13878857D01*
X10252714Y-13764571D01*
X10267000Y-13736000D01*
X10295571Y-13721714D01*
X10352714Y-13721714D01*
X10381286Y-13736000D01*
X10395571Y-13764571D01*
X10395571Y-13793143D01*
X10252714Y-13821714D01*
X10509857Y-13907429D02*
X10538428Y-13921714D01*
X10595571Y-13921714D01*
X10624143Y-13907429D01*
X10638428Y-13878857D01*
X10638428Y-13864571D01*
X10624143Y-13836000D01*
X10595571Y-13821714D01*
X10552714Y-13821714D01*
X10524143Y-13807429D01*
X10509857Y-13778857D01*
X10509857Y-13764571D01*
X10524143Y-13736000D01*
X10552714Y-13721714D01*
X10595571Y-13721714D01*
X10624143Y-13736000D01*
X10738428Y-14036000D02*
X10752714Y-14021714D01*
X10781286Y-13978857D01*
X10795571Y-13950286D01*
X10809857Y-13907429D01*
X10824143Y-13836000D01*
X10824143Y-13778857D01*
X10809857Y-13707429D01*
X10795571Y-13664571D01*
X10781286Y-13636000D01*
X10752714Y-13593143D01*
X10738428Y-13578857D01*
X4132000Y-14122000D02*
X4252000Y-14242000D01*
X4252000Y-14122000D02*
X4132000Y-14242000D01*
X4252000Y-14182000D02*
G75*
G03X4252000Y-14182000I-60000J0D01*
G01*
X4695571Y-14317714D02*
X4524143Y-14317714D01*
X4609857Y-14317714D02*
X4609857Y-14017714D01*
X4581286Y-14060571D01*
X4552714Y-14089143D01*
X4524143Y-14103429D01*
X4824143Y-14289143D02*
X4838428Y-14303429D01*
X4824143Y-14317714D01*
X4809857Y-14303429D01*
X4824143Y-14289143D01*
X4824143Y-14317714D01*
X4952714Y-14046286D02*
X4967000Y-14032000D01*
X4995571Y-14017714D01*
X5067000Y-14017714D01*
X5095571Y-14032000D01*
X5109857Y-14046286D01*
X5124143Y-14074857D01*
X5124143Y-14103429D01*
X5109857Y-14146286D01*
X4938428Y-14317714D01*
X5124143Y-14317714D01*
X5309857Y-14017714D02*
X5338428Y-14017714D01*
X5367000Y-14032000D01*
X5381286Y-14046286D01*
X5395571Y-14074857D01*
X5409857Y-14132000D01*
X5409857Y-14203429D01*
X5395571Y-14260571D01*
X5381286Y-14289143D01*
X5367000Y-14303429D01*
X5338428Y-14317714D01*
X5309857Y-14317714D01*
X5281286Y-14303429D01*
X5267000Y-14289143D01*
X5252714Y-14260571D01*
X5238428Y-14203429D01*
X5238428Y-14132000D01*
X5252714Y-14074857D01*
X5267000Y-14046286D01*
X5281286Y-14032000D01*
X5309857Y-14017714D01*
X5538428Y-14317714D02*
X5538428Y-14117714D01*
X5538428Y-14146286D02*
X5552714Y-14132000D01*
X5581286Y-14117714D01*
X5624143Y-14117714D01*
X5652714Y-14132000D01*
X5667000Y-14160571D01*
X5667000Y-14317714D01*
X5667000Y-14160571D02*
X5681286Y-14132000D01*
X5709857Y-14117714D01*
X5752714Y-14117714D01*
X5781286Y-14132000D01*
X5795571Y-14160571D01*
X5795571Y-14317714D01*
X5938428Y-14317714D02*
X5938428Y-14117714D01*
X5938428Y-14146286D02*
X5952714Y-14132000D01*
X5981286Y-14117714D01*
X6024143Y-14117714D01*
X6052714Y-14132000D01*
X6067000Y-14160571D01*
X6067000Y-14317714D01*
X6067000Y-14160571D02*
X6081286Y-14132000D01*
X6109857Y-14117714D01*
X6152714Y-14117714D01*
X6181286Y-14132000D01*
X6195571Y-14160571D01*
X6195571Y-14317714D01*
X6781286Y-14003429D02*
X6524143Y-14389143D01*
X7167000Y-14017714D02*
X7195571Y-14017714D01*
X7224143Y-14032000D01*
X7238428Y-14046286D01*
X7252714Y-14074857D01*
X7267000Y-14132000D01*
X7267000Y-14203429D01*
X7252714Y-14260571D01*
X7238428Y-14289143D01*
X7224143Y-14303429D01*
X7195571Y-14317714D01*
X7167000Y-14317714D01*
X7138428Y-14303429D01*
X7124143Y-14289143D01*
X7109857Y-14260571D01*
X7095571Y-14203429D01*
X7095571Y-14132000D01*
X7109857Y-14074857D01*
X7124143Y-14046286D01*
X7138428Y-14032000D01*
X7167000Y-14017714D01*
X7395571Y-14289143D02*
X7409857Y-14303429D01*
X7395571Y-14317714D01*
X7381286Y-14303429D01*
X7395571Y-14289143D01*
X7395571Y-14317714D01*
X7595571Y-14017714D02*
X7624143Y-14017714D01*
X7652714Y-14032000D01*
X7667000Y-14046286D01*
X7681286Y-14074857D01*
X7695571Y-14132000D01*
X7695571Y-14203429D01*
X7681286Y-14260571D01*
X7667000Y-14289143D01*
X7652714Y-14303429D01*
X7624143Y-14317714D01*
X7595571Y-14317714D01*
X7567000Y-14303429D01*
X7552714Y-14289143D01*
X7538428Y-14260571D01*
X7524143Y-14203429D01*
X7524143Y-14132000D01*
X7538428Y-14074857D01*
X7552714Y-14046286D01*
X7567000Y-14032000D01*
X7595571Y-14017714D01*
X7952714Y-14117714D02*
X7952714Y-14317714D01*
X7881286Y-14003429D02*
X7809857Y-14217714D01*
X7995571Y-14217714D01*
X8081286Y-14017714D02*
X8281286Y-14017714D01*
X8152714Y-14317714D01*
X8381286Y-14017714D02*
X8381286Y-14074857D01*
X8495571Y-14017714D02*
X8495571Y-14074857D01*
X8938428Y-14432000D02*
X8924143Y-14417714D01*
X8895571Y-14374857D01*
X8881286Y-14346286D01*
X8867000Y-14303429D01*
X8852714Y-14232000D01*
X8852714Y-14174857D01*
X8867000Y-14103429D01*
X8881286Y-14060571D01*
X8895571Y-14032000D01*
X8924143Y-13989143D01*
X8938428Y-13974857D01*
X9181286Y-14017714D02*
X9124143Y-14017714D01*
X9095571Y-14032000D01*
X9081286Y-14046286D01*
X9052714Y-14089143D01*
X9038428Y-14146286D01*
X9038428Y-14260571D01*
X9052714Y-14289143D01*
X9067000Y-14303429D01*
X9095571Y-14317714D01*
X9152714Y-14317714D01*
X9181286Y-14303429D01*
X9195571Y-14289143D01*
X9209857Y-14260571D01*
X9209857Y-14189143D01*
X9195571Y-14160571D01*
X9181286Y-14146286D01*
X9152714Y-14132000D01*
X9095571Y-14132000D01*
X9067000Y-14146286D01*
X9052714Y-14160571D01*
X9038428Y-14189143D01*
X9567000Y-14317714D02*
X9567000Y-14017714D01*
X9695571Y-14317714D02*
X9695571Y-14160571D01*
X9681286Y-14132000D01*
X9652714Y-14117714D01*
X9609857Y-14117714D01*
X9581286Y-14132000D01*
X9567000Y-14146286D01*
X9881286Y-14317714D02*
X9852714Y-14303429D01*
X9838428Y-14289143D01*
X9824143Y-14260571D01*
X9824143Y-14174857D01*
X9838428Y-14146286D01*
X9852714Y-14132000D01*
X9881286Y-14117714D01*
X9924143Y-14117714D01*
X9952714Y-14132000D01*
X9967000Y-14146286D01*
X9981286Y-14174857D01*
X9981286Y-14260571D01*
X9967000Y-14289143D01*
X9952714Y-14303429D01*
X9924143Y-14317714D01*
X9881286Y-14317714D01*
X10152714Y-14317714D02*
X10124143Y-14303429D01*
X10109857Y-14274857D01*
X10109857Y-14017714D01*
X10381286Y-14303429D02*
X10352714Y-14317714D01*
X10295571Y-14317714D01*
X10267000Y-14303429D01*
X10252714Y-14274857D01*
X10252714Y-14160571D01*
X10267000Y-14132000D01*
X10295571Y-14117714D01*
X10352714Y-14117714D01*
X10381286Y-14132000D01*
X10395571Y-14160571D01*
X10395571Y-14189143D01*
X10252714Y-14217714D01*
X10509857Y-14303429D02*
X10538428Y-14317714D01*
X10595571Y-14317714D01*
X10624143Y-14303429D01*
X10638428Y-14274857D01*
X10638428Y-14260571D01*
X10624143Y-14232000D01*
X10595571Y-14217714D01*
X10552714Y-14217714D01*
X10524143Y-14203429D01*
X10509857Y-14174857D01*
X10509857Y-14160571D01*
X10524143Y-14132000D01*
X10552714Y-14117714D01*
X10595571Y-14117714D01*
X10624143Y-14132000D01*
X10738428Y-14432000D02*
X10752714Y-14417714D01*
X10781286Y-14374857D01*
X10795571Y-14346286D01*
X10809857Y-14303429D01*
X10824143Y-14232000D01*
X10824143Y-14174857D01*
X10809857Y-14103429D01*
X10795571Y-14060571D01*
X10781286Y-14032000D01*
X10752714Y-13989143D01*
X10738428Y-13974857D01*
X4101886Y-14502943D02*
X4252000Y-14653057D01*
X4252000Y-14502943D02*
X4101886Y-14653057D01*
X4176943Y-14502943D02*
X4176943Y-14653057D01*
X4101886Y-14578000D02*
X4252000Y-14578000D01*
X4695571Y-14713714D02*
X4524143Y-14713714D01*
X4609857Y-14713714D02*
X4609857Y-14413714D01*
X4581286Y-14456571D01*
X4552714Y-14485143D01*
X4524143Y-14499429D01*
X4824143Y-14685143D02*
X4838428Y-14699429D01*
X4824143Y-14713714D01*
X4809857Y-14699429D01*
X4824143Y-14685143D01*
X4824143Y-14713714D01*
X5109857Y-14413714D02*
X4967000Y-14413714D01*
X4952714Y-14556571D01*
X4967000Y-14542286D01*
X4995571Y-14528000D01*
X5067000Y-14528000D01*
X5095571Y-14542286D01*
X5109857Y-14556571D01*
X5124143Y-14585143D01*
X5124143Y-14656571D01*
X5109857Y-14685143D01*
X5095571Y-14699429D01*
X5067000Y-14713714D01*
X4995571Y-14713714D01*
X4967000Y-14699429D01*
X4952714Y-14685143D01*
X5309857Y-14413714D02*
X5338428Y-14413714D01*
X5367000Y-14428000D01*
X5381286Y-14442286D01*
X5395571Y-14470857D01*
X5409857Y-14528000D01*
X5409857Y-14599429D01*
X5395571Y-14656571D01*
X5381286Y-14685143D01*
X5367000Y-14699429D01*
X5338428Y-14713714D01*
X5309857Y-14713714D01*
X5281286Y-14699429D01*
X5267000Y-14685143D01*
X5252714Y-14656571D01*
X5238428Y-14599429D01*
X5238428Y-14528000D01*
X5252714Y-14470857D01*
X5267000Y-14442286D01*
X5281286Y-14428000D01*
X5309857Y-14413714D01*
X5538428Y-14713714D02*
X5538428Y-14513714D01*
X5538428Y-14542286D02*
X5552714Y-14528000D01*
X5581286Y-14513714D01*
X5624143Y-14513714D01*
X5652714Y-14528000D01*
X5667000Y-14556571D01*
X5667000Y-14713714D01*
X5667000Y-14556571D02*
X5681286Y-14528000D01*
X5709857Y-14513714D01*
X5752714Y-14513714D01*
X5781286Y-14528000D01*
X5795571Y-14556571D01*
X5795571Y-14713714D01*
X5938428Y-14713714D02*
X5938428Y-14513714D01*
X5938428Y-14542286D02*
X5952714Y-14528000D01*
X5981286Y-14513714D01*
X6024143Y-14513714D01*
X6052714Y-14528000D01*
X6067000Y-14556571D01*
X6067000Y-14713714D01*
X6067000Y-14556571D02*
X6081286Y-14528000D01*
X6109857Y-14513714D01*
X6152714Y-14513714D01*
X6181286Y-14528000D01*
X6195571Y-14556571D01*
X6195571Y-14713714D01*
X6781286Y-14399429D02*
X6524143Y-14785143D01*
X7167000Y-14413714D02*
X7195571Y-14413714D01*
X7224143Y-14428000D01*
X7238428Y-14442286D01*
X7252714Y-14470857D01*
X7267000Y-14528000D01*
X7267000Y-14599429D01*
X7252714Y-14656571D01*
X7238428Y-14685143D01*
X7224143Y-14699429D01*
X7195571Y-14713714D01*
X7167000Y-14713714D01*
X7138428Y-14699429D01*
X7124143Y-14685143D01*
X7109857Y-14656571D01*
X7095571Y-14599429D01*
X7095571Y-14528000D01*
X7109857Y-14470857D01*
X7124143Y-14442286D01*
X7138428Y-14428000D01*
X7167000Y-14413714D01*
X7395571Y-14685143D02*
X7409857Y-14699429D01*
X7395571Y-14713714D01*
X7381286Y-14699429D01*
X7395571Y-14685143D01*
X7395571Y-14713714D01*
X7595571Y-14413714D02*
X7624143Y-14413714D01*
X7652714Y-14428000D01*
X7667000Y-14442286D01*
X7681286Y-14470857D01*
X7695571Y-14528000D01*
X7695571Y-14599429D01*
X7681286Y-14656571D01*
X7667000Y-14685143D01*
X7652714Y-14699429D01*
X7624143Y-14713714D01*
X7595571Y-14713714D01*
X7567000Y-14699429D01*
X7552714Y-14685143D01*
X7538428Y-14656571D01*
X7524143Y-14599429D01*
X7524143Y-14528000D01*
X7538428Y-14470857D01*
X7552714Y-14442286D01*
X7567000Y-14428000D01*
X7595571Y-14413714D01*
X7967000Y-14413714D02*
X7824143Y-14413714D01*
X7809857Y-14556571D01*
X7824143Y-14542286D01*
X7852714Y-14528000D01*
X7924143Y-14528000D01*
X7952714Y-14542286D01*
X7967000Y-14556571D01*
X7981286Y-14585143D01*
X7981286Y-14656571D01*
X7967000Y-14685143D01*
X7952714Y-14699429D01*
X7924143Y-14713714D01*
X7852714Y-14713714D01*
X7824143Y-14699429D01*
X7809857Y-14685143D01*
X8124143Y-14713714D02*
X8181286Y-14713714D01*
X8209857Y-14699429D01*
X8224143Y-14685143D01*
X8252714Y-14642286D01*
X8267000Y-14585143D01*
X8267000Y-14470857D01*
X8252714Y-14442286D01*
X8238428Y-14428000D01*
X8209857Y-14413714D01*
X8152714Y-14413714D01*
X8124143Y-14428000D01*
X8109857Y-14442286D01*
X8095571Y-14470857D01*
X8095571Y-14542286D01*
X8109857Y-14570857D01*
X8124143Y-14585143D01*
X8152714Y-14599429D01*
X8209857Y-14599429D01*
X8238428Y-14585143D01*
X8252714Y-14570857D01*
X8267000Y-14542286D01*
X8381286Y-14413714D02*
X8381286Y-14470857D01*
X8495571Y-14413714D02*
X8495571Y-14470857D01*
X8938428Y-14828000D02*
X8924143Y-14813714D01*
X8895571Y-14770857D01*
X8881286Y-14742286D01*
X8867000Y-14699429D01*
X8852714Y-14628000D01*
X8852714Y-14570857D01*
X8867000Y-14499429D01*
X8881286Y-14456571D01*
X8895571Y-14428000D01*
X8924143Y-14385143D01*
X8938428Y-14370857D01*
X9024143Y-14413714D02*
X9209857Y-14413714D01*
X9109857Y-14528000D01*
X9152714Y-14528000D01*
X9181286Y-14542286D01*
X9195571Y-14556571D01*
X9209857Y-14585143D01*
X9209857Y-14656571D01*
X9195571Y-14685143D01*
X9181286Y-14699429D01*
X9152714Y-14713714D01*
X9067000Y-14713714D01*
X9038428Y-14699429D01*
X9024143Y-14685143D01*
X9467000Y-14513714D02*
X9467000Y-14713714D01*
X9395571Y-14399429D02*
X9324143Y-14613714D01*
X9509857Y-14613714D01*
X9852714Y-14713714D02*
X9852714Y-14413714D01*
X9981286Y-14713714D02*
X9981286Y-14556571D01*
X9967000Y-14528000D01*
X9938428Y-14513714D01*
X9895571Y-14513714D01*
X9867000Y-14528000D01*
X9852714Y-14542286D01*
X10167000Y-14713714D02*
X10138428Y-14699429D01*
X10124143Y-14685143D01*
X10109857Y-14656571D01*
X10109857Y-14570857D01*
X10124143Y-14542286D01*
X10138428Y-14528000D01*
X10167000Y-14513714D01*
X10209857Y-14513714D01*
X10238428Y-14528000D01*
X10252714Y-14542286D01*
X10267000Y-14570857D01*
X10267000Y-14656571D01*
X10252714Y-14685143D01*
X10238428Y-14699429D01*
X10209857Y-14713714D01*
X10167000Y-14713714D01*
X10438428Y-14713714D02*
X10409857Y-14699429D01*
X10395571Y-14670857D01*
X10395571Y-14413714D01*
X10667000Y-14699429D02*
X10638428Y-14713714D01*
X10581286Y-14713714D01*
X10552714Y-14699429D01*
X10538428Y-14670857D01*
X10538428Y-14556571D01*
X10552714Y-14528000D01*
X10581286Y-14513714D01*
X10638428Y-14513714D01*
X10667000Y-14528000D01*
X10681286Y-14556571D01*
X10681286Y-14585143D01*
X10538428Y-14613714D01*
X10795571Y-14699429D02*
X10824143Y-14713714D01*
X10881286Y-14713714D01*
X10909857Y-14699429D01*
X10924143Y-14670857D01*
X10924143Y-14656571D01*
X10909857Y-14628000D01*
X10881286Y-14613714D01*
X10838428Y-14613714D01*
X10809857Y-14599429D01*
X10795571Y-14570857D01*
X10795571Y-14556571D01*
X10809857Y-14528000D01*
X10838428Y-14513714D01*
X10881286Y-14513714D01*
X10909857Y-14528000D01*
X11024143Y-14828000D02*
X11038428Y-14813714D01*
X11067000Y-14770857D01*
X11081286Y-14742286D01*
X11095571Y-14699429D01*
X11109857Y-14628000D01*
X11109857Y-14570857D01*
X11095571Y-14499429D01*
X11081286Y-14456571D01*
X11067000Y-14428000D01*
X11038428Y-14385143D01*
X11024143Y-14370857D01*
M02*
