M48
; DRILL file {KiCad (5.1.5)-3} date 9/28/2020 9:35:30 PM
; FORMAT={-:-/ absolute / inch / decimal}
; #@! TF.CreationDate,2020-09-28T21:35:30-04:00
; #@! TF.GenerationSoftware,Kicad,Pcbnew,(5.1.5)-3
; #@! TF.FileFunction,Plated,1,2,PTH
FMAT,2
INCH
T1C0.0157
T2C0.0276
T3C0.0315
T4C0.0433
T5C0.0472
T6C0.0591
%
G90
G05
T1
X3.775Y-2.825
X3.975Y-3.975
X4.485Y-3.79
X5.1875Y-3.6375
X5.2025Y-3.48
X5.2954Y-3.48
X5.465Y-3.36
X5.4875Y-3.49
X5.5Y-3.625
X6.1269Y-3.5756
X6.1675Y-3.6525
X6.2569Y-3.8344
X6.275Y-3.95
X6.345Y-3.595
X6.475Y-3.95
X6.4846Y-3.3
X6.5411Y-3.4889
X6.6Y-3.6625
X6.6215Y-3.3035
X6.6215Y-3.3535
X6.625Y-3.25
T2
X3.4132Y-2.8274
X3.4132Y-3.1226
X3.61Y-2.8274
X3.61Y-3.1226
X4.3974Y-2.8274
X4.3974Y-2.975
X4.3974Y-3.1226
X3.4132Y-3.5274
X3.4132Y-3.8226
X3.61Y-3.5274
X3.61Y-3.8226
X4.3974Y-3.5274
X4.3974Y-3.675
X4.3974Y-3.8226
T3
X6.375Y-2.85
X6.4734Y-2.85
X4.625Y-3.775
X4.7234Y-3.775
X6.075Y-3.75
X6.075Y-3.85
X6.075Y-3.95
X4.9Y-3.775
X4.9984Y-3.775
X5.825Y-3.75
X5.825Y-3.85
X5.825Y-3.95
T4
X5.175Y-3.775
X5.575Y-3.775
X5.175Y-3.925
X5.575Y-3.925
X3.975Y-3.325
X4.375Y-3.325
X3.375Y-3.325
X3.775Y-3.325
T5
X4.9Y-2.925
X4.9Y-3.2203
T6
X4.075Y-2.525
X4.275Y-2.525
X4.475Y-2.525
X4.675Y-2.525
X3.175Y-3.075
X3.175Y-2.825
X7.075Y-3.525
X7.075Y-3.725
X7.075Y-3.925
X7.075Y-4.125
X3.175Y-2.525
X3.375Y-2.525
X3.575Y-2.525
X3.775Y-2.525
X5.875Y-2.525
X6.075Y-2.525
X4.075Y-4.125
X4.275Y-4.125
X4.475Y-4.125
X4.675Y-4.125
X4.975Y-2.525
X5.175Y-2.525
X5.375Y-2.525
X5.575Y-2.525
X3.175Y-3.525
X3.175Y-3.725
X3.175Y-4.125
X3.375Y-4.125
X3.575Y-4.125
X3.775Y-4.125
X6.475Y-2.525
X6.675Y-2.525
X6.875Y-2.525
X7.075Y-2.525
T0
M30
