G04 #@! TF.GenerationSoftware,KiCad,Pcbnew,(5.1.5)-3*
G04 #@! TF.CreationDate,2020-09-30T13:47:12-04:00*
G04 #@! TF.ProjectId,PowerSync,506f7765-7253-4796-9e63-2e6b69636164,rev?*
G04 #@! TF.SameCoordinates,Original*
G04 #@! TF.FileFunction,Legend,Top*
G04 #@! TF.FilePolarity,Positive*
%FSLAX46Y46*%
G04 Gerber Fmt 4.6, Leading zero omitted, Abs format (unit mm)*
G04 Created by KiCad (PCBNEW (5.1.5)-3) date 2020-09-30 13:47:12*
%MOMM*%
%LPD*%
G04 APERTURE LIST*
%ADD10C,0.150000*%
%ADD11C,0.120000*%
%ADD12C,0.300000*%
%ADD13C,0.200000*%
G04 APERTURE END LIST*
D10*
X71898333Y-118832380D02*
X71707857Y-118832380D01*
X71612619Y-118880000D01*
X71565000Y-118927619D01*
X71469761Y-119070476D01*
X71422142Y-119260952D01*
X71422142Y-119641904D01*
X71469761Y-119737142D01*
X71517380Y-119784761D01*
X71612619Y-119832380D01*
X71803095Y-119832380D01*
X71898333Y-119784761D01*
X71945952Y-119737142D01*
X71993571Y-119641904D01*
X71993571Y-119403809D01*
X71945952Y-119308571D01*
X71898333Y-119260952D01*
X71803095Y-119213333D01*
X71612619Y-119213333D01*
X71517380Y-119260952D01*
X71469761Y-119308571D01*
X71422142Y-119403809D01*
X72850714Y-118832380D02*
X72660238Y-118832380D01*
X72565000Y-118880000D01*
X72517380Y-118927619D01*
X72422142Y-119070476D01*
X72374523Y-119260952D01*
X72374523Y-119641904D01*
X72422142Y-119737142D01*
X72469761Y-119784761D01*
X72565000Y-119832380D01*
X72755476Y-119832380D01*
X72850714Y-119784761D01*
X72898333Y-119737142D01*
X72945952Y-119641904D01*
X72945952Y-119403809D01*
X72898333Y-119308571D01*
X72850714Y-119260952D01*
X72755476Y-119213333D01*
X72565000Y-119213333D01*
X72469761Y-119260952D01*
X72422142Y-119308571D01*
X72374523Y-119403809D01*
X73374523Y-119737142D02*
X73422142Y-119784761D01*
X73374523Y-119832380D01*
X73326904Y-119784761D01*
X73374523Y-119737142D01*
X73374523Y-119832380D01*
X74041190Y-118832380D02*
X74136428Y-118832380D01*
X74231666Y-118880000D01*
X74279285Y-118927619D01*
X74326904Y-119022857D01*
X74374523Y-119213333D01*
X74374523Y-119451428D01*
X74326904Y-119641904D01*
X74279285Y-119737142D01*
X74231666Y-119784761D01*
X74136428Y-119832380D01*
X74041190Y-119832380D01*
X73945952Y-119784761D01*
X73898333Y-119737142D01*
X73850714Y-119641904D01*
X73803095Y-119451428D01*
X73803095Y-119213333D01*
X73850714Y-119022857D01*
X73898333Y-118927619D01*
X73945952Y-118880000D01*
X74041190Y-118832380D01*
X75231666Y-119165714D02*
X75231666Y-119832380D01*
X74993571Y-118784761D02*
X74755476Y-119499047D01*
X75374523Y-119499047D01*
X75945952Y-118832380D02*
X76041190Y-118832380D01*
X76136428Y-118880000D01*
X76184047Y-118927619D01*
X76231666Y-119022857D01*
X76279285Y-119213333D01*
X76279285Y-119451428D01*
X76231666Y-119641904D01*
X76184047Y-119737142D01*
X76136428Y-119784761D01*
X76041190Y-119832380D01*
X75945952Y-119832380D01*
X75850714Y-119784761D01*
X75803095Y-119737142D01*
X75755476Y-119641904D01*
X75707857Y-119451428D01*
X75707857Y-119213333D01*
X75755476Y-119022857D01*
X75803095Y-118927619D01*
X75850714Y-118880000D01*
X75945952Y-118832380D01*
X77469761Y-119832380D02*
X77469761Y-119165714D01*
X77469761Y-119260952D02*
X77517380Y-119213333D01*
X77612619Y-119165714D01*
X77755476Y-119165714D01*
X77850714Y-119213333D01*
X77898333Y-119308571D01*
X77898333Y-119832380D01*
X77898333Y-119308571D02*
X77945952Y-119213333D01*
X78041190Y-119165714D01*
X78184047Y-119165714D01*
X78279285Y-119213333D01*
X78326904Y-119308571D01*
X78326904Y-119832380D01*
X78803095Y-119832380D02*
X78803095Y-119165714D01*
X78803095Y-119260952D02*
X78850714Y-119213333D01*
X78945952Y-119165714D01*
X79088809Y-119165714D01*
X79184047Y-119213333D01*
X79231666Y-119308571D01*
X79231666Y-119832380D01*
X79231666Y-119308571D02*
X79279285Y-119213333D01*
X79374523Y-119165714D01*
X79517380Y-119165714D01*
X79612619Y-119213333D01*
X79660238Y-119308571D01*
X79660238Y-119832380D01*
D11*
X42545000Y-118110000D02*
X108585000Y-118110000D01*
X42545000Y-114935000D02*
X42545000Y-118696421D01*
X108585000Y-114935000D02*
X108585000Y-118696421D01*
X108585000Y-118110000D02*
X107458496Y-118696421D01*
X108585000Y-118110000D02*
X107458496Y-117523579D01*
X42545000Y-118110000D02*
X43671504Y-118696421D01*
X42545000Y-118110000D02*
X43671504Y-117523579D01*
D10*
X116927380Y-80390476D02*
X116927380Y-79723809D01*
X117927380Y-80152380D01*
X117022619Y-79390476D02*
X116975000Y-79342857D01*
X116927380Y-79247619D01*
X116927380Y-79009523D01*
X116975000Y-78914285D01*
X117022619Y-78866666D01*
X117117857Y-78819047D01*
X117213095Y-78819047D01*
X117355952Y-78866666D01*
X117927380Y-79438095D01*
X117927380Y-78819047D01*
X117832142Y-78390476D02*
X117879761Y-78342857D01*
X117927380Y-78390476D01*
X117879761Y-78438095D01*
X117832142Y-78390476D01*
X117927380Y-78390476D01*
X116927380Y-78009523D02*
X116927380Y-77390476D01*
X117308333Y-77723809D01*
X117308333Y-77580952D01*
X117355952Y-77485714D01*
X117403571Y-77438095D01*
X117498809Y-77390476D01*
X117736904Y-77390476D01*
X117832142Y-77438095D01*
X117879761Y-77485714D01*
X117927380Y-77580952D01*
X117927380Y-77866666D01*
X117879761Y-77961904D01*
X117832142Y-78009523D01*
X117927380Y-76914285D02*
X117927380Y-76723809D01*
X117879761Y-76628571D01*
X117832142Y-76580952D01*
X117689285Y-76485714D01*
X117498809Y-76438095D01*
X117117857Y-76438095D01*
X117022619Y-76485714D01*
X116975000Y-76533333D01*
X116927380Y-76628571D01*
X116927380Y-76819047D01*
X116975000Y-76914285D01*
X117022619Y-76961904D01*
X117117857Y-77009523D01*
X117355952Y-77009523D01*
X117451190Y-76961904D01*
X117498809Y-76914285D01*
X117546428Y-76819047D01*
X117546428Y-76628571D01*
X117498809Y-76533333D01*
X117451190Y-76485714D01*
X117355952Y-76438095D01*
X116927380Y-75819047D02*
X116927380Y-75723809D01*
X116975000Y-75628571D01*
X117022619Y-75580952D01*
X117117857Y-75533333D01*
X117308333Y-75485714D01*
X117546428Y-75485714D01*
X117736904Y-75533333D01*
X117832142Y-75580952D01*
X117879761Y-75628571D01*
X117927380Y-75723809D01*
X117927380Y-75819047D01*
X117879761Y-75914285D01*
X117832142Y-75961904D01*
X117736904Y-76009523D01*
X117546428Y-76057142D01*
X117308333Y-76057142D01*
X117117857Y-76009523D01*
X117022619Y-75961904D01*
X116975000Y-75914285D01*
X116927380Y-75819047D01*
X117927380Y-74295238D02*
X117260714Y-74295238D01*
X117355952Y-74295238D02*
X117308333Y-74247619D01*
X117260714Y-74152380D01*
X117260714Y-74009523D01*
X117308333Y-73914285D01*
X117403571Y-73866666D01*
X117927380Y-73866666D01*
X117403571Y-73866666D02*
X117308333Y-73819047D01*
X117260714Y-73723809D01*
X117260714Y-73580952D01*
X117308333Y-73485714D01*
X117403571Y-73438095D01*
X117927380Y-73438095D01*
X117927380Y-72961904D02*
X117260714Y-72961904D01*
X117355952Y-72961904D02*
X117308333Y-72914285D01*
X117260714Y-72819047D01*
X117260714Y-72676190D01*
X117308333Y-72580952D01*
X117403571Y-72533333D01*
X117927380Y-72533333D01*
X117403571Y-72533333D02*
X117308333Y-72485714D01*
X117260714Y-72390476D01*
X117260714Y-72247619D01*
X117308333Y-72152380D01*
X117403571Y-72104761D01*
X117927380Y-72104761D01*
D11*
X116205000Y-112395000D02*
X116205000Y-40005000D01*
X111760000Y-112395000D02*
X116791421Y-112395000D01*
X111760000Y-40005000D02*
X116791421Y-40005000D01*
X116205000Y-40005000D02*
X116791421Y-41131504D01*
X116205000Y-40005000D02*
X115618579Y-41131504D01*
X116205000Y-112395000D02*
X116791421Y-111268496D01*
X116205000Y-112395000D02*
X115618579Y-111268496D01*
D12*
X106858452Y-82389000D02*
X104358452Y-82389000D01*
X104358452Y-81722333D01*
X104477500Y-81555666D01*
X104596547Y-81472333D01*
X104834642Y-81389000D01*
X105191785Y-81389000D01*
X105429880Y-81472333D01*
X105548928Y-81555666D01*
X105667976Y-81722333D01*
X105667976Y-82389000D01*
X106858452Y-80389000D02*
X106739404Y-80555666D01*
X106620357Y-80639000D01*
X106382261Y-80722333D01*
X105667976Y-80722333D01*
X105429880Y-80639000D01*
X105310833Y-80555666D01*
X105191785Y-80389000D01*
X105191785Y-80139000D01*
X105310833Y-79972333D01*
X105429880Y-79889000D01*
X105667976Y-79805666D01*
X106382261Y-79805666D01*
X106620357Y-79889000D01*
X106739404Y-79972333D01*
X106858452Y-80139000D01*
X106858452Y-80389000D01*
X105191785Y-79222333D02*
X106858452Y-78889000D01*
X105667976Y-78555666D01*
X106858452Y-78222333D01*
X105191785Y-77889000D01*
X106739404Y-76555666D02*
X106858452Y-76722333D01*
X106858452Y-77055666D01*
X106739404Y-77222333D01*
X106501309Y-77305666D01*
X105548928Y-77305666D01*
X105310833Y-77222333D01*
X105191785Y-77055666D01*
X105191785Y-76722333D01*
X105310833Y-76555666D01*
X105548928Y-76472333D01*
X105787023Y-76472333D01*
X106025119Y-77305666D01*
X106858452Y-75722333D02*
X105191785Y-75722333D01*
X105667976Y-75722333D02*
X105429880Y-75639000D01*
X105310833Y-75555666D01*
X105191785Y-75389000D01*
X105191785Y-75222333D01*
X106858452Y-73305666D02*
X104358452Y-73305666D01*
X104358452Y-72889000D01*
X104477500Y-72639000D01*
X104715595Y-72472333D01*
X104953690Y-72389000D01*
X105429880Y-72305666D01*
X105787023Y-72305666D01*
X106263214Y-72389000D01*
X106501309Y-72472333D01*
X106739404Y-72639000D01*
X106858452Y-72889000D01*
X106858452Y-73305666D01*
X106858452Y-71305666D02*
X106739404Y-71472333D01*
X106620357Y-71555666D01*
X106382261Y-71639000D01*
X105667976Y-71639000D01*
X105429880Y-71555666D01*
X105310833Y-71472333D01*
X105191785Y-71305666D01*
X105191785Y-71055666D01*
X105310833Y-70889000D01*
X105429880Y-70805666D01*
X105667976Y-70722333D01*
X106382261Y-70722333D01*
X106620357Y-70805666D01*
X106739404Y-70889000D01*
X106858452Y-71055666D01*
X106858452Y-71305666D01*
X106858452Y-69972333D02*
X105191785Y-69972333D01*
X105429880Y-69972333D02*
X105310833Y-69889000D01*
X105191785Y-69722333D01*
X105191785Y-69472333D01*
X105310833Y-69305666D01*
X105548928Y-69222333D01*
X106858452Y-69222333D01*
X105548928Y-69222333D02*
X105310833Y-69139000D01*
X105191785Y-68972333D01*
X105191785Y-68722333D01*
X105310833Y-68555666D01*
X105548928Y-68472333D01*
X106858452Y-68472333D01*
X106858452Y-66889000D02*
X105548928Y-66889000D01*
X105310833Y-66972333D01*
X105191785Y-67139000D01*
X105191785Y-67472333D01*
X105310833Y-67639000D01*
X106739404Y-66889000D02*
X106858452Y-67055666D01*
X106858452Y-67472333D01*
X106739404Y-67639000D01*
X106501309Y-67722333D01*
X106263214Y-67722333D01*
X106025119Y-67639000D01*
X105906071Y-67472333D01*
X105906071Y-67055666D01*
X105787023Y-66889000D01*
X106858452Y-66055666D02*
X105191785Y-66055666D01*
X104358452Y-66055666D02*
X104477500Y-66139000D01*
X104596547Y-66055666D01*
X104477500Y-65972333D01*
X104358452Y-66055666D01*
X104596547Y-66055666D01*
X105191785Y-65222333D02*
X106858452Y-65222333D01*
X105429880Y-65222333D02*
X105310833Y-65139000D01*
X105191785Y-64972333D01*
X105191785Y-64722333D01*
X105310833Y-64555666D01*
X105548928Y-64472333D01*
X106858452Y-64472333D01*
X106739404Y-62389000D02*
X106858452Y-62139000D01*
X106858452Y-61722333D01*
X106739404Y-61555666D01*
X106620357Y-61472333D01*
X106382261Y-61389000D01*
X106144166Y-61389000D01*
X105906071Y-61472333D01*
X105787023Y-61555666D01*
X105667976Y-61722333D01*
X105548928Y-62055666D01*
X105429880Y-62222333D01*
X105310833Y-62305666D01*
X105072738Y-62389000D01*
X104834642Y-62389000D01*
X104596547Y-62305666D01*
X104477500Y-62222333D01*
X104358452Y-62055666D01*
X104358452Y-61639000D01*
X104477500Y-61389000D01*
X105191785Y-60805666D02*
X106858452Y-60389000D01*
X105191785Y-59972333D02*
X106858452Y-60389000D01*
X107453690Y-60555666D01*
X107572738Y-60639000D01*
X107691785Y-60805666D01*
X105191785Y-59305666D02*
X106858452Y-59305666D01*
X105429880Y-59305666D02*
X105310833Y-59222333D01*
X105191785Y-59055666D01*
X105191785Y-58805666D01*
X105310833Y-58639000D01*
X105548928Y-58555666D01*
X106858452Y-58555666D01*
X106739404Y-56972333D02*
X106858452Y-57139000D01*
X106858452Y-57472333D01*
X106739404Y-57639000D01*
X106620357Y-57722333D01*
X106382261Y-57805666D01*
X105667976Y-57805666D01*
X105429880Y-57722333D01*
X105310833Y-57639000D01*
X105191785Y-57472333D01*
X105191785Y-57139000D01*
X105310833Y-56972333D01*
X106858452Y-56222333D02*
X104358452Y-56222333D01*
X106858452Y-55472333D02*
X105548928Y-55472333D01*
X105310833Y-55555666D01*
X105191785Y-55722333D01*
X105191785Y-55972333D01*
X105310833Y-56139000D01*
X105429880Y-56222333D01*
X106858452Y-54639000D02*
X105191785Y-54639000D01*
X105667976Y-54639000D02*
X105429880Y-54555666D01*
X105310833Y-54472333D01*
X105191785Y-54305666D01*
X105191785Y-54139000D01*
X106858452Y-53305666D02*
X106739404Y-53472333D01*
X106620357Y-53555666D01*
X106382261Y-53639000D01*
X105667976Y-53639000D01*
X105429880Y-53555666D01*
X105310833Y-53472333D01*
X105191785Y-53305666D01*
X105191785Y-53055666D01*
X105310833Y-52889000D01*
X105429880Y-52805666D01*
X105667976Y-52722333D01*
X106382261Y-52722333D01*
X106620357Y-52805666D01*
X106739404Y-52889000D01*
X106858452Y-53055666D01*
X106858452Y-53305666D01*
X105191785Y-51972333D02*
X106858452Y-51972333D01*
X105429880Y-51972333D02*
X105310833Y-51889000D01*
X105191785Y-51722333D01*
X105191785Y-51472333D01*
X105310833Y-51305666D01*
X105548928Y-51222333D01*
X106858452Y-51222333D01*
X106858452Y-50389000D02*
X105191785Y-50389000D01*
X104358452Y-50389000D02*
X104477500Y-50472333D01*
X104596547Y-50389000D01*
X104477500Y-50305666D01*
X104358452Y-50389000D01*
X104596547Y-50389000D01*
X105191785Y-49722333D02*
X105191785Y-48805666D01*
X106858452Y-49722333D01*
X106858452Y-48805666D01*
X106739404Y-47472333D02*
X106858452Y-47639000D01*
X106858452Y-47972333D01*
X106739404Y-48139000D01*
X106501309Y-48222333D01*
X105548928Y-48222333D01*
X105310833Y-48139000D01*
X105191785Y-47972333D01*
X105191785Y-47639000D01*
X105310833Y-47472333D01*
X105548928Y-47389000D01*
X105787023Y-47389000D01*
X106025119Y-48222333D01*
X106858452Y-46639000D02*
X105191785Y-46639000D01*
X105667976Y-46639000D02*
X105429880Y-46555666D01*
X105310833Y-46472333D01*
X105191785Y-46305666D01*
X105191785Y-46139000D01*
D11*
X99930000Y-63500000D02*
X99930000Y-48260000D01*
X74930000Y-48260000D02*
X99930000Y-48260000D01*
X74930000Y-63500000D02*
X99930000Y-63500000D01*
X65330000Y-86621252D02*
X65330000Y-86098748D01*
X66750000Y-86621252D02*
X66750000Y-86098748D01*
X93506775Y-69670000D02*
X93506775Y-69170000D01*
X93756775Y-69420000D02*
X93256775Y-69420000D01*
X88351000Y-68229000D02*
X88351000Y-67661000D01*
X88391000Y-68463000D02*
X88391000Y-67427000D01*
X88431000Y-68622000D02*
X88431000Y-67268000D01*
X88471000Y-68750000D02*
X88471000Y-67140000D01*
X88511000Y-68860000D02*
X88511000Y-67030000D01*
X88551000Y-68956000D02*
X88551000Y-66934000D01*
X88591000Y-69043000D02*
X88591000Y-66847000D01*
X88631000Y-69123000D02*
X88631000Y-66767000D01*
X88671000Y-66905000D02*
X88671000Y-66694000D01*
X88671000Y-69196000D02*
X88671000Y-68985000D01*
X88711000Y-66905000D02*
X88711000Y-66626000D01*
X88711000Y-69264000D02*
X88711000Y-68985000D01*
X88751000Y-66905000D02*
X88751000Y-66562000D01*
X88751000Y-69328000D02*
X88751000Y-68985000D01*
X88791000Y-66905000D02*
X88791000Y-66502000D01*
X88791000Y-69388000D02*
X88791000Y-68985000D01*
X88831000Y-66905000D02*
X88831000Y-66445000D01*
X88831000Y-69445000D02*
X88831000Y-68985000D01*
X88871000Y-66905000D02*
X88871000Y-66391000D01*
X88871000Y-69499000D02*
X88871000Y-68985000D01*
X88911000Y-66905000D02*
X88911000Y-66340000D01*
X88911000Y-69550000D02*
X88911000Y-68985000D01*
X88951000Y-66905000D02*
X88951000Y-66292000D01*
X88951000Y-69598000D02*
X88951000Y-68985000D01*
X88991000Y-66905000D02*
X88991000Y-66246000D01*
X88991000Y-69644000D02*
X88991000Y-68985000D01*
X89031000Y-66905000D02*
X89031000Y-66202000D01*
X89031000Y-69688000D02*
X89031000Y-68985000D01*
X89071000Y-66905000D02*
X89071000Y-66160000D01*
X89071000Y-69730000D02*
X89071000Y-68985000D01*
X89111000Y-66905000D02*
X89111000Y-66119000D01*
X89111000Y-69771000D02*
X89111000Y-68985000D01*
X89151000Y-66905000D02*
X89151000Y-66081000D01*
X89151000Y-69809000D02*
X89151000Y-68985000D01*
X89191000Y-66905000D02*
X89191000Y-66044000D01*
X89191000Y-69846000D02*
X89191000Y-68985000D01*
X89231000Y-66905000D02*
X89231000Y-66008000D01*
X89231000Y-69882000D02*
X89231000Y-68985000D01*
X89271000Y-66905000D02*
X89271000Y-65974000D01*
X89271000Y-69916000D02*
X89271000Y-68985000D01*
X89311000Y-66905000D02*
X89311000Y-65941000D01*
X89311000Y-69949000D02*
X89311000Y-68985000D01*
X89351000Y-66905000D02*
X89351000Y-65910000D01*
X89351000Y-69980000D02*
X89351000Y-68985000D01*
X89391000Y-66905000D02*
X89391000Y-65880000D01*
X89391000Y-70010000D02*
X89391000Y-68985000D01*
X89431000Y-66905000D02*
X89431000Y-65850000D01*
X89431000Y-70040000D02*
X89431000Y-68985000D01*
X89471000Y-66905000D02*
X89471000Y-65823000D01*
X89471000Y-70067000D02*
X89471000Y-68985000D01*
X89511000Y-66905000D02*
X89511000Y-65796000D01*
X89511000Y-70094000D02*
X89511000Y-68985000D01*
X89551000Y-66905000D02*
X89551000Y-65770000D01*
X89551000Y-70120000D02*
X89551000Y-68985000D01*
X89591000Y-66905000D02*
X89591000Y-65745000D01*
X89591000Y-70145000D02*
X89591000Y-68985000D01*
X89631000Y-66905000D02*
X89631000Y-65721000D01*
X89631000Y-70169000D02*
X89631000Y-68985000D01*
X89671000Y-66905000D02*
X89671000Y-65698000D01*
X89671000Y-70192000D02*
X89671000Y-68985000D01*
X89711000Y-66905000D02*
X89711000Y-65677000D01*
X89711000Y-70213000D02*
X89711000Y-68985000D01*
X89751000Y-66905000D02*
X89751000Y-65655000D01*
X89751000Y-70235000D02*
X89751000Y-68985000D01*
X89791000Y-66905000D02*
X89791000Y-65635000D01*
X89791000Y-70255000D02*
X89791000Y-68985000D01*
X89831000Y-66905000D02*
X89831000Y-65616000D01*
X89831000Y-70274000D02*
X89831000Y-68985000D01*
X89871000Y-66905000D02*
X89871000Y-65597000D01*
X89871000Y-70293000D02*
X89871000Y-68985000D01*
X89911000Y-66905000D02*
X89911000Y-65580000D01*
X89911000Y-70310000D02*
X89911000Y-68985000D01*
X89951000Y-66905000D02*
X89951000Y-65563000D01*
X89951000Y-70327000D02*
X89951000Y-68985000D01*
X89991000Y-66905000D02*
X89991000Y-65547000D01*
X89991000Y-70343000D02*
X89991000Y-68985000D01*
X90031000Y-66905000D02*
X90031000Y-65531000D01*
X90031000Y-70359000D02*
X90031000Y-68985000D01*
X90071000Y-66905000D02*
X90071000Y-65517000D01*
X90071000Y-70373000D02*
X90071000Y-68985000D01*
X90111000Y-66905000D02*
X90111000Y-65503000D01*
X90111000Y-70387000D02*
X90111000Y-68985000D01*
X90151000Y-66905000D02*
X90151000Y-65490000D01*
X90151000Y-70400000D02*
X90151000Y-68985000D01*
X90191000Y-66905000D02*
X90191000Y-65477000D01*
X90191000Y-70413000D02*
X90191000Y-68985000D01*
X90231000Y-66905000D02*
X90231000Y-65465000D01*
X90231000Y-70425000D02*
X90231000Y-68985000D01*
X90272000Y-66905000D02*
X90272000Y-65454000D01*
X90272000Y-70436000D02*
X90272000Y-68985000D01*
X90312000Y-66905000D02*
X90312000Y-65444000D01*
X90312000Y-70446000D02*
X90312000Y-68985000D01*
X90352000Y-66905000D02*
X90352000Y-65434000D01*
X90352000Y-70456000D02*
X90352000Y-68985000D01*
X90392000Y-66905000D02*
X90392000Y-65425000D01*
X90392000Y-70465000D02*
X90392000Y-68985000D01*
X90432000Y-66905000D02*
X90432000Y-65417000D01*
X90432000Y-70473000D02*
X90432000Y-68985000D01*
X90472000Y-66905000D02*
X90472000Y-65409000D01*
X90472000Y-70481000D02*
X90472000Y-68985000D01*
X90512000Y-66905000D02*
X90512000Y-65402000D01*
X90512000Y-70488000D02*
X90512000Y-68985000D01*
X90552000Y-66905000D02*
X90552000Y-65395000D01*
X90552000Y-70495000D02*
X90552000Y-68985000D01*
X90592000Y-66905000D02*
X90592000Y-65389000D01*
X90592000Y-70501000D02*
X90592000Y-68985000D01*
X90632000Y-66905000D02*
X90632000Y-65384000D01*
X90632000Y-70506000D02*
X90632000Y-68985000D01*
X90672000Y-66905000D02*
X90672000Y-65380000D01*
X90672000Y-70510000D02*
X90672000Y-68985000D01*
X90712000Y-66905000D02*
X90712000Y-65376000D01*
X90712000Y-70514000D02*
X90712000Y-68985000D01*
X90752000Y-70518000D02*
X90752000Y-65372000D01*
X90792000Y-70521000D02*
X90792000Y-65369000D01*
X90832000Y-70523000D02*
X90832000Y-65367000D01*
X90872000Y-70524000D02*
X90872000Y-65366000D01*
X90912000Y-70525000D02*
X90912000Y-65365000D01*
X90952000Y-70525000D02*
X90952000Y-65365000D01*
X93572000Y-67945000D02*
G75*
G03X93572000Y-67945000I-2620000J0D01*
G01*
X87055000Y-67945000D02*
G75*
G03X87055000Y-67945000I-2620000J0D01*
G01*
X84435000Y-65365000D02*
X84435000Y-70525000D01*
X84475000Y-65365000D02*
X84475000Y-70525000D01*
X84515000Y-65366000D02*
X84515000Y-70524000D01*
X84555000Y-65367000D02*
X84555000Y-70523000D01*
X84595000Y-65369000D02*
X84595000Y-70521000D01*
X84635000Y-65372000D02*
X84635000Y-70518000D01*
X84675000Y-65376000D02*
X84675000Y-66905000D01*
X84675000Y-68985000D02*
X84675000Y-70514000D01*
X84715000Y-65380000D02*
X84715000Y-66905000D01*
X84715000Y-68985000D02*
X84715000Y-70510000D01*
X84755000Y-65384000D02*
X84755000Y-66905000D01*
X84755000Y-68985000D02*
X84755000Y-70506000D01*
X84795000Y-65389000D02*
X84795000Y-66905000D01*
X84795000Y-68985000D02*
X84795000Y-70501000D01*
X84835000Y-65395000D02*
X84835000Y-66905000D01*
X84835000Y-68985000D02*
X84835000Y-70495000D01*
X84875000Y-65402000D02*
X84875000Y-66905000D01*
X84875000Y-68985000D02*
X84875000Y-70488000D01*
X84915000Y-65409000D02*
X84915000Y-66905000D01*
X84915000Y-68985000D02*
X84915000Y-70481000D01*
X84955000Y-65417000D02*
X84955000Y-66905000D01*
X84955000Y-68985000D02*
X84955000Y-70473000D01*
X84995000Y-65425000D02*
X84995000Y-66905000D01*
X84995000Y-68985000D02*
X84995000Y-70465000D01*
X85035000Y-65434000D02*
X85035000Y-66905000D01*
X85035000Y-68985000D02*
X85035000Y-70456000D01*
X85075000Y-65444000D02*
X85075000Y-66905000D01*
X85075000Y-68985000D02*
X85075000Y-70446000D01*
X85115000Y-65454000D02*
X85115000Y-66905000D01*
X85115000Y-68985000D02*
X85115000Y-70436000D01*
X85156000Y-65465000D02*
X85156000Y-66905000D01*
X85156000Y-68985000D02*
X85156000Y-70425000D01*
X85196000Y-65477000D02*
X85196000Y-66905000D01*
X85196000Y-68985000D02*
X85196000Y-70413000D01*
X85236000Y-65490000D02*
X85236000Y-66905000D01*
X85236000Y-68985000D02*
X85236000Y-70400000D01*
X85276000Y-65503000D02*
X85276000Y-66905000D01*
X85276000Y-68985000D02*
X85276000Y-70387000D01*
X85316000Y-65517000D02*
X85316000Y-66905000D01*
X85316000Y-68985000D02*
X85316000Y-70373000D01*
X85356000Y-65531000D02*
X85356000Y-66905000D01*
X85356000Y-68985000D02*
X85356000Y-70359000D01*
X85396000Y-65547000D02*
X85396000Y-66905000D01*
X85396000Y-68985000D02*
X85396000Y-70343000D01*
X85436000Y-65563000D02*
X85436000Y-66905000D01*
X85436000Y-68985000D02*
X85436000Y-70327000D01*
X85476000Y-65580000D02*
X85476000Y-66905000D01*
X85476000Y-68985000D02*
X85476000Y-70310000D01*
X85516000Y-65597000D02*
X85516000Y-66905000D01*
X85516000Y-68985000D02*
X85516000Y-70293000D01*
X85556000Y-65616000D02*
X85556000Y-66905000D01*
X85556000Y-68985000D02*
X85556000Y-70274000D01*
X85596000Y-65635000D02*
X85596000Y-66905000D01*
X85596000Y-68985000D02*
X85596000Y-70255000D01*
X85636000Y-65655000D02*
X85636000Y-66905000D01*
X85636000Y-68985000D02*
X85636000Y-70235000D01*
X85676000Y-65677000D02*
X85676000Y-66905000D01*
X85676000Y-68985000D02*
X85676000Y-70213000D01*
X85716000Y-65698000D02*
X85716000Y-66905000D01*
X85716000Y-68985000D02*
X85716000Y-70192000D01*
X85756000Y-65721000D02*
X85756000Y-66905000D01*
X85756000Y-68985000D02*
X85756000Y-70169000D01*
X85796000Y-65745000D02*
X85796000Y-66905000D01*
X85796000Y-68985000D02*
X85796000Y-70145000D01*
X85836000Y-65770000D02*
X85836000Y-66905000D01*
X85836000Y-68985000D02*
X85836000Y-70120000D01*
X85876000Y-65796000D02*
X85876000Y-66905000D01*
X85876000Y-68985000D02*
X85876000Y-70094000D01*
X85916000Y-65823000D02*
X85916000Y-66905000D01*
X85916000Y-68985000D02*
X85916000Y-70067000D01*
X85956000Y-65850000D02*
X85956000Y-66905000D01*
X85956000Y-68985000D02*
X85956000Y-70040000D01*
X85996000Y-65880000D02*
X85996000Y-66905000D01*
X85996000Y-68985000D02*
X85996000Y-70010000D01*
X86036000Y-65910000D02*
X86036000Y-66905000D01*
X86036000Y-68985000D02*
X86036000Y-69980000D01*
X86076000Y-65941000D02*
X86076000Y-66905000D01*
X86076000Y-68985000D02*
X86076000Y-69949000D01*
X86116000Y-65974000D02*
X86116000Y-66905000D01*
X86116000Y-68985000D02*
X86116000Y-69916000D01*
X86156000Y-66008000D02*
X86156000Y-66905000D01*
X86156000Y-68985000D02*
X86156000Y-69882000D01*
X86196000Y-66044000D02*
X86196000Y-66905000D01*
X86196000Y-68985000D02*
X86196000Y-69846000D01*
X86236000Y-66081000D02*
X86236000Y-66905000D01*
X86236000Y-68985000D02*
X86236000Y-69809000D01*
X86276000Y-66119000D02*
X86276000Y-66905000D01*
X86276000Y-68985000D02*
X86276000Y-69771000D01*
X86316000Y-66160000D02*
X86316000Y-66905000D01*
X86316000Y-68985000D02*
X86316000Y-69730000D01*
X86356000Y-66202000D02*
X86356000Y-66905000D01*
X86356000Y-68985000D02*
X86356000Y-69688000D01*
X86396000Y-66246000D02*
X86396000Y-66905000D01*
X86396000Y-68985000D02*
X86396000Y-69644000D01*
X86436000Y-66292000D02*
X86436000Y-66905000D01*
X86436000Y-68985000D02*
X86436000Y-69598000D01*
X86476000Y-66340000D02*
X86476000Y-66905000D01*
X86476000Y-68985000D02*
X86476000Y-69550000D01*
X86516000Y-66391000D02*
X86516000Y-66905000D01*
X86516000Y-68985000D02*
X86516000Y-69499000D01*
X86556000Y-66445000D02*
X86556000Y-66905000D01*
X86556000Y-68985000D02*
X86556000Y-69445000D01*
X86596000Y-66502000D02*
X86596000Y-66905000D01*
X86596000Y-68985000D02*
X86596000Y-69388000D01*
X86636000Y-66562000D02*
X86636000Y-66905000D01*
X86636000Y-68985000D02*
X86636000Y-69328000D01*
X86676000Y-66626000D02*
X86676000Y-66905000D01*
X86676000Y-68985000D02*
X86676000Y-69264000D01*
X86716000Y-66694000D02*
X86716000Y-66905000D01*
X86716000Y-68985000D02*
X86716000Y-69196000D01*
X86756000Y-66767000D02*
X86756000Y-69123000D01*
X86796000Y-66847000D02*
X86796000Y-69043000D01*
X86836000Y-66934000D02*
X86836000Y-68956000D01*
X86876000Y-67030000D02*
X86876000Y-68860000D01*
X86916000Y-67140000D02*
X86916000Y-68750000D01*
X86956000Y-67268000D02*
X86956000Y-68622000D01*
X86996000Y-67427000D02*
X86996000Y-68463000D01*
X87036000Y-67661000D02*
X87036000Y-68229000D01*
X81630225Y-66470000D02*
X82130225Y-66470000D01*
X81880225Y-66220000D02*
X81880225Y-66720000D01*
X77970000Y-55940000D02*
G75*
G03X77970000Y-55940000I-8120000J0D01*
G01*
X61769000Y-55940000D02*
X77931000Y-55940000D01*
X61770000Y-55900000D02*
X77930000Y-55900000D01*
X61770000Y-55860000D02*
X77930000Y-55860000D01*
X61770000Y-55820000D02*
X77930000Y-55820000D01*
X61771000Y-55780000D02*
X77929000Y-55780000D01*
X61772000Y-55740000D02*
X77928000Y-55740000D01*
X61773000Y-55700000D02*
X77927000Y-55700000D01*
X61774000Y-55660000D02*
X77926000Y-55660000D01*
X61776000Y-55620000D02*
X77924000Y-55620000D01*
X61777000Y-55580000D02*
X77923000Y-55580000D01*
X61779000Y-55540000D02*
X77921000Y-55540000D01*
X61781000Y-55500000D02*
X77919000Y-55500000D01*
X61784000Y-55460000D02*
X77916000Y-55460000D01*
X61786000Y-55420000D02*
X77914000Y-55420000D01*
X61789000Y-55380000D02*
X77911000Y-55380000D01*
X61792000Y-55340000D02*
X77908000Y-55340000D01*
X61795000Y-55300000D02*
X77905000Y-55300000D01*
X61798000Y-55260000D02*
X77902000Y-55260000D01*
X61801000Y-55219000D02*
X77899000Y-55219000D01*
X61805000Y-55179000D02*
X77895000Y-55179000D01*
X61809000Y-55139000D02*
X77891000Y-55139000D01*
X61813000Y-55099000D02*
X77887000Y-55099000D01*
X61817000Y-55059000D02*
X77883000Y-55059000D01*
X61822000Y-55019000D02*
X77878000Y-55019000D01*
X61826000Y-54979000D02*
X77874000Y-54979000D01*
X61831000Y-54939000D02*
X77869000Y-54939000D01*
X61836000Y-54899000D02*
X77864000Y-54899000D01*
X61842000Y-54859000D02*
X77858000Y-54859000D01*
X61847000Y-54819000D02*
X77853000Y-54819000D01*
X61853000Y-54779000D02*
X77847000Y-54779000D01*
X61859000Y-54739000D02*
X77841000Y-54739000D01*
X61865000Y-54699000D02*
X77835000Y-54699000D01*
X61871000Y-54659000D02*
X77829000Y-54659000D01*
X61878000Y-54619000D02*
X77822000Y-54619000D01*
X61884000Y-54579000D02*
X77816000Y-54579000D01*
X61891000Y-54539000D02*
X77809000Y-54539000D01*
X61898000Y-54499000D02*
X77802000Y-54499000D01*
X61906000Y-54459000D02*
X77794000Y-54459000D01*
X61913000Y-54419000D02*
X77787000Y-54419000D01*
X61921000Y-54379000D02*
X77779000Y-54379000D01*
X61929000Y-54339000D02*
X77771000Y-54339000D01*
X61937000Y-54299000D02*
X77763000Y-54299000D01*
X61945000Y-54259000D02*
X77755000Y-54259000D01*
X61954000Y-54219000D02*
X77746000Y-54219000D01*
X61963000Y-54179000D02*
X77737000Y-54179000D01*
X61972000Y-54139000D02*
X77728000Y-54139000D01*
X61981000Y-54099000D02*
X77719000Y-54099000D01*
X61990000Y-54059000D02*
X77710000Y-54059000D01*
X62000000Y-54019000D02*
X77700000Y-54019000D01*
X62010000Y-53979000D02*
X77690000Y-53979000D01*
X62020000Y-53939000D02*
X77680000Y-53939000D01*
X62030000Y-53899000D02*
X77670000Y-53899000D01*
X62040000Y-53859000D02*
X77660000Y-53859000D01*
X62051000Y-53819000D02*
X77649000Y-53819000D01*
X62062000Y-53779000D02*
X77638000Y-53779000D01*
X62073000Y-53739000D02*
X77627000Y-53739000D01*
X62085000Y-53699000D02*
X77615000Y-53699000D01*
X62096000Y-53659000D02*
X77604000Y-53659000D01*
X62108000Y-53619000D02*
X68410000Y-53619000D01*
X71290000Y-53619000D02*
X77592000Y-53619000D01*
X62120000Y-53579000D02*
X68410000Y-53579000D01*
X71290000Y-53579000D02*
X77580000Y-53579000D01*
X62132000Y-53539000D02*
X68410000Y-53539000D01*
X71290000Y-53539000D02*
X77568000Y-53539000D01*
X62145000Y-53499000D02*
X68410000Y-53499000D01*
X71290000Y-53499000D02*
X77555000Y-53499000D01*
X62157000Y-53459000D02*
X68410000Y-53459000D01*
X71290000Y-53459000D02*
X77543000Y-53459000D01*
X62170000Y-53419000D02*
X68410000Y-53419000D01*
X71290000Y-53419000D02*
X77530000Y-53419000D01*
X62184000Y-53379000D02*
X68410000Y-53379000D01*
X71290000Y-53379000D02*
X77516000Y-53379000D01*
X62197000Y-53339000D02*
X68410000Y-53339000D01*
X71290000Y-53339000D02*
X77503000Y-53339000D01*
X62211000Y-53299000D02*
X68410000Y-53299000D01*
X71290000Y-53299000D02*
X77489000Y-53299000D01*
X62225000Y-53259000D02*
X68410000Y-53259000D01*
X71290000Y-53259000D02*
X77475000Y-53259000D01*
X62239000Y-53219000D02*
X68410000Y-53219000D01*
X71290000Y-53219000D02*
X77461000Y-53219000D01*
X62253000Y-53179000D02*
X68410000Y-53179000D01*
X71290000Y-53179000D02*
X77447000Y-53179000D01*
X62268000Y-53139000D02*
X68410000Y-53139000D01*
X71290000Y-53139000D02*
X77432000Y-53139000D01*
X62282000Y-53099000D02*
X68410000Y-53099000D01*
X71290000Y-53099000D02*
X77418000Y-53099000D01*
X62297000Y-53059000D02*
X68410000Y-53059000D01*
X71290000Y-53059000D02*
X77403000Y-53059000D01*
X62313000Y-53019000D02*
X68410000Y-53019000D01*
X71290000Y-53019000D02*
X77387000Y-53019000D01*
X62328000Y-52979000D02*
X68410000Y-52979000D01*
X71290000Y-52979000D02*
X77372000Y-52979000D01*
X62344000Y-52939000D02*
X68410000Y-52939000D01*
X71290000Y-52939000D02*
X77356000Y-52939000D01*
X62360000Y-52899000D02*
X68410000Y-52899000D01*
X71290000Y-52899000D02*
X77340000Y-52899000D01*
X62376000Y-52859000D02*
X68410000Y-52859000D01*
X71290000Y-52859000D02*
X77324000Y-52859000D01*
X62393000Y-52819000D02*
X68410000Y-52819000D01*
X71290000Y-52819000D02*
X77307000Y-52819000D01*
X62410000Y-52779000D02*
X68410000Y-52779000D01*
X71290000Y-52779000D02*
X77290000Y-52779000D01*
X62427000Y-52739000D02*
X68410000Y-52739000D01*
X71290000Y-52739000D02*
X77273000Y-52739000D01*
X62444000Y-52699000D02*
X68410000Y-52699000D01*
X71290000Y-52699000D02*
X77256000Y-52699000D01*
X62461000Y-52659000D02*
X68410000Y-52659000D01*
X71290000Y-52659000D02*
X77239000Y-52659000D01*
X62479000Y-52619000D02*
X68410000Y-52619000D01*
X71290000Y-52619000D02*
X77221000Y-52619000D01*
X62497000Y-52579000D02*
X68410000Y-52579000D01*
X71290000Y-52579000D02*
X77203000Y-52579000D01*
X62516000Y-52539000D02*
X68410000Y-52539000D01*
X71290000Y-52539000D02*
X77184000Y-52539000D01*
X62534000Y-52499000D02*
X68410000Y-52499000D01*
X71290000Y-52499000D02*
X77166000Y-52499000D01*
X62553000Y-52459000D02*
X68410000Y-52459000D01*
X71290000Y-52459000D02*
X77147000Y-52459000D01*
X62572000Y-52419000D02*
X68410000Y-52419000D01*
X71290000Y-52419000D02*
X77128000Y-52419000D01*
X62592000Y-52379000D02*
X68410000Y-52379000D01*
X71290000Y-52379000D02*
X77108000Y-52379000D01*
X62611000Y-52339000D02*
X68410000Y-52339000D01*
X71290000Y-52339000D02*
X77089000Y-52339000D01*
X62631000Y-52299000D02*
X68410000Y-52299000D01*
X71290000Y-52299000D02*
X77069000Y-52299000D01*
X62651000Y-52259000D02*
X68410000Y-52259000D01*
X71290000Y-52259000D02*
X77049000Y-52259000D01*
X62672000Y-52219000D02*
X68410000Y-52219000D01*
X71290000Y-52219000D02*
X77028000Y-52219000D01*
X62693000Y-52179000D02*
X68410000Y-52179000D01*
X71290000Y-52179000D02*
X77007000Y-52179000D01*
X62714000Y-52139000D02*
X68410000Y-52139000D01*
X71290000Y-52139000D02*
X76986000Y-52139000D01*
X62735000Y-52099000D02*
X68410000Y-52099000D01*
X71290000Y-52099000D02*
X76965000Y-52099000D01*
X62756000Y-52059000D02*
X68410000Y-52059000D01*
X71290000Y-52059000D02*
X76944000Y-52059000D01*
X62778000Y-52019000D02*
X68410000Y-52019000D01*
X71290000Y-52019000D02*
X76922000Y-52019000D01*
X62801000Y-51979000D02*
X68410000Y-51979000D01*
X71290000Y-51979000D02*
X76899000Y-51979000D01*
X62823000Y-51939000D02*
X68410000Y-51939000D01*
X71290000Y-51939000D02*
X76877000Y-51939000D01*
X62846000Y-51899000D02*
X68410000Y-51899000D01*
X71290000Y-51899000D02*
X76854000Y-51899000D01*
X62869000Y-51859000D02*
X68410000Y-51859000D01*
X71290000Y-51859000D02*
X76831000Y-51859000D01*
X62892000Y-51819000D02*
X68410000Y-51819000D01*
X71290000Y-51819000D02*
X76808000Y-51819000D01*
X62916000Y-51779000D02*
X68410000Y-51779000D01*
X71290000Y-51779000D02*
X76784000Y-51779000D01*
X62940000Y-51739000D02*
X68410000Y-51739000D01*
X71290000Y-51739000D02*
X76760000Y-51739000D01*
X62964000Y-51699000D02*
X68410000Y-51699000D01*
X71290000Y-51699000D02*
X76736000Y-51699000D01*
X62989000Y-51659000D02*
X68410000Y-51659000D01*
X71290000Y-51659000D02*
X76711000Y-51659000D01*
X63014000Y-51619000D02*
X68410000Y-51619000D01*
X71290000Y-51619000D02*
X76686000Y-51619000D01*
X63039000Y-51579000D02*
X68410000Y-51579000D01*
X71290000Y-51579000D02*
X76661000Y-51579000D01*
X63065000Y-51539000D02*
X68410000Y-51539000D01*
X71290000Y-51539000D02*
X76635000Y-51539000D01*
X63091000Y-51499000D02*
X68410000Y-51499000D01*
X71290000Y-51499000D02*
X76609000Y-51499000D01*
X63117000Y-51459000D02*
X68410000Y-51459000D01*
X71290000Y-51459000D02*
X76583000Y-51459000D01*
X63144000Y-51419000D02*
X68410000Y-51419000D01*
X71290000Y-51419000D02*
X76556000Y-51419000D01*
X63171000Y-51379000D02*
X68410000Y-51379000D01*
X71290000Y-51379000D02*
X76529000Y-51379000D01*
X63198000Y-51339000D02*
X68410000Y-51339000D01*
X71290000Y-51339000D02*
X76502000Y-51339000D01*
X63226000Y-51299000D02*
X68410000Y-51299000D01*
X71290000Y-51299000D02*
X76474000Y-51299000D01*
X63254000Y-51259000D02*
X68410000Y-51259000D01*
X71290000Y-51259000D02*
X76446000Y-51259000D01*
X63282000Y-51219000D02*
X68410000Y-51219000D01*
X71290000Y-51219000D02*
X76418000Y-51219000D01*
X63311000Y-51179000D02*
X68410000Y-51179000D01*
X71290000Y-51179000D02*
X76389000Y-51179000D01*
X63340000Y-51139000D02*
X68410000Y-51139000D01*
X71290000Y-51139000D02*
X76360000Y-51139000D01*
X63370000Y-51099000D02*
X68410000Y-51099000D01*
X71290000Y-51099000D02*
X76330000Y-51099000D01*
X63400000Y-51059000D02*
X68410000Y-51059000D01*
X71290000Y-51059000D02*
X76300000Y-51059000D01*
X63430000Y-51019000D02*
X68410000Y-51019000D01*
X71290000Y-51019000D02*
X76270000Y-51019000D01*
X63460000Y-50979000D02*
X68410000Y-50979000D01*
X71290000Y-50979000D02*
X76240000Y-50979000D01*
X63492000Y-50939000D02*
X68410000Y-50939000D01*
X71290000Y-50939000D02*
X76208000Y-50939000D01*
X63523000Y-50899000D02*
X68410000Y-50899000D01*
X71290000Y-50899000D02*
X76177000Y-50899000D01*
X63555000Y-50859000D02*
X68410000Y-50859000D01*
X71290000Y-50859000D02*
X76145000Y-50859000D01*
X63587000Y-50819000D02*
X68410000Y-50819000D01*
X71290000Y-50819000D02*
X76113000Y-50819000D01*
X63620000Y-50779000D02*
X68410000Y-50779000D01*
X71290000Y-50779000D02*
X76080000Y-50779000D01*
X63653000Y-50739000D02*
X76047000Y-50739000D01*
X63687000Y-50699000D02*
X76013000Y-50699000D01*
X63721000Y-50659000D02*
X75979000Y-50659000D01*
X63755000Y-50619000D02*
X75945000Y-50619000D01*
X63790000Y-50579000D02*
X75910000Y-50579000D01*
X63825000Y-50539000D02*
X75875000Y-50539000D01*
X63861000Y-50499000D02*
X75839000Y-50499000D01*
X63898000Y-50459000D02*
X75802000Y-50459000D01*
X63934000Y-50419000D02*
X75766000Y-50419000D01*
X63972000Y-50379000D02*
X75728000Y-50379000D01*
X64010000Y-50339000D02*
X75690000Y-50339000D01*
X64048000Y-50299000D02*
X75652000Y-50299000D01*
X64087000Y-50259000D02*
X75613000Y-50259000D01*
X64126000Y-50219000D02*
X75574000Y-50219000D01*
X64166000Y-50179000D02*
X75534000Y-50179000D01*
X64207000Y-50139000D02*
X75493000Y-50139000D01*
X64248000Y-50099000D02*
X75452000Y-50099000D01*
X64290000Y-50059000D02*
X75410000Y-50059000D01*
X64332000Y-50019000D02*
X75368000Y-50019000D01*
X64375000Y-49979000D02*
X75325000Y-49979000D01*
X64418000Y-49939000D02*
X75282000Y-49939000D01*
X64462000Y-49899000D02*
X75238000Y-49899000D01*
X64507000Y-49859000D02*
X75193000Y-49859000D01*
X64553000Y-49819000D02*
X75147000Y-49819000D01*
X64599000Y-49779000D02*
X75101000Y-49779000D01*
X64646000Y-49739000D02*
X75054000Y-49739000D01*
X64694000Y-49699000D02*
X75006000Y-49699000D01*
X64742000Y-49659000D02*
X74958000Y-49659000D01*
X64791000Y-49619000D02*
X74909000Y-49619000D01*
X64841000Y-49579000D02*
X74859000Y-49579000D01*
X64892000Y-49539000D02*
X74808000Y-49539000D01*
X64944000Y-49499000D02*
X74756000Y-49499000D01*
X64996000Y-49459000D02*
X74704000Y-49459000D01*
X65050000Y-49419000D02*
X74650000Y-49419000D01*
X65104000Y-49379000D02*
X74596000Y-49379000D01*
X65159000Y-49339000D02*
X74541000Y-49339000D01*
X65216000Y-49299000D02*
X74484000Y-49299000D01*
X65273000Y-49259000D02*
X74427000Y-49259000D01*
X65331000Y-49219000D02*
X74369000Y-49219000D01*
X65391000Y-49179000D02*
X74309000Y-49179000D01*
X65452000Y-49139000D02*
X74248000Y-49139000D01*
X65514000Y-49099000D02*
X74186000Y-49099000D01*
X65577000Y-49059000D02*
X74123000Y-49059000D01*
X65641000Y-49019000D02*
X74059000Y-49019000D01*
X65707000Y-48979000D02*
X73993000Y-48979000D01*
X65774000Y-48939000D02*
X73926000Y-48939000D01*
X65843000Y-48899000D02*
X73857000Y-48899000D01*
X65914000Y-48859000D02*
X73786000Y-48859000D01*
X65986000Y-48819000D02*
X73714000Y-48819000D01*
X66060000Y-48779000D02*
X73640000Y-48779000D01*
X66135000Y-48739000D02*
X73565000Y-48739000D01*
X66213000Y-48699000D02*
X73487000Y-48699000D01*
X66293000Y-48659000D02*
X73407000Y-48659000D01*
X66375000Y-48619000D02*
X73325000Y-48619000D01*
X66460000Y-48579000D02*
X73240000Y-48579000D01*
X66547000Y-48539000D02*
X73153000Y-48539000D01*
X66637000Y-48499000D02*
X73063000Y-48499000D01*
X66730000Y-48459000D02*
X72970000Y-48459000D01*
X66826000Y-48419000D02*
X72874000Y-48419000D01*
X66926000Y-48379000D02*
X72774000Y-48379000D01*
X67030000Y-48339000D02*
X72670000Y-48339000D01*
X67139000Y-48299000D02*
X72561000Y-48299000D01*
X67253000Y-48259000D02*
X72447000Y-48259000D01*
X67372000Y-48219000D02*
X72328000Y-48219000D01*
X67499000Y-48179000D02*
X72201000Y-48179000D01*
X67632000Y-48139000D02*
X72068000Y-48139000D01*
X67776000Y-48099000D02*
X71924000Y-48099000D01*
X67930000Y-48059000D02*
X71770000Y-48059000D01*
X68098000Y-48019000D02*
X71602000Y-48019000D01*
X68286000Y-47979000D02*
X71414000Y-47979000D01*
X68499000Y-47939000D02*
X71201000Y-47939000D01*
X68752000Y-47899000D02*
X70948000Y-47899000D01*
X69085000Y-47859000D02*
X70615000Y-47859000D01*
X65295000Y-64629491D02*
X65295000Y-63029491D01*
X64495000Y-63829491D02*
X66095000Y-63829491D01*
X82729000Y-73413252D02*
X82729000Y-72890748D01*
X84149000Y-73413252D02*
X84149000Y-72890748D01*
X100718252Y-70410000D02*
X100195748Y-70410000D01*
X100718252Y-71830000D02*
X100195748Y-71830000D01*
X94734748Y-71830000D02*
X95257252Y-71830000D01*
X94734748Y-70410000D02*
X95257252Y-70410000D01*
X101675000Y-81653748D02*
X101675000Y-82176252D01*
X100255000Y-81653748D02*
X100255000Y-82176252D01*
X87710000Y-85070000D02*
G75*
G03X87710000Y-85070000I-2620000J0D01*
G01*
X87670000Y-85070000D02*
X82510000Y-85070000D01*
X87670000Y-85110000D02*
X82510000Y-85110000D01*
X87669000Y-85150000D02*
X82511000Y-85150000D01*
X87668000Y-85190000D02*
X82512000Y-85190000D01*
X87666000Y-85230000D02*
X82514000Y-85230000D01*
X87663000Y-85270000D02*
X82517000Y-85270000D01*
X87659000Y-85310000D02*
X86130000Y-85310000D01*
X84050000Y-85310000D02*
X82521000Y-85310000D01*
X87655000Y-85350000D02*
X86130000Y-85350000D01*
X84050000Y-85350000D02*
X82525000Y-85350000D01*
X87651000Y-85390000D02*
X86130000Y-85390000D01*
X84050000Y-85390000D02*
X82529000Y-85390000D01*
X87646000Y-85430000D02*
X86130000Y-85430000D01*
X84050000Y-85430000D02*
X82534000Y-85430000D01*
X87640000Y-85470000D02*
X86130000Y-85470000D01*
X84050000Y-85470000D02*
X82540000Y-85470000D01*
X87633000Y-85510000D02*
X86130000Y-85510000D01*
X84050000Y-85510000D02*
X82547000Y-85510000D01*
X87626000Y-85550000D02*
X86130000Y-85550000D01*
X84050000Y-85550000D02*
X82554000Y-85550000D01*
X87618000Y-85590000D02*
X86130000Y-85590000D01*
X84050000Y-85590000D02*
X82562000Y-85590000D01*
X87610000Y-85630000D02*
X86130000Y-85630000D01*
X84050000Y-85630000D02*
X82570000Y-85630000D01*
X87601000Y-85670000D02*
X86130000Y-85670000D01*
X84050000Y-85670000D02*
X82579000Y-85670000D01*
X87591000Y-85710000D02*
X86130000Y-85710000D01*
X84050000Y-85710000D02*
X82589000Y-85710000D01*
X87581000Y-85750000D02*
X86130000Y-85750000D01*
X84050000Y-85750000D02*
X82599000Y-85750000D01*
X87570000Y-85791000D02*
X86130000Y-85791000D01*
X84050000Y-85791000D02*
X82610000Y-85791000D01*
X87558000Y-85831000D02*
X86130000Y-85831000D01*
X84050000Y-85831000D02*
X82622000Y-85831000D01*
X87545000Y-85871000D02*
X86130000Y-85871000D01*
X84050000Y-85871000D02*
X82635000Y-85871000D01*
X87532000Y-85911000D02*
X86130000Y-85911000D01*
X84050000Y-85911000D02*
X82648000Y-85911000D01*
X87518000Y-85951000D02*
X86130000Y-85951000D01*
X84050000Y-85951000D02*
X82662000Y-85951000D01*
X87504000Y-85991000D02*
X86130000Y-85991000D01*
X84050000Y-85991000D02*
X82676000Y-85991000D01*
X87488000Y-86031000D02*
X86130000Y-86031000D01*
X84050000Y-86031000D02*
X82692000Y-86031000D01*
X87472000Y-86071000D02*
X86130000Y-86071000D01*
X84050000Y-86071000D02*
X82708000Y-86071000D01*
X87455000Y-86111000D02*
X86130000Y-86111000D01*
X84050000Y-86111000D02*
X82725000Y-86111000D01*
X87438000Y-86151000D02*
X86130000Y-86151000D01*
X84050000Y-86151000D02*
X82742000Y-86151000D01*
X87419000Y-86191000D02*
X86130000Y-86191000D01*
X84050000Y-86191000D02*
X82761000Y-86191000D01*
X87400000Y-86231000D02*
X86130000Y-86231000D01*
X84050000Y-86231000D02*
X82780000Y-86231000D01*
X87380000Y-86271000D02*
X86130000Y-86271000D01*
X84050000Y-86271000D02*
X82800000Y-86271000D01*
X87358000Y-86311000D02*
X86130000Y-86311000D01*
X84050000Y-86311000D02*
X82822000Y-86311000D01*
X87337000Y-86351000D02*
X86130000Y-86351000D01*
X84050000Y-86351000D02*
X82843000Y-86351000D01*
X87314000Y-86391000D02*
X86130000Y-86391000D01*
X84050000Y-86391000D02*
X82866000Y-86391000D01*
X87290000Y-86431000D02*
X86130000Y-86431000D01*
X84050000Y-86431000D02*
X82890000Y-86431000D01*
X87265000Y-86471000D02*
X86130000Y-86471000D01*
X84050000Y-86471000D02*
X82915000Y-86471000D01*
X87239000Y-86511000D02*
X86130000Y-86511000D01*
X84050000Y-86511000D02*
X82941000Y-86511000D01*
X87212000Y-86551000D02*
X86130000Y-86551000D01*
X84050000Y-86551000D02*
X82968000Y-86551000D01*
X87185000Y-86591000D02*
X86130000Y-86591000D01*
X84050000Y-86591000D02*
X82995000Y-86591000D01*
X87155000Y-86631000D02*
X86130000Y-86631000D01*
X84050000Y-86631000D02*
X83025000Y-86631000D01*
X87125000Y-86671000D02*
X86130000Y-86671000D01*
X84050000Y-86671000D02*
X83055000Y-86671000D01*
X87094000Y-86711000D02*
X86130000Y-86711000D01*
X84050000Y-86711000D02*
X83086000Y-86711000D01*
X87061000Y-86751000D02*
X86130000Y-86751000D01*
X84050000Y-86751000D02*
X83119000Y-86751000D01*
X87027000Y-86791000D02*
X86130000Y-86791000D01*
X84050000Y-86791000D02*
X83153000Y-86791000D01*
X86991000Y-86831000D02*
X86130000Y-86831000D01*
X84050000Y-86831000D02*
X83189000Y-86831000D01*
X86954000Y-86871000D02*
X86130000Y-86871000D01*
X84050000Y-86871000D02*
X83226000Y-86871000D01*
X86916000Y-86911000D02*
X86130000Y-86911000D01*
X84050000Y-86911000D02*
X83264000Y-86911000D01*
X86875000Y-86951000D02*
X86130000Y-86951000D01*
X84050000Y-86951000D02*
X83305000Y-86951000D01*
X86833000Y-86991000D02*
X86130000Y-86991000D01*
X84050000Y-86991000D02*
X83347000Y-86991000D01*
X86789000Y-87031000D02*
X86130000Y-87031000D01*
X84050000Y-87031000D02*
X83391000Y-87031000D01*
X86743000Y-87071000D02*
X86130000Y-87071000D01*
X84050000Y-87071000D02*
X83437000Y-87071000D01*
X86695000Y-87111000D02*
X86130000Y-87111000D01*
X84050000Y-87111000D02*
X83485000Y-87111000D01*
X86644000Y-87151000D02*
X86130000Y-87151000D01*
X84050000Y-87151000D02*
X83536000Y-87151000D01*
X86590000Y-87191000D02*
X86130000Y-87191000D01*
X84050000Y-87191000D02*
X83590000Y-87191000D01*
X86533000Y-87231000D02*
X86130000Y-87231000D01*
X84050000Y-87231000D02*
X83647000Y-87231000D01*
X86473000Y-87271000D02*
X86130000Y-87271000D01*
X84050000Y-87271000D02*
X83707000Y-87271000D01*
X86409000Y-87311000D02*
X86130000Y-87311000D01*
X84050000Y-87311000D02*
X83771000Y-87311000D01*
X86341000Y-87351000D02*
X86130000Y-87351000D01*
X84050000Y-87351000D02*
X83839000Y-87351000D01*
X86268000Y-87391000D02*
X83912000Y-87391000D01*
X86188000Y-87431000D02*
X83992000Y-87431000D01*
X86101000Y-87471000D02*
X84079000Y-87471000D01*
X86005000Y-87511000D02*
X84175000Y-87511000D01*
X85895000Y-87551000D02*
X84285000Y-87551000D01*
X85767000Y-87591000D02*
X84413000Y-87591000D01*
X85608000Y-87631000D02*
X84572000Y-87631000D01*
X85374000Y-87671000D02*
X84806000Y-87671000D01*
X86565000Y-82265225D02*
X86565000Y-82765225D01*
X86815000Y-82515225D02*
X86315000Y-82515225D01*
X77208748Y-104700000D02*
X77731252Y-104700000D01*
X77208748Y-106120000D02*
X77731252Y-106120000D01*
X79246252Y-46280000D02*
X78723748Y-46280000D01*
X79246252Y-47700000D02*
X78723748Y-47700000D01*
X83620000Y-99730000D02*
X86560000Y-99730000D01*
X83620000Y-99490000D02*
X86560000Y-99490000D01*
X83620000Y-99610000D02*
X86560000Y-99610000D01*
X85090000Y-94050000D02*
X85090000Y-95070000D01*
X85090000Y-101530000D02*
X85090000Y-100510000D01*
X83620000Y-95070000D02*
X83620000Y-100510000D01*
X86560000Y-95070000D02*
X83620000Y-95070000D01*
X86560000Y-100510000D02*
X86560000Y-95070000D01*
X83620000Y-100510000D02*
X86560000Y-100510000D01*
X88700000Y-100510000D02*
X91640000Y-100510000D01*
X91640000Y-100510000D02*
X91640000Y-95070000D01*
X91640000Y-95070000D02*
X88700000Y-95070000D01*
X88700000Y-95070000D02*
X88700000Y-100510000D01*
X90170000Y-101530000D02*
X90170000Y-100510000D01*
X90170000Y-94050000D02*
X90170000Y-95070000D01*
X88700000Y-99610000D02*
X91640000Y-99610000D01*
X88700000Y-99490000D02*
X91640000Y-99490000D01*
X88700000Y-99730000D02*
X91640000Y-99730000D01*
X80200000Y-91370000D02*
X80200000Y-92580000D01*
X78900000Y-91370000D02*
X80200000Y-91370000D01*
X80050000Y-91530000D02*
X51040000Y-91530000D01*
X51040000Y-91530000D02*
X51040000Y-104050000D01*
X51040000Y-104050000D02*
X80050000Y-104050000D01*
X80050000Y-104050000D02*
X80050000Y-91530000D01*
X70270000Y-97450000D02*
X70270000Y-96350000D01*
X70270000Y-98150000D02*
X70270000Y-99250000D01*
X70100000Y-97450000D02*
X70500000Y-98150000D01*
X70900000Y-97450000D02*
X69700000Y-97450000D01*
X69700000Y-97450000D02*
X69700000Y-98150000D01*
X69700000Y-98150000D02*
X70900000Y-98150000D01*
X70900000Y-98150000D02*
X70900000Y-97450000D01*
X70900000Y-72750000D02*
X70900000Y-72050000D01*
X69700000Y-72750000D02*
X70900000Y-72750000D01*
X69700000Y-72050000D02*
X69700000Y-72750000D01*
X70900000Y-72050000D02*
X69700000Y-72050000D01*
X70100000Y-72050000D02*
X70500000Y-72750000D01*
X70270000Y-72750000D02*
X70270000Y-73850000D01*
X70270000Y-72050000D02*
X70270000Y-70950000D01*
X80050000Y-78650000D02*
X80050000Y-66130000D01*
X51040000Y-78650000D02*
X80050000Y-78650000D01*
X51040000Y-66130000D02*
X51040000Y-78650000D01*
X80050000Y-66130000D02*
X51040000Y-66130000D01*
X78900000Y-65970000D02*
X80200000Y-65970000D01*
X80200000Y-65970000D02*
X80200000Y-67180000D01*
X69997205Y-87414184D02*
G75*
G02X69270000Y-86890000I1122795J2324184D01*
G01*
X72218807Y-87446400D02*
G75*
G03X73720000Y-85090000I-1098807J2356400D01*
G01*
X72218807Y-82733600D02*
G75*
G02X73720000Y-85090000I-1098807J-2356400D01*
G01*
X69997205Y-82765816D02*
G75*
G03X69270000Y-83290000I1122795J-2324184D01*
G01*
X69270000Y-83290000D02*
X69270000Y-86890000D01*
X80590000Y-86890000D02*
X80590000Y-83290000D01*
X79862795Y-87414184D02*
G75*
G03X80590000Y-86890000I-1122795J2324184D01*
G01*
X77641193Y-87446400D02*
G75*
G02X76140000Y-85090000I1098807J2356400D01*
G01*
X77641193Y-82733600D02*
G75*
G03X76140000Y-85090000I1098807J-2356400D01*
G01*
X79862795Y-82765816D02*
G75*
G02X80590000Y-83290000I-1122795J-2324184D01*
G01*
X93540948Y-82180500D02*
X94063452Y-82180500D01*
X93540948Y-80760500D02*
X94063452Y-80760500D01*
X96893748Y-67235000D02*
X97416252Y-67235000D01*
X96893748Y-68655000D02*
X97416252Y-68655000D01*
X75693748Y-65480000D02*
X76216252Y-65480000D01*
X75693748Y-64060000D02*
X76216252Y-64060000D01*
X79748748Y-64060000D02*
X80271252Y-64060000D01*
X79748748Y-65480000D02*
X80271252Y-65480000D01*
X83192252Y-78053000D02*
X82669748Y-78053000D01*
X83192252Y-76633000D02*
X82669748Y-76633000D01*
X83192252Y-80062000D02*
X82669748Y-80062000D01*
X83192252Y-81482000D02*
X82669748Y-81482000D01*
X58325000Y-90210000D02*
X58325000Y-79970000D01*
X62966000Y-90210000D02*
X62966000Y-79970000D01*
X58325000Y-90210000D02*
X62966000Y-90210000D01*
X58325000Y-79970000D02*
X62966000Y-79970000D01*
X59835000Y-90210000D02*
X59835000Y-79970000D01*
X58325000Y-86940000D02*
X59835000Y-86940000D01*
X58325000Y-83239000D02*
X59835000Y-83239000D01*
D10*
X96227000Y-73575000D02*
X96227000Y-73700000D01*
X100877000Y-73575000D02*
X100877000Y-73800000D01*
X100877000Y-78825000D02*
X100877000Y-78600000D01*
X96227000Y-78825000D02*
X96227000Y-78600000D01*
X96227000Y-73575000D02*
X100877000Y-73575000D01*
X96227000Y-78825000D02*
X100877000Y-78825000D01*
X96227000Y-73700000D02*
X94877000Y-73700000D01*
X86829000Y-73700000D02*
X85479000Y-73700000D01*
X86829000Y-78825000D02*
X91479000Y-78825000D01*
X86829000Y-73575000D02*
X91479000Y-73575000D01*
X86829000Y-78825000D02*
X86829000Y-78600000D01*
X91479000Y-78825000D02*
X91479000Y-78600000D01*
X91479000Y-73575000D02*
X91479000Y-73800000D01*
X86829000Y-73575000D02*
X86829000Y-73700000D01*
D11*
X98490000Y-80755000D02*
X96590000Y-80755000D01*
X97090000Y-83075000D02*
X98490000Y-83075000D01*
X86512000Y-71413000D02*
X86512000Y-73113000D01*
X86512000Y-73113000D02*
X89662000Y-73113000D01*
X86512000Y-71413000D02*
X89662000Y-71413000D01*
X101040000Y-65261748D02*
X101040000Y-65784252D01*
X99620000Y-65261748D02*
X99620000Y-65784252D01*
X66490000Y-48550000D02*
X66490000Y-62150000D01*
X51090000Y-48550000D02*
X66490000Y-48550000D01*
X51090000Y-63950000D02*
X51090000Y-48550000D01*
X64690000Y-63950000D02*
X51090000Y-63950000D01*
X65440000Y-63200000D02*
X64690000Y-63950000D01*
X66490000Y-62150000D02*
X65740000Y-62900000D01*
D10*
X64747142Y-86526666D02*
X64794761Y-86574285D01*
X64842380Y-86717142D01*
X64842380Y-86812380D01*
X64794761Y-86955238D01*
X64699523Y-87050476D01*
X64604285Y-87098095D01*
X64413809Y-87145714D01*
X64270952Y-87145714D01*
X64080476Y-87098095D01*
X63985238Y-87050476D01*
X63890000Y-86955238D01*
X63842380Y-86812380D01*
X63842380Y-86717142D01*
X63890000Y-86574285D01*
X63937619Y-86526666D01*
X64842380Y-85574285D02*
X64842380Y-86145714D01*
X64842380Y-85860000D02*
X63842380Y-85860000D01*
X63985238Y-85955238D01*
X64080476Y-86050476D01*
X64128095Y-86145714D01*
X90638333Y-64492142D02*
X90590714Y-64539761D01*
X90447857Y-64587380D01*
X90352619Y-64587380D01*
X90209761Y-64539761D01*
X90114523Y-64444523D01*
X90066904Y-64349285D01*
X90019285Y-64158809D01*
X90019285Y-64015952D01*
X90066904Y-63825476D01*
X90114523Y-63730238D01*
X90209761Y-63635000D01*
X90352619Y-63587380D01*
X90447857Y-63587380D01*
X90590714Y-63635000D01*
X90638333Y-63682619D01*
X91019285Y-63682619D02*
X91066904Y-63635000D01*
X91162142Y-63587380D01*
X91400238Y-63587380D01*
X91495476Y-63635000D01*
X91543095Y-63682619D01*
X91590714Y-63777857D01*
X91590714Y-63873095D01*
X91543095Y-64015952D01*
X90971666Y-64587380D01*
X91590714Y-64587380D01*
X84268333Y-64552142D02*
X84220714Y-64599761D01*
X84077857Y-64647380D01*
X83982619Y-64647380D01*
X83839761Y-64599761D01*
X83744523Y-64504523D01*
X83696904Y-64409285D01*
X83649285Y-64218809D01*
X83649285Y-64075952D01*
X83696904Y-63885476D01*
X83744523Y-63790238D01*
X83839761Y-63695000D01*
X83982619Y-63647380D01*
X84077857Y-63647380D01*
X84220714Y-63695000D01*
X84268333Y-63742619D01*
X84601666Y-63647380D02*
X85220714Y-63647380D01*
X84887380Y-64028333D01*
X85030238Y-64028333D01*
X85125476Y-64075952D01*
X85173095Y-64123571D01*
X85220714Y-64218809D01*
X85220714Y-64456904D01*
X85173095Y-64552142D01*
X85125476Y-64599761D01*
X85030238Y-64647380D01*
X84744523Y-64647380D01*
X84649285Y-64599761D01*
X84601666Y-64552142D01*
X60957142Y-56106666D02*
X61004761Y-56154285D01*
X61052380Y-56297142D01*
X61052380Y-56392380D01*
X61004761Y-56535238D01*
X60909523Y-56630476D01*
X60814285Y-56678095D01*
X60623809Y-56725714D01*
X60480952Y-56725714D01*
X60290476Y-56678095D01*
X60195238Y-56630476D01*
X60100000Y-56535238D01*
X60052380Y-56392380D01*
X60052380Y-56297142D01*
X60100000Y-56154285D01*
X60147619Y-56106666D01*
X60385714Y-55249523D02*
X61052380Y-55249523D01*
X60004761Y-55487619D02*
X60719047Y-55725714D01*
X60719047Y-55106666D01*
X82146142Y-73318666D02*
X82193761Y-73366285D01*
X82241380Y-73509142D01*
X82241380Y-73604380D01*
X82193761Y-73747238D01*
X82098523Y-73842476D01*
X82003285Y-73890095D01*
X81812809Y-73937714D01*
X81669952Y-73937714D01*
X81479476Y-73890095D01*
X81384238Y-73842476D01*
X81289000Y-73747238D01*
X81241380Y-73604380D01*
X81241380Y-73509142D01*
X81289000Y-73366285D01*
X81336619Y-73318666D01*
X81241380Y-72413904D02*
X81241380Y-72890095D01*
X81717571Y-72937714D01*
X81669952Y-72890095D01*
X81622333Y-72794857D01*
X81622333Y-72556761D01*
X81669952Y-72461523D01*
X81717571Y-72413904D01*
X81812809Y-72366285D01*
X82050904Y-72366285D01*
X82146142Y-72413904D01*
X82193761Y-72461523D01*
X82241380Y-72556761D01*
X82241380Y-72794857D01*
X82193761Y-72890095D01*
X82146142Y-72937714D01*
X100290333Y-73127142D02*
X100242714Y-73174761D01*
X100099857Y-73222380D01*
X100004619Y-73222380D01*
X99861761Y-73174761D01*
X99766523Y-73079523D01*
X99718904Y-72984285D01*
X99671285Y-72793809D01*
X99671285Y-72650952D01*
X99718904Y-72460476D01*
X99766523Y-72365238D01*
X99861761Y-72270000D01*
X100004619Y-72222380D01*
X100099857Y-72222380D01*
X100242714Y-72270000D01*
X100290333Y-72317619D01*
X101147476Y-72222380D02*
X100957000Y-72222380D01*
X100861761Y-72270000D01*
X100814142Y-72317619D01*
X100718904Y-72460476D01*
X100671285Y-72650952D01*
X100671285Y-73031904D01*
X100718904Y-73127142D01*
X100766523Y-73174761D01*
X100861761Y-73222380D01*
X101052238Y-73222380D01*
X101147476Y-73174761D01*
X101195095Y-73127142D01*
X101242714Y-73031904D01*
X101242714Y-72793809D01*
X101195095Y-72698571D01*
X101147476Y-72650952D01*
X101052238Y-72603333D01*
X100861761Y-72603333D01*
X100766523Y-72650952D01*
X100718904Y-72698571D01*
X100671285Y-72793809D01*
X94829333Y-69827142D02*
X94781714Y-69874761D01*
X94638857Y-69922380D01*
X94543619Y-69922380D01*
X94400761Y-69874761D01*
X94305523Y-69779523D01*
X94257904Y-69684285D01*
X94210285Y-69493809D01*
X94210285Y-69350952D01*
X94257904Y-69160476D01*
X94305523Y-69065238D01*
X94400761Y-68970000D01*
X94543619Y-68922380D01*
X94638857Y-68922380D01*
X94781714Y-68970000D01*
X94829333Y-69017619D01*
X95162666Y-68922380D02*
X95829333Y-68922380D01*
X95400761Y-69922380D01*
X102972142Y-82081666D02*
X103019761Y-82129285D01*
X103067380Y-82272142D01*
X103067380Y-82367380D01*
X103019761Y-82510238D01*
X102924523Y-82605476D01*
X102829285Y-82653095D01*
X102638809Y-82700714D01*
X102495952Y-82700714D01*
X102305476Y-82653095D01*
X102210238Y-82605476D01*
X102115000Y-82510238D01*
X102067380Y-82367380D01*
X102067380Y-82272142D01*
X102115000Y-82129285D01*
X102162619Y-82081666D01*
X102495952Y-81510238D02*
X102448333Y-81605476D01*
X102400714Y-81653095D01*
X102305476Y-81700714D01*
X102257857Y-81700714D01*
X102162619Y-81653095D01*
X102115000Y-81605476D01*
X102067380Y-81510238D01*
X102067380Y-81319761D01*
X102115000Y-81224523D01*
X102162619Y-81176904D01*
X102257857Y-81129285D01*
X102305476Y-81129285D01*
X102400714Y-81176904D01*
X102448333Y-81224523D01*
X102495952Y-81319761D01*
X102495952Y-81510238D01*
X102543571Y-81605476D01*
X102591190Y-81653095D01*
X102686428Y-81700714D01*
X102876904Y-81700714D01*
X102972142Y-81653095D01*
X103019761Y-81605476D01*
X103067380Y-81510238D01*
X103067380Y-81319761D01*
X103019761Y-81224523D01*
X102972142Y-81176904D01*
X102876904Y-81129285D01*
X102686428Y-81129285D01*
X102591190Y-81176904D01*
X102543571Y-81224523D01*
X102495952Y-81319761D01*
X89197142Y-85236666D02*
X89244761Y-85284285D01*
X89292380Y-85427142D01*
X89292380Y-85522380D01*
X89244761Y-85665238D01*
X89149523Y-85760476D01*
X89054285Y-85808095D01*
X88863809Y-85855714D01*
X88720952Y-85855714D01*
X88530476Y-85808095D01*
X88435238Y-85760476D01*
X88340000Y-85665238D01*
X88292380Y-85522380D01*
X88292380Y-85427142D01*
X88340000Y-85284285D01*
X88387619Y-85236666D01*
X89292380Y-84760476D02*
X89292380Y-84570000D01*
X89244761Y-84474761D01*
X89197142Y-84427142D01*
X89054285Y-84331904D01*
X88863809Y-84284285D01*
X88482857Y-84284285D01*
X88387619Y-84331904D01*
X88340000Y-84379523D01*
X88292380Y-84474761D01*
X88292380Y-84665238D01*
X88340000Y-84760476D01*
X88387619Y-84808095D01*
X88482857Y-84855714D01*
X88720952Y-84855714D01*
X88816190Y-84808095D01*
X88863809Y-84760476D01*
X88911428Y-84665238D01*
X88911428Y-84474761D01*
X88863809Y-84379523D01*
X88816190Y-84331904D01*
X88720952Y-84284285D01*
X76827142Y-104117142D02*
X76779523Y-104164761D01*
X76636666Y-104212380D01*
X76541428Y-104212380D01*
X76398571Y-104164761D01*
X76303333Y-104069523D01*
X76255714Y-103974285D01*
X76208095Y-103783809D01*
X76208095Y-103640952D01*
X76255714Y-103450476D01*
X76303333Y-103355238D01*
X76398571Y-103260000D01*
X76541428Y-103212380D01*
X76636666Y-103212380D01*
X76779523Y-103260000D01*
X76827142Y-103307619D01*
X77779523Y-104212380D02*
X77208095Y-104212380D01*
X77493809Y-104212380D02*
X77493809Y-103212380D01*
X77398571Y-103355238D01*
X77303333Y-103450476D01*
X77208095Y-103498095D01*
X78398571Y-103212380D02*
X78493809Y-103212380D01*
X78589047Y-103260000D01*
X78636666Y-103307619D01*
X78684285Y-103402857D01*
X78731904Y-103593333D01*
X78731904Y-103831428D01*
X78684285Y-104021904D01*
X78636666Y-104117142D01*
X78589047Y-104164761D01*
X78493809Y-104212380D01*
X78398571Y-104212380D01*
X78303333Y-104164761D01*
X78255714Y-104117142D01*
X78208095Y-104021904D01*
X78160476Y-103831428D01*
X78160476Y-103593333D01*
X78208095Y-103402857D01*
X78255714Y-103307619D01*
X78303333Y-103260000D01*
X78398571Y-103212380D01*
X78342142Y-48997142D02*
X78294523Y-49044761D01*
X78151666Y-49092380D01*
X78056428Y-49092380D01*
X77913571Y-49044761D01*
X77818333Y-48949523D01*
X77770714Y-48854285D01*
X77723095Y-48663809D01*
X77723095Y-48520952D01*
X77770714Y-48330476D01*
X77818333Y-48235238D01*
X77913571Y-48140000D01*
X78056428Y-48092380D01*
X78151666Y-48092380D01*
X78294523Y-48140000D01*
X78342142Y-48187619D01*
X79294523Y-49092380D02*
X78723095Y-49092380D01*
X79008809Y-49092380D02*
X79008809Y-48092380D01*
X78913571Y-48235238D01*
X78818333Y-48330476D01*
X78723095Y-48378095D01*
X80246904Y-49092380D02*
X79675476Y-49092380D01*
X79961190Y-49092380D02*
X79961190Y-48092380D01*
X79865952Y-48235238D01*
X79770714Y-48330476D01*
X79675476Y-48378095D01*
X83072380Y-98528095D02*
X82072380Y-98528095D01*
X82072380Y-98290000D01*
X82120000Y-98147142D01*
X82215238Y-98051904D01*
X82310476Y-98004285D01*
X82500952Y-97956666D01*
X82643809Y-97956666D01*
X82834285Y-98004285D01*
X82929523Y-98051904D01*
X83024761Y-98147142D01*
X83072380Y-98290000D01*
X83072380Y-98528095D01*
X82167619Y-97575714D02*
X82120000Y-97528095D01*
X82072380Y-97432857D01*
X82072380Y-97194761D01*
X82120000Y-97099523D01*
X82167619Y-97051904D01*
X82262857Y-97004285D01*
X82358095Y-97004285D01*
X82500952Y-97051904D01*
X83072380Y-97623333D01*
X83072380Y-97004285D01*
X83442380Y-103131904D02*
X82442380Y-103131904D01*
X83442380Y-102560476D02*
X82870952Y-102989047D01*
X82442380Y-102560476D02*
X83013809Y-103131904D01*
X88152380Y-98528095D02*
X87152380Y-98528095D01*
X87152380Y-98290000D01*
X87200000Y-98147142D01*
X87295238Y-98051904D01*
X87390476Y-98004285D01*
X87580952Y-97956666D01*
X87723809Y-97956666D01*
X87914285Y-98004285D01*
X88009523Y-98051904D01*
X88104761Y-98147142D01*
X88152380Y-98290000D01*
X88152380Y-98528095D01*
X87152380Y-97623333D02*
X87152380Y-97004285D01*
X87533333Y-97337619D01*
X87533333Y-97194761D01*
X87580952Y-97099523D01*
X87628571Y-97051904D01*
X87723809Y-97004285D01*
X87961904Y-97004285D01*
X88057142Y-97051904D01*
X88104761Y-97099523D01*
X88152380Y-97194761D01*
X88152380Y-97480476D01*
X88104761Y-97575714D01*
X88057142Y-97623333D01*
X88522380Y-103131904D02*
X87522380Y-103131904D01*
X88522380Y-102560476D02*
X87950952Y-102989047D01*
X87522380Y-102560476D02*
X88093809Y-103131904D01*
D13*
X48851428Y-77319285D02*
X50351428Y-77319285D01*
X48851428Y-78033571D02*
X50351428Y-78033571D01*
X48851428Y-78890714D01*
X50351428Y-78890714D01*
X48851428Y-70957571D02*
X48851428Y-71243285D01*
X48922857Y-71386142D01*
X48994285Y-71457571D01*
X49208571Y-71600428D01*
X49494285Y-71671857D01*
X50065714Y-71671857D01*
X50208571Y-71600428D01*
X50280000Y-71529000D01*
X50351428Y-71386142D01*
X50351428Y-71100428D01*
X50280000Y-70957571D01*
X50208571Y-70886142D01*
X50065714Y-70814714D01*
X49708571Y-70814714D01*
X49565714Y-70886142D01*
X49494285Y-70957571D01*
X49422857Y-71100428D01*
X49422857Y-71386142D01*
X49494285Y-71529000D01*
X49565714Y-71600428D01*
X49708571Y-71671857D01*
X50351428Y-72100428D02*
X48851428Y-72600428D01*
X50351428Y-73100428D01*
X49280000Y-73529000D02*
X49280000Y-74243285D01*
X48851428Y-73386142D02*
X50351428Y-73886142D01*
X48851428Y-74386142D01*
X48994285Y-75743285D02*
X48922857Y-75671857D01*
X48851428Y-75457571D01*
X48851428Y-75314714D01*
X48922857Y-75100428D01*
X49065714Y-74957571D01*
X49208571Y-74886142D01*
X49494285Y-74814714D01*
X49708571Y-74814714D01*
X49994285Y-74886142D01*
X50137142Y-74957571D01*
X50280000Y-75100428D01*
X50351428Y-75314714D01*
X50351428Y-75457571D01*
X50280000Y-75671857D01*
X50208571Y-75743285D01*
X45617142Y-106088571D02*
X44760000Y-106088571D01*
X45188571Y-106088571D02*
X45188571Y-104588571D01*
X45045714Y-104802857D01*
X44902857Y-104945714D01*
X44760000Y-105017142D01*
X46188571Y-104731428D02*
X46260000Y-104660000D01*
X46402857Y-104588571D01*
X46760000Y-104588571D01*
X46902857Y-104660000D01*
X46974285Y-104731428D01*
X47045714Y-104874285D01*
X47045714Y-105017142D01*
X46974285Y-105231428D01*
X46117142Y-106088571D01*
X47045714Y-106088571D01*
X47474285Y-104588571D02*
X47974285Y-106088571D01*
X48474285Y-104588571D01*
X50117142Y-106088571D02*
X50117142Y-104588571D01*
X50831428Y-106088571D02*
X50831428Y-104588571D01*
X51688571Y-106088571D01*
X51688571Y-104588571D01*
X86074000Y-47811428D02*
X86788285Y-47811428D01*
X86859714Y-47097142D01*
X86788285Y-47168571D01*
X86645428Y-47240000D01*
X86288285Y-47240000D01*
X86145428Y-47168571D01*
X86074000Y-47097142D01*
X86002571Y-46954285D01*
X86002571Y-46597142D01*
X86074000Y-46454285D01*
X86145428Y-46382857D01*
X86288285Y-46311428D01*
X86645428Y-46311428D01*
X86788285Y-46382857D01*
X86859714Y-46454285D01*
X85574000Y-47811428D02*
X85074000Y-46311428D01*
X84574000Y-47811428D01*
X82931142Y-46311428D02*
X82931142Y-47811428D01*
X82216857Y-46311428D02*
X82216857Y-47811428D01*
X81359714Y-46311428D01*
X81359714Y-47811428D01*
X67571428Y-47740000D02*
X67714285Y-47811428D01*
X67928571Y-47811428D01*
X68142857Y-47740000D01*
X68285714Y-47597142D01*
X68357142Y-47454285D01*
X68428571Y-47168571D01*
X68428571Y-46954285D01*
X68357142Y-46668571D01*
X68285714Y-46525714D01*
X68142857Y-46382857D01*
X67928571Y-46311428D01*
X67785714Y-46311428D01*
X67571428Y-46382857D01*
X67500000Y-46454285D01*
X67500000Y-46954285D01*
X67785714Y-46954285D01*
X66857142Y-46311428D02*
X66857142Y-47811428D01*
X66000000Y-46311428D01*
X66000000Y-47811428D01*
X65285714Y-46311428D02*
X65285714Y-47811428D01*
X64928571Y-47811428D01*
X64714285Y-47740000D01*
X64571428Y-47597142D01*
X64500000Y-47454285D01*
X64428571Y-47168571D01*
X64428571Y-46954285D01*
X64500000Y-46668571D01*
X64571428Y-46525714D01*
X64714285Y-46382857D01*
X64928571Y-46311428D01*
X65285714Y-46311428D01*
X62214285Y-45740000D02*
X62285714Y-45811428D01*
X62428571Y-46025714D01*
X62500000Y-46168571D01*
X62571428Y-46382857D01*
X62642857Y-46740000D01*
X62642857Y-47025714D01*
X62571428Y-47382857D01*
X62500000Y-47597142D01*
X62428571Y-47740000D01*
X62285714Y-47954285D01*
X62214285Y-48025714D01*
X60928571Y-47811428D02*
X61642857Y-47811428D01*
X61714285Y-47097142D01*
X61642857Y-47168571D01*
X61500000Y-47240000D01*
X61142857Y-47240000D01*
X61000000Y-47168571D01*
X60928571Y-47097142D01*
X60857142Y-46954285D01*
X60857142Y-46597142D01*
X60928571Y-46454285D01*
X61000000Y-46382857D01*
X61142857Y-46311428D01*
X61500000Y-46311428D01*
X61642857Y-46382857D01*
X61714285Y-46454285D01*
X60428571Y-47811428D02*
X59928571Y-46311428D01*
X59428571Y-47811428D01*
X59071428Y-45740000D02*
X59000000Y-45811428D01*
X58857142Y-46025714D01*
X58785714Y-46168571D01*
X58714285Y-46382857D01*
X58642857Y-46740000D01*
X58642857Y-47025714D01*
X58714285Y-47382857D01*
X58785714Y-47597142D01*
X58857142Y-47740000D01*
X59000000Y-47954285D01*
X59071428Y-48025714D01*
X49422857Y-87944285D02*
X49422857Y-89087142D01*
X48851428Y-88515714D02*
X49994285Y-88515714D01*
X48851428Y-89872857D02*
X48851428Y-90158571D01*
X48922857Y-90301428D01*
X48994285Y-90372857D01*
X49208571Y-90515714D01*
X49494285Y-90587142D01*
X50065714Y-90587142D01*
X50208571Y-90515714D01*
X50280000Y-90444285D01*
X50351428Y-90301428D01*
X50351428Y-90015714D01*
X50280000Y-89872857D01*
X50208571Y-89801428D01*
X50065714Y-89730000D01*
X49708571Y-89730000D01*
X49565714Y-89801428D01*
X49494285Y-89872857D01*
X49422857Y-90015714D01*
X49422857Y-90301428D01*
X49494285Y-90444285D01*
X49565714Y-90515714D01*
X49708571Y-90587142D01*
X50351428Y-91015714D02*
X48851428Y-91515714D01*
X50351428Y-92015714D01*
X49280000Y-92444285D02*
X49280000Y-93158571D01*
X48851428Y-92301428D02*
X50351428Y-92801428D01*
X48851428Y-93301428D01*
X48994285Y-94658571D02*
X48922857Y-94587142D01*
X48851428Y-94372857D01*
X48851428Y-94230000D01*
X48922857Y-94015714D01*
X49065714Y-93872857D01*
X49208571Y-93801428D01*
X49494285Y-93730000D01*
X49708571Y-93730000D01*
X49994285Y-93801428D01*
X50137142Y-93872857D01*
X50280000Y-94015714D01*
X50351428Y-94230000D01*
X50351428Y-94372857D01*
X50280000Y-94587142D01*
X50208571Y-94658571D01*
X50351428Y-96730000D02*
X50351428Y-97015714D01*
X50280000Y-97158571D01*
X50137142Y-97301428D01*
X49851428Y-97372857D01*
X49351428Y-97372857D01*
X49065714Y-97301428D01*
X48922857Y-97158571D01*
X48851428Y-97015714D01*
X48851428Y-96730000D01*
X48922857Y-96587142D01*
X49065714Y-96444285D01*
X49351428Y-96372857D01*
X49851428Y-96372857D01*
X50137142Y-96444285D01*
X50280000Y-96587142D01*
X50351428Y-96730000D01*
X50351428Y-98015714D02*
X49137142Y-98015714D01*
X48994285Y-98087142D01*
X48922857Y-98158571D01*
X48851428Y-98301428D01*
X48851428Y-98587142D01*
X48922857Y-98730000D01*
X48994285Y-98801428D01*
X49137142Y-98872857D01*
X50351428Y-98872857D01*
X50351428Y-99372857D02*
X50351428Y-100230000D01*
X48851428Y-99801428D02*
X50351428Y-99801428D01*
X49422857Y-49844285D02*
X49422857Y-50987142D01*
X48851428Y-51772857D02*
X48851428Y-52058571D01*
X48922857Y-52201428D01*
X48994285Y-52272857D01*
X49208571Y-52415714D01*
X49494285Y-52487142D01*
X50065714Y-52487142D01*
X50208571Y-52415714D01*
X50280000Y-52344285D01*
X50351428Y-52201428D01*
X50351428Y-51915714D01*
X50280000Y-51772857D01*
X50208571Y-51701428D01*
X50065714Y-51630000D01*
X49708571Y-51630000D01*
X49565714Y-51701428D01*
X49494285Y-51772857D01*
X49422857Y-51915714D01*
X49422857Y-52201428D01*
X49494285Y-52344285D01*
X49565714Y-52415714D01*
X49708571Y-52487142D01*
X50351428Y-52915714D02*
X48851428Y-53415714D01*
X50351428Y-53915714D01*
X49280000Y-54344285D02*
X49280000Y-55058571D01*
X48851428Y-54201428D02*
X50351428Y-54701428D01*
X48851428Y-55201428D01*
X48994285Y-56558571D02*
X48922857Y-56487142D01*
X48851428Y-56272857D01*
X48851428Y-56130000D01*
X48922857Y-55915714D01*
X49065714Y-55772857D01*
X49208571Y-55701428D01*
X49494285Y-55630000D01*
X49708571Y-55630000D01*
X49994285Y-55701428D01*
X50137142Y-55772857D01*
X50280000Y-55915714D01*
X50351428Y-56130000D01*
X50351428Y-56272857D01*
X50280000Y-56487142D01*
X50208571Y-56558571D01*
X50351428Y-58630000D02*
X50351428Y-58915714D01*
X50280000Y-59058571D01*
X50137142Y-59201428D01*
X49851428Y-59272857D01*
X49351428Y-59272857D01*
X49065714Y-59201428D01*
X48922857Y-59058571D01*
X48851428Y-58915714D01*
X48851428Y-58630000D01*
X48922857Y-58487142D01*
X49065714Y-58344285D01*
X49351428Y-58272857D01*
X49851428Y-58272857D01*
X50137142Y-58344285D01*
X50280000Y-58487142D01*
X50351428Y-58630000D01*
X50351428Y-59915714D02*
X49137142Y-59915714D01*
X48994285Y-59987142D01*
X48922857Y-60058571D01*
X48851428Y-60201428D01*
X48851428Y-60487142D01*
X48922857Y-60630000D01*
X48994285Y-60701428D01*
X49137142Y-60772857D01*
X50351428Y-60772857D01*
X50351428Y-61272857D02*
X50351428Y-62130000D01*
X48851428Y-61701428D02*
X50351428Y-61701428D01*
X59182857Y-105517142D02*
X60325714Y-105517142D01*
X59754285Y-106088571D02*
X59754285Y-104945714D01*
X61825714Y-106088571D02*
X60968571Y-106088571D01*
X61397142Y-106088571D02*
X61397142Y-104588571D01*
X61254285Y-104802857D01*
X61111428Y-104945714D01*
X60968571Y-105017142D01*
X62397142Y-104731428D02*
X62468571Y-104660000D01*
X62611428Y-104588571D01*
X62968571Y-104588571D01*
X63111428Y-104660000D01*
X63182857Y-104731428D01*
X63254285Y-104874285D01*
X63254285Y-105017142D01*
X63182857Y-105231428D01*
X62325714Y-106088571D01*
X63254285Y-106088571D01*
X63682857Y-104588571D02*
X64182857Y-106088571D01*
X64682857Y-104588571D01*
X65182857Y-106088571D02*
X65182857Y-104588571D01*
X65540000Y-104588571D01*
X65754285Y-104660000D01*
X65897142Y-104802857D01*
X65968571Y-104945714D01*
X66040000Y-105231428D01*
X66040000Y-105445714D01*
X65968571Y-105731428D01*
X65897142Y-105874285D01*
X65754285Y-106017142D01*
X65540000Y-106088571D01*
X65182857Y-106088571D01*
X67540000Y-105945714D02*
X67468571Y-106017142D01*
X67254285Y-106088571D01*
X67111428Y-106088571D01*
X66897142Y-106017142D01*
X66754285Y-105874285D01*
X66682857Y-105731428D01*
X66611428Y-105445714D01*
X66611428Y-105231428D01*
X66682857Y-104945714D01*
X66754285Y-104802857D01*
X66897142Y-104660000D01*
X67111428Y-104588571D01*
X67254285Y-104588571D01*
X67468571Y-104660000D01*
X67540000Y-104731428D01*
X69611428Y-104588571D02*
X69897142Y-104588571D01*
X70040000Y-104660000D01*
X70182857Y-104802857D01*
X70254285Y-105088571D01*
X70254285Y-105588571D01*
X70182857Y-105874285D01*
X70040000Y-106017142D01*
X69897142Y-106088571D01*
X69611428Y-106088571D01*
X69468571Y-106017142D01*
X69325714Y-105874285D01*
X69254285Y-105588571D01*
X69254285Y-105088571D01*
X69325714Y-104802857D01*
X69468571Y-104660000D01*
X69611428Y-104588571D01*
X70897142Y-104588571D02*
X70897142Y-105802857D01*
X70968571Y-105945714D01*
X71040000Y-106017142D01*
X71182857Y-106088571D01*
X71468571Y-106088571D01*
X71611428Y-106017142D01*
X71682857Y-105945714D01*
X71754285Y-105802857D01*
X71754285Y-104588571D01*
X72254285Y-104588571D02*
X73111428Y-104588571D01*
X72682857Y-106088571D02*
X72682857Y-104588571D01*
X103932857Y-46882857D02*
X102790000Y-46882857D01*
X103361428Y-46311428D02*
X103361428Y-47454285D01*
X101361428Y-47811428D02*
X102075714Y-47811428D01*
X102147142Y-47097142D01*
X102075714Y-47168571D01*
X101932857Y-47240000D01*
X101575714Y-47240000D01*
X101432857Y-47168571D01*
X101361428Y-47097142D01*
X101290000Y-46954285D01*
X101290000Y-46597142D01*
X101361428Y-46454285D01*
X101432857Y-46382857D01*
X101575714Y-46311428D01*
X101932857Y-46311428D01*
X102075714Y-46382857D01*
X102147142Y-46454285D01*
X100861428Y-47811428D02*
X100361428Y-46311428D01*
X99861428Y-47811428D01*
X99361428Y-46311428D02*
X99361428Y-47811428D01*
X99004285Y-47811428D01*
X98790000Y-47740000D01*
X98647142Y-47597142D01*
X98575714Y-47454285D01*
X98504285Y-47168571D01*
X98504285Y-46954285D01*
X98575714Y-46668571D01*
X98647142Y-46525714D01*
X98790000Y-46382857D01*
X99004285Y-46311428D01*
X99361428Y-46311428D01*
X97004285Y-46454285D02*
X97075714Y-46382857D01*
X97290000Y-46311428D01*
X97432857Y-46311428D01*
X97647142Y-46382857D01*
X97790000Y-46525714D01*
X97861428Y-46668571D01*
X97932857Y-46954285D01*
X97932857Y-47168571D01*
X97861428Y-47454285D01*
X97790000Y-47597142D01*
X97647142Y-47740000D01*
X97432857Y-47811428D01*
X97290000Y-47811428D01*
X97075714Y-47740000D01*
X97004285Y-47668571D01*
X94932857Y-47811428D02*
X94647142Y-47811428D01*
X94504285Y-47740000D01*
X94361428Y-47597142D01*
X94290000Y-47311428D01*
X94290000Y-46811428D01*
X94361428Y-46525714D01*
X94504285Y-46382857D01*
X94647142Y-46311428D01*
X94932857Y-46311428D01*
X95075714Y-46382857D01*
X95218571Y-46525714D01*
X95290000Y-46811428D01*
X95290000Y-47311428D01*
X95218571Y-47597142D01*
X95075714Y-47740000D01*
X94932857Y-47811428D01*
X93647142Y-47811428D02*
X93647142Y-46597142D01*
X93575714Y-46454285D01*
X93504285Y-46382857D01*
X93361428Y-46311428D01*
X93075714Y-46311428D01*
X92932857Y-46382857D01*
X92861428Y-46454285D01*
X92790000Y-46597142D01*
X92790000Y-47811428D01*
X92290000Y-47811428D02*
X91432857Y-47811428D01*
X91861428Y-46311428D02*
X91861428Y-47811428D01*
X84114285Y-104660000D02*
X83971428Y-104588571D01*
X83757142Y-104588571D01*
X83542857Y-104660000D01*
X83400000Y-104802857D01*
X83328571Y-104945714D01*
X83257142Y-105231428D01*
X83257142Y-105445714D01*
X83328571Y-105731428D01*
X83400000Y-105874285D01*
X83542857Y-106017142D01*
X83757142Y-106088571D01*
X83900000Y-106088571D01*
X84114285Y-106017142D01*
X84185714Y-105945714D01*
X84185714Y-105445714D01*
X83900000Y-105445714D01*
X84828571Y-106088571D02*
X84828571Y-104588571D01*
X85685714Y-106088571D01*
X85685714Y-104588571D01*
X86400000Y-106088571D02*
X86400000Y-104588571D01*
X86757142Y-104588571D01*
X86971428Y-104660000D01*
X87114285Y-104802857D01*
X87185714Y-104945714D01*
X87257142Y-105231428D01*
X87257142Y-105445714D01*
X87185714Y-105731428D01*
X87114285Y-105874285D01*
X86971428Y-106017142D01*
X86757142Y-106088571D01*
X86400000Y-106088571D01*
X89471428Y-106660000D02*
X89400000Y-106588571D01*
X89257142Y-106374285D01*
X89185714Y-106231428D01*
X89114285Y-106017142D01*
X89042857Y-105660000D01*
X89042857Y-105374285D01*
X89114285Y-105017142D01*
X89185714Y-104802857D01*
X89257142Y-104660000D01*
X89400000Y-104445714D01*
X89471428Y-104374285D01*
X90828571Y-106088571D02*
X89971428Y-106088571D01*
X90400000Y-106088571D02*
X90400000Y-104588571D01*
X90257142Y-104802857D01*
X90114285Y-104945714D01*
X89971428Y-105017142D01*
X91400000Y-104731428D02*
X91471428Y-104660000D01*
X91614285Y-104588571D01*
X91971428Y-104588571D01*
X92114285Y-104660000D01*
X92185714Y-104731428D01*
X92257142Y-104874285D01*
X92257142Y-105017142D01*
X92185714Y-105231428D01*
X91328571Y-106088571D01*
X92257142Y-106088571D01*
X92685714Y-104588571D02*
X93185714Y-106088571D01*
X93685714Y-104588571D01*
X94042857Y-106660000D02*
X94114285Y-106588571D01*
X94257142Y-106374285D01*
X94328571Y-106231428D01*
X94400000Y-106017142D01*
X94471428Y-105660000D01*
X94471428Y-105374285D01*
X94400000Y-105017142D01*
X94328571Y-104802857D01*
X94257142Y-104660000D01*
X94114285Y-104445714D01*
X94042857Y-104374285D01*
X100850000Y-95122857D02*
X100778571Y-95265714D01*
X100778571Y-95480000D01*
X100850000Y-95694285D01*
X100992857Y-95837142D01*
X101135714Y-95908571D01*
X101421428Y-95980000D01*
X101635714Y-95980000D01*
X101921428Y-95908571D01*
X102064285Y-95837142D01*
X102207142Y-95694285D01*
X102278571Y-95480000D01*
X102278571Y-95337142D01*
X102207142Y-95122857D01*
X102135714Y-95051428D01*
X101635714Y-95051428D01*
X101635714Y-95337142D01*
X102278571Y-94408571D02*
X100778571Y-94408571D01*
X102278571Y-93551428D01*
X100778571Y-93551428D01*
X102278571Y-92837142D02*
X100778571Y-92837142D01*
X100778571Y-92480000D01*
X100850000Y-92265714D01*
X100992857Y-92122857D01*
X101135714Y-92051428D01*
X101421428Y-91980000D01*
X101635714Y-91980000D01*
X101921428Y-92051428D01*
X102064285Y-92122857D01*
X102207142Y-92265714D01*
X102278571Y-92480000D01*
X102278571Y-92837142D01*
D10*
X80992380Y-101159047D02*
X79992380Y-101159047D01*
X80992380Y-100587619D02*
X80420952Y-101016190D01*
X79992380Y-100587619D02*
X80563809Y-101159047D01*
X80992380Y-99635238D02*
X80992380Y-100206666D01*
X80992380Y-99920952D02*
X79992380Y-99920952D01*
X80135238Y-100016190D01*
X80230476Y-100111428D01*
X80278095Y-100206666D01*
X80087619Y-99254285D02*
X80040000Y-99206666D01*
X79992380Y-99111428D01*
X79992380Y-98873333D01*
X80040000Y-98778095D01*
X80087619Y-98730476D01*
X80182857Y-98682857D01*
X80278095Y-98682857D01*
X80420952Y-98730476D01*
X80992380Y-99301904D01*
X80992380Y-98682857D01*
X79992380Y-98397142D02*
X80992380Y-98063809D01*
X79992380Y-97730476D01*
X80992380Y-97397142D02*
X79992380Y-97397142D01*
X79992380Y-97159047D01*
X80040000Y-97016190D01*
X80135238Y-96920952D01*
X80230476Y-96873333D01*
X80420952Y-96825714D01*
X80563809Y-96825714D01*
X80754285Y-96873333D01*
X80849523Y-96920952D01*
X80944761Y-97016190D01*
X80992380Y-97159047D01*
X80992380Y-97397142D01*
X80897142Y-95825714D02*
X80944761Y-95873333D01*
X80992380Y-96016190D01*
X80992380Y-96111428D01*
X80944761Y-96254285D01*
X80849523Y-96349523D01*
X80754285Y-96397142D01*
X80563809Y-96444761D01*
X80420952Y-96444761D01*
X80230476Y-96397142D01*
X80135238Y-96349523D01*
X80040000Y-96254285D01*
X79992380Y-96111428D01*
X79992380Y-96016190D01*
X80040000Y-95873333D01*
X80087619Y-95825714D01*
X80992380Y-94873333D02*
X80992380Y-95444761D01*
X80992380Y-95159047D02*
X79992380Y-95159047D01*
X80135238Y-95254285D01*
X80230476Y-95349523D01*
X80278095Y-95444761D01*
X80992380Y-75211428D02*
X79992380Y-75211428D01*
X80992380Y-74640000D02*
X80420952Y-75068571D01*
X79992380Y-74640000D02*
X80563809Y-75211428D01*
X80992380Y-74163809D02*
X80992380Y-73973333D01*
X80944761Y-73878095D01*
X80897142Y-73830476D01*
X80754285Y-73735238D01*
X80563809Y-73687619D01*
X80182857Y-73687619D01*
X80087619Y-73735238D01*
X80040000Y-73782857D01*
X79992380Y-73878095D01*
X79992380Y-74068571D01*
X80040000Y-74163809D01*
X80087619Y-74211428D01*
X80182857Y-74259047D01*
X80420952Y-74259047D01*
X80516190Y-74211428D01*
X80563809Y-74163809D01*
X80611428Y-74068571D01*
X80611428Y-73878095D01*
X80563809Y-73782857D01*
X80516190Y-73735238D01*
X80420952Y-73687619D01*
X79992380Y-73401904D02*
X80992380Y-73068571D01*
X79992380Y-72735238D01*
X80706666Y-72449523D02*
X80706666Y-71973333D01*
X80992380Y-72544761D02*
X79992380Y-72211428D01*
X80992380Y-71878095D01*
X80897142Y-70973333D02*
X80944761Y-71020952D01*
X80992380Y-71163809D01*
X80992380Y-71259047D01*
X80944761Y-71401904D01*
X80849523Y-71497142D01*
X80754285Y-71544761D01*
X80563809Y-71592380D01*
X80420952Y-71592380D01*
X80230476Y-71544761D01*
X80135238Y-71497142D01*
X80040000Y-71401904D01*
X79992380Y-71259047D01*
X79992380Y-71163809D01*
X80040000Y-71020952D01*
X80087619Y-70973333D01*
X80992380Y-70020952D02*
X80992380Y-70592380D01*
X80992380Y-70306666D02*
X79992380Y-70306666D01*
X80135238Y-70401904D01*
X80230476Y-70497142D01*
X80278095Y-70592380D01*
X75227619Y-85185238D02*
X75180000Y-85280476D01*
X75084761Y-85375714D01*
X74941904Y-85518571D01*
X74894285Y-85613809D01*
X74894285Y-85709047D01*
X75132380Y-85661428D02*
X75084761Y-85756666D01*
X74989523Y-85851904D01*
X74799047Y-85899523D01*
X74465714Y-85899523D01*
X74275238Y-85851904D01*
X74180000Y-85756666D01*
X74132380Y-85661428D01*
X74132380Y-85470952D01*
X74180000Y-85375714D01*
X74275238Y-85280476D01*
X74465714Y-85232857D01*
X74799047Y-85232857D01*
X74989523Y-85280476D01*
X75084761Y-85375714D01*
X75132380Y-85470952D01*
X75132380Y-85661428D01*
X75132380Y-84280476D02*
X75132380Y-84851904D01*
X75132380Y-84566190D02*
X74132380Y-84566190D01*
X74275238Y-84661428D01*
X74370476Y-84756666D01*
X74418095Y-84851904D01*
X75727619Y-85185238D02*
X75680000Y-85280476D01*
X75584761Y-85375714D01*
X75441904Y-85518571D01*
X75394285Y-85613809D01*
X75394285Y-85709047D01*
X75632380Y-85661428D02*
X75584761Y-85756666D01*
X75489523Y-85851904D01*
X75299047Y-85899523D01*
X74965714Y-85899523D01*
X74775238Y-85851904D01*
X74680000Y-85756666D01*
X74632380Y-85661428D01*
X74632380Y-85470952D01*
X74680000Y-85375714D01*
X74775238Y-85280476D01*
X74965714Y-85232857D01*
X75299047Y-85232857D01*
X75489523Y-85280476D01*
X75584761Y-85375714D01*
X75632380Y-85470952D01*
X75632380Y-85661428D01*
X74727619Y-84851904D02*
X74680000Y-84804285D01*
X74632380Y-84709047D01*
X74632380Y-84470952D01*
X74680000Y-84375714D01*
X74727619Y-84328095D01*
X74822857Y-84280476D01*
X74918095Y-84280476D01*
X75060952Y-84328095D01*
X75632380Y-84899523D01*
X75632380Y-84280476D01*
X93635533Y-80272880D02*
X93302200Y-79796690D01*
X93064104Y-80272880D02*
X93064104Y-79272880D01*
X93445057Y-79272880D01*
X93540295Y-79320500D01*
X93587914Y-79368119D01*
X93635533Y-79463357D01*
X93635533Y-79606214D01*
X93587914Y-79701452D01*
X93540295Y-79749071D01*
X93445057Y-79796690D01*
X93064104Y-79796690D01*
X94587914Y-80272880D02*
X94016485Y-80272880D01*
X94302200Y-80272880D02*
X94302200Y-79272880D01*
X94206961Y-79415738D01*
X94111723Y-79510976D01*
X94016485Y-79558595D01*
X96988333Y-66747380D02*
X96655000Y-66271190D01*
X96416904Y-66747380D02*
X96416904Y-65747380D01*
X96797857Y-65747380D01*
X96893095Y-65795000D01*
X96940714Y-65842619D01*
X96988333Y-65937857D01*
X96988333Y-66080714D01*
X96940714Y-66175952D01*
X96893095Y-66223571D01*
X96797857Y-66271190D01*
X96416904Y-66271190D01*
X97369285Y-65842619D02*
X97416904Y-65795000D01*
X97512142Y-65747380D01*
X97750238Y-65747380D01*
X97845476Y-65795000D01*
X97893095Y-65842619D01*
X97940714Y-65937857D01*
X97940714Y-66033095D01*
X97893095Y-66175952D01*
X97321666Y-66747380D01*
X97940714Y-66747380D01*
X75788333Y-63572380D02*
X75455000Y-63096190D01*
X75216904Y-63572380D02*
X75216904Y-62572380D01*
X75597857Y-62572380D01*
X75693095Y-62620000D01*
X75740714Y-62667619D01*
X75788333Y-62762857D01*
X75788333Y-62905714D01*
X75740714Y-63000952D01*
X75693095Y-63048571D01*
X75597857Y-63096190D01*
X75216904Y-63096190D01*
X76121666Y-62572380D02*
X76740714Y-62572380D01*
X76407380Y-62953333D01*
X76550238Y-62953333D01*
X76645476Y-63000952D01*
X76693095Y-63048571D01*
X76740714Y-63143809D01*
X76740714Y-63381904D01*
X76693095Y-63477142D01*
X76645476Y-63524761D01*
X76550238Y-63572380D01*
X76264523Y-63572380D01*
X76169285Y-63524761D01*
X76121666Y-63477142D01*
X79843333Y-63572380D02*
X79510000Y-63096190D01*
X79271904Y-63572380D02*
X79271904Y-62572380D01*
X79652857Y-62572380D01*
X79748095Y-62620000D01*
X79795714Y-62667619D01*
X79843333Y-62762857D01*
X79843333Y-62905714D01*
X79795714Y-63000952D01*
X79748095Y-63048571D01*
X79652857Y-63096190D01*
X79271904Y-63096190D01*
X80700476Y-62905714D02*
X80700476Y-63572380D01*
X80462380Y-62524761D02*
X80224285Y-63239047D01*
X80843333Y-63239047D01*
X82764333Y-79445380D02*
X82431000Y-78969190D01*
X82192904Y-79445380D02*
X82192904Y-78445380D01*
X82573857Y-78445380D01*
X82669095Y-78493000D01*
X82716714Y-78540619D01*
X82764333Y-78635857D01*
X82764333Y-78778714D01*
X82716714Y-78873952D01*
X82669095Y-78921571D01*
X82573857Y-78969190D01*
X82192904Y-78969190D01*
X83669095Y-78445380D02*
X83192904Y-78445380D01*
X83145285Y-78921571D01*
X83192904Y-78873952D01*
X83288142Y-78826333D01*
X83526238Y-78826333D01*
X83621476Y-78873952D01*
X83669095Y-78921571D01*
X83716714Y-79016809D01*
X83716714Y-79254904D01*
X83669095Y-79350142D01*
X83621476Y-79397761D01*
X83526238Y-79445380D01*
X83288142Y-79445380D01*
X83192904Y-79397761D01*
X83145285Y-79350142D01*
X82764333Y-82874380D02*
X82431000Y-82398190D01*
X82192904Y-82874380D02*
X82192904Y-81874380D01*
X82573857Y-81874380D01*
X82669095Y-81922000D01*
X82716714Y-81969619D01*
X82764333Y-82064857D01*
X82764333Y-82207714D01*
X82716714Y-82302952D01*
X82669095Y-82350571D01*
X82573857Y-82398190D01*
X82192904Y-82398190D01*
X83621476Y-81874380D02*
X83431000Y-81874380D01*
X83335761Y-81922000D01*
X83288142Y-81969619D01*
X83192904Y-82112476D01*
X83145285Y-82302952D01*
X83145285Y-82683904D01*
X83192904Y-82779142D01*
X83240523Y-82826761D01*
X83335761Y-82874380D01*
X83526238Y-82874380D01*
X83621476Y-82826761D01*
X83669095Y-82779142D01*
X83716714Y-82683904D01*
X83716714Y-82445809D01*
X83669095Y-82350571D01*
X83621476Y-82302952D01*
X83526238Y-82255333D01*
X83335761Y-82255333D01*
X83240523Y-82302952D01*
X83192904Y-82350571D01*
X83145285Y-82445809D01*
X56777380Y-85851904D02*
X57586904Y-85851904D01*
X57682142Y-85804285D01*
X57729761Y-85756666D01*
X57777380Y-85661428D01*
X57777380Y-85470952D01*
X57729761Y-85375714D01*
X57682142Y-85328095D01*
X57586904Y-85280476D01*
X56777380Y-85280476D01*
X57777380Y-84280476D02*
X57777380Y-84851904D01*
X57777380Y-84566190D02*
X56777380Y-84566190D01*
X56920238Y-84661428D01*
X57015476Y-84756666D01*
X57063095Y-84851904D01*
X96520095Y-72102380D02*
X96520095Y-72911904D01*
X96567714Y-73007142D01*
X96615333Y-73054761D01*
X96710571Y-73102380D01*
X96901047Y-73102380D01*
X96996285Y-73054761D01*
X97043904Y-73007142D01*
X97091523Y-72911904D01*
X97091523Y-72102380D01*
X97520095Y-72197619D02*
X97567714Y-72150000D01*
X97662952Y-72102380D01*
X97901047Y-72102380D01*
X97996285Y-72150000D01*
X98043904Y-72197619D01*
X98091523Y-72292857D01*
X98091523Y-72388095D01*
X98043904Y-72530952D01*
X97472476Y-73102380D01*
X98091523Y-73102380D01*
X90932095Y-72223380D02*
X90932095Y-73032904D01*
X90979714Y-73128142D01*
X91027333Y-73175761D01*
X91122571Y-73223380D01*
X91313047Y-73223380D01*
X91408285Y-73175761D01*
X91455904Y-73128142D01*
X91503523Y-73032904D01*
X91503523Y-72223380D01*
X91884476Y-72223380D02*
X92503523Y-72223380D01*
X92170190Y-72604333D01*
X92313047Y-72604333D01*
X92408285Y-72651952D01*
X92455904Y-72699571D01*
X92503523Y-72794809D01*
X92503523Y-73032904D01*
X92455904Y-73128142D01*
X92408285Y-73175761D01*
X92313047Y-73223380D01*
X92027333Y-73223380D01*
X91932095Y-73175761D01*
X91884476Y-73128142D01*
X97028095Y-79367380D02*
X97028095Y-80176904D01*
X97075714Y-80272142D01*
X97123333Y-80319761D01*
X97218571Y-80367380D01*
X97409047Y-80367380D01*
X97504285Y-80319761D01*
X97551904Y-80272142D01*
X97599523Y-80176904D01*
X97599523Y-79367380D01*
X98504285Y-79700714D02*
X98504285Y-80367380D01*
X98266190Y-79319761D02*
X98028095Y-80034047D01*
X98647142Y-80034047D01*
X87673904Y-70865380D02*
X87673904Y-69865380D01*
X87912000Y-69865380D01*
X88054857Y-69913000D01*
X88150095Y-70008238D01*
X88197714Y-70103476D01*
X88245333Y-70293952D01*
X88245333Y-70436809D01*
X88197714Y-70627285D01*
X88150095Y-70722523D01*
X88054857Y-70817761D01*
X87912000Y-70865380D01*
X87673904Y-70865380D01*
X89102476Y-70198714D02*
X89102476Y-70865380D01*
X88864380Y-69817761D02*
X88626285Y-70532047D01*
X89245333Y-70532047D01*
X102432380Y-65308666D02*
X101956190Y-65642000D01*
X102432380Y-65880095D02*
X101432380Y-65880095D01*
X101432380Y-65499142D01*
X101480000Y-65403904D01*
X101527619Y-65356285D01*
X101622857Y-65308666D01*
X101765714Y-65308666D01*
X101860952Y-65356285D01*
X101908571Y-65403904D01*
X101956190Y-65499142D01*
X101956190Y-65880095D01*
X101432380Y-64975333D02*
X101432380Y-64308666D01*
X102432380Y-64737238D01*
X57681904Y-51887380D02*
X57681904Y-50887380D01*
X57920000Y-50887380D01*
X58062857Y-50935000D01*
X58158095Y-51030238D01*
X58205714Y-51125476D01*
X58253333Y-51315952D01*
X58253333Y-51458809D01*
X58205714Y-51649285D01*
X58158095Y-51744523D01*
X58062857Y-51839761D01*
X57920000Y-51887380D01*
X57681904Y-51887380D01*
X59205714Y-51887380D02*
X58634285Y-51887380D01*
X58920000Y-51887380D02*
X58920000Y-50887380D01*
X58824761Y-51030238D01*
X58729523Y-51125476D01*
X58634285Y-51173095D01*
M02*
