G04 #@! TF.GenerationSoftware,KiCad,Pcbnew,(5.1.5)-3*
G04 #@! TF.CreationDate,2020-09-28T21:35:28-04:00*
G04 #@! TF.ProjectId,PowerSync,506f7765-7253-4796-9e63-2e6b69636164,rev?*
G04 #@! TF.SameCoordinates,Original*
G04 #@! TF.FileFunction,Copper,L2,Bot*
G04 #@! TF.FilePolarity,Positive*
%FSLAX46Y46*%
G04 Gerber Fmt 4.6, Leading zero omitted, Abs format (unit mm)*
G04 Created by KiCad (PCBNEW (5.1.5)-3) date 2020-09-28 21:35:28*
%MOMM*%
%LPD*%
G04 APERTURE LIST*
%ADD10R,2.400000X2.400000*%
%ADD11C,2.400000*%
%ADD12R,1.600000X1.600000*%
%ADD13C,1.600000*%
%ADD14O,2.200000X2.200000*%
%ADD15R,2.200000X2.200000*%
%ADD16C,4.000500*%
%ADD17C,3.500120*%
%ADD18R,3.500120X3.500120*%
%ADD19R,4.000500X4.000500*%
%ADD20R,1.400000X1.400000*%
%ADD21C,1.400000*%
%ADD22R,1.500000X1.500000*%
%ADD23C,1.500000*%
%ADD24C,0.800000*%
%ADD25C,5.000000*%
%ADD26C,2.000000*%
%ADD27C,3.000000*%
%ADD28C,1.500000*%
%ADD29C,1.000000*%
%ADD30C,4.000000*%
%ADD31C,0.400000*%
%ADD32C,0.254000*%
%ADD33C,0.237000*%
G04 APERTURE END LIST*
D10*
X124460000Y-74295000D03*
D11*
X124460000Y-81795000D03*
D12*
X117475000Y-95885000D03*
D13*
X119975000Y-95885000D03*
X126960000Y-95885000D03*
D12*
X124460000Y-95885000D03*
X161925000Y-72390000D03*
D13*
X164425000Y-72390000D03*
D14*
X85725000Y-84455000D03*
D15*
X95885000Y-84455000D03*
X100965000Y-84455000D03*
D14*
X111125000Y-84455000D03*
D15*
X141605000Y-99695000D03*
D14*
X131445000Y-99695000D03*
X131445000Y-95885000D03*
D15*
X141605000Y-95885000D03*
D16*
X80645000Y-71755000D03*
X80645000Y-78105000D03*
D17*
X80645000Y-89535000D03*
D18*
X80645000Y-94615000D03*
X149225000Y-64135000D03*
D17*
X154305000Y-64135000D03*
D19*
X126365000Y-64135000D03*
D16*
X131445000Y-64135000D03*
X136525000Y-64135000D03*
X141605000Y-64135000D03*
D19*
X80645000Y-64135000D03*
D16*
X85725000Y-64135000D03*
X90805000Y-64135000D03*
X95885000Y-64135000D03*
X118745000Y-64135000D03*
X113665000Y-64135000D03*
X108585000Y-64135000D03*
D19*
X103505000Y-64135000D03*
X80645000Y-104775000D03*
D16*
X85725000Y-104775000D03*
X90805000Y-104775000D03*
X95885000Y-104775000D03*
X179705000Y-64135000D03*
X174625000Y-64135000D03*
X169545000Y-64135000D03*
D19*
X164465000Y-64135000D03*
X103505000Y-104775000D03*
D16*
X108585000Y-104775000D03*
X113665000Y-104775000D03*
X118745000Y-104775000D03*
X179705000Y-89535000D03*
X179705000Y-94615000D03*
X179705000Y-99695000D03*
D19*
X179705000Y-104775000D03*
D20*
X111695000Y-89595000D03*
D21*
X111695000Y-97095000D03*
X91695000Y-89595000D03*
X86695000Y-89595000D03*
X91695000Y-97095000D03*
X86695000Y-97095000D03*
X111695000Y-93345000D03*
X111695000Y-75565000D03*
X86695000Y-79315000D03*
X91695000Y-79315000D03*
X86695000Y-71815000D03*
X91695000Y-71815000D03*
X111695000Y-79315000D03*
D20*
X111695000Y-71815000D03*
D22*
X147955000Y-100330000D03*
D23*
X147955000Y-95250000D03*
X147955000Y-97790000D03*
X154305000Y-97790000D03*
X154305000Y-95250000D03*
D22*
X154305000Y-100330000D03*
D24*
X167640000Y-93027500D03*
X139700000Y-92075000D03*
X159385000Y-100330000D03*
X164465000Y-100330000D03*
X100965000Y-100965000D03*
X168185000Y-85180000D03*
X168185000Y-83910000D03*
X168275000Y-82550000D03*
X134502000Y-88392000D03*
X138811000Y-85344000D03*
X132143500Y-88392000D03*
X131762500Y-92392500D03*
X161163000Y-91313000D03*
X166145000Y-88617000D03*
X158925750Y-97394250D03*
X164710000Y-83820000D03*
X139382500Y-88646000D03*
X113919000Y-96266000D03*
X156654500Y-92773500D03*
X155623500Y-90820000D03*
X95885000Y-71755000D03*
D25*
X91757500Y-100584000D02*
X95947500Y-104774000D01*
X87250000Y-104012000D02*
X91440000Y-99822000D01*
X91694000Y-89598500D02*
X91694000Y-103098500D01*
X80645000Y-104775000D02*
X95885000Y-104775000D01*
X149225000Y-64135000D02*
X179705000Y-64135000D01*
D26*
X110995001Y-92645001D02*
X111695000Y-93345000D01*
X108824999Y-78435001D02*
X108824999Y-90474999D01*
X108824999Y-90474999D02*
X110995001Y-92645001D01*
X111695000Y-75565000D02*
X108824999Y-78435001D01*
D25*
X139065000Y-74295000D02*
X124460000Y-74295000D01*
X149225000Y-64135000D02*
X139065000Y-74295000D01*
D27*
X168275000Y-85090000D02*
X168185000Y-85180000D01*
X168275000Y-82550000D02*
X168275000Y-85090000D01*
X168275000Y-82550000D02*
X168275000Y-79248000D01*
X168275000Y-79248000D02*
X166433500Y-77406500D01*
X166433500Y-77406500D02*
X145732500Y-77406500D01*
D28*
X134502000Y-87692000D02*
X134493000Y-87683000D01*
X134502000Y-88392000D02*
X134502000Y-87692000D01*
X136097001Y-87041999D02*
X136906000Y-86233000D01*
D27*
X136906000Y-86233000D02*
X135001000Y-88138000D01*
X145732500Y-77406500D02*
X136906000Y-86233000D01*
D26*
X135001000Y-92381000D02*
X135001000Y-88138000D01*
X138505000Y-95885000D02*
X135001000Y-92381000D01*
X141605000Y-95885000D02*
X138505000Y-95885000D01*
D29*
X100965000Y-102235000D02*
X103505000Y-104775000D01*
X100965000Y-100965000D02*
X100965000Y-102235000D01*
D25*
X126365000Y-64135000D02*
X118745000Y-71755000D01*
X118745000Y-76080000D02*
X124460000Y-81795000D01*
X118745000Y-71755000D02*
X118745000Y-76080000D01*
D30*
X124460000Y-81795000D02*
X124460000Y-87630000D01*
X124460000Y-87630000D02*
X121285000Y-90805000D01*
X121285000Y-102235000D02*
X118745000Y-104775000D01*
X121285000Y-90805000D02*
X121285000Y-102235000D01*
D27*
X126960000Y-97016370D02*
X126960000Y-95885000D01*
X126960000Y-99388780D02*
X126960000Y-97016370D01*
X121573780Y-104775000D02*
X126960000Y-99388780D01*
X118745000Y-104775000D02*
X121573780Y-104775000D01*
X126960000Y-95885000D02*
X126960000Y-94745998D01*
X126960000Y-84295000D02*
X124460000Y-81795000D01*
X126960000Y-95885000D02*
X126960000Y-84295000D01*
D31*
X132143500Y-88392000D02*
X132143500Y-88957685D01*
X163859000Y-88617000D02*
X166145000Y-88617000D01*
X161163000Y-91313000D02*
X163859000Y-88617000D01*
X166544999Y-89016999D02*
X166550499Y-89016999D01*
X166145000Y-88617000D02*
X166544999Y-89016999D01*
X167640000Y-90106500D02*
X167640000Y-93027500D01*
X166550499Y-89016999D02*
X167640000Y-90106500D01*
X163273250Y-97394250D02*
X167640000Y-93027500D01*
X158925750Y-97394250D02*
X163273250Y-97394250D01*
D27*
X164710000Y-87182000D02*
X166145000Y-88617000D01*
X164710000Y-83820000D02*
X164710000Y-87182000D01*
X165556370Y-72390000D02*
X164425000Y-72390000D01*
X165942497Y-72390000D02*
X165556370Y-72390000D01*
X171475010Y-77922513D02*
X165942497Y-72390000D01*
X171475010Y-86415487D02*
X171475010Y-77922513D01*
X169273496Y-88617000D02*
X171475010Y-86415487D01*
X166145000Y-88617000D02*
X169273496Y-88617000D01*
X176585487Y-86415487D02*
X179705000Y-89535000D01*
X171475010Y-86415487D02*
X176585487Y-86415487D01*
D31*
X131762500Y-89338685D02*
X132143500Y-88957685D01*
X131762500Y-92392500D02*
X131762500Y-89338685D01*
D28*
X139700000Y-88963500D02*
X139382500Y-88646000D01*
X139700000Y-92075000D02*
X139700000Y-88963500D01*
D26*
X111695000Y-97095000D02*
X110705051Y-97095000D01*
X110705051Y-97095000D02*
X106624989Y-93014938D01*
D28*
X113645010Y-74757280D02*
X113645010Y-76854990D01*
X113645010Y-76854990D02*
X113030000Y-77470000D01*
D26*
X112901283Y-77470000D02*
X111760000Y-78611283D01*
X111760000Y-79250000D02*
X111695000Y-79315000D01*
X111760000Y-78611283D02*
X111760000Y-79250000D01*
X113895010Y-74653727D02*
X112956284Y-73715001D01*
X113895010Y-76476273D02*
X113895010Y-74653727D01*
X113030000Y-77341283D02*
X113895010Y-76476273D01*
X106624989Y-93014938D02*
X106624989Y-77523728D01*
X106624989Y-77523728D02*
X106624989Y-76890011D01*
X106624989Y-76890011D02*
X108585000Y-74930000D01*
X108585000Y-74930000D02*
X109220000Y-74295000D01*
X110034999Y-73715001D02*
X110433717Y-73715001D01*
D28*
X112856274Y-73614991D02*
X112956284Y-73715001D01*
X110887279Y-73614991D02*
X112856274Y-73614991D01*
X110787269Y-73715001D02*
X110887279Y-73614991D01*
X110034999Y-73715001D02*
X110787269Y-73715001D01*
D29*
X146504999Y-96700001D02*
X147205001Y-95999999D01*
X146504999Y-98255003D02*
X146504999Y-96700001D01*
X143265001Y-101495001D02*
X146504999Y-98255003D01*
X133245001Y-101495001D02*
X143265001Y-101495001D01*
X147205001Y-95999999D02*
X147955000Y-95250000D01*
X131445000Y-99695000D02*
X133245001Y-101495001D01*
D26*
X109799999Y-73715001D02*
X108585000Y-74930000D01*
X110034999Y-73715001D02*
X109799999Y-73715001D01*
X111544980Y-71664980D02*
X111695000Y-71664980D01*
X108308726Y-71459992D02*
X111339992Y-71459992D01*
X104424979Y-93926211D02*
X104424979Y-75343739D01*
X109793778Y-99295010D02*
X104424979Y-93926211D01*
X112606273Y-99295010D02*
X109793778Y-99295010D01*
X111339992Y-71459992D02*
X111544980Y-71664980D01*
X104424979Y-75343739D02*
X108308726Y-71459992D01*
X113895010Y-91795010D02*
X111695000Y-89595000D01*
X113895010Y-98006273D02*
X113895010Y-91795010D01*
X112606273Y-99295010D02*
X113895010Y-98006273D01*
D29*
X153555001Y-94500001D02*
X154305000Y-95250000D01*
X131445000Y-95885000D02*
X133350000Y-97790000D01*
X133350000Y-97790000D02*
X143160002Y-97790000D01*
X143160002Y-97790000D02*
X147150003Y-93799999D01*
X147150003Y-93799999D02*
X152854999Y-93799999D01*
X152854999Y-93799999D02*
X153555001Y-94500001D01*
X148704999Y-98539999D02*
X147955000Y-97790000D01*
X163014999Y-101780001D02*
X151945001Y-101780001D01*
X151945001Y-101780001D02*
X148704999Y-98539999D01*
X164465000Y-100330000D02*
X163014999Y-101780001D01*
X156845000Y-97790000D02*
X159385000Y-100330000D01*
X154305000Y-97790000D02*
X156845000Y-97790000D01*
D31*
X156654500Y-91851000D02*
X155623500Y-90820000D01*
X156654500Y-92773500D02*
X156654500Y-91851000D01*
D30*
X82645249Y-76104751D02*
X91535249Y-76104751D01*
X80645000Y-78105000D02*
X82645249Y-76104751D01*
X91535249Y-76104751D02*
X95885000Y-71755000D01*
X95885000Y-71755000D02*
X103505000Y-64135000D01*
D32*
G36*
X86927189Y-87520376D02*
G01*
X87090850Y-87570022D01*
X87241672Y-87650638D01*
X87373870Y-87759130D01*
X87482362Y-87891328D01*
X87562978Y-88042150D01*
X87612624Y-88205811D01*
X87630000Y-88382234D01*
X87630000Y-97164766D01*
X87612624Y-97341189D01*
X87562978Y-97504850D01*
X87482362Y-97655672D01*
X87373870Y-97787870D01*
X87241672Y-97896362D01*
X87090850Y-97976978D01*
X86927189Y-98026624D01*
X86750766Y-98044000D01*
X79111234Y-98044000D01*
X78934811Y-98026624D01*
X78771150Y-97976978D01*
X78620328Y-97896362D01*
X78488130Y-97787870D01*
X78379638Y-97655672D01*
X78299022Y-97504850D01*
X78249376Y-97341189D01*
X78232000Y-97164766D01*
X78232000Y-88382234D01*
X78249376Y-88205811D01*
X78299022Y-88042150D01*
X78379638Y-87891328D01*
X78488130Y-87759130D01*
X78620328Y-87650638D01*
X78771150Y-87570022D01*
X78934811Y-87520376D01*
X79111234Y-87503000D01*
X86750766Y-87503000D01*
X86927189Y-87520376D01*
G37*
X86927189Y-87520376D02*
X87090850Y-87570022D01*
X87241672Y-87650638D01*
X87373870Y-87759130D01*
X87482362Y-87891328D01*
X87562978Y-88042150D01*
X87612624Y-88205811D01*
X87630000Y-88382234D01*
X87630000Y-97164766D01*
X87612624Y-97341189D01*
X87562978Y-97504850D01*
X87482362Y-97655672D01*
X87373870Y-97787870D01*
X87241672Y-97896362D01*
X87090850Y-97976978D01*
X86927189Y-98026624D01*
X86750766Y-98044000D01*
X79111234Y-98044000D01*
X78934811Y-98026624D01*
X78771150Y-97976978D01*
X78620328Y-97896362D01*
X78488130Y-97787870D01*
X78379638Y-97655672D01*
X78299022Y-97504850D01*
X78249376Y-97341189D01*
X78232000Y-97164766D01*
X78232000Y-88382234D01*
X78249376Y-88205811D01*
X78299022Y-88042150D01*
X78379638Y-87891328D01*
X78488130Y-87759130D01*
X78620328Y-87650638D01*
X78771150Y-87570022D01*
X78934811Y-87520376D01*
X79111234Y-87503000D01*
X86750766Y-87503000D01*
X86927189Y-87520376D01*
D33*
G36*
X182499500Y-63510338D02*
G01*
X182355902Y-63036960D01*
X182090749Y-62540893D01*
X181733913Y-62106087D01*
X181299107Y-61749251D01*
X180803040Y-61484098D01*
X180264776Y-61320817D01*
X179845277Y-61279500D01*
X149365276Y-61279500D01*
X149225000Y-61265684D01*
X149084723Y-61279500D01*
X148665224Y-61320817D01*
X148126960Y-61484098D01*
X147630893Y-61749251D01*
X147196087Y-62106087D01*
X147106665Y-62215048D01*
X137882214Y-71439500D01*
X124319723Y-71439500D01*
X123900224Y-71480817D01*
X123361960Y-71644098D01*
X122865893Y-71909251D01*
X122431087Y-72266087D01*
X122074251Y-72700893D01*
X121809098Y-73196960D01*
X121645817Y-73735224D01*
X121590684Y-74295000D01*
X121645817Y-74854776D01*
X121809098Y-75393040D01*
X122074251Y-75889107D01*
X122431087Y-76323913D01*
X122865893Y-76680749D01*
X123361960Y-76945902D01*
X123900224Y-77109183D01*
X124319723Y-77150500D01*
X138924724Y-77150500D01*
X139065000Y-77164316D01*
X139205276Y-77150500D01*
X139205277Y-77150500D01*
X139624776Y-77109183D01*
X140163040Y-76945902D01*
X140659107Y-76680749D01*
X141093913Y-76323913D01*
X141183339Y-76214947D01*
X145808286Y-71590000D01*
X160767780Y-71590000D01*
X160767780Y-73190000D01*
X160774644Y-73259690D01*
X160794972Y-73326702D01*
X160827982Y-73388461D01*
X160872407Y-73442593D01*
X160926539Y-73487018D01*
X160988298Y-73520028D01*
X161055310Y-73540356D01*
X161125000Y-73547220D01*
X162725000Y-73547220D01*
X162794690Y-73540356D01*
X162861702Y-73520028D01*
X162923461Y-73487018D01*
X162977593Y-73442593D01*
X163022018Y-73388461D01*
X163055028Y-73326702D01*
X163075356Y-73259690D01*
X163082220Y-73190000D01*
X163082220Y-71590000D01*
X163075356Y-71520310D01*
X163055028Y-71453298D01*
X163022018Y-71391539D01*
X162977593Y-71337407D01*
X162923461Y-71292982D01*
X162861702Y-71259972D01*
X162794690Y-71239644D01*
X162725000Y-71232780D01*
X161125000Y-71232780D01*
X161055310Y-71239644D01*
X160988298Y-71259972D01*
X160926539Y-71292982D01*
X160872407Y-71337407D01*
X160827982Y-71391539D01*
X160794972Y-71453298D01*
X160774644Y-71520310D01*
X160767780Y-71590000D01*
X145808286Y-71590000D01*
X150407787Y-66990500D01*
X179845277Y-66990500D01*
X180264776Y-66949183D01*
X180803040Y-66785902D01*
X181299107Y-66520749D01*
X181733913Y-66163913D01*
X182090749Y-65729107D01*
X182355902Y-65233040D01*
X182499500Y-64759662D01*
X182499501Y-107569500D01*
X96568864Y-107569500D01*
X97045539Y-107424902D01*
X97541606Y-107159749D01*
X97976412Y-106802912D01*
X98333249Y-106368106D01*
X98598402Y-105872039D01*
X98761683Y-105333775D01*
X98816816Y-104774000D01*
X98761683Y-104214224D01*
X98598402Y-103675960D01*
X98333249Y-103179893D01*
X98065834Y-102854047D01*
X94549500Y-99337714D01*
X94549500Y-89458223D01*
X94508183Y-89038724D01*
X94344902Y-88500460D01*
X94079749Y-88004393D01*
X93722912Y-87569587D01*
X93288106Y-87212751D01*
X92792039Y-86947598D01*
X92253775Y-86784317D01*
X91694000Y-86729184D01*
X91134224Y-86784317D01*
X90595960Y-86947598D01*
X90099893Y-87212751D01*
X89665087Y-87569588D01*
X89653500Y-87583707D01*
X89653500Y-86725000D01*
X89652929Y-86713385D01*
X89633714Y-86518295D01*
X89629183Y-86495512D01*
X89572278Y-86307919D01*
X89563388Y-86286456D01*
X89470978Y-86113569D01*
X89458072Y-86094254D01*
X89333709Y-85942717D01*
X89317283Y-85926291D01*
X89165746Y-85801928D01*
X89146431Y-85789022D01*
X88973544Y-85696612D01*
X88952081Y-85687722D01*
X88764488Y-85630817D01*
X88741705Y-85626286D01*
X88546615Y-85607071D01*
X88535000Y-85606500D01*
X86621490Y-85606500D01*
X86652827Y-85585561D01*
X86855561Y-85382827D01*
X87014848Y-85144438D01*
X87124566Y-84879554D01*
X87180500Y-84598354D01*
X87180500Y-84311646D01*
X87124566Y-84030446D01*
X87014848Y-83765562D01*
X86855561Y-83527173D01*
X86683388Y-83355000D01*
X94427780Y-83355000D01*
X94427780Y-85555000D01*
X94434644Y-85624690D01*
X94454972Y-85691702D01*
X94487982Y-85753461D01*
X94532407Y-85807593D01*
X94586539Y-85852018D01*
X94648298Y-85885028D01*
X94715310Y-85905356D01*
X94785000Y-85912220D01*
X96985000Y-85912220D01*
X97054690Y-85905356D01*
X97121702Y-85885028D01*
X97183461Y-85852018D01*
X97237593Y-85807593D01*
X97282018Y-85753461D01*
X97315028Y-85691702D01*
X97335356Y-85624690D01*
X97342220Y-85555000D01*
X97342220Y-83355000D01*
X99507780Y-83355000D01*
X99507780Y-85555000D01*
X99514644Y-85624690D01*
X99534972Y-85691702D01*
X99567982Y-85753461D01*
X99612407Y-85807593D01*
X99666539Y-85852018D01*
X99728298Y-85885028D01*
X99795310Y-85905356D01*
X99865000Y-85912220D01*
X102065000Y-85912220D01*
X102134690Y-85905356D01*
X102201702Y-85885028D01*
X102263461Y-85852018D01*
X102317593Y-85807593D01*
X102362018Y-85753461D01*
X102395028Y-85691702D01*
X102415356Y-85624690D01*
X102422220Y-85555000D01*
X102422220Y-83355000D01*
X102415356Y-83285310D01*
X102395028Y-83218298D01*
X102362018Y-83156539D01*
X102317593Y-83102407D01*
X102263461Y-83057982D01*
X102201702Y-83024972D01*
X102134690Y-83004644D01*
X102065000Y-82997780D01*
X99865000Y-82997780D01*
X99795310Y-83004644D01*
X99728298Y-83024972D01*
X99666539Y-83057982D01*
X99612407Y-83102407D01*
X99567982Y-83156539D01*
X99534972Y-83218298D01*
X99514644Y-83285310D01*
X99507780Y-83355000D01*
X97342220Y-83355000D01*
X97335356Y-83285310D01*
X97315028Y-83218298D01*
X97282018Y-83156539D01*
X97237593Y-83102407D01*
X97183461Y-83057982D01*
X97121702Y-83024972D01*
X97054690Y-83004644D01*
X96985000Y-82997780D01*
X94785000Y-82997780D01*
X94715310Y-83004644D01*
X94648298Y-83024972D01*
X94586539Y-83057982D01*
X94532407Y-83102407D01*
X94487982Y-83156539D01*
X94454972Y-83218298D01*
X94434644Y-83285310D01*
X94427780Y-83355000D01*
X86683388Y-83355000D01*
X86652827Y-83324439D01*
X86414438Y-83165152D01*
X86149554Y-83055434D01*
X85868354Y-82999500D01*
X85581646Y-82999500D01*
X85300446Y-83055434D01*
X85035562Y-83165152D01*
X84797173Y-83324439D01*
X84594439Y-83527173D01*
X84435152Y-83765562D01*
X84325434Y-84030446D01*
X84269500Y-84311646D01*
X84269500Y-84598354D01*
X84325434Y-84879554D01*
X84435152Y-85144438D01*
X84594439Y-85382827D01*
X84797173Y-85585561D01*
X84828510Y-85606500D01*
X76570818Y-85606500D01*
X76393144Y-85589000D01*
X76227885Y-85538870D01*
X76075584Y-85457463D01*
X75945500Y-85350707D01*
X75945500Y-78105000D01*
X78278103Y-78105000D01*
X78289250Y-78218178D01*
X78289250Y-78337021D01*
X78312435Y-78453578D01*
X78323582Y-78566758D01*
X78356596Y-78675591D01*
X78379781Y-78792147D01*
X78425260Y-78901943D01*
X78458273Y-79010772D01*
X78511882Y-79111069D01*
X78557362Y-79220866D01*
X78623387Y-79319679D01*
X78676997Y-79419977D01*
X78749144Y-79507887D01*
X78815170Y-79606703D01*
X78899209Y-79690742D01*
X78971352Y-79778648D01*
X79059258Y-79850791D01*
X79143297Y-79934830D01*
X79242113Y-80000856D01*
X79330023Y-80073003D01*
X79430321Y-80126613D01*
X79529134Y-80192638D01*
X79638931Y-80238118D01*
X79739228Y-80291727D01*
X79848057Y-80324740D01*
X79957853Y-80370219D01*
X80074409Y-80393404D01*
X80183242Y-80426418D01*
X80296422Y-80437565D01*
X80412979Y-80460750D01*
X80531822Y-80460750D01*
X80645000Y-80471897D01*
X80758178Y-80460750D01*
X80877021Y-80460750D01*
X80993578Y-80437565D01*
X81106758Y-80426418D01*
X81215591Y-80393404D01*
X81332147Y-80370219D01*
X81441943Y-80324740D01*
X81550772Y-80291727D01*
X81651069Y-80238118D01*
X81760866Y-80192638D01*
X81859679Y-80126613D01*
X81959977Y-80073003D01*
X82047888Y-80000856D01*
X82146703Y-79934830D01*
X82474830Y-79606703D01*
X82475543Y-79605637D01*
X83620929Y-78460251D01*
X86074373Y-78460251D01*
X86022158Y-78495140D01*
X85875140Y-78642158D01*
X85759628Y-78815033D01*
X85680062Y-79007122D01*
X85639500Y-79211042D01*
X85639500Y-79418958D01*
X85680062Y-79622878D01*
X85759628Y-79814967D01*
X85875140Y-79987842D01*
X86022158Y-80134860D01*
X86195033Y-80250372D01*
X86387122Y-80329938D01*
X86591042Y-80370500D01*
X86798958Y-80370500D01*
X87002878Y-80329938D01*
X87194967Y-80250372D01*
X87367842Y-80134860D01*
X87514860Y-79987842D01*
X87630372Y-79814967D01*
X87709938Y-79622878D01*
X87750500Y-79418958D01*
X87750500Y-79211042D01*
X87709938Y-79007122D01*
X87630372Y-78815033D01*
X87514860Y-78642158D01*
X87367842Y-78495140D01*
X87315627Y-78460251D01*
X91074373Y-78460251D01*
X91022158Y-78495140D01*
X90875140Y-78642158D01*
X90759628Y-78815033D01*
X90680062Y-79007122D01*
X90639500Y-79211042D01*
X90639500Y-79418958D01*
X90680062Y-79622878D01*
X90759628Y-79814967D01*
X90875140Y-79987842D01*
X91022158Y-80134860D01*
X91195033Y-80250372D01*
X91387122Y-80329938D01*
X91591042Y-80370500D01*
X91798958Y-80370500D01*
X92002878Y-80329938D01*
X92194967Y-80250372D01*
X92367842Y-80134860D01*
X92514860Y-79987842D01*
X92630372Y-79814967D01*
X92709938Y-79622878D01*
X92750500Y-79418958D01*
X92750500Y-79211042D01*
X92709938Y-79007122D01*
X92630372Y-78815033D01*
X92514860Y-78642158D01*
X92367842Y-78495140D01*
X92194967Y-78379628D01*
X92176140Y-78371830D01*
X92441021Y-78291479D01*
X92850227Y-78072754D01*
X93208898Y-77778400D01*
X93282668Y-77688511D01*
X95627440Y-75343739D01*
X103062922Y-75343739D01*
X103069480Y-75410325D01*
X103069479Y-93859635D01*
X103062922Y-93926211D01*
X103069479Y-93992787D01*
X103069479Y-93992793D01*
X103089093Y-94191934D01*
X103166601Y-94447447D01*
X103292469Y-94682929D01*
X103461859Y-94889330D01*
X103513579Y-94931776D01*
X108788218Y-100206417D01*
X108830658Y-100258130D01*
X108882371Y-100300570D01*
X108882375Y-100300574D01*
X108981320Y-100381776D01*
X109037059Y-100427520D01*
X109272541Y-100553388D01*
X109450545Y-100607384D01*
X109528053Y-100630896D01*
X109555280Y-100633578D01*
X109727195Y-100650510D01*
X109727201Y-100650510D01*
X109793777Y-100657067D01*
X109860353Y-100650510D01*
X112539697Y-100650510D01*
X112606273Y-100657067D01*
X112672849Y-100650510D01*
X112672856Y-100650510D01*
X112871997Y-100630896D01*
X113127510Y-100553388D01*
X113362992Y-100427520D01*
X113569393Y-100258130D01*
X113611842Y-100206406D01*
X114806421Y-99011829D01*
X114858129Y-98969393D01*
X114900566Y-98917684D01*
X114900574Y-98917676D01*
X115027519Y-98762993D01*
X115027520Y-98762992D01*
X115153388Y-98527510D01*
X115230896Y-98271997D01*
X115250510Y-98072856D01*
X115250510Y-98072850D01*
X115257067Y-98006274D01*
X115250510Y-97939698D01*
X115250510Y-95085000D01*
X116317780Y-95085000D01*
X116317780Y-96685000D01*
X116324644Y-96754690D01*
X116344972Y-96821702D01*
X116377982Y-96883461D01*
X116422407Y-96937593D01*
X116476539Y-96982018D01*
X116538298Y-97015028D01*
X116605310Y-97035356D01*
X116675000Y-97042220D01*
X118275000Y-97042220D01*
X118344690Y-97035356D01*
X118411702Y-97015028D01*
X118473461Y-96982018D01*
X118527593Y-96937593D01*
X118572018Y-96883461D01*
X118605028Y-96821702D01*
X118625356Y-96754690D01*
X118632220Y-96685000D01*
X118632220Y-95085000D01*
X123302780Y-95085000D01*
X123302780Y-96685000D01*
X123309644Y-96754690D01*
X123329972Y-96821702D01*
X123362982Y-96883461D01*
X123407407Y-96937593D01*
X123461539Y-96982018D01*
X123523298Y-97015028D01*
X123590310Y-97035356D01*
X123660000Y-97042220D01*
X125260000Y-97042220D01*
X125329690Y-97035356D01*
X125396702Y-97015028D01*
X125458461Y-96982018D01*
X125512593Y-96937593D01*
X125557018Y-96883461D01*
X125590028Y-96821702D01*
X125610356Y-96754690D01*
X125617220Y-96685000D01*
X125617220Y-95741646D01*
X129989500Y-95741646D01*
X129989500Y-96028354D01*
X130045434Y-96309554D01*
X130155152Y-96574438D01*
X130314439Y-96812827D01*
X130517173Y-97015561D01*
X130755562Y-97174848D01*
X131020446Y-97284566D01*
X131301646Y-97340500D01*
X131588354Y-97340500D01*
X131673671Y-97323530D01*
X132715348Y-98365207D01*
X132742143Y-98397857D01*
X132872410Y-98504764D01*
X133020598Y-98583972D01*
X133021030Y-98584203D01*
X133182292Y-98633121D01*
X133350000Y-98649639D01*
X133392023Y-98645500D01*
X140147780Y-98645500D01*
X140147780Y-100639501D01*
X133599360Y-100639501D01*
X132883530Y-99923671D01*
X132900500Y-99838354D01*
X132900500Y-99551646D01*
X132844566Y-99270446D01*
X132734848Y-99005562D01*
X132575561Y-98767173D01*
X132372827Y-98564439D01*
X132134438Y-98405152D01*
X131869554Y-98295434D01*
X131588354Y-98239500D01*
X131301646Y-98239500D01*
X131020446Y-98295434D01*
X130755562Y-98405152D01*
X130517173Y-98564439D01*
X130314439Y-98767173D01*
X130155152Y-99005562D01*
X130045434Y-99270446D01*
X129989500Y-99551646D01*
X129989500Y-99838354D01*
X130045434Y-100119554D01*
X130155152Y-100384438D01*
X130314439Y-100622827D01*
X130517173Y-100825561D01*
X130755562Y-100984848D01*
X131020446Y-101094566D01*
X131301646Y-101150500D01*
X131588354Y-101150500D01*
X131673671Y-101133530D01*
X132610349Y-102070208D01*
X132637144Y-102102858D01*
X132767411Y-102209765D01*
X132916031Y-102289204D01*
X133077293Y-102338122D01*
X133245001Y-102354640D01*
X133287024Y-102350501D01*
X143222978Y-102350501D01*
X143265001Y-102354640D01*
X143307024Y-102350501D01*
X143432708Y-102338122D01*
X143593971Y-102289204D01*
X143742591Y-102209765D01*
X143872858Y-102102858D01*
X143899653Y-102070208D01*
X147080212Y-98889650D01*
X147112856Y-98862860D01*
X147219763Y-98732593D01*
X147260837Y-98655749D01*
X147431349Y-98769681D01*
X147632538Y-98853016D01*
X147846118Y-98895500D01*
X147850641Y-98895500D01*
X151310349Y-102355208D01*
X151337144Y-102387858D01*
X151467411Y-102494765D01*
X151616031Y-102574204D01*
X151777293Y-102623122D01*
X151945001Y-102639640D01*
X151987024Y-102635501D01*
X162972976Y-102635501D01*
X163014999Y-102639640D01*
X163057022Y-102635501D01*
X163182706Y-102623122D01*
X163343969Y-102574204D01*
X163492589Y-102494765D01*
X163622856Y-102387858D01*
X163649651Y-102355208D01*
X165099644Y-100905216D01*
X165179763Y-100807590D01*
X165259203Y-100658970D01*
X165308121Y-100497708D01*
X165324639Y-100330001D01*
X165308121Y-100162293D01*
X165259203Y-100001031D01*
X165179763Y-99852411D01*
X165072856Y-99722144D01*
X164942589Y-99615237D01*
X164793969Y-99535797D01*
X164632707Y-99486879D01*
X164464999Y-99470361D01*
X164297292Y-99486879D01*
X164136030Y-99535797D01*
X163987410Y-99615237D01*
X163889784Y-99695356D01*
X162660640Y-100924501D01*
X160003816Y-100924501D01*
X160099763Y-100807589D01*
X160179202Y-100658969D01*
X160228121Y-100497707D01*
X160244639Y-100329999D01*
X160228121Y-100162292D01*
X160179202Y-100001030D01*
X160099763Y-99852409D01*
X160019644Y-99754784D01*
X157479652Y-97214793D01*
X157452857Y-97182143D01*
X157322590Y-97075236D01*
X157173970Y-96995797D01*
X157012707Y-96946879D01*
X156918426Y-96937593D01*
X156845000Y-96930361D01*
X156802977Y-96934500D01*
X155012913Y-96934500D01*
X155009715Y-96931302D01*
X154828651Y-96810319D01*
X154627462Y-96726984D01*
X154413882Y-96684500D01*
X154196118Y-96684500D01*
X153982538Y-96726984D01*
X153781349Y-96810319D01*
X153600285Y-96931302D01*
X153446302Y-97085285D01*
X153325319Y-97266349D01*
X153241984Y-97467538D01*
X153199500Y-97681118D01*
X153199500Y-97898882D01*
X153241984Y-98112462D01*
X153325319Y-98313651D01*
X153446302Y-98494715D01*
X153600285Y-98648698D01*
X153781349Y-98769681D01*
X153982538Y-98853016D01*
X154196118Y-98895500D01*
X154413882Y-98895500D01*
X154627462Y-98853016D01*
X154828651Y-98769681D01*
X155009715Y-98648698D01*
X155012913Y-98645500D01*
X156490641Y-98645500D01*
X158769641Y-100924501D01*
X152299360Y-100924501D01*
X149060500Y-97685641D01*
X149060500Y-97681118D01*
X149018016Y-97467538D01*
X148934681Y-97266349D01*
X148813698Y-97085285D01*
X148659715Y-96931302D01*
X148478651Y-96810319D01*
X148277462Y-96726984D01*
X148063882Y-96684500D01*
X147846118Y-96684500D01*
X147701616Y-96713243D01*
X147839645Y-96575215D01*
X147839650Y-96575209D01*
X148059359Y-96355500D01*
X148063882Y-96355500D01*
X148277462Y-96313016D01*
X148478651Y-96229681D01*
X148659715Y-96108698D01*
X148813698Y-95954715D01*
X148934681Y-95773651D01*
X149018016Y-95572462D01*
X149060500Y-95358882D01*
X149060500Y-95141118D01*
X149018016Y-94927538D01*
X148934681Y-94726349D01*
X148887341Y-94655499D01*
X152500640Y-94655499D01*
X152979785Y-95134645D01*
X152979791Y-95134650D01*
X153199500Y-95354359D01*
X153199500Y-95358882D01*
X153241984Y-95572462D01*
X153325319Y-95773651D01*
X153446302Y-95954715D01*
X153600285Y-96108698D01*
X153781349Y-96229681D01*
X153982538Y-96313016D01*
X154196118Y-96355500D01*
X154413882Y-96355500D01*
X154627462Y-96313016D01*
X154828651Y-96229681D01*
X155009715Y-96108698D01*
X155163698Y-95954715D01*
X155284681Y-95773651D01*
X155368016Y-95572462D01*
X155410500Y-95358882D01*
X155410500Y-95141118D01*
X155368016Y-94927538D01*
X155284681Y-94726349D01*
X155163698Y-94545285D01*
X155009715Y-94391302D01*
X154828651Y-94270319D01*
X154627462Y-94186984D01*
X154413882Y-94144500D01*
X154409359Y-94144500D01*
X154189650Y-93924791D01*
X154189645Y-93924785D01*
X153489651Y-93224792D01*
X153462856Y-93192142D01*
X153332589Y-93085235D01*
X153183969Y-93005796D01*
X153022706Y-92956878D01*
X152897022Y-92944499D01*
X152854999Y-92940360D01*
X152812976Y-92944499D01*
X147192026Y-92944499D01*
X147150003Y-92940360D01*
X146982295Y-92956878D01*
X146860345Y-92993871D01*
X146821033Y-93005796D01*
X146672413Y-93085235D01*
X146542146Y-93192142D01*
X146515351Y-93224792D01*
X143062220Y-96677923D01*
X143062220Y-94785000D01*
X143055356Y-94715310D01*
X143035028Y-94648298D01*
X143002018Y-94586539D01*
X142957593Y-94532407D01*
X142903461Y-94487982D01*
X142841702Y-94454972D01*
X142774690Y-94434644D01*
X142705000Y-94427780D01*
X140505000Y-94427780D01*
X140435310Y-94434644D01*
X140368298Y-94454972D01*
X140306539Y-94487982D01*
X140255949Y-94529500D01*
X139066467Y-94529500D01*
X136356500Y-91819535D01*
X136356500Y-90745590D01*
X154868000Y-90745590D01*
X154868000Y-90894410D01*
X154897033Y-91040371D01*
X154953984Y-91177864D01*
X155036664Y-91301603D01*
X155141897Y-91406836D01*
X155265636Y-91489516D01*
X155403129Y-91546467D01*
X155549090Y-91575500D01*
X155593406Y-91575500D01*
X156099000Y-92081095D01*
X156099000Y-92260561D01*
X156067664Y-92291897D01*
X155984984Y-92415636D01*
X155928033Y-92553129D01*
X155899000Y-92699090D01*
X155899000Y-92847910D01*
X155928033Y-92993871D01*
X155984984Y-93131364D01*
X156067664Y-93255103D01*
X156172897Y-93360336D01*
X156296636Y-93443016D01*
X156434129Y-93499967D01*
X156580090Y-93529000D01*
X156728910Y-93529000D01*
X156874871Y-93499967D01*
X157012364Y-93443016D01*
X157136103Y-93360336D01*
X157241336Y-93255103D01*
X157324016Y-93131364D01*
X157380967Y-92993871D01*
X157410000Y-92847910D01*
X157410000Y-92699090D01*
X157380967Y-92553129D01*
X157324016Y-92415636D01*
X157241336Y-92291897D01*
X157210000Y-92260561D01*
X157210000Y-91878279D01*
X157212687Y-91850999D01*
X157208736Y-91810885D01*
X157201962Y-91742103D01*
X157170198Y-91637391D01*
X157118616Y-91540888D01*
X157049198Y-91456302D01*
X157028001Y-91438906D01*
X156379000Y-90789906D01*
X156379000Y-90745590D01*
X156349967Y-90599629D01*
X156293016Y-90462136D01*
X156210336Y-90338397D01*
X156105103Y-90233164D01*
X155981364Y-90150484D01*
X155843871Y-90093533D01*
X155697910Y-90064500D01*
X155549090Y-90064500D01*
X155403129Y-90093533D01*
X155265636Y-90150484D01*
X155141897Y-90233164D01*
X155036664Y-90338397D01*
X154953984Y-90462136D01*
X154897033Y-90599629D01*
X154868000Y-90745590D01*
X136356500Y-90745590D01*
X136356500Y-89406572D01*
X138282486Y-87480587D01*
X146501073Y-79262000D01*
X165664928Y-79262000D01*
X166419501Y-80016573D01*
X166419500Y-82458854D01*
X166419500Y-82458855D01*
X166419501Y-84608077D01*
X166356349Y-84816259D01*
X166320524Y-85180000D01*
X166356349Y-85543741D01*
X166462449Y-85893504D01*
X166634745Y-86215848D01*
X166866616Y-86498384D01*
X167149152Y-86730255D01*
X167471496Y-86902551D01*
X167821259Y-87008651D01*
X168185000Y-87044476D01*
X168548741Y-87008651D01*
X168898504Y-86902551D01*
X169220848Y-86730255D01*
X169432586Y-86556486D01*
X169522583Y-86466489D01*
X169593384Y-86408384D01*
X169825256Y-86125848D01*
X169997552Y-85803504D01*
X170103652Y-85453741D01*
X170130500Y-85181146D01*
X170130500Y-85181137D01*
X170139476Y-85090001D01*
X170130500Y-84998865D01*
X170130500Y-79339135D01*
X170139476Y-79247999D01*
X170130500Y-79156863D01*
X170130500Y-79156854D01*
X170103652Y-78884259D01*
X169997552Y-78534496D01*
X169825256Y-78212152D01*
X169725046Y-78090046D01*
X169651486Y-78000413D01*
X169651485Y-78000412D01*
X169593384Y-77929616D01*
X169522588Y-77871515D01*
X167809989Y-76158917D01*
X167751884Y-76088116D01*
X167469348Y-75856244D01*
X167147004Y-75683948D01*
X166797241Y-75577848D01*
X166524646Y-75551000D01*
X166524636Y-75551000D01*
X166433500Y-75542024D01*
X166342364Y-75551000D01*
X145823635Y-75551000D01*
X145732499Y-75542024D01*
X145641363Y-75551000D01*
X145641354Y-75551000D01*
X145368759Y-75577848D01*
X145018996Y-75683948D01*
X144696652Y-75856244D01*
X144651719Y-75893120D01*
X144500330Y-76017362D01*
X144414116Y-76088116D01*
X144356015Y-76158912D01*
X135658413Y-84856514D01*
X133624514Y-86890414D01*
X133450745Y-87102152D01*
X133278449Y-87424496D01*
X133172349Y-87774259D01*
X133136524Y-88138000D01*
X133172349Y-88501741D01*
X133278449Y-88851504D01*
X133450745Y-89173848D01*
X133645501Y-89411159D01*
X133645500Y-92314424D01*
X133638943Y-92381000D01*
X133645500Y-92447576D01*
X133645500Y-92447582D01*
X133655758Y-92551728D01*
X133665114Y-92646724D01*
X133680999Y-92699090D01*
X133742622Y-92902236D01*
X133868490Y-93137718D01*
X134037880Y-93344119D01*
X134089600Y-93386565D01*
X137499440Y-96796407D01*
X137541880Y-96848120D01*
X137593593Y-96890560D01*
X137593597Y-96890564D01*
X137647133Y-96934500D01*
X133704359Y-96934500D01*
X132883530Y-96113671D01*
X132900500Y-96028354D01*
X132900500Y-95741646D01*
X132844566Y-95460446D01*
X132734848Y-95195562D01*
X132575561Y-94957173D01*
X132372827Y-94754439D01*
X132134438Y-94595152D01*
X131869554Y-94485434D01*
X131588354Y-94429500D01*
X131301646Y-94429500D01*
X131020446Y-94485434D01*
X130755562Y-94595152D01*
X130517173Y-94754439D01*
X130314439Y-94957173D01*
X130155152Y-95195562D01*
X130045434Y-95460446D01*
X129989500Y-95741646D01*
X125617220Y-95741646D01*
X125617220Y-95085000D01*
X125610356Y-95015310D01*
X125590028Y-94948298D01*
X125557018Y-94886539D01*
X125512593Y-94832407D01*
X125458461Y-94787982D01*
X125396702Y-94754972D01*
X125329690Y-94734644D01*
X125260000Y-94727780D01*
X123660000Y-94727780D01*
X123590310Y-94734644D01*
X123523298Y-94754972D01*
X123461539Y-94787982D01*
X123407407Y-94832407D01*
X123362982Y-94886539D01*
X123329972Y-94948298D01*
X123309644Y-95015310D01*
X123302780Y-95085000D01*
X118632220Y-95085000D01*
X118625356Y-95015310D01*
X118605028Y-94948298D01*
X118572018Y-94886539D01*
X118527593Y-94832407D01*
X118473461Y-94787982D01*
X118411702Y-94754972D01*
X118344690Y-94734644D01*
X118275000Y-94727780D01*
X116675000Y-94727780D01*
X116605310Y-94734644D01*
X116538298Y-94754972D01*
X116476539Y-94787982D01*
X116422407Y-94832407D01*
X116377982Y-94886539D01*
X116344972Y-94948298D01*
X116324644Y-95015310D01*
X116317780Y-95085000D01*
X115250510Y-95085000D01*
X115250510Y-91861586D01*
X115257067Y-91795010D01*
X115250510Y-91728434D01*
X115250510Y-91728427D01*
X115230896Y-91529286D01*
X115153388Y-91273773D01*
X115027520Y-91038291D01*
X114858130Y-90831890D01*
X114806411Y-90789445D01*
X112606401Y-88589436D01*
X112451718Y-88462491D01*
X112216237Y-88336623D01*
X111960724Y-88259114D01*
X111695000Y-88232943D01*
X111429276Y-88259114D01*
X111173763Y-88336623D01*
X110938282Y-88462491D01*
X110731880Y-88631880D01*
X110562491Y-88838282D01*
X110436623Y-89073763D01*
X110359114Y-89329276D01*
X110332943Y-89595000D01*
X110359114Y-89860724D01*
X110436623Y-90116237D01*
X110497965Y-90231000D01*
X110180499Y-89913534D01*
X110180499Y-78996466D01*
X110404500Y-78772465D01*
X110404500Y-78899658D01*
X110359114Y-79049276D01*
X110332943Y-79315000D01*
X110359114Y-79580724D01*
X110436623Y-79836237D01*
X110562491Y-80071718D01*
X110731880Y-80278120D01*
X110938282Y-80447509D01*
X111173763Y-80573377D01*
X111429276Y-80650886D01*
X111695000Y-80677057D01*
X111960724Y-80650886D01*
X112216237Y-80573377D01*
X112451718Y-80447509D01*
X112606401Y-80320564D01*
X112671396Y-80255569D01*
X112723120Y-80213120D01*
X112892510Y-80006719D01*
X113018378Y-79771237D01*
X113095886Y-79515723D01*
X113115500Y-79316582D01*
X113115500Y-79316576D01*
X113122057Y-79250000D01*
X113115500Y-79183424D01*
X113115500Y-79172748D01*
X113906847Y-78381402D01*
X113922425Y-78362420D01*
X113941401Y-78346847D01*
X114806410Y-77481838D01*
X114858129Y-77439393D01*
X115027520Y-77232992D01*
X115153388Y-76997510D01*
X115230896Y-76741997D01*
X115250510Y-76542856D01*
X115250510Y-76542849D01*
X115257067Y-76476273D01*
X115250510Y-76409697D01*
X115250510Y-74720302D01*
X115257067Y-74653726D01*
X115250510Y-74587150D01*
X115250510Y-74587144D01*
X115230896Y-74388003D01*
X115153388Y-74132490D01*
X115027520Y-73897008D01*
X114858130Y-73690607D01*
X114806411Y-73648162D01*
X113867685Y-72709437D01*
X113713002Y-72582492D01*
X113477521Y-72456624D01*
X113222008Y-72379115D01*
X112956284Y-72352944D01*
X112859147Y-72362511D01*
X112953378Y-72186217D01*
X113030886Y-71930704D01*
X113057058Y-71664980D01*
X113030886Y-71399256D01*
X112953378Y-71143743D01*
X112827510Y-70908261D01*
X112658120Y-70701860D01*
X112451719Y-70532470D01*
X112216237Y-70406602D01*
X112179563Y-70395477D01*
X112096711Y-70327482D01*
X111861229Y-70201614D01*
X111605716Y-70124106D01*
X111406575Y-70104492D01*
X111406568Y-70104492D01*
X111339992Y-70097935D01*
X111273416Y-70104492D01*
X108375302Y-70104492D01*
X108308726Y-70097935D01*
X108242150Y-70104492D01*
X108242143Y-70104492D01*
X108067698Y-70121674D01*
X108043001Y-70124106D01*
X107787488Y-70201614D01*
X107705464Y-70245458D01*
X107552007Y-70327482D01*
X107345606Y-70496872D01*
X107303161Y-70548591D01*
X103513579Y-74338174D01*
X103461860Y-74380619D01*
X103292470Y-74587020D01*
X103230492Y-74702973D01*
X103166602Y-74822502D01*
X103089093Y-75078015D01*
X103062922Y-75343739D01*
X95627440Y-75343739D01*
X97632413Y-73338767D01*
X97632417Y-73338762D01*
X104478710Y-66492470D01*
X105505250Y-66492470D01*
X105574940Y-66485606D01*
X105641952Y-66465278D01*
X105703711Y-66432268D01*
X105757843Y-66387843D01*
X105802268Y-66333711D01*
X105835278Y-66271952D01*
X105855606Y-66204940D01*
X105862470Y-66135250D01*
X105862470Y-64230705D01*
X105871896Y-64135001D01*
X105862470Y-64039297D01*
X105862470Y-63902979D01*
X106229250Y-63902979D01*
X106229250Y-64367021D01*
X106319781Y-64822147D01*
X106497362Y-65250866D01*
X106755170Y-65636703D01*
X107083297Y-65964830D01*
X107469134Y-66222638D01*
X107897853Y-66400219D01*
X108352979Y-66490750D01*
X108817021Y-66490750D01*
X109272147Y-66400219D01*
X109700866Y-66222638D01*
X110086703Y-65964830D01*
X110414830Y-65636703D01*
X110672638Y-65250866D01*
X110850219Y-64822147D01*
X110940750Y-64367021D01*
X110940750Y-63902979D01*
X111309250Y-63902979D01*
X111309250Y-64367021D01*
X111399781Y-64822147D01*
X111577362Y-65250866D01*
X111835170Y-65636703D01*
X112163297Y-65964830D01*
X112549134Y-66222638D01*
X112977853Y-66400219D01*
X113432979Y-66490750D01*
X113897021Y-66490750D01*
X114352147Y-66400219D01*
X114780866Y-66222638D01*
X115166703Y-65964830D01*
X115494830Y-65636703D01*
X115752638Y-65250866D01*
X115930219Y-64822147D01*
X116020750Y-64367021D01*
X116020750Y-63902979D01*
X116389250Y-63902979D01*
X116389250Y-64367021D01*
X116479781Y-64822147D01*
X116657362Y-65250866D01*
X116915170Y-65636703D01*
X117243297Y-65964830D01*
X117629134Y-66222638D01*
X118057853Y-66400219D01*
X118512979Y-66490750D01*
X118977021Y-66490750D01*
X119432147Y-66400219D01*
X119860866Y-66222638D01*
X120246703Y-65964830D01*
X120574830Y-65636703D01*
X120832638Y-65250866D01*
X121010219Y-64822147D01*
X121100750Y-64367021D01*
X121100750Y-63902979D01*
X121010219Y-63447853D01*
X120832638Y-63019134D01*
X120574830Y-62633297D01*
X120246703Y-62305170D01*
X119860866Y-62047362D01*
X119432147Y-61869781D01*
X118977021Y-61779250D01*
X118512979Y-61779250D01*
X118057853Y-61869781D01*
X117629134Y-62047362D01*
X117243297Y-62305170D01*
X116915170Y-62633297D01*
X116657362Y-63019134D01*
X116479781Y-63447853D01*
X116389250Y-63902979D01*
X116020750Y-63902979D01*
X115930219Y-63447853D01*
X115752638Y-63019134D01*
X115494830Y-62633297D01*
X115166703Y-62305170D01*
X114780866Y-62047362D01*
X114352147Y-61869781D01*
X113897021Y-61779250D01*
X113432979Y-61779250D01*
X112977853Y-61869781D01*
X112549134Y-62047362D01*
X112163297Y-62305170D01*
X111835170Y-62633297D01*
X111577362Y-63019134D01*
X111399781Y-63447853D01*
X111309250Y-63902979D01*
X110940750Y-63902979D01*
X110850219Y-63447853D01*
X110672638Y-63019134D01*
X110414830Y-62633297D01*
X110086703Y-62305170D01*
X109700866Y-62047362D01*
X109272147Y-61869781D01*
X108817021Y-61779250D01*
X108352979Y-61779250D01*
X107897853Y-61869781D01*
X107469134Y-62047362D01*
X107083297Y-62305170D01*
X106755170Y-62633297D01*
X106497362Y-63019134D01*
X106319781Y-63447853D01*
X106229250Y-63902979D01*
X105862470Y-63902979D01*
X105862470Y-62134750D01*
X105855606Y-62065060D01*
X105835278Y-61998048D01*
X105802268Y-61936289D01*
X105757843Y-61882157D01*
X105703711Y-61837732D01*
X105641952Y-61804722D01*
X105574940Y-61784394D01*
X105505250Y-61777530D01*
X103600703Y-61777530D01*
X103504999Y-61768104D01*
X103409295Y-61777530D01*
X101504750Y-61777530D01*
X101435060Y-61784394D01*
X101368048Y-61804722D01*
X101306289Y-61837732D01*
X101252157Y-61882157D01*
X101207732Y-61936289D01*
X101174722Y-61998048D01*
X101154394Y-62065060D01*
X101147530Y-62134750D01*
X101147530Y-63161290D01*
X94301238Y-70007583D01*
X94301233Y-70007587D01*
X92725162Y-71583658D01*
X92709938Y-71507122D01*
X92630372Y-71315033D01*
X92514860Y-71142158D01*
X92367842Y-70995140D01*
X92194967Y-70879628D01*
X92002878Y-70800062D01*
X91798958Y-70759500D01*
X91591042Y-70759500D01*
X91387122Y-70800062D01*
X91195033Y-70879628D01*
X91022158Y-70995140D01*
X90875140Y-71142158D01*
X90759628Y-71315033D01*
X90680062Y-71507122D01*
X90639500Y-71711042D01*
X90639500Y-71918958D01*
X90680062Y-72122878D01*
X90759628Y-72314967D01*
X90875140Y-72487842D01*
X91022158Y-72634860D01*
X91195033Y-72750372D01*
X91387122Y-72829938D01*
X91463659Y-72845162D01*
X90559570Y-73749251D01*
X82760954Y-73749251D01*
X82645248Y-73737855D01*
X82529542Y-73749251D01*
X82529533Y-73749251D01*
X82183490Y-73783333D01*
X81739477Y-73918023D01*
X81330271Y-74136748D01*
X80971600Y-74431102D01*
X80897835Y-74520985D01*
X79144363Y-76274457D01*
X79143297Y-76275170D01*
X78815170Y-76603297D01*
X78749144Y-76702112D01*
X78676997Y-76790023D01*
X78623387Y-76890321D01*
X78557362Y-76989134D01*
X78511882Y-77098931D01*
X78458273Y-77199228D01*
X78425260Y-77308057D01*
X78379781Y-77417853D01*
X78356596Y-77534409D01*
X78323582Y-77643242D01*
X78312435Y-77756422D01*
X78289250Y-77872979D01*
X78289250Y-77991822D01*
X78278103Y-78105000D01*
X75945500Y-78105000D01*
X75945500Y-71522979D01*
X78289250Y-71522979D01*
X78289250Y-71987021D01*
X78379781Y-72442147D01*
X78557362Y-72870866D01*
X78815170Y-73256703D01*
X79143297Y-73584830D01*
X79529134Y-73842638D01*
X79957853Y-74020219D01*
X80412979Y-74110750D01*
X80877021Y-74110750D01*
X81332147Y-74020219D01*
X81760866Y-73842638D01*
X82146703Y-73584830D01*
X82474830Y-73256703D01*
X82732638Y-72870866D01*
X82910219Y-72442147D01*
X83000750Y-71987021D01*
X83000750Y-71711042D01*
X85639500Y-71711042D01*
X85639500Y-71918958D01*
X85680062Y-72122878D01*
X85759628Y-72314967D01*
X85875140Y-72487842D01*
X86022158Y-72634860D01*
X86195033Y-72750372D01*
X86387122Y-72829938D01*
X86591042Y-72870500D01*
X86798958Y-72870500D01*
X87002878Y-72829938D01*
X87194967Y-72750372D01*
X87367842Y-72634860D01*
X87514860Y-72487842D01*
X87630372Y-72314967D01*
X87709938Y-72122878D01*
X87750500Y-71918958D01*
X87750500Y-71711042D01*
X87709938Y-71507122D01*
X87630372Y-71315033D01*
X87514860Y-71142158D01*
X87367842Y-70995140D01*
X87194967Y-70879628D01*
X87002878Y-70800062D01*
X86798958Y-70759500D01*
X86591042Y-70759500D01*
X86387122Y-70800062D01*
X86195033Y-70879628D01*
X86022158Y-70995140D01*
X85875140Y-71142158D01*
X85759628Y-71315033D01*
X85680062Y-71507122D01*
X85639500Y-71711042D01*
X83000750Y-71711042D01*
X83000750Y-71522979D01*
X82910219Y-71067853D01*
X82732638Y-70639134D01*
X82474830Y-70253297D01*
X82146703Y-69925170D01*
X81760866Y-69667362D01*
X81332147Y-69489781D01*
X80877021Y-69399250D01*
X80412979Y-69399250D01*
X79957853Y-69489781D01*
X79529134Y-69667362D01*
X79143297Y-69925170D01*
X78815170Y-70253297D01*
X78557362Y-70639134D01*
X78379781Y-71067853D01*
X78289250Y-71522979D01*
X75945500Y-71522979D01*
X75945500Y-62134750D01*
X78287530Y-62134750D01*
X78287530Y-66135250D01*
X78294394Y-66204940D01*
X78314722Y-66271952D01*
X78347732Y-66333711D01*
X78392157Y-66387843D01*
X78446289Y-66432268D01*
X78508048Y-66465278D01*
X78575060Y-66485606D01*
X78644750Y-66492470D01*
X82645250Y-66492470D01*
X82714940Y-66485606D01*
X82781952Y-66465278D01*
X82843711Y-66432268D01*
X82897843Y-66387843D01*
X82942268Y-66333711D01*
X82975278Y-66271952D01*
X82995606Y-66204940D01*
X83002470Y-66135250D01*
X83002470Y-63902979D01*
X83369250Y-63902979D01*
X83369250Y-64367021D01*
X83459781Y-64822147D01*
X83637362Y-65250866D01*
X83895170Y-65636703D01*
X84223297Y-65964830D01*
X84609134Y-66222638D01*
X85037853Y-66400219D01*
X85492979Y-66490750D01*
X85957021Y-66490750D01*
X86412147Y-66400219D01*
X86840866Y-66222638D01*
X87226703Y-65964830D01*
X87554830Y-65636703D01*
X87812638Y-65250866D01*
X87990219Y-64822147D01*
X88080750Y-64367021D01*
X88080750Y-63902979D01*
X88449250Y-63902979D01*
X88449250Y-64367021D01*
X88539781Y-64822147D01*
X88717362Y-65250866D01*
X88975170Y-65636703D01*
X89303297Y-65964830D01*
X89689134Y-66222638D01*
X90117853Y-66400219D01*
X90572979Y-66490750D01*
X91037021Y-66490750D01*
X91492147Y-66400219D01*
X91920866Y-66222638D01*
X92306703Y-65964830D01*
X92634830Y-65636703D01*
X92892638Y-65250866D01*
X93070219Y-64822147D01*
X93160750Y-64367021D01*
X93160750Y-63902979D01*
X93529250Y-63902979D01*
X93529250Y-64367021D01*
X93619781Y-64822147D01*
X93797362Y-65250866D01*
X94055170Y-65636703D01*
X94383297Y-65964830D01*
X94769134Y-66222638D01*
X95197853Y-66400219D01*
X95652979Y-66490750D01*
X96117021Y-66490750D01*
X96572147Y-66400219D01*
X97000866Y-66222638D01*
X97386703Y-65964830D01*
X97714830Y-65636703D01*
X97972638Y-65250866D01*
X98150219Y-64822147D01*
X98240750Y-64367021D01*
X98240750Y-63902979D01*
X98150219Y-63447853D01*
X97972638Y-63019134D01*
X97714830Y-62633297D01*
X97386703Y-62305170D01*
X97000866Y-62047362D01*
X96572147Y-61869781D01*
X96117021Y-61779250D01*
X95652979Y-61779250D01*
X95197853Y-61869781D01*
X94769134Y-62047362D01*
X94383297Y-62305170D01*
X94055170Y-62633297D01*
X93797362Y-63019134D01*
X93619781Y-63447853D01*
X93529250Y-63902979D01*
X93160750Y-63902979D01*
X93070219Y-63447853D01*
X92892638Y-63019134D01*
X92634830Y-62633297D01*
X92306703Y-62305170D01*
X91920866Y-62047362D01*
X91492147Y-61869781D01*
X91037021Y-61779250D01*
X90572979Y-61779250D01*
X90117853Y-61869781D01*
X89689134Y-62047362D01*
X89303297Y-62305170D01*
X88975170Y-62633297D01*
X88717362Y-63019134D01*
X88539781Y-63447853D01*
X88449250Y-63902979D01*
X88080750Y-63902979D01*
X87990219Y-63447853D01*
X87812638Y-63019134D01*
X87554830Y-62633297D01*
X87226703Y-62305170D01*
X86840866Y-62047362D01*
X86412147Y-61869781D01*
X85957021Y-61779250D01*
X85492979Y-61779250D01*
X85037853Y-61869781D01*
X84609134Y-62047362D01*
X84223297Y-62305170D01*
X83895170Y-62633297D01*
X83637362Y-63019134D01*
X83459781Y-63447853D01*
X83369250Y-63902979D01*
X83002470Y-63902979D01*
X83002470Y-62134750D01*
X82995606Y-62065060D01*
X82975278Y-61998048D01*
X82942268Y-61936289D01*
X82897843Y-61882157D01*
X82843711Y-61837732D01*
X82781952Y-61804722D01*
X82714940Y-61784394D01*
X82645250Y-61777530D01*
X78644750Y-61777530D01*
X78575060Y-61784394D01*
X78508048Y-61804722D01*
X78446289Y-61837732D01*
X78392157Y-61882157D01*
X78347732Y-61936289D01*
X78314722Y-61998048D01*
X78294394Y-62065060D01*
X78287530Y-62134750D01*
X75945500Y-62134750D01*
X75945500Y-59435500D01*
X182499500Y-59435500D01*
X182499500Y-63510338D01*
G37*
X182499500Y-63510338D02*
X182355902Y-63036960D01*
X182090749Y-62540893D01*
X181733913Y-62106087D01*
X181299107Y-61749251D01*
X180803040Y-61484098D01*
X180264776Y-61320817D01*
X179845277Y-61279500D01*
X149365276Y-61279500D01*
X149225000Y-61265684D01*
X149084723Y-61279500D01*
X148665224Y-61320817D01*
X148126960Y-61484098D01*
X147630893Y-61749251D01*
X147196087Y-62106087D01*
X147106665Y-62215048D01*
X137882214Y-71439500D01*
X124319723Y-71439500D01*
X123900224Y-71480817D01*
X123361960Y-71644098D01*
X122865893Y-71909251D01*
X122431087Y-72266087D01*
X122074251Y-72700893D01*
X121809098Y-73196960D01*
X121645817Y-73735224D01*
X121590684Y-74295000D01*
X121645817Y-74854776D01*
X121809098Y-75393040D01*
X122074251Y-75889107D01*
X122431087Y-76323913D01*
X122865893Y-76680749D01*
X123361960Y-76945902D01*
X123900224Y-77109183D01*
X124319723Y-77150500D01*
X138924724Y-77150500D01*
X139065000Y-77164316D01*
X139205276Y-77150500D01*
X139205277Y-77150500D01*
X139624776Y-77109183D01*
X140163040Y-76945902D01*
X140659107Y-76680749D01*
X141093913Y-76323913D01*
X141183339Y-76214947D01*
X145808286Y-71590000D01*
X160767780Y-71590000D01*
X160767780Y-73190000D01*
X160774644Y-73259690D01*
X160794972Y-73326702D01*
X160827982Y-73388461D01*
X160872407Y-73442593D01*
X160926539Y-73487018D01*
X160988298Y-73520028D01*
X161055310Y-73540356D01*
X161125000Y-73547220D01*
X162725000Y-73547220D01*
X162794690Y-73540356D01*
X162861702Y-73520028D01*
X162923461Y-73487018D01*
X162977593Y-73442593D01*
X163022018Y-73388461D01*
X163055028Y-73326702D01*
X163075356Y-73259690D01*
X163082220Y-73190000D01*
X163082220Y-71590000D01*
X163075356Y-71520310D01*
X163055028Y-71453298D01*
X163022018Y-71391539D01*
X162977593Y-71337407D01*
X162923461Y-71292982D01*
X162861702Y-71259972D01*
X162794690Y-71239644D01*
X162725000Y-71232780D01*
X161125000Y-71232780D01*
X161055310Y-71239644D01*
X160988298Y-71259972D01*
X160926539Y-71292982D01*
X160872407Y-71337407D01*
X160827982Y-71391539D01*
X160794972Y-71453298D01*
X160774644Y-71520310D01*
X160767780Y-71590000D01*
X145808286Y-71590000D01*
X150407787Y-66990500D01*
X179845277Y-66990500D01*
X180264776Y-66949183D01*
X180803040Y-66785902D01*
X181299107Y-66520749D01*
X181733913Y-66163913D01*
X182090749Y-65729107D01*
X182355902Y-65233040D01*
X182499500Y-64759662D01*
X182499501Y-107569500D01*
X96568864Y-107569500D01*
X97045539Y-107424902D01*
X97541606Y-107159749D01*
X97976412Y-106802912D01*
X98333249Y-106368106D01*
X98598402Y-105872039D01*
X98761683Y-105333775D01*
X98816816Y-104774000D01*
X98761683Y-104214224D01*
X98598402Y-103675960D01*
X98333249Y-103179893D01*
X98065834Y-102854047D01*
X94549500Y-99337714D01*
X94549500Y-89458223D01*
X94508183Y-89038724D01*
X94344902Y-88500460D01*
X94079749Y-88004393D01*
X93722912Y-87569587D01*
X93288106Y-87212751D01*
X92792039Y-86947598D01*
X92253775Y-86784317D01*
X91694000Y-86729184D01*
X91134224Y-86784317D01*
X90595960Y-86947598D01*
X90099893Y-87212751D01*
X89665087Y-87569588D01*
X89653500Y-87583707D01*
X89653500Y-86725000D01*
X89652929Y-86713385D01*
X89633714Y-86518295D01*
X89629183Y-86495512D01*
X89572278Y-86307919D01*
X89563388Y-86286456D01*
X89470978Y-86113569D01*
X89458072Y-86094254D01*
X89333709Y-85942717D01*
X89317283Y-85926291D01*
X89165746Y-85801928D01*
X89146431Y-85789022D01*
X88973544Y-85696612D01*
X88952081Y-85687722D01*
X88764488Y-85630817D01*
X88741705Y-85626286D01*
X88546615Y-85607071D01*
X88535000Y-85606500D01*
X86621490Y-85606500D01*
X86652827Y-85585561D01*
X86855561Y-85382827D01*
X87014848Y-85144438D01*
X87124566Y-84879554D01*
X87180500Y-84598354D01*
X87180500Y-84311646D01*
X87124566Y-84030446D01*
X87014848Y-83765562D01*
X86855561Y-83527173D01*
X86683388Y-83355000D01*
X94427780Y-83355000D01*
X94427780Y-85555000D01*
X94434644Y-85624690D01*
X94454972Y-85691702D01*
X94487982Y-85753461D01*
X94532407Y-85807593D01*
X94586539Y-85852018D01*
X94648298Y-85885028D01*
X94715310Y-85905356D01*
X94785000Y-85912220D01*
X96985000Y-85912220D01*
X97054690Y-85905356D01*
X97121702Y-85885028D01*
X97183461Y-85852018D01*
X97237593Y-85807593D01*
X97282018Y-85753461D01*
X97315028Y-85691702D01*
X97335356Y-85624690D01*
X97342220Y-85555000D01*
X97342220Y-83355000D01*
X99507780Y-83355000D01*
X99507780Y-85555000D01*
X99514644Y-85624690D01*
X99534972Y-85691702D01*
X99567982Y-85753461D01*
X99612407Y-85807593D01*
X99666539Y-85852018D01*
X99728298Y-85885028D01*
X99795310Y-85905356D01*
X99865000Y-85912220D01*
X102065000Y-85912220D01*
X102134690Y-85905356D01*
X102201702Y-85885028D01*
X102263461Y-85852018D01*
X102317593Y-85807593D01*
X102362018Y-85753461D01*
X102395028Y-85691702D01*
X102415356Y-85624690D01*
X102422220Y-85555000D01*
X102422220Y-83355000D01*
X102415356Y-83285310D01*
X102395028Y-83218298D01*
X102362018Y-83156539D01*
X102317593Y-83102407D01*
X102263461Y-83057982D01*
X102201702Y-83024972D01*
X102134690Y-83004644D01*
X102065000Y-82997780D01*
X99865000Y-82997780D01*
X99795310Y-83004644D01*
X99728298Y-83024972D01*
X99666539Y-83057982D01*
X99612407Y-83102407D01*
X99567982Y-83156539D01*
X99534972Y-83218298D01*
X99514644Y-83285310D01*
X99507780Y-83355000D01*
X97342220Y-83355000D01*
X97335356Y-83285310D01*
X97315028Y-83218298D01*
X97282018Y-83156539D01*
X97237593Y-83102407D01*
X97183461Y-83057982D01*
X97121702Y-83024972D01*
X97054690Y-83004644D01*
X96985000Y-82997780D01*
X94785000Y-82997780D01*
X94715310Y-83004644D01*
X94648298Y-83024972D01*
X94586539Y-83057982D01*
X94532407Y-83102407D01*
X94487982Y-83156539D01*
X94454972Y-83218298D01*
X94434644Y-83285310D01*
X94427780Y-83355000D01*
X86683388Y-83355000D01*
X86652827Y-83324439D01*
X86414438Y-83165152D01*
X86149554Y-83055434D01*
X85868354Y-82999500D01*
X85581646Y-82999500D01*
X85300446Y-83055434D01*
X85035562Y-83165152D01*
X84797173Y-83324439D01*
X84594439Y-83527173D01*
X84435152Y-83765562D01*
X84325434Y-84030446D01*
X84269500Y-84311646D01*
X84269500Y-84598354D01*
X84325434Y-84879554D01*
X84435152Y-85144438D01*
X84594439Y-85382827D01*
X84797173Y-85585561D01*
X84828510Y-85606500D01*
X76570818Y-85606500D01*
X76393144Y-85589000D01*
X76227885Y-85538870D01*
X76075584Y-85457463D01*
X75945500Y-85350707D01*
X75945500Y-78105000D01*
X78278103Y-78105000D01*
X78289250Y-78218178D01*
X78289250Y-78337021D01*
X78312435Y-78453578D01*
X78323582Y-78566758D01*
X78356596Y-78675591D01*
X78379781Y-78792147D01*
X78425260Y-78901943D01*
X78458273Y-79010772D01*
X78511882Y-79111069D01*
X78557362Y-79220866D01*
X78623387Y-79319679D01*
X78676997Y-79419977D01*
X78749144Y-79507887D01*
X78815170Y-79606703D01*
X78899209Y-79690742D01*
X78971352Y-79778648D01*
X79059258Y-79850791D01*
X79143297Y-79934830D01*
X79242113Y-80000856D01*
X79330023Y-80073003D01*
X79430321Y-80126613D01*
X79529134Y-80192638D01*
X79638931Y-80238118D01*
X79739228Y-80291727D01*
X79848057Y-80324740D01*
X79957853Y-80370219D01*
X80074409Y-80393404D01*
X80183242Y-80426418D01*
X80296422Y-80437565D01*
X80412979Y-80460750D01*
X80531822Y-80460750D01*
X80645000Y-80471897D01*
X80758178Y-80460750D01*
X80877021Y-80460750D01*
X80993578Y-80437565D01*
X81106758Y-80426418D01*
X81215591Y-80393404D01*
X81332147Y-80370219D01*
X81441943Y-80324740D01*
X81550772Y-80291727D01*
X81651069Y-80238118D01*
X81760866Y-80192638D01*
X81859679Y-80126613D01*
X81959977Y-80073003D01*
X82047888Y-80000856D01*
X82146703Y-79934830D01*
X82474830Y-79606703D01*
X82475543Y-79605637D01*
X83620929Y-78460251D01*
X86074373Y-78460251D01*
X86022158Y-78495140D01*
X85875140Y-78642158D01*
X85759628Y-78815033D01*
X85680062Y-79007122D01*
X85639500Y-79211042D01*
X85639500Y-79418958D01*
X85680062Y-79622878D01*
X85759628Y-79814967D01*
X85875140Y-79987842D01*
X86022158Y-80134860D01*
X86195033Y-80250372D01*
X86387122Y-80329938D01*
X86591042Y-80370500D01*
X86798958Y-80370500D01*
X87002878Y-80329938D01*
X87194967Y-80250372D01*
X87367842Y-80134860D01*
X87514860Y-79987842D01*
X87630372Y-79814967D01*
X87709938Y-79622878D01*
X87750500Y-79418958D01*
X87750500Y-79211042D01*
X87709938Y-79007122D01*
X87630372Y-78815033D01*
X87514860Y-78642158D01*
X87367842Y-78495140D01*
X87315627Y-78460251D01*
X91074373Y-78460251D01*
X91022158Y-78495140D01*
X90875140Y-78642158D01*
X90759628Y-78815033D01*
X90680062Y-79007122D01*
X90639500Y-79211042D01*
X90639500Y-79418958D01*
X90680062Y-79622878D01*
X90759628Y-79814967D01*
X90875140Y-79987842D01*
X91022158Y-80134860D01*
X91195033Y-80250372D01*
X91387122Y-80329938D01*
X91591042Y-80370500D01*
X91798958Y-80370500D01*
X92002878Y-80329938D01*
X92194967Y-80250372D01*
X92367842Y-80134860D01*
X92514860Y-79987842D01*
X92630372Y-79814967D01*
X92709938Y-79622878D01*
X92750500Y-79418958D01*
X92750500Y-79211042D01*
X92709938Y-79007122D01*
X92630372Y-78815033D01*
X92514860Y-78642158D01*
X92367842Y-78495140D01*
X92194967Y-78379628D01*
X92176140Y-78371830D01*
X92441021Y-78291479D01*
X92850227Y-78072754D01*
X93208898Y-77778400D01*
X93282668Y-77688511D01*
X95627440Y-75343739D01*
X103062922Y-75343739D01*
X103069480Y-75410325D01*
X103069479Y-93859635D01*
X103062922Y-93926211D01*
X103069479Y-93992787D01*
X103069479Y-93992793D01*
X103089093Y-94191934D01*
X103166601Y-94447447D01*
X103292469Y-94682929D01*
X103461859Y-94889330D01*
X103513579Y-94931776D01*
X108788218Y-100206417D01*
X108830658Y-100258130D01*
X108882371Y-100300570D01*
X108882375Y-100300574D01*
X108981320Y-100381776D01*
X109037059Y-100427520D01*
X109272541Y-100553388D01*
X109450545Y-100607384D01*
X109528053Y-100630896D01*
X109555280Y-100633578D01*
X109727195Y-100650510D01*
X109727201Y-100650510D01*
X109793777Y-100657067D01*
X109860353Y-100650510D01*
X112539697Y-100650510D01*
X112606273Y-100657067D01*
X112672849Y-100650510D01*
X112672856Y-100650510D01*
X112871997Y-100630896D01*
X113127510Y-100553388D01*
X113362992Y-100427520D01*
X113569393Y-100258130D01*
X113611842Y-100206406D01*
X114806421Y-99011829D01*
X114858129Y-98969393D01*
X114900566Y-98917684D01*
X114900574Y-98917676D01*
X115027519Y-98762993D01*
X115027520Y-98762992D01*
X115153388Y-98527510D01*
X115230896Y-98271997D01*
X115250510Y-98072856D01*
X115250510Y-98072850D01*
X115257067Y-98006274D01*
X115250510Y-97939698D01*
X115250510Y-95085000D01*
X116317780Y-95085000D01*
X116317780Y-96685000D01*
X116324644Y-96754690D01*
X116344972Y-96821702D01*
X116377982Y-96883461D01*
X116422407Y-96937593D01*
X116476539Y-96982018D01*
X116538298Y-97015028D01*
X116605310Y-97035356D01*
X116675000Y-97042220D01*
X118275000Y-97042220D01*
X118344690Y-97035356D01*
X118411702Y-97015028D01*
X118473461Y-96982018D01*
X118527593Y-96937593D01*
X118572018Y-96883461D01*
X118605028Y-96821702D01*
X118625356Y-96754690D01*
X118632220Y-96685000D01*
X118632220Y-95085000D01*
X123302780Y-95085000D01*
X123302780Y-96685000D01*
X123309644Y-96754690D01*
X123329972Y-96821702D01*
X123362982Y-96883461D01*
X123407407Y-96937593D01*
X123461539Y-96982018D01*
X123523298Y-97015028D01*
X123590310Y-97035356D01*
X123660000Y-97042220D01*
X125260000Y-97042220D01*
X125329690Y-97035356D01*
X125396702Y-97015028D01*
X125458461Y-96982018D01*
X125512593Y-96937593D01*
X125557018Y-96883461D01*
X125590028Y-96821702D01*
X125610356Y-96754690D01*
X125617220Y-96685000D01*
X125617220Y-95741646D01*
X129989500Y-95741646D01*
X129989500Y-96028354D01*
X130045434Y-96309554D01*
X130155152Y-96574438D01*
X130314439Y-96812827D01*
X130517173Y-97015561D01*
X130755562Y-97174848D01*
X131020446Y-97284566D01*
X131301646Y-97340500D01*
X131588354Y-97340500D01*
X131673671Y-97323530D01*
X132715348Y-98365207D01*
X132742143Y-98397857D01*
X132872410Y-98504764D01*
X133020598Y-98583972D01*
X133021030Y-98584203D01*
X133182292Y-98633121D01*
X133350000Y-98649639D01*
X133392023Y-98645500D01*
X140147780Y-98645500D01*
X140147780Y-100639501D01*
X133599360Y-100639501D01*
X132883530Y-99923671D01*
X132900500Y-99838354D01*
X132900500Y-99551646D01*
X132844566Y-99270446D01*
X132734848Y-99005562D01*
X132575561Y-98767173D01*
X132372827Y-98564439D01*
X132134438Y-98405152D01*
X131869554Y-98295434D01*
X131588354Y-98239500D01*
X131301646Y-98239500D01*
X131020446Y-98295434D01*
X130755562Y-98405152D01*
X130517173Y-98564439D01*
X130314439Y-98767173D01*
X130155152Y-99005562D01*
X130045434Y-99270446D01*
X129989500Y-99551646D01*
X129989500Y-99838354D01*
X130045434Y-100119554D01*
X130155152Y-100384438D01*
X130314439Y-100622827D01*
X130517173Y-100825561D01*
X130755562Y-100984848D01*
X131020446Y-101094566D01*
X131301646Y-101150500D01*
X131588354Y-101150500D01*
X131673671Y-101133530D01*
X132610349Y-102070208D01*
X132637144Y-102102858D01*
X132767411Y-102209765D01*
X132916031Y-102289204D01*
X133077293Y-102338122D01*
X133245001Y-102354640D01*
X133287024Y-102350501D01*
X143222978Y-102350501D01*
X143265001Y-102354640D01*
X143307024Y-102350501D01*
X143432708Y-102338122D01*
X143593971Y-102289204D01*
X143742591Y-102209765D01*
X143872858Y-102102858D01*
X143899653Y-102070208D01*
X147080212Y-98889650D01*
X147112856Y-98862860D01*
X147219763Y-98732593D01*
X147260837Y-98655749D01*
X147431349Y-98769681D01*
X147632538Y-98853016D01*
X147846118Y-98895500D01*
X147850641Y-98895500D01*
X151310349Y-102355208D01*
X151337144Y-102387858D01*
X151467411Y-102494765D01*
X151616031Y-102574204D01*
X151777293Y-102623122D01*
X151945001Y-102639640D01*
X151987024Y-102635501D01*
X162972976Y-102635501D01*
X163014999Y-102639640D01*
X163057022Y-102635501D01*
X163182706Y-102623122D01*
X163343969Y-102574204D01*
X163492589Y-102494765D01*
X163622856Y-102387858D01*
X163649651Y-102355208D01*
X165099644Y-100905216D01*
X165179763Y-100807590D01*
X165259203Y-100658970D01*
X165308121Y-100497708D01*
X165324639Y-100330001D01*
X165308121Y-100162293D01*
X165259203Y-100001031D01*
X165179763Y-99852411D01*
X165072856Y-99722144D01*
X164942589Y-99615237D01*
X164793969Y-99535797D01*
X164632707Y-99486879D01*
X164464999Y-99470361D01*
X164297292Y-99486879D01*
X164136030Y-99535797D01*
X163987410Y-99615237D01*
X163889784Y-99695356D01*
X162660640Y-100924501D01*
X160003816Y-100924501D01*
X160099763Y-100807589D01*
X160179202Y-100658969D01*
X160228121Y-100497707D01*
X160244639Y-100329999D01*
X160228121Y-100162292D01*
X160179202Y-100001030D01*
X160099763Y-99852409D01*
X160019644Y-99754784D01*
X157479652Y-97214793D01*
X157452857Y-97182143D01*
X157322590Y-97075236D01*
X157173970Y-96995797D01*
X157012707Y-96946879D01*
X156918426Y-96937593D01*
X156845000Y-96930361D01*
X156802977Y-96934500D01*
X155012913Y-96934500D01*
X155009715Y-96931302D01*
X154828651Y-96810319D01*
X154627462Y-96726984D01*
X154413882Y-96684500D01*
X154196118Y-96684500D01*
X153982538Y-96726984D01*
X153781349Y-96810319D01*
X153600285Y-96931302D01*
X153446302Y-97085285D01*
X153325319Y-97266349D01*
X153241984Y-97467538D01*
X153199500Y-97681118D01*
X153199500Y-97898882D01*
X153241984Y-98112462D01*
X153325319Y-98313651D01*
X153446302Y-98494715D01*
X153600285Y-98648698D01*
X153781349Y-98769681D01*
X153982538Y-98853016D01*
X154196118Y-98895500D01*
X154413882Y-98895500D01*
X154627462Y-98853016D01*
X154828651Y-98769681D01*
X155009715Y-98648698D01*
X155012913Y-98645500D01*
X156490641Y-98645500D01*
X158769641Y-100924501D01*
X152299360Y-100924501D01*
X149060500Y-97685641D01*
X149060500Y-97681118D01*
X149018016Y-97467538D01*
X148934681Y-97266349D01*
X148813698Y-97085285D01*
X148659715Y-96931302D01*
X148478651Y-96810319D01*
X148277462Y-96726984D01*
X148063882Y-96684500D01*
X147846118Y-96684500D01*
X147701616Y-96713243D01*
X147839645Y-96575215D01*
X147839650Y-96575209D01*
X148059359Y-96355500D01*
X148063882Y-96355500D01*
X148277462Y-96313016D01*
X148478651Y-96229681D01*
X148659715Y-96108698D01*
X148813698Y-95954715D01*
X148934681Y-95773651D01*
X149018016Y-95572462D01*
X149060500Y-95358882D01*
X149060500Y-95141118D01*
X149018016Y-94927538D01*
X148934681Y-94726349D01*
X148887341Y-94655499D01*
X152500640Y-94655499D01*
X152979785Y-95134645D01*
X152979791Y-95134650D01*
X153199500Y-95354359D01*
X153199500Y-95358882D01*
X153241984Y-95572462D01*
X153325319Y-95773651D01*
X153446302Y-95954715D01*
X153600285Y-96108698D01*
X153781349Y-96229681D01*
X153982538Y-96313016D01*
X154196118Y-96355500D01*
X154413882Y-96355500D01*
X154627462Y-96313016D01*
X154828651Y-96229681D01*
X155009715Y-96108698D01*
X155163698Y-95954715D01*
X155284681Y-95773651D01*
X155368016Y-95572462D01*
X155410500Y-95358882D01*
X155410500Y-95141118D01*
X155368016Y-94927538D01*
X155284681Y-94726349D01*
X155163698Y-94545285D01*
X155009715Y-94391302D01*
X154828651Y-94270319D01*
X154627462Y-94186984D01*
X154413882Y-94144500D01*
X154409359Y-94144500D01*
X154189650Y-93924791D01*
X154189645Y-93924785D01*
X153489651Y-93224792D01*
X153462856Y-93192142D01*
X153332589Y-93085235D01*
X153183969Y-93005796D01*
X153022706Y-92956878D01*
X152897022Y-92944499D01*
X152854999Y-92940360D01*
X152812976Y-92944499D01*
X147192026Y-92944499D01*
X147150003Y-92940360D01*
X146982295Y-92956878D01*
X146860345Y-92993871D01*
X146821033Y-93005796D01*
X146672413Y-93085235D01*
X146542146Y-93192142D01*
X146515351Y-93224792D01*
X143062220Y-96677923D01*
X143062220Y-94785000D01*
X143055356Y-94715310D01*
X143035028Y-94648298D01*
X143002018Y-94586539D01*
X142957593Y-94532407D01*
X142903461Y-94487982D01*
X142841702Y-94454972D01*
X142774690Y-94434644D01*
X142705000Y-94427780D01*
X140505000Y-94427780D01*
X140435310Y-94434644D01*
X140368298Y-94454972D01*
X140306539Y-94487982D01*
X140255949Y-94529500D01*
X139066467Y-94529500D01*
X136356500Y-91819535D01*
X136356500Y-90745590D01*
X154868000Y-90745590D01*
X154868000Y-90894410D01*
X154897033Y-91040371D01*
X154953984Y-91177864D01*
X155036664Y-91301603D01*
X155141897Y-91406836D01*
X155265636Y-91489516D01*
X155403129Y-91546467D01*
X155549090Y-91575500D01*
X155593406Y-91575500D01*
X156099000Y-92081095D01*
X156099000Y-92260561D01*
X156067664Y-92291897D01*
X155984984Y-92415636D01*
X155928033Y-92553129D01*
X155899000Y-92699090D01*
X155899000Y-92847910D01*
X155928033Y-92993871D01*
X155984984Y-93131364D01*
X156067664Y-93255103D01*
X156172897Y-93360336D01*
X156296636Y-93443016D01*
X156434129Y-93499967D01*
X156580090Y-93529000D01*
X156728910Y-93529000D01*
X156874871Y-93499967D01*
X157012364Y-93443016D01*
X157136103Y-93360336D01*
X157241336Y-93255103D01*
X157324016Y-93131364D01*
X157380967Y-92993871D01*
X157410000Y-92847910D01*
X157410000Y-92699090D01*
X157380967Y-92553129D01*
X157324016Y-92415636D01*
X157241336Y-92291897D01*
X157210000Y-92260561D01*
X157210000Y-91878279D01*
X157212687Y-91850999D01*
X157208736Y-91810885D01*
X157201962Y-91742103D01*
X157170198Y-91637391D01*
X157118616Y-91540888D01*
X157049198Y-91456302D01*
X157028001Y-91438906D01*
X156379000Y-90789906D01*
X156379000Y-90745590D01*
X156349967Y-90599629D01*
X156293016Y-90462136D01*
X156210336Y-90338397D01*
X156105103Y-90233164D01*
X155981364Y-90150484D01*
X155843871Y-90093533D01*
X155697910Y-90064500D01*
X155549090Y-90064500D01*
X155403129Y-90093533D01*
X155265636Y-90150484D01*
X155141897Y-90233164D01*
X155036664Y-90338397D01*
X154953984Y-90462136D01*
X154897033Y-90599629D01*
X154868000Y-90745590D01*
X136356500Y-90745590D01*
X136356500Y-89406572D01*
X138282486Y-87480587D01*
X146501073Y-79262000D01*
X165664928Y-79262000D01*
X166419501Y-80016573D01*
X166419500Y-82458854D01*
X166419500Y-82458855D01*
X166419501Y-84608077D01*
X166356349Y-84816259D01*
X166320524Y-85180000D01*
X166356349Y-85543741D01*
X166462449Y-85893504D01*
X166634745Y-86215848D01*
X166866616Y-86498384D01*
X167149152Y-86730255D01*
X167471496Y-86902551D01*
X167821259Y-87008651D01*
X168185000Y-87044476D01*
X168548741Y-87008651D01*
X168898504Y-86902551D01*
X169220848Y-86730255D01*
X169432586Y-86556486D01*
X169522583Y-86466489D01*
X169593384Y-86408384D01*
X169825256Y-86125848D01*
X169997552Y-85803504D01*
X170103652Y-85453741D01*
X170130500Y-85181146D01*
X170130500Y-85181137D01*
X170139476Y-85090001D01*
X170130500Y-84998865D01*
X170130500Y-79339135D01*
X170139476Y-79247999D01*
X170130500Y-79156863D01*
X170130500Y-79156854D01*
X170103652Y-78884259D01*
X169997552Y-78534496D01*
X169825256Y-78212152D01*
X169725046Y-78090046D01*
X169651486Y-78000413D01*
X169651485Y-78000412D01*
X169593384Y-77929616D01*
X169522588Y-77871515D01*
X167809989Y-76158917D01*
X167751884Y-76088116D01*
X167469348Y-75856244D01*
X167147004Y-75683948D01*
X166797241Y-75577848D01*
X166524646Y-75551000D01*
X166524636Y-75551000D01*
X166433500Y-75542024D01*
X166342364Y-75551000D01*
X145823635Y-75551000D01*
X145732499Y-75542024D01*
X145641363Y-75551000D01*
X145641354Y-75551000D01*
X145368759Y-75577848D01*
X145018996Y-75683948D01*
X144696652Y-75856244D01*
X144651719Y-75893120D01*
X144500330Y-76017362D01*
X144414116Y-76088116D01*
X144356015Y-76158912D01*
X135658413Y-84856514D01*
X133624514Y-86890414D01*
X133450745Y-87102152D01*
X133278449Y-87424496D01*
X133172349Y-87774259D01*
X133136524Y-88138000D01*
X133172349Y-88501741D01*
X133278449Y-88851504D01*
X133450745Y-89173848D01*
X133645501Y-89411159D01*
X133645500Y-92314424D01*
X133638943Y-92381000D01*
X133645500Y-92447576D01*
X133645500Y-92447582D01*
X133655758Y-92551728D01*
X133665114Y-92646724D01*
X133680999Y-92699090D01*
X133742622Y-92902236D01*
X133868490Y-93137718D01*
X134037880Y-93344119D01*
X134089600Y-93386565D01*
X137499440Y-96796407D01*
X137541880Y-96848120D01*
X137593593Y-96890560D01*
X137593597Y-96890564D01*
X137647133Y-96934500D01*
X133704359Y-96934500D01*
X132883530Y-96113671D01*
X132900500Y-96028354D01*
X132900500Y-95741646D01*
X132844566Y-95460446D01*
X132734848Y-95195562D01*
X132575561Y-94957173D01*
X132372827Y-94754439D01*
X132134438Y-94595152D01*
X131869554Y-94485434D01*
X131588354Y-94429500D01*
X131301646Y-94429500D01*
X131020446Y-94485434D01*
X130755562Y-94595152D01*
X130517173Y-94754439D01*
X130314439Y-94957173D01*
X130155152Y-95195562D01*
X130045434Y-95460446D01*
X129989500Y-95741646D01*
X125617220Y-95741646D01*
X125617220Y-95085000D01*
X125610356Y-95015310D01*
X125590028Y-94948298D01*
X125557018Y-94886539D01*
X125512593Y-94832407D01*
X125458461Y-94787982D01*
X125396702Y-94754972D01*
X125329690Y-94734644D01*
X125260000Y-94727780D01*
X123660000Y-94727780D01*
X123590310Y-94734644D01*
X123523298Y-94754972D01*
X123461539Y-94787982D01*
X123407407Y-94832407D01*
X123362982Y-94886539D01*
X123329972Y-94948298D01*
X123309644Y-95015310D01*
X123302780Y-95085000D01*
X118632220Y-95085000D01*
X118625356Y-95015310D01*
X118605028Y-94948298D01*
X118572018Y-94886539D01*
X118527593Y-94832407D01*
X118473461Y-94787982D01*
X118411702Y-94754972D01*
X118344690Y-94734644D01*
X118275000Y-94727780D01*
X116675000Y-94727780D01*
X116605310Y-94734644D01*
X116538298Y-94754972D01*
X116476539Y-94787982D01*
X116422407Y-94832407D01*
X116377982Y-94886539D01*
X116344972Y-94948298D01*
X116324644Y-95015310D01*
X116317780Y-95085000D01*
X115250510Y-95085000D01*
X115250510Y-91861586D01*
X115257067Y-91795010D01*
X115250510Y-91728434D01*
X115250510Y-91728427D01*
X115230896Y-91529286D01*
X115153388Y-91273773D01*
X115027520Y-91038291D01*
X114858130Y-90831890D01*
X114806411Y-90789445D01*
X112606401Y-88589436D01*
X112451718Y-88462491D01*
X112216237Y-88336623D01*
X111960724Y-88259114D01*
X111695000Y-88232943D01*
X111429276Y-88259114D01*
X111173763Y-88336623D01*
X110938282Y-88462491D01*
X110731880Y-88631880D01*
X110562491Y-88838282D01*
X110436623Y-89073763D01*
X110359114Y-89329276D01*
X110332943Y-89595000D01*
X110359114Y-89860724D01*
X110436623Y-90116237D01*
X110497965Y-90231000D01*
X110180499Y-89913534D01*
X110180499Y-78996466D01*
X110404500Y-78772465D01*
X110404500Y-78899658D01*
X110359114Y-79049276D01*
X110332943Y-79315000D01*
X110359114Y-79580724D01*
X110436623Y-79836237D01*
X110562491Y-80071718D01*
X110731880Y-80278120D01*
X110938282Y-80447509D01*
X111173763Y-80573377D01*
X111429276Y-80650886D01*
X111695000Y-80677057D01*
X111960724Y-80650886D01*
X112216237Y-80573377D01*
X112451718Y-80447509D01*
X112606401Y-80320564D01*
X112671396Y-80255569D01*
X112723120Y-80213120D01*
X112892510Y-80006719D01*
X113018378Y-79771237D01*
X113095886Y-79515723D01*
X113115500Y-79316582D01*
X113115500Y-79316576D01*
X113122057Y-79250000D01*
X113115500Y-79183424D01*
X113115500Y-79172748D01*
X113906847Y-78381402D01*
X113922425Y-78362420D01*
X113941401Y-78346847D01*
X114806410Y-77481838D01*
X114858129Y-77439393D01*
X115027520Y-77232992D01*
X115153388Y-76997510D01*
X115230896Y-76741997D01*
X115250510Y-76542856D01*
X115250510Y-76542849D01*
X115257067Y-76476273D01*
X115250510Y-76409697D01*
X115250510Y-74720302D01*
X115257067Y-74653726D01*
X115250510Y-74587150D01*
X115250510Y-74587144D01*
X115230896Y-74388003D01*
X115153388Y-74132490D01*
X115027520Y-73897008D01*
X114858130Y-73690607D01*
X114806411Y-73648162D01*
X113867685Y-72709437D01*
X113713002Y-72582492D01*
X113477521Y-72456624D01*
X113222008Y-72379115D01*
X112956284Y-72352944D01*
X112859147Y-72362511D01*
X112953378Y-72186217D01*
X113030886Y-71930704D01*
X113057058Y-71664980D01*
X113030886Y-71399256D01*
X112953378Y-71143743D01*
X112827510Y-70908261D01*
X112658120Y-70701860D01*
X112451719Y-70532470D01*
X112216237Y-70406602D01*
X112179563Y-70395477D01*
X112096711Y-70327482D01*
X111861229Y-70201614D01*
X111605716Y-70124106D01*
X111406575Y-70104492D01*
X111406568Y-70104492D01*
X111339992Y-70097935D01*
X111273416Y-70104492D01*
X108375302Y-70104492D01*
X108308726Y-70097935D01*
X108242150Y-70104492D01*
X108242143Y-70104492D01*
X108067698Y-70121674D01*
X108043001Y-70124106D01*
X107787488Y-70201614D01*
X107705464Y-70245458D01*
X107552007Y-70327482D01*
X107345606Y-70496872D01*
X107303161Y-70548591D01*
X103513579Y-74338174D01*
X103461860Y-74380619D01*
X103292470Y-74587020D01*
X103230492Y-74702973D01*
X103166602Y-74822502D01*
X103089093Y-75078015D01*
X103062922Y-75343739D01*
X95627440Y-75343739D01*
X97632413Y-73338767D01*
X97632417Y-73338762D01*
X104478710Y-66492470D01*
X105505250Y-66492470D01*
X105574940Y-66485606D01*
X105641952Y-66465278D01*
X105703711Y-66432268D01*
X105757843Y-66387843D01*
X105802268Y-66333711D01*
X105835278Y-66271952D01*
X105855606Y-66204940D01*
X105862470Y-66135250D01*
X105862470Y-64230705D01*
X105871896Y-64135001D01*
X105862470Y-64039297D01*
X105862470Y-63902979D01*
X106229250Y-63902979D01*
X106229250Y-64367021D01*
X106319781Y-64822147D01*
X106497362Y-65250866D01*
X106755170Y-65636703D01*
X107083297Y-65964830D01*
X107469134Y-66222638D01*
X107897853Y-66400219D01*
X108352979Y-66490750D01*
X108817021Y-66490750D01*
X109272147Y-66400219D01*
X109700866Y-66222638D01*
X110086703Y-65964830D01*
X110414830Y-65636703D01*
X110672638Y-65250866D01*
X110850219Y-64822147D01*
X110940750Y-64367021D01*
X110940750Y-63902979D01*
X111309250Y-63902979D01*
X111309250Y-64367021D01*
X111399781Y-64822147D01*
X111577362Y-65250866D01*
X111835170Y-65636703D01*
X112163297Y-65964830D01*
X112549134Y-66222638D01*
X112977853Y-66400219D01*
X113432979Y-66490750D01*
X113897021Y-66490750D01*
X114352147Y-66400219D01*
X114780866Y-66222638D01*
X115166703Y-65964830D01*
X115494830Y-65636703D01*
X115752638Y-65250866D01*
X115930219Y-64822147D01*
X116020750Y-64367021D01*
X116020750Y-63902979D01*
X116389250Y-63902979D01*
X116389250Y-64367021D01*
X116479781Y-64822147D01*
X116657362Y-65250866D01*
X116915170Y-65636703D01*
X117243297Y-65964830D01*
X117629134Y-66222638D01*
X118057853Y-66400219D01*
X118512979Y-66490750D01*
X118977021Y-66490750D01*
X119432147Y-66400219D01*
X119860866Y-66222638D01*
X120246703Y-65964830D01*
X120574830Y-65636703D01*
X120832638Y-65250866D01*
X121010219Y-64822147D01*
X121100750Y-64367021D01*
X121100750Y-63902979D01*
X121010219Y-63447853D01*
X120832638Y-63019134D01*
X120574830Y-62633297D01*
X120246703Y-62305170D01*
X119860866Y-62047362D01*
X119432147Y-61869781D01*
X118977021Y-61779250D01*
X118512979Y-61779250D01*
X118057853Y-61869781D01*
X117629134Y-62047362D01*
X117243297Y-62305170D01*
X116915170Y-62633297D01*
X116657362Y-63019134D01*
X116479781Y-63447853D01*
X116389250Y-63902979D01*
X116020750Y-63902979D01*
X115930219Y-63447853D01*
X115752638Y-63019134D01*
X115494830Y-62633297D01*
X115166703Y-62305170D01*
X114780866Y-62047362D01*
X114352147Y-61869781D01*
X113897021Y-61779250D01*
X113432979Y-61779250D01*
X112977853Y-61869781D01*
X112549134Y-62047362D01*
X112163297Y-62305170D01*
X111835170Y-62633297D01*
X111577362Y-63019134D01*
X111399781Y-63447853D01*
X111309250Y-63902979D01*
X110940750Y-63902979D01*
X110850219Y-63447853D01*
X110672638Y-63019134D01*
X110414830Y-62633297D01*
X110086703Y-62305170D01*
X109700866Y-62047362D01*
X109272147Y-61869781D01*
X108817021Y-61779250D01*
X108352979Y-61779250D01*
X107897853Y-61869781D01*
X107469134Y-62047362D01*
X107083297Y-62305170D01*
X106755170Y-62633297D01*
X106497362Y-63019134D01*
X106319781Y-63447853D01*
X106229250Y-63902979D01*
X105862470Y-63902979D01*
X105862470Y-62134750D01*
X105855606Y-62065060D01*
X105835278Y-61998048D01*
X105802268Y-61936289D01*
X105757843Y-61882157D01*
X105703711Y-61837732D01*
X105641952Y-61804722D01*
X105574940Y-61784394D01*
X105505250Y-61777530D01*
X103600703Y-61777530D01*
X103504999Y-61768104D01*
X103409295Y-61777530D01*
X101504750Y-61777530D01*
X101435060Y-61784394D01*
X101368048Y-61804722D01*
X101306289Y-61837732D01*
X101252157Y-61882157D01*
X101207732Y-61936289D01*
X101174722Y-61998048D01*
X101154394Y-62065060D01*
X101147530Y-62134750D01*
X101147530Y-63161290D01*
X94301238Y-70007583D01*
X94301233Y-70007587D01*
X92725162Y-71583658D01*
X92709938Y-71507122D01*
X92630372Y-71315033D01*
X92514860Y-71142158D01*
X92367842Y-70995140D01*
X92194967Y-70879628D01*
X92002878Y-70800062D01*
X91798958Y-70759500D01*
X91591042Y-70759500D01*
X91387122Y-70800062D01*
X91195033Y-70879628D01*
X91022158Y-70995140D01*
X90875140Y-71142158D01*
X90759628Y-71315033D01*
X90680062Y-71507122D01*
X90639500Y-71711042D01*
X90639500Y-71918958D01*
X90680062Y-72122878D01*
X90759628Y-72314967D01*
X90875140Y-72487842D01*
X91022158Y-72634860D01*
X91195033Y-72750372D01*
X91387122Y-72829938D01*
X91463659Y-72845162D01*
X90559570Y-73749251D01*
X82760954Y-73749251D01*
X82645248Y-73737855D01*
X82529542Y-73749251D01*
X82529533Y-73749251D01*
X82183490Y-73783333D01*
X81739477Y-73918023D01*
X81330271Y-74136748D01*
X80971600Y-74431102D01*
X80897835Y-74520985D01*
X79144363Y-76274457D01*
X79143297Y-76275170D01*
X78815170Y-76603297D01*
X78749144Y-76702112D01*
X78676997Y-76790023D01*
X78623387Y-76890321D01*
X78557362Y-76989134D01*
X78511882Y-77098931D01*
X78458273Y-77199228D01*
X78425260Y-77308057D01*
X78379781Y-77417853D01*
X78356596Y-77534409D01*
X78323582Y-77643242D01*
X78312435Y-77756422D01*
X78289250Y-77872979D01*
X78289250Y-77991822D01*
X78278103Y-78105000D01*
X75945500Y-78105000D01*
X75945500Y-71522979D01*
X78289250Y-71522979D01*
X78289250Y-71987021D01*
X78379781Y-72442147D01*
X78557362Y-72870866D01*
X78815170Y-73256703D01*
X79143297Y-73584830D01*
X79529134Y-73842638D01*
X79957853Y-74020219D01*
X80412979Y-74110750D01*
X80877021Y-74110750D01*
X81332147Y-74020219D01*
X81760866Y-73842638D01*
X82146703Y-73584830D01*
X82474830Y-73256703D01*
X82732638Y-72870866D01*
X82910219Y-72442147D01*
X83000750Y-71987021D01*
X83000750Y-71711042D01*
X85639500Y-71711042D01*
X85639500Y-71918958D01*
X85680062Y-72122878D01*
X85759628Y-72314967D01*
X85875140Y-72487842D01*
X86022158Y-72634860D01*
X86195033Y-72750372D01*
X86387122Y-72829938D01*
X86591042Y-72870500D01*
X86798958Y-72870500D01*
X87002878Y-72829938D01*
X87194967Y-72750372D01*
X87367842Y-72634860D01*
X87514860Y-72487842D01*
X87630372Y-72314967D01*
X87709938Y-72122878D01*
X87750500Y-71918958D01*
X87750500Y-71711042D01*
X87709938Y-71507122D01*
X87630372Y-71315033D01*
X87514860Y-71142158D01*
X87367842Y-70995140D01*
X87194967Y-70879628D01*
X87002878Y-70800062D01*
X86798958Y-70759500D01*
X86591042Y-70759500D01*
X86387122Y-70800062D01*
X86195033Y-70879628D01*
X86022158Y-70995140D01*
X85875140Y-71142158D01*
X85759628Y-71315033D01*
X85680062Y-71507122D01*
X85639500Y-71711042D01*
X83000750Y-71711042D01*
X83000750Y-71522979D01*
X82910219Y-71067853D01*
X82732638Y-70639134D01*
X82474830Y-70253297D01*
X82146703Y-69925170D01*
X81760866Y-69667362D01*
X81332147Y-69489781D01*
X80877021Y-69399250D01*
X80412979Y-69399250D01*
X79957853Y-69489781D01*
X79529134Y-69667362D01*
X79143297Y-69925170D01*
X78815170Y-70253297D01*
X78557362Y-70639134D01*
X78379781Y-71067853D01*
X78289250Y-71522979D01*
X75945500Y-71522979D01*
X75945500Y-62134750D01*
X78287530Y-62134750D01*
X78287530Y-66135250D01*
X78294394Y-66204940D01*
X78314722Y-66271952D01*
X78347732Y-66333711D01*
X78392157Y-66387843D01*
X78446289Y-66432268D01*
X78508048Y-66465278D01*
X78575060Y-66485606D01*
X78644750Y-66492470D01*
X82645250Y-66492470D01*
X82714940Y-66485606D01*
X82781952Y-66465278D01*
X82843711Y-66432268D01*
X82897843Y-66387843D01*
X82942268Y-66333711D01*
X82975278Y-66271952D01*
X82995606Y-66204940D01*
X83002470Y-66135250D01*
X83002470Y-63902979D01*
X83369250Y-63902979D01*
X83369250Y-64367021D01*
X83459781Y-64822147D01*
X83637362Y-65250866D01*
X83895170Y-65636703D01*
X84223297Y-65964830D01*
X84609134Y-66222638D01*
X85037853Y-66400219D01*
X85492979Y-66490750D01*
X85957021Y-66490750D01*
X86412147Y-66400219D01*
X86840866Y-66222638D01*
X87226703Y-65964830D01*
X87554830Y-65636703D01*
X87812638Y-65250866D01*
X87990219Y-64822147D01*
X88080750Y-64367021D01*
X88080750Y-63902979D01*
X88449250Y-63902979D01*
X88449250Y-64367021D01*
X88539781Y-64822147D01*
X88717362Y-65250866D01*
X88975170Y-65636703D01*
X89303297Y-65964830D01*
X89689134Y-66222638D01*
X90117853Y-66400219D01*
X90572979Y-66490750D01*
X91037021Y-66490750D01*
X91492147Y-66400219D01*
X91920866Y-66222638D01*
X92306703Y-65964830D01*
X92634830Y-65636703D01*
X92892638Y-65250866D01*
X93070219Y-64822147D01*
X93160750Y-64367021D01*
X93160750Y-63902979D01*
X93529250Y-63902979D01*
X93529250Y-64367021D01*
X93619781Y-64822147D01*
X93797362Y-65250866D01*
X94055170Y-65636703D01*
X94383297Y-65964830D01*
X94769134Y-66222638D01*
X95197853Y-66400219D01*
X95652979Y-66490750D01*
X96117021Y-66490750D01*
X96572147Y-66400219D01*
X97000866Y-66222638D01*
X97386703Y-65964830D01*
X97714830Y-65636703D01*
X97972638Y-65250866D01*
X98150219Y-64822147D01*
X98240750Y-64367021D01*
X98240750Y-63902979D01*
X98150219Y-63447853D01*
X97972638Y-63019134D01*
X97714830Y-62633297D01*
X97386703Y-62305170D01*
X97000866Y-62047362D01*
X96572147Y-61869781D01*
X96117021Y-61779250D01*
X95652979Y-61779250D01*
X95197853Y-61869781D01*
X94769134Y-62047362D01*
X94383297Y-62305170D01*
X94055170Y-62633297D01*
X93797362Y-63019134D01*
X93619781Y-63447853D01*
X93529250Y-63902979D01*
X93160750Y-63902979D01*
X93070219Y-63447853D01*
X92892638Y-63019134D01*
X92634830Y-62633297D01*
X92306703Y-62305170D01*
X91920866Y-62047362D01*
X91492147Y-61869781D01*
X91037021Y-61779250D01*
X90572979Y-61779250D01*
X90117853Y-61869781D01*
X89689134Y-62047362D01*
X89303297Y-62305170D01*
X88975170Y-62633297D01*
X88717362Y-63019134D01*
X88539781Y-63447853D01*
X88449250Y-63902979D01*
X88080750Y-63902979D01*
X87990219Y-63447853D01*
X87812638Y-63019134D01*
X87554830Y-62633297D01*
X87226703Y-62305170D01*
X86840866Y-62047362D01*
X86412147Y-61869781D01*
X85957021Y-61779250D01*
X85492979Y-61779250D01*
X85037853Y-61869781D01*
X84609134Y-62047362D01*
X84223297Y-62305170D01*
X83895170Y-62633297D01*
X83637362Y-63019134D01*
X83459781Y-63447853D01*
X83369250Y-63902979D01*
X83002470Y-63902979D01*
X83002470Y-62134750D01*
X82995606Y-62065060D01*
X82975278Y-61998048D01*
X82942268Y-61936289D01*
X82897843Y-61882157D01*
X82843711Y-61837732D01*
X82781952Y-61804722D01*
X82714940Y-61784394D01*
X82645250Y-61777530D01*
X78644750Y-61777530D01*
X78575060Y-61784394D01*
X78508048Y-61804722D01*
X78446289Y-61837732D01*
X78392157Y-61882157D01*
X78347732Y-61936289D01*
X78314722Y-61998048D01*
X78294394Y-62065060D01*
X78287530Y-62134750D01*
X75945500Y-62134750D01*
X75945500Y-59435500D01*
X182499500Y-59435500D01*
X182499500Y-63510338D01*
M02*
