G04 #@! TF.GenerationSoftware,KiCad,Pcbnew,(5.1.5)-3*
G04 #@! TF.CreationDate,2020-09-30T13:47:12-04:00*
G04 #@! TF.ProjectId,PowerSync,506f7765-7253-4796-9e63-2e6b69636164,rev?*
G04 #@! TF.SameCoordinates,Original*
G04 #@! TF.FileFunction,Legend,Bot*
G04 #@! TF.FilePolarity,Positive*
%FSLAX46Y46*%
G04 Gerber Fmt 4.6, Leading zero omitted, Abs format (unit mm)*
G04 Created by KiCad (PCBNEW (5.1.5)-3) date 2020-09-30 13:47:12*
%MOMM*%
%LPD*%
G04 APERTURE LIST*
%ADD10C,0.300000*%
%ADD11C,0.400000*%
%ADD12C,0.010000*%
G04 APERTURE END LIST*
D10*
X102392857Y-71454285D02*
X102488095Y-71549523D01*
X102773809Y-71644761D01*
X102964285Y-71644761D01*
X103250000Y-71549523D01*
X103440476Y-71359047D01*
X103535714Y-71168571D01*
X103630952Y-70787619D01*
X103630952Y-70501904D01*
X103535714Y-70120952D01*
X103440476Y-69930476D01*
X103250000Y-69740000D01*
X102964285Y-69644761D01*
X102773809Y-69644761D01*
X102488095Y-69740000D01*
X102392857Y-69835238D01*
X101250000Y-71644761D02*
X101440476Y-71549523D01*
X101535714Y-71454285D01*
X101630952Y-71263809D01*
X101630952Y-70692380D01*
X101535714Y-70501904D01*
X101440476Y-70406666D01*
X101250000Y-70311428D01*
X100964285Y-70311428D01*
X100773809Y-70406666D01*
X100678571Y-70501904D01*
X100583333Y-70692380D01*
X100583333Y-71263809D01*
X100678571Y-71454285D01*
X100773809Y-71549523D01*
X100964285Y-71644761D01*
X101250000Y-71644761D01*
X99726190Y-71644761D02*
X99726190Y-70311428D01*
X99726190Y-70501904D02*
X99630952Y-70406666D01*
X99440476Y-70311428D01*
X99154761Y-70311428D01*
X98964285Y-70406666D01*
X98869047Y-70597142D01*
X98869047Y-71644761D01*
X98869047Y-70597142D02*
X98773809Y-70406666D01*
X98583333Y-70311428D01*
X98297619Y-70311428D01*
X98107142Y-70406666D01*
X98011904Y-70597142D01*
X98011904Y-71644761D01*
X97059523Y-71644761D02*
X97059523Y-70311428D01*
X97059523Y-70501904D02*
X96964285Y-70406666D01*
X96773809Y-70311428D01*
X96488095Y-70311428D01*
X96297619Y-70406666D01*
X96202380Y-70597142D01*
X96202380Y-71644761D01*
X96202380Y-70597142D02*
X96107142Y-70406666D01*
X95916666Y-70311428D01*
X95630952Y-70311428D01*
X95440476Y-70406666D01*
X95345238Y-70597142D01*
X95345238Y-71644761D01*
X94107142Y-71644761D02*
X94297619Y-71549523D01*
X94392857Y-71454285D01*
X94488095Y-71263809D01*
X94488095Y-70692380D01*
X94392857Y-70501904D01*
X94297619Y-70406666D01*
X94107142Y-70311428D01*
X93821428Y-70311428D01*
X93630952Y-70406666D01*
X93535714Y-70501904D01*
X93440476Y-70692380D01*
X93440476Y-71263809D01*
X93535714Y-71454285D01*
X93630952Y-71549523D01*
X93821428Y-71644761D01*
X94107142Y-71644761D01*
X91726190Y-71644761D02*
X91726190Y-69644761D01*
X91726190Y-71549523D02*
X91916666Y-71644761D01*
X92297619Y-71644761D01*
X92488095Y-71549523D01*
X92583333Y-71454285D01*
X92678571Y-71263809D01*
X92678571Y-70692380D01*
X92583333Y-70501904D01*
X92488095Y-70406666D01*
X92297619Y-70311428D01*
X91916666Y-70311428D01*
X91726190Y-70406666D01*
X90488095Y-71644761D02*
X90678571Y-71549523D01*
X90773809Y-71454285D01*
X90869047Y-71263809D01*
X90869047Y-70692380D01*
X90773809Y-70501904D01*
X90678571Y-70406666D01*
X90488095Y-70311428D01*
X90202380Y-70311428D01*
X90011904Y-70406666D01*
X89916666Y-70501904D01*
X89821428Y-70692380D01*
X89821428Y-71263809D01*
X89916666Y-71454285D01*
X90011904Y-71549523D01*
X90202380Y-71644761D01*
X90488095Y-71644761D01*
X88964285Y-71644761D02*
X88964285Y-70311428D01*
X88964285Y-70692380D02*
X88869047Y-70501904D01*
X88773809Y-70406666D01*
X88583333Y-70311428D01*
X88392857Y-70311428D01*
X86964285Y-71549523D02*
X87154761Y-71644761D01*
X87535714Y-71644761D01*
X87726190Y-71549523D01*
X87821428Y-71359047D01*
X87821428Y-70597142D01*
X87726190Y-70406666D01*
X87535714Y-70311428D01*
X87154761Y-70311428D01*
X86964285Y-70406666D01*
X86869047Y-70597142D01*
X86869047Y-70787619D01*
X87821428Y-70978095D01*
X102678571Y-74944761D02*
X102678571Y-72944761D01*
X101916666Y-72944761D01*
X101726190Y-73040000D01*
X101630952Y-73135238D01*
X101535714Y-73325714D01*
X101535714Y-73611428D01*
X101630952Y-73801904D01*
X101726190Y-73897142D01*
X101916666Y-73992380D01*
X102678571Y-73992380D01*
X100392857Y-74944761D02*
X100583333Y-74849523D01*
X100678571Y-74754285D01*
X100773809Y-74563809D01*
X100773809Y-73992380D01*
X100678571Y-73801904D01*
X100583333Y-73706666D01*
X100392857Y-73611428D01*
X100107142Y-73611428D01*
X99916666Y-73706666D01*
X99821428Y-73801904D01*
X99726190Y-73992380D01*
X99726190Y-74563809D01*
X99821428Y-74754285D01*
X99916666Y-74849523D01*
X100107142Y-74944761D01*
X100392857Y-74944761D01*
X99059523Y-73611428D02*
X98678571Y-74944761D01*
X98297619Y-73992380D01*
X97916666Y-74944761D01*
X97535714Y-73611428D01*
X96011904Y-74849523D02*
X96202380Y-74944761D01*
X96583333Y-74944761D01*
X96773809Y-74849523D01*
X96869047Y-74659047D01*
X96869047Y-73897142D01*
X96773809Y-73706666D01*
X96583333Y-73611428D01*
X96202380Y-73611428D01*
X96011904Y-73706666D01*
X95916666Y-73897142D01*
X95916666Y-74087619D01*
X96869047Y-74278095D01*
X95059523Y-74944761D02*
X95059523Y-73611428D01*
X95059523Y-73992380D02*
X94964285Y-73801904D01*
X94869047Y-73706666D01*
X94678571Y-73611428D01*
X94488095Y-73611428D01*
X93916666Y-74849523D02*
X93630952Y-74944761D01*
X93154761Y-74944761D01*
X92964285Y-74849523D01*
X92869047Y-74754285D01*
X92773809Y-74563809D01*
X92773809Y-74373333D01*
X92869047Y-74182857D01*
X92964285Y-74087619D01*
X93154761Y-73992380D01*
X93535714Y-73897142D01*
X93726190Y-73801904D01*
X93821428Y-73706666D01*
X93916666Y-73516190D01*
X93916666Y-73325714D01*
X93821428Y-73135238D01*
X93726190Y-73040000D01*
X93535714Y-72944761D01*
X93059523Y-72944761D01*
X92773809Y-73040000D01*
X92107142Y-73611428D02*
X91630952Y-74944761D01*
X91154761Y-73611428D02*
X91630952Y-74944761D01*
X91821428Y-75420952D01*
X91916666Y-75516190D01*
X92107142Y-75611428D01*
X90392857Y-73611428D02*
X90392857Y-74944761D01*
X90392857Y-73801904D02*
X90297619Y-73706666D01*
X90107142Y-73611428D01*
X89821428Y-73611428D01*
X89630952Y-73706666D01*
X89535714Y-73897142D01*
X89535714Y-74944761D01*
X87726190Y-74849523D02*
X87916666Y-74944761D01*
X88297619Y-74944761D01*
X88488095Y-74849523D01*
X88583333Y-74754285D01*
X88678571Y-74563809D01*
X88678571Y-73992380D01*
X88583333Y-73801904D01*
X88488095Y-73706666D01*
X88297619Y-73611428D01*
X87916666Y-73611428D01*
X87726190Y-73706666D01*
D11*
X107751357Y-65102357D02*
X105608500Y-65102357D01*
X105179928Y-65197595D01*
X104894214Y-65388071D01*
X104751357Y-65673785D01*
X104751357Y-65864261D01*
X104751357Y-63292833D02*
X106322785Y-63292833D01*
X106608500Y-63388071D01*
X106751357Y-63578547D01*
X106751357Y-63959500D01*
X106608500Y-64149976D01*
X104894214Y-63292833D02*
X104751357Y-63483309D01*
X104751357Y-63959500D01*
X104894214Y-64149976D01*
X105179928Y-64245214D01*
X105465642Y-64245214D01*
X105751357Y-64149976D01*
X105894214Y-63959500D01*
X105894214Y-63483309D01*
X106037071Y-63292833D01*
X106751357Y-62530928D02*
X104751357Y-62054738D01*
X106751357Y-61578547D02*
X104751357Y-62054738D01*
X104037071Y-62245214D01*
X103894214Y-62340452D01*
X103751357Y-62530928D01*
X104894214Y-60911880D02*
X104751357Y-60721404D01*
X104751357Y-60340452D01*
X104894214Y-60149976D01*
X105179928Y-60054738D01*
X105322785Y-60054738D01*
X105608500Y-60149976D01*
X105751357Y-60340452D01*
X105751357Y-60626166D01*
X105894214Y-60816642D01*
X106179928Y-60911880D01*
X106322785Y-60911880D01*
X106608500Y-60816642D01*
X106751357Y-60626166D01*
X106751357Y-60340452D01*
X106608500Y-60149976D01*
X106751357Y-59483309D02*
X106751357Y-58721404D01*
X107751357Y-59197595D02*
X105179928Y-59197595D01*
X104894214Y-59102357D01*
X104751357Y-58911880D01*
X104751357Y-58721404D01*
X104751357Y-57769023D02*
X104894214Y-57959500D01*
X105037071Y-58054738D01*
X105322785Y-58149976D01*
X106179928Y-58149976D01*
X106465642Y-58054738D01*
X106608500Y-57959500D01*
X106751357Y-57769023D01*
X106751357Y-57483309D01*
X106608500Y-57292833D01*
X106465642Y-57197595D01*
X106179928Y-57102357D01*
X105322785Y-57102357D01*
X105037071Y-57197595D01*
X104894214Y-57292833D01*
X104751357Y-57483309D01*
X104751357Y-57769023D01*
X106751357Y-56245214D02*
X104751357Y-56245214D01*
X106465642Y-56245214D02*
X106608500Y-56149976D01*
X106751357Y-55959500D01*
X106751357Y-55673785D01*
X106608500Y-55483309D01*
X106322785Y-55388071D01*
X104751357Y-55388071D01*
X104751357Y-54435690D02*
X106751357Y-54435690D01*
X107751357Y-54435690D02*
X107608500Y-54530928D01*
X107465642Y-54435690D01*
X107608500Y-54340452D01*
X107751357Y-54435690D01*
X107465642Y-54435690D01*
X104751357Y-52626166D02*
X106322785Y-52626166D01*
X106608500Y-52721404D01*
X106751357Y-52911880D01*
X106751357Y-53292833D01*
X106608500Y-53483309D01*
X104894214Y-52626166D02*
X104751357Y-52816642D01*
X104751357Y-53292833D01*
X104894214Y-53483309D01*
X105179928Y-53578547D01*
X105465642Y-53578547D01*
X105751357Y-53483309D01*
X105894214Y-53292833D01*
X105894214Y-52816642D01*
X106037071Y-52626166D01*
X106751357Y-51673785D02*
X104751357Y-51673785D01*
X106465642Y-51673785D02*
X106608500Y-51578547D01*
X106751357Y-51388071D01*
X106751357Y-51102357D01*
X106608500Y-50911880D01*
X106322785Y-50816642D01*
X104751357Y-50816642D01*
X107751357Y-49769023D02*
X107179928Y-49959500D01*
X104894214Y-49007119D02*
X104751357Y-48816642D01*
X104751357Y-48435690D01*
X104894214Y-48245214D01*
X105179928Y-48149976D01*
X105322785Y-48149976D01*
X105608500Y-48245214D01*
X105751357Y-48435690D01*
X105751357Y-48721404D01*
X105894214Y-48911880D01*
X106179928Y-49007119D01*
X106322785Y-49007119D01*
X106608500Y-48911880D01*
X106751357Y-48721404D01*
X106751357Y-48435690D01*
X106608500Y-48245214D01*
D12*
G36*
X101811040Y-55711195D02*
G01*
X100812458Y-55522943D01*
X100526111Y-54828317D01*
X100239763Y-54133692D01*
X100806414Y-53300372D01*
X100964189Y-53066999D01*
X101105061Y-52856043D01*
X101222599Y-52677347D01*
X101310371Y-52540756D01*
X101361945Y-52456114D01*
X101373065Y-52433063D01*
X101344465Y-52391537D01*
X101265396Y-52302802D01*
X101145959Y-52176803D01*
X100996256Y-52023486D01*
X100826385Y-51852798D01*
X100646449Y-51674686D01*
X100466546Y-51499094D01*
X100296778Y-51335970D01*
X100147246Y-51195259D01*
X100028048Y-51086908D01*
X99949287Y-51020863D01*
X99922928Y-51005074D01*
X99874334Y-51027797D01*
X99767874Y-51091501D01*
X99613961Y-51189487D01*
X99423009Y-51315059D01*
X99205431Y-51461518D01*
X99081329Y-51546385D01*
X98854721Y-51701074D01*
X98650230Y-51838530D01*
X98478035Y-51952086D01*
X98348315Y-52035072D01*
X98271249Y-52080822D01*
X98255053Y-52087697D01*
X98209025Y-52072112D01*
X98101750Y-52029632D01*
X97948313Y-51966665D01*
X97763794Y-51889621D01*
X97563279Y-51804910D01*
X97361848Y-51718942D01*
X97174585Y-51638127D01*
X97016572Y-51568873D01*
X96902893Y-51517592D01*
X96848630Y-51490691D01*
X96846494Y-51489104D01*
X96836133Y-51446865D01*
X96813018Y-51334374D01*
X96779421Y-51163291D01*
X96737615Y-50945277D01*
X96689873Y-50691991D01*
X96662341Y-50544212D01*
X96610810Y-50273562D01*
X96561775Y-50029103D01*
X96517919Y-49823200D01*
X96481926Y-49668223D01*
X96456479Y-49576538D01*
X96448405Y-49558107D01*
X96393758Y-49540055D01*
X96270338Y-49525490D01*
X96092577Y-49514402D01*
X95874909Y-49506781D01*
X95631765Y-49502616D01*
X95377577Y-49501898D01*
X95126780Y-49504618D01*
X94893804Y-49510765D01*
X94693082Y-49520329D01*
X94539046Y-49533301D01*
X94446130Y-49549671D01*
X94426787Y-49559489D01*
X94403602Y-49618177D01*
X94370456Y-49742534D01*
X94331242Y-49916110D01*
X94289855Y-50122458D01*
X94276466Y-50194489D01*
X94212853Y-50541781D01*
X94161622Y-50816117D01*
X94120739Y-51026561D01*
X94088166Y-51182178D01*
X94061868Y-51292033D01*
X94039808Y-51365189D01*
X94019951Y-51410713D01*
X94000259Y-51437667D01*
X93996368Y-51441439D01*
X93933676Y-51479085D01*
X93811669Y-51536514D01*
X93645288Y-51607992D01*
X93449471Y-51687785D01*
X93239160Y-51770157D01*
X93029292Y-51849375D01*
X92834809Y-51919704D01*
X92670650Y-51975411D01*
X92551755Y-52010759D01*
X92493064Y-52020016D01*
X92491008Y-52019244D01*
X92443036Y-51987880D01*
X92337484Y-51916726D01*
X92185340Y-51813260D01*
X91997590Y-51684960D01*
X91785220Y-51539301D01*
X91724870Y-51497820D01*
X91506071Y-51349913D01*
X91306438Y-51219761D01*
X91137435Y-51114455D01*
X91010525Y-51041084D01*
X90937171Y-51006737D01*
X90928159Y-51005074D01*
X90880793Y-51033931D01*
X90786958Y-51113669D01*
X90656739Y-51234038D01*
X90500221Y-51384787D01*
X90327490Y-51555664D01*
X90148629Y-51736421D01*
X89973724Y-51916806D01*
X89812860Y-52086568D01*
X89676122Y-52235458D01*
X89573593Y-52353224D01*
X89515360Y-52429617D01*
X89505852Y-52450750D01*
X89528246Y-52499940D01*
X89588644Y-52600653D01*
X89676871Y-52736483D01*
X89747885Y-52840990D01*
X89878189Y-53030351D01*
X90031616Y-53254601D01*
X90184799Y-53479536D01*
X90266782Y-53600468D01*
X90543647Y-54009796D01*
X90357864Y-54353398D01*
X90276477Y-54509935D01*
X90213216Y-54643046D01*
X90177135Y-54733111D01*
X90172115Y-54756037D01*
X90209183Y-54783605D01*
X90313931Y-54837992D01*
X90476697Y-54915137D01*
X90687819Y-55010982D01*
X90937635Y-55121466D01*
X91216483Y-55242529D01*
X91514701Y-55370111D01*
X91822626Y-55500153D01*
X92130596Y-55628594D01*
X92428950Y-55751374D01*
X92708025Y-55864433D01*
X92958159Y-55963712D01*
X93169690Y-56045151D01*
X93332957Y-56104689D01*
X93438295Y-56138266D01*
X93474473Y-56143666D01*
X93520619Y-56100866D01*
X93595528Y-56007156D01*
X93683636Y-55882127D01*
X93690606Y-55871633D01*
X93949279Y-55548480D01*
X94251062Y-55287913D01*
X94586305Y-55092190D01*
X94945358Y-54963568D01*
X95318574Y-54904305D01*
X95696300Y-54916661D01*
X96068889Y-55002893D01*
X96426690Y-55165259D01*
X96504973Y-55213028D01*
X96821081Y-55461491D01*
X97074921Y-55755019D01*
X97265173Y-56083453D01*
X97390515Y-56436635D01*
X97449628Y-56804405D01*
X97441193Y-57176603D01*
X97363888Y-57543071D01*
X97216394Y-57893649D01*
X96997390Y-58218177D01*
X96908502Y-58318564D01*
X96630256Y-58574051D01*
X96337344Y-58760222D01*
X96009014Y-58887930D01*
X95683867Y-58959056D01*
X95318298Y-58976614D01*
X94950914Y-58918066D01*
X94594134Y-58789358D01*
X94260374Y-58596438D01*
X93962053Y-58345252D01*
X93711589Y-58041748D01*
X93685187Y-58001860D01*
X93598728Y-57875491D01*
X93523816Y-57779427D01*
X93475985Y-57733500D01*
X93474473Y-57732832D01*
X93422733Y-57742692D01*
X93305304Y-57781778D01*
X93131846Y-57846028D01*
X92912021Y-57931380D01*
X92655487Y-58033773D01*
X92371904Y-58149146D01*
X92070933Y-58273437D01*
X91762233Y-58402584D01*
X91455464Y-58532526D01*
X91160286Y-58659202D01*
X90886360Y-58778549D01*
X90643344Y-58886506D01*
X90440899Y-58979012D01*
X90288685Y-59052004D01*
X90196362Y-59101423D01*
X90172115Y-59121323D01*
X90190996Y-59182134D01*
X90241636Y-59295918D01*
X90314983Y-59443055D01*
X90357864Y-59523962D01*
X90543647Y-59867565D01*
X90266782Y-60276893D01*
X90124946Y-60485846D01*
X89968859Y-60714613D01*
X89821891Y-60928991D01*
X89747885Y-61036371D01*
X89646469Y-61187398D01*
X89566102Y-61315282D01*
X89516959Y-61403342D01*
X89506571Y-61431945D01*
X89534595Y-61473576D01*
X89612828Y-61565711D01*
X89733148Y-61699418D01*
X89887432Y-61865765D01*
X90067557Y-62055820D01*
X90183210Y-62176021D01*
X90389833Y-62386315D01*
X90574642Y-62568056D01*
X90729730Y-62713897D01*
X90847193Y-62816491D01*
X90919125Y-62868491D01*
X90933722Y-62873480D01*
X90989247Y-62850329D01*
X91101516Y-62786354D01*
X91259163Y-62688653D01*
X91450821Y-62564320D01*
X91665124Y-62420454D01*
X91724870Y-62379541D01*
X91942018Y-62230467D01*
X92137525Y-62096725D01*
X92300401Y-61985791D01*
X92419663Y-61905144D01*
X92484322Y-61862259D01*
X92491008Y-61858117D01*
X92542538Y-61864312D01*
X92655834Y-61897200D01*
X92815958Y-61951045D01*
X93007968Y-62020113D01*
X93216926Y-62098669D01*
X93427891Y-62180980D01*
X93625924Y-62261311D01*
X93796084Y-62333928D01*
X93923433Y-62393095D01*
X93993029Y-62433080D01*
X93996368Y-62435922D01*
X94016258Y-62460373D01*
X94035927Y-62501669D01*
X94057411Y-62568877D01*
X94082747Y-62671059D01*
X94113971Y-62817281D01*
X94153118Y-63016607D01*
X94202225Y-63278103D01*
X94263328Y-63610831D01*
X94276466Y-63682872D01*
X94317718Y-63896385D01*
X94358074Y-64082522D01*
X94393639Y-64224834D01*
X94420520Y-64306871D01*
X94426787Y-64317872D01*
X94482346Y-64335998D01*
X94606505Y-64350733D01*
X94784831Y-64362064D01*
X95002891Y-64369984D01*
X95246254Y-64374481D01*
X95500486Y-64375546D01*
X95751155Y-64373170D01*
X95983829Y-64367341D01*
X96184076Y-64358051D01*
X96337462Y-64345289D01*
X96429556Y-64329046D01*
X96448405Y-64319254D01*
X96467418Y-64264739D01*
X96498350Y-64140604D01*
X96538518Y-63959215D01*
X96585238Y-63732940D01*
X96635827Y-63474147D01*
X96662341Y-63333149D01*
X96712350Y-63065627D01*
X96757654Y-62827062D01*
X96795979Y-62629114D01*
X96825053Y-62483443D01*
X96842603Y-62401709D01*
X96846494Y-62388257D01*
X96890362Y-62365521D01*
X96996024Y-62317460D01*
X97148387Y-62250481D01*
X97332354Y-62170990D01*
X97532830Y-62085392D01*
X97734719Y-62000095D01*
X97922927Y-61921505D01*
X98082358Y-61856027D01*
X98197916Y-61810069D01*
X98254506Y-61790037D01*
X98256979Y-61789664D01*
X98301621Y-61812374D01*
X98404353Y-61876041D01*
X98554963Y-61973975D01*
X98743243Y-62099483D01*
X98958982Y-62245874D01*
X99082902Y-62330975D01*
X99310117Y-62486045D01*
X99516405Y-62623775D01*
X99691329Y-62737447D01*
X99824455Y-62820339D01*
X99905347Y-62865731D01*
X99923480Y-62872287D01*
X99965688Y-62844105D01*
X100055809Y-62766196D01*
X100183746Y-62648510D01*
X100339404Y-62501000D01*
X100512685Y-62333619D01*
X100693493Y-62156319D01*
X100871733Y-61979052D01*
X101037307Y-61811770D01*
X101180120Y-61664425D01*
X101290075Y-61546970D01*
X101357076Y-61469357D01*
X101373065Y-61443392D01*
X101350581Y-61401116D01*
X101287415Y-61299999D01*
X101189997Y-61149873D01*
X101064757Y-60960570D01*
X100918125Y-60741921D01*
X100806414Y-60576989D01*
X100239763Y-59743669D01*
X100526111Y-59049044D01*
X100812458Y-58354418D01*
X101811040Y-58166166D01*
X102809623Y-57977913D01*
X102809623Y-55899448D01*
X101811040Y-55711195D01*
G37*
X101811040Y-55711195D02*
X100812458Y-55522943D01*
X100526111Y-54828317D01*
X100239763Y-54133692D01*
X100806414Y-53300372D01*
X100964189Y-53066999D01*
X101105061Y-52856043D01*
X101222599Y-52677347D01*
X101310371Y-52540756D01*
X101361945Y-52456114D01*
X101373065Y-52433063D01*
X101344465Y-52391537D01*
X101265396Y-52302802D01*
X101145959Y-52176803D01*
X100996256Y-52023486D01*
X100826385Y-51852798D01*
X100646449Y-51674686D01*
X100466546Y-51499094D01*
X100296778Y-51335970D01*
X100147246Y-51195259D01*
X100028048Y-51086908D01*
X99949287Y-51020863D01*
X99922928Y-51005074D01*
X99874334Y-51027797D01*
X99767874Y-51091501D01*
X99613961Y-51189487D01*
X99423009Y-51315059D01*
X99205431Y-51461518D01*
X99081329Y-51546385D01*
X98854721Y-51701074D01*
X98650230Y-51838530D01*
X98478035Y-51952086D01*
X98348315Y-52035072D01*
X98271249Y-52080822D01*
X98255053Y-52087697D01*
X98209025Y-52072112D01*
X98101750Y-52029632D01*
X97948313Y-51966665D01*
X97763794Y-51889621D01*
X97563279Y-51804910D01*
X97361848Y-51718942D01*
X97174585Y-51638127D01*
X97016572Y-51568873D01*
X96902893Y-51517592D01*
X96848630Y-51490691D01*
X96846494Y-51489104D01*
X96836133Y-51446865D01*
X96813018Y-51334374D01*
X96779421Y-51163291D01*
X96737615Y-50945277D01*
X96689873Y-50691991D01*
X96662341Y-50544212D01*
X96610810Y-50273562D01*
X96561775Y-50029103D01*
X96517919Y-49823200D01*
X96481926Y-49668223D01*
X96456479Y-49576538D01*
X96448405Y-49558107D01*
X96393758Y-49540055D01*
X96270338Y-49525490D01*
X96092577Y-49514402D01*
X95874909Y-49506781D01*
X95631765Y-49502616D01*
X95377577Y-49501898D01*
X95126780Y-49504618D01*
X94893804Y-49510765D01*
X94693082Y-49520329D01*
X94539046Y-49533301D01*
X94446130Y-49549671D01*
X94426787Y-49559489D01*
X94403602Y-49618177D01*
X94370456Y-49742534D01*
X94331242Y-49916110D01*
X94289855Y-50122458D01*
X94276466Y-50194489D01*
X94212853Y-50541781D01*
X94161622Y-50816117D01*
X94120739Y-51026561D01*
X94088166Y-51182178D01*
X94061868Y-51292033D01*
X94039808Y-51365189D01*
X94019951Y-51410713D01*
X94000259Y-51437667D01*
X93996368Y-51441439D01*
X93933676Y-51479085D01*
X93811669Y-51536514D01*
X93645288Y-51607992D01*
X93449471Y-51687785D01*
X93239160Y-51770157D01*
X93029292Y-51849375D01*
X92834809Y-51919704D01*
X92670650Y-51975411D01*
X92551755Y-52010759D01*
X92493064Y-52020016D01*
X92491008Y-52019244D01*
X92443036Y-51987880D01*
X92337484Y-51916726D01*
X92185340Y-51813260D01*
X91997590Y-51684960D01*
X91785220Y-51539301D01*
X91724870Y-51497820D01*
X91506071Y-51349913D01*
X91306438Y-51219761D01*
X91137435Y-51114455D01*
X91010525Y-51041084D01*
X90937171Y-51006737D01*
X90928159Y-51005074D01*
X90880793Y-51033931D01*
X90786958Y-51113669D01*
X90656739Y-51234038D01*
X90500221Y-51384787D01*
X90327490Y-51555664D01*
X90148629Y-51736421D01*
X89973724Y-51916806D01*
X89812860Y-52086568D01*
X89676122Y-52235458D01*
X89573593Y-52353224D01*
X89515360Y-52429617D01*
X89505852Y-52450750D01*
X89528246Y-52499940D01*
X89588644Y-52600653D01*
X89676871Y-52736483D01*
X89747885Y-52840990D01*
X89878189Y-53030351D01*
X90031616Y-53254601D01*
X90184799Y-53479536D01*
X90266782Y-53600468D01*
X90543647Y-54009796D01*
X90357864Y-54353398D01*
X90276477Y-54509935D01*
X90213216Y-54643046D01*
X90177135Y-54733111D01*
X90172115Y-54756037D01*
X90209183Y-54783605D01*
X90313931Y-54837992D01*
X90476697Y-54915137D01*
X90687819Y-55010982D01*
X90937635Y-55121466D01*
X91216483Y-55242529D01*
X91514701Y-55370111D01*
X91822626Y-55500153D01*
X92130596Y-55628594D01*
X92428950Y-55751374D01*
X92708025Y-55864433D01*
X92958159Y-55963712D01*
X93169690Y-56045151D01*
X93332957Y-56104689D01*
X93438295Y-56138266D01*
X93474473Y-56143666D01*
X93520619Y-56100866D01*
X93595528Y-56007156D01*
X93683636Y-55882127D01*
X93690606Y-55871633D01*
X93949279Y-55548480D01*
X94251062Y-55287913D01*
X94586305Y-55092190D01*
X94945358Y-54963568D01*
X95318574Y-54904305D01*
X95696300Y-54916661D01*
X96068889Y-55002893D01*
X96426690Y-55165259D01*
X96504973Y-55213028D01*
X96821081Y-55461491D01*
X97074921Y-55755019D01*
X97265173Y-56083453D01*
X97390515Y-56436635D01*
X97449628Y-56804405D01*
X97441193Y-57176603D01*
X97363888Y-57543071D01*
X97216394Y-57893649D01*
X96997390Y-58218177D01*
X96908502Y-58318564D01*
X96630256Y-58574051D01*
X96337344Y-58760222D01*
X96009014Y-58887930D01*
X95683867Y-58959056D01*
X95318298Y-58976614D01*
X94950914Y-58918066D01*
X94594134Y-58789358D01*
X94260374Y-58596438D01*
X93962053Y-58345252D01*
X93711589Y-58041748D01*
X93685187Y-58001860D01*
X93598728Y-57875491D01*
X93523816Y-57779427D01*
X93475985Y-57733500D01*
X93474473Y-57732832D01*
X93422733Y-57742692D01*
X93305304Y-57781778D01*
X93131846Y-57846028D01*
X92912021Y-57931380D01*
X92655487Y-58033773D01*
X92371904Y-58149146D01*
X92070933Y-58273437D01*
X91762233Y-58402584D01*
X91455464Y-58532526D01*
X91160286Y-58659202D01*
X90886360Y-58778549D01*
X90643344Y-58886506D01*
X90440899Y-58979012D01*
X90288685Y-59052004D01*
X90196362Y-59101423D01*
X90172115Y-59121323D01*
X90190996Y-59182134D01*
X90241636Y-59295918D01*
X90314983Y-59443055D01*
X90357864Y-59523962D01*
X90543647Y-59867565D01*
X90266782Y-60276893D01*
X90124946Y-60485846D01*
X89968859Y-60714613D01*
X89821891Y-60928991D01*
X89747885Y-61036371D01*
X89646469Y-61187398D01*
X89566102Y-61315282D01*
X89516959Y-61403342D01*
X89506571Y-61431945D01*
X89534595Y-61473576D01*
X89612828Y-61565711D01*
X89733148Y-61699418D01*
X89887432Y-61865765D01*
X90067557Y-62055820D01*
X90183210Y-62176021D01*
X90389833Y-62386315D01*
X90574642Y-62568056D01*
X90729730Y-62713897D01*
X90847193Y-62816491D01*
X90919125Y-62868491D01*
X90933722Y-62873480D01*
X90989247Y-62850329D01*
X91101516Y-62786354D01*
X91259163Y-62688653D01*
X91450821Y-62564320D01*
X91665124Y-62420454D01*
X91724870Y-62379541D01*
X91942018Y-62230467D01*
X92137525Y-62096725D01*
X92300401Y-61985791D01*
X92419663Y-61905144D01*
X92484322Y-61862259D01*
X92491008Y-61858117D01*
X92542538Y-61864312D01*
X92655834Y-61897200D01*
X92815958Y-61951045D01*
X93007968Y-62020113D01*
X93216926Y-62098669D01*
X93427891Y-62180980D01*
X93625924Y-62261311D01*
X93796084Y-62333928D01*
X93923433Y-62393095D01*
X93993029Y-62433080D01*
X93996368Y-62435922D01*
X94016258Y-62460373D01*
X94035927Y-62501669D01*
X94057411Y-62568877D01*
X94082747Y-62671059D01*
X94113971Y-62817281D01*
X94153118Y-63016607D01*
X94202225Y-63278103D01*
X94263328Y-63610831D01*
X94276466Y-63682872D01*
X94317718Y-63896385D01*
X94358074Y-64082522D01*
X94393639Y-64224834D01*
X94420520Y-64306871D01*
X94426787Y-64317872D01*
X94482346Y-64335998D01*
X94606505Y-64350733D01*
X94784831Y-64362064D01*
X95002891Y-64369984D01*
X95246254Y-64374481D01*
X95500486Y-64375546D01*
X95751155Y-64373170D01*
X95983829Y-64367341D01*
X96184076Y-64358051D01*
X96337462Y-64345289D01*
X96429556Y-64329046D01*
X96448405Y-64319254D01*
X96467418Y-64264739D01*
X96498350Y-64140604D01*
X96538518Y-63959215D01*
X96585238Y-63732940D01*
X96635827Y-63474147D01*
X96662341Y-63333149D01*
X96712350Y-63065627D01*
X96757654Y-62827062D01*
X96795979Y-62629114D01*
X96825053Y-62483443D01*
X96842603Y-62401709D01*
X96846494Y-62388257D01*
X96890362Y-62365521D01*
X96996024Y-62317460D01*
X97148387Y-62250481D01*
X97332354Y-62170990D01*
X97532830Y-62085392D01*
X97734719Y-62000095D01*
X97922927Y-61921505D01*
X98082358Y-61856027D01*
X98197916Y-61810069D01*
X98254506Y-61790037D01*
X98256979Y-61789664D01*
X98301621Y-61812374D01*
X98404353Y-61876041D01*
X98554963Y-61973975D01*
X98743243Y-62099483D01*
X98958982Y-62245874D01*
X99082902Y-62330975D01*
X99310117Y-62486045D01*
X99516405Y-62623775D01*
X99691329Y-62737447D01*
X99824455Y-62820339D01*
X99905347Y-62865731D01*
X99923480Y-62872287D01*
X99965688Y-62844105D01*
X100055809Y-62766196D01*
X100183746Y-62648510D01*
X100339404Y-62501000D01*
X100512685Y-62333619D01*
X100693493Y-62156319D01*
X100871733Y-61979052D01*
X101037307Y-61811770D01*
X101180120Y-61664425D01*
X101290075Y-61546970D01*
X101357076Y-61469357D01*
X101373065Y-61443392D01*
X101350581Y-61401116D01*
X101287415Y-61299999D01*
X101189997Y-61149873D01*
X101064757Y-60960570D01*
X100918125Y-60741921D01*
X100806414Y-60576989D01*
X100239763Y-59743669D01*
X100526111Y-59049044D01*
X100812458Y-58354418D01*
X101811040Y-58166166D01*
X102809623Y-57977913D01*
X102809623Y-55899448D01*
X101811040Y-55711195D01*
G36*
X88008769Y-51000631D02*
G01*
X87965011Y-50857408D01*
X87909720Y-50765194D01*
X87865996Y-50735156D01*
X87814166Y-50743424D01*
X87732741Y-50797073D01*
X87675073Y-50842437D01*
X87570818Y-50935954D01*
X87526955Y-51006213D01*
X87529818Y-51066107D01*
X87575033Y-51243780D01*
X87572980Y-51374266D01*
X87521739Y-51480227D01*
X87491748Y-51515800D01*
X87386222Y-51629664D01*
X86008147Y-51629664D01*
X86008147Y-52087697D01*
X88006836Y-52087697D01*
X88006836Y-51858680D01*
X88001398Y-51721182D01*
X87982091Y-51650242D01*
X87944424Y-51629673D01*
X87943308Y-51629664D01*
X87903854Y-51619950D01*
X87909000Y-51576022D01*
X87937464Y-51515156D01*
X87990431Y-51389446D01*
X88022297Y-51287366D01*
X88030467Y-51156020D01*
X88008769Y-51000631D01*
G37*
X88008769Y-51000631D02*
X87965011Y-50857408D01*
X87909720Y-50765194D01*
X87865996Y-50735156D01*
X87814166Y-50743424D01*
X87732741Y-50797073D01*
X87675073Y-50842437D01*
X87570818Y-50935954D01*
X87526955Y-51006213D01*
X87529818Y-51066107D01*
X87575033Y-51243780D01*
X87572980Y-51374266D01*
X87521739Y-51480227D01*
X87491748Y-51515800D01*
X87386222Y-51629664D01*
X86008147Y-51629664D01*
X86008147Y-52087697D01*
X88006836Y-52087697D01*
X88006836Y-51858680D01*
X88001398Y-51721182D01*
X87982091Y-51650242D01*
X87944424Y-51629673D01*
X87943308Y-51629664D01*
X87903854Y-51619950D01*
X87909000Y-51576022D01*
X87937464Y-51515156D01*
X87990431Y-51389446D01*
X88022297Y-51287366D01*
X88030467Y-51156020D01*
X88008769Y-51000631D01*
G36*
X87972437Y-59456392D02*
G01*
X87922938Y-59352760D01*
X87851439Y-59252394D01*
X87769147Y-59175932D01*
X87664189Y-59120238D01*
X87524687Y-59082177D01*
X87338767Y-59058615D01*
X87094552Y-59046415D01*
X86780167Y-59042444D01*
X86747246Y-59042382D01*
X86008147Y-59041467D01*
X86008147Y-59499500D01*
X86689519Y-59499500D01*
X86941950Y-59499826D01*
X87124907Y-59502081D01*
X87252193Y-59508181D01*
X87337614Y-59520041D01*
X87394974Y-59539576D01*
X87438076Y-59568703D01*
X87480666Y-59609276D01*
X87572176Y-59751231D01*
X87589157Y-59906194D01*
X87531299Y-60053823D01*
X87488237Y-60105163D01*
X87447751Y-60142853D01*
X87404393Y-60169913D01*
X87344537Y-60188103D01*
X87254559Y-60199184D01*
X87120832Y-60204914D01*
X86929730Y-60207056D01*
X86697089Y-60207369D01*
X86008147Y-60207369D01*
X86008147Y-60665402D01*
X88006836Y-60665402D01*
X88006836Y-60436385D01*
X88001398Y-60298886D01*
X87982091Y-60227947D01*
X87944424Y-60207378D01*
X87943308Y-60207369D01*
X87906419Y-60197825D01*
X87910605Y-60155733D01*
X87951139Y-60072041D01*
X88010776Y-59882227D01*
X88017409Y-59665099D01*
X87972437Y-59456392D01*
G37*
X87972437Y-59456392D02*
X87922938Y-59352760D01*
X87851439Y-59252394D01*
X87769147Y-59175932D01*
X87664189Y-59120238D01*
X87524687Y-59082177D01*
X87338767Y-59058615D01*
X87094552Y-59046415D01*
X86780167Y-59042444D01*
X86747246Y-59042382D01*
X86008147Y-59041467D01*
X86008147Y-59499500D01*
X86689519Y-59499500D01*
X86941950Y-59499826D01*
X87124907Y-59502081D01*
X87252193Y-59508181D01*
X87337614Y-59520041D01*
X87394974Y-59539576D01*
X87438076Y-59568703D01*
X87480666Y-59609276D01*
X87572176Y-59751231D01*
X87589157Y-59906194D01*
X87531299Y-60053823D01*
X87488237Y-60105163D01*
X87447751Y-60142853D01*
X87404393Y-60169913D01*
X87344537Y-60188103D01*
X87254559Y-60199184D01*
X87120832Y-60204914D01*
X86929730Y-60207056D01*
X86697089Y-60207369D01*
X86008147Y-60207369D01*
X86008147Y-60665402D01*
X88006836Y-60665402D01*
X88006836Y-60436385D01*
X88001398Y-60298886D01*
X87982091Y-60227947D01*
X87944424Y-60207378D01*
X87943308Y-60207369D01*
X87906419Y-60197825D01*
X87910605Y-60155733D01*
X87951139Y-60072041D01*
X88010776Y-59882227D01*
X88017409Y-59665099D01*
X87972437Y-59456392D01*
G36*
X88013981Y-48091708D02*
G01*
X87988078Y-47985086D01*
X87893228Y-47780670D01*
X87748367Y-47605875D01*
X87574680Y-47484903D01*
X87535683Y-47468283D01*
X87433535Y-47445484D01*
X87282427Y-47429525D01*
X87129699Y-47424090D01*
X86840934Y-47424090D01*
X86840934Y-48027861D01*
X86839993Y-48276881D01*
X86834277Y-48452311D01*
X86819450Y-48563835D01*
X86791173Y-48621140D01*
X86745110Y-48633912D01*
X86676923Y-48611838D01*
X86597137Y-48572295D01*
X86463983Y-48461991D01*
X86397645Y-48308708D01*
X86399806Y-48121359D01*
X86472009Y-47909137D01*
X86561117Y-47725727D01*
X86440780Y-47573538D01*
X86320442Y-47421349D01*
X86188157Y-47564526D01*
X86063168Y-47755672D01*
X85987811Y-47990747D01*
X85966722Y-48243602D01*
X86004540Y-48488087D01*
X86017372Y-48527533D01*
X86129586Y-48742410D01*
X86296882Y-48902250D01*
X86524252Y-49010420D01*
X86816692Y-49070290D01*
X86822960Y-49070987D01*
X87141668Y-49076348D01*
X87255368Y-49054677D01*
X87255368Y-48631631D01*
X87237884Y-48592778D01*
X87224492Y-48487295D01*
X87216845Y-48331793D01*
X87215688Y-48233251D01*
X87216412Y-48049487D01*
X87221017Y-47934586D01*
X87233152Y-47874134D01*
X87256470Y-47853717D01*
X87294618Y-47858919D01*
X87309377Y-47863283D01*
X87448056Y-47937776D01*
X87559821Y-48054934D01*
X87608934Y-48158327D01*
X87605968Y-48295684D01*
X87544722Y-48434871D01*
X87443317Y-48551626D01*
X87319878Y-48621690D01*
X87255368Y-48631631D01*
X87255368Y-49054677D01*
X87421980Y-49022921D01*
X87657220Y-48916928D01*
X87840716Y-48764589D01*
X87965791Y-48572126D01*
X88025771Y-48345758D01*
X88013981Y-48091708D01*
G37*
X88013981Y-48091708D02*
X87988078Y-47985086D01*
X87893228Y-47780670D01*
X87748367Y-47605875D01*
X87574680Y-47484903D01*
X87535683Y-47468283D01*
X87433535Y-47445484D01*
X87282427Y-47429525D01*
X87129699Y-47424090D01*
X86840934Y-47424090D01*
X86840934Y-48027861D01*
X86839993Y-48276881D01*
X86834277Y-48452311D01*
X86819450Y-48563835D01*
X86791173Y-48621140D01*
X86745110Y-48633912D01*
X86676923Y-48611838D01*
X86597137Y-48572295D01*
X86463983Y-48461991D01*
X86397645Y-48308708D01*
X86399806Y-48121359D01*
X86472009Y-47909137D01*
X86561117Y-47725727D01*
X86440780Y-47573538D01*
X86320442Y-47421349D01*
X86188157Y-47564526D01*
X86063168Y-47755672D01*
X85987811Y-47990747D01*
X85966722Y-48243602D01*
X86004540Y-48488087D01*
X86017372Y-48527533D01*
X86129586Y-48742410D01*
X86296882Y-48902250D01*
X86524252Y-49010420D01*
X86816692Y-49070290D01*
X86822960Y-49070987D01*
X87141668Y-49076348D01*
X87255368Y-49054677D01*
X87255368Y-48631631D01*
X87237884Y-48592778D01*
X87224492Y-48487295D01*
X87216845Y-48331793D01*
X87215688Y-48233251D01*
X87216412Y-48049487D01*
X87221017Y-47934586D01*
X87233152Y-47874134D01*
X87256470Y-47853717D01*
X87294618Y-47858919D01*
X87309377Y-47863283D01*
X87448056Y-47937776D01*
X87559821Y-48054934D01*
X87608934Y-48158327D01*
X87605968Y-48295684D01*
X87544722Y-48434871D01*
X87443317Y-48551626D01*
X87319878Y-48621690D01*
X87255368Y-48631631D01*
X87255368Y-49054677D01*
X87421980Y-49022921D01*
X87657220Y-48916928D01*
X87840716Y-48764589D01*
X87965791Y-48572126D01*
X88025771Y-48345758D01*
X88013981Y-48091708D01*
G36*
X87989398Y-49617212D02*
G01*
X87886910Y-49375957D01*
X87837019Y-49299969D01*
X87760349Y-49202852D01*
X87700064Y-49141888D01*
X87680429Y-49131303D01*
X87636858Y-49161192D01*
X87562923Y-49237681D01*
X87511321Y-49298918D01*
X87376622Y-49466533D01*
X87487990Y-49598886D01*
X87559887Y-49701164D01*
X87584704Y-49800890D01*
X87578643Y-49915025D01*
X87533582Y-50096266D01*
X87440051Y-50221025D01*
X87288846Y-50296842D01*
X87070764Y-50331260D01*
X87070627Y-50331269D01*
X86826876Y-50328292D01*
X86648034Y-50282033D01*
X86526270Y-50189758D01*
X86485036Y-50126850D01*
X86433689Y-49959783D01*
X86433658Y-49781338D01*
X86483478Y-49626085D01*
X86507820Y-49589336D01*
X86569996Y-49497170D01*
X86580187Y-49425113D01*
X86533908Y-49347398D01*
X86450788Y-49261482D01*
X86310479Y-49125489D01*
X86186022Y-49276477D01*
X86045557Y-49509760D01*
X85976334Y-49772827D01*
X85981347Y-50047740D01*
X86027245Y-50228284D01*
X86140751Y-50439306D01*
X86319315Y-50608074D01*
X86445361Y-50684747D01*
X86626209Y-50746846D01*
X86855255Y-50777919D01*
X87103490Y-50778158D01*
X87341907Y-50747757D01*
X87541497Y-50686908D01*
X87561961Y-50677324D01*
X87762659Y-50535398D01*
X87908783Y-50343241D01*
X87997302Y-50116036D01*
X88025185Y-49868965D01*
X87989398Y-49617212D01*
G37*
X87989398Y-49617212D02*
X87886910Y-49375957D01*
X87837019Y-49299969D01*
X87760349Y-49202852D01*
X87700064Y-49141888D01*
X87680429Y-49131303D01*
X87636858Y-49161192D01*
X87562923Y-49237681D01*
X87511321Y-49298918D01*
X87376622Y-49466533D01*
X87487990Y-49598886D01*
X87559887Y-49701164D01*
X87584704Y-49800890D01*
X87578643Y-49915025D01*
X87533582Y-50096266D01*
X87440051Y-50221025D01*
X87288846Y-50296842D01*
X87070764Y-50331260D01*
X87070627Y-50331269D01*
X86826876Y-50328292D01*
X86648034Y-50282033D01*
X86526270Y-50189758D01*
X86485036Y-50126850D01*
X86433689Y-49959783D01*
X86433658Y-49781338D01*
X86483478Y-49626085D01*
X86507820Y-49589336D01*
X86569996Y-49497170D01*
X86580187Y-49425113D01*
X86533908Y-49347398D01*
X86450788Y-49261482D01*
X86310479Y-49125489D01*
X86186022Y-49276477D01*
X86045557Y-49509760D01*
X85976334Y-49772827D01*
X85981347Y-50047740D01*
X86027245Y-50228284D01*
X86140751Y-50439306D01*
X86319315Y-50608074D01*
X86445361Y-50684747D01*
X86626209Y-50746846D01*
X86855255Y-50777919D01*
X87103490Y-50778158D01*
X87341907Y-50747757D01*
X87541497Y-50686908D01*
X87561961Y-50677324D01*
X87762659Y-50535398D01*
X87908783Y-50343241D01*
X87997302Y-50116036D01*
X88025185Y-49868965D01*
X87989398Y-49617212D01*
G36*
X87358689Y-53669992D02*
G01*
X87053302Y-53666056D01*
X86821340Y-53651677D01*
X86653214Y-53622996D01*
X86539329Y-53576152D01*
X86470095Y-53507289D01*
X86435920Y-53412546D01*
X86427189Y-53295238D01*
X86436972Y-53172377D01*
X86472713Y-53079056D01*
X86544005Y-53011416D01*
X86660439Y-52965599D01*
X86831609Y-52937745D01*
X87067104Y-52923996D01*
X87358689Y-52920484D01*
X88006836Y-52920484D01*
X88006836Y-52462451D01*
X86008147Y-52462451D01*
X86008147Y-52691467D01*
X86013742Y-52829529D01*
X86033389Y-52900622D01*
X86070687Y-52920484D01*
X86103906Y-52932446D01*
X86096879Y-52980053D01*
X86049868Y-53076015D01*
X85977346Y-53295952D01*
X85982484Y-53529226D01*
X86061234Y-53752745D01*
X86123442Y-53859187D01*
X86190796Y-53940378D01*
X86275072Y-53999692D01*
X86388043Y-54040504D01*
X86541485Y-54066188D01*
X86747173Y-54080119D01*
X87016882Y-54085671D01*
X87225449Y-54086385D01*
X88006836Y-54086385D01*
X88006836Y-53669992D01*
X87358689Y-53669992D01*
G37*
X87358689Y-53669992D02*
X87053302Y-53666056D01*
X86821340Y-53651677D01*
X86653214Y-53622996D01*
X86539329Y-53576152D01*
X86470095Y-53507289D01*
X86435920Y-53412546D01*
X86427189Y-53295238D01*
X86436972Y-53172377D01*
X86472713Y-53079056D01*
X86544005Y-53011416D01*
X86660439Y-52965599D01*
X86831609Y-52937745D01*
X87067104Y-52923996D01*
X87358689Y-52920484D01*
X88006836Y-52920484D01*
X88006836Y-52462451D01*
X86008147Y-52462451D01*
X86008147Y-52691467D01*
X86013742Y-52829529D01*
X86033389Y-52900622D01*
X86070687Y-52920484D01*
X86103906Y-52932446D01*
X86096879Y-52980053D01*
X86049868Y-53076015D01*
X85977346Y-53295952D01*
X85982484Y-53529226D01*
X86061234Y-53752745D01*
X86123442Y-53859187D01*
X86190796Y-53940378D01*
X86275072Y-53999692D01*
X86388043Y-54040504D01*
X86541485Y-54066188D01*
X86747173Y-54080119D01*
X87016882Y-54085671D01*
X87225449Y-54086385D01*
X88006836Y-54086385D01*
X88006836Y-53669992D01*
X87358689Y-53669992D01*
G36*
X87982195Y-54936979D02*
G01*
X87867495Y-54726364D01*
X87686426Y-54561585D01*
X87539162Y-54483946D01*
X87409093Y-54450614D01*
X87223667Y-54429017D01*
X87010061Y-54419761D01*
X86795450Y-54423455D01*
X86607009Y-54440706D01*
X86506363Y-54460857D01*
X86368677Y-54528833D01*
X86222434Y-54646558D01*
X86094548Y-54788435D01*
X86011937Y-54928868D01*
X86010627Y-54932293D01*
X85974528Y-55106555D01*
X85973635Y-55313073D01*
X86006499Y-55509326D01*
X86032839Y-55585104D01*
X86143516Y-55780279D01*
X86288522Y-55920062D01*
X86480497Y-56011901D01*
X86732080Y-56063246D01*
X86863858Y-56074863D01*
X87029447Y-56073381D01*
X87029447Y-55627041D01*
X86787823Y-55612006D01*
X86603697Y-55568728D01*
X86486051Y-55499949D01*
X86452410Y-55450950D01*
X86428950Y-55325407D01*
X86435896Y-55176182D01*
X86469655Y-55047167D01*
X86488228Y-55013334D01*
X86596401Y-54924072D01*
X86761949Y-54865155D01*
X86963419Y-54840076D01*
X87179354Y-54852326D01*
X87309310Y-54879704D01*
X87459809Y-54958309D01*
X87553886Y-55082396D01*
X87586413Y-55231839D01*
X87552262Y-55386513D01*
X87468727Y-55505326D01*
X87399807Y-55567765D01*
X87331874Y-55604207D01*
X87239936Y-55621577D01*
X87099001Y-55626801D01*
X87029447Y-55627041D01*
X87029447Y-56073381D01*
X87215505Y-56071715D01*
X87503866Y-56014444D01*
X87728951Y-55903043D01*
X87890770Y-55737507D01*
X87989334Y-55517830D01*
X88000764Y-55470658D01*
X88027594Y-55187164D01*
X87982195Y-54936979D01*
G37*
X87982195Y-54936979D02*
X87867495Y-54726364D01*
X87686426Y-54561585D01*
X87539162Y-54483946D01*
X87409093Y-54450614D01*
X87223667Y-54429017D01*
X87010061Y-54419761D01*
X86795450Y-54423455D01*
X86607009Y-54440706D01*
X86506363Y-54460857D01*
X86368677Y-54528833D01*
X86222434Y-54646558D01*
X86094548Y-54788435D01*
X86011937Y-54928868D01*
X86010627Y-54932293D01*
X85974528Y-55106555D01*
X85973635Y-55313073D01*
X86006499Y-55509326D01*
X86032839Y-55585104D01*
X86143516Y-55780279D01*
X86288522Y-55920062D01*
X86480497Y-56011901D01*
X86732080Y-56063246D01*
X86863858Y-56074863D01*
X87029447Y-56073381D01*
X87029447Y-55627041D01*
X86787823Y-55612006D01*
X86603697Y-55568728D01*
X86486051Y-55499949D01*
X86452410Y-55450950D01*
X86428950Y-55325407D01*
X86435896Y-55176182D01*
X86469655Y-55047167D01*
X86488228Y-55013334D01*
X86596401Y-54924072D01*
X86761949Y-54865155D01*
X86963419Y-54840076D01*
X87179354Y-54852326D01*
X87309310Y-54879704D01*
X87459809Y-54958309D01*
X87553886Y-55082396D01*
X87586413Y-55231839D01*
X87552262Y-55386513D01*
X87468727Y-55505326D01*
X87399807Y-55567765D01*
X87331874Y-55604207D01*
X87239936Y-55621577D01*
X87099001Y-55626801D01*
X87029447Y-55627041D01*
X87029447Y-56073381D01*
X87215505Y-56071715D01*
X87503866Y-56014444D01*
X87728951Y-55903043D01*
X87890770Y-55737507D01*
X87989334Y-55517830D01*
X88000764Y-55470658D01*
X88027594Y-55187164D01*
X87982195Y-54936979D01*
G36*
X88013997Y-56913082D02*
G01*
X87984093Y-56755400D01*
X87921548Y-56591815D01*
X87913574Y-56574336D01*
X87848344Y-56450283D01*
X87787726Y-56364371D01*
X87748894Y-56336602D01*
X87685563Y-56363047D01*
X87592119Y-56427280D01*
X87557238Y-56455792D01*
X87419934Y-56573289D01*
X87509309Y-56724768D01*
X87568848Y-56868930D01*
X87600674Y-57035500D01*
X87602684Y-57195238D01*
X87572779Y-57318906D01*
X87554114Y-57348584D01*
X87468534Y-57405102D01*
X87369951Y-57411971D01*
X87292938Y-57369680D01*
X87278002Y-57344664D01*
X87259453Y-57269704D01*
X87237652Y-57137939D01*
X87216820Y-56975509D01*
X87213553Y-56945544D01*
X87168425Y-56684660D01*
X87091770Y-56495445D01*
X86976509Y-56369957D01*
X86815565Y-56300257D01*
X86618985Y-56278544D01*
X86395527Y-56308539D01*
X86220051Y-56405941D01*
X86092242Y-56571139D01*
X86011782Y-56804523D01*
X85980038Y-57063598D01*
X85980420Y-57274867D01*
X86009251Y-57446235D01*
X86049056Y-57563270D01*
X86118413Y-57711150D01*
X86198903Y-57847813D01*
X86234330Y-57896385D01*
X86336295Y-58021303D01*
X86641187Y-57719991D01*
X86527835Y-57548704D01*
X86442700Y-57376906D01*
X86398170Y-57193452D01*
X86393472Y-57017103D01*
X86427830Y-56866619D01*
X86500471Y-56760760D01*
X86561762Y-56726579D01*
X86660059Y-56731706D01*
X86735227Y-56816643D01*
X86787134Y-56981157D01*
X86811125Y-57161399D01*
X86856896Y-57438791D01*
X86943252Y-57644865D01*
X87072720Y-57782378D01*
X87247828Y-57854087D01*
X87455435Y-57864021D01*
X87672286Y-57814952D01*
X87836195Y-57703080D01*
X87947912Y-57527403D01*
X88008186Y-57286919D01*
X88020001Y-57108757D01*
X88013997Y-56913082D01*
G37*
X88013997Y-56913082D02*
X87984093Y-56755400D01*
X87921548Y-56591815D01*
X87913574Y-56574336D01*
X87848344Y-56450283D01*
X87787726Y-56364371D01*
X87748894Y-56336602D01*
X87685563Y-56363047D01*
X87592119Y-56427280D01*
X87557238Y-56455792D01*
X87419934Y-56573289D01*
X87509309Y-56724768D01*
X87568848Y-56868930D01*
X87600674Y-57035500D01*
X87602684Y-57195238D01*
X87572779Y-57318906D01*
X87554114Y-57348584D01*
X87468534Y-57405102D01*
X87369951Y-57411971D01*
X87292938Y-57369680D01*
X87278002Y-57344664D01*
X87259453Y-57269704D01*
X87237652Y-57137939D01*
X87216820Y-56975509D01*
X87213553Y-56945544D01*
X87168425Y-56684660D01*
X87091770Y-56495445D01*
X86976509Y-56369957D01*
X86815565Y-56300257D01*
X86618985Y-56278544D01*
X86395527Y-56308539D01*
X86220051Y-56405941D01*
X86092242Y-56571139D01*
X86011782Y-56804523D01*
X85980038Y-57063598D01*
X85980420Y-57274867D01*
X86009251Y-57446235D01*
X86049056Y-57563270D01*
X86118413Y-57711150D01*
X86198903Y-57847813D01*
X86234330Y-57896385D01*
X86336295Y-58021303D01*
X86641187Y-57719991D01*
X86527835Y-57548704D01*
X86442700Y-57376906D01*
X86398170Y-57193452D01*
X86393472Y-57017103D01*
X86427830Y-56866619D01*
X86500471Y-56760760D01*
X86561762Y-56726579D01*
X86660059Y-56731706D01*
X86735227Y-56816643D01*
X86787134Y-56981157D01*
X86811125Y-57161399D01*
X86856896Y-57438791D01*
X86943252Y-57644865D01*
X87072720Y-57782378D01*
X87247828Y-57854087D01*
X87455435Y-57864021D01*
X87672286Y-57814952D01*
X87836195Y-57703080D01*
X87947912Y-57527403D01*
X88008186Y-57286919D01*
X88020001Y-57108757D01*
X88013997Y-56913082D01*
G36*
X87960474Y-61452175D02*
G01*
X87940939Y-61410681D01*
X87835737Y-61267066D01*
X87682207Y-61131264D01*
X87513155Y-61029862D01*
X87435433Y-61001020D01*
X87296602Y-60974706D01*
X87128823Y-60959015D01*
X87059541Y-60957109D01*
X86840934Y-60956877D01*
X86840934Y-62215085D01*
X86726426Y-62188266D01*
X86590996Y-62122434D01*
X86473954Y-62007339D01*
X86398558Y-61870413D01*
X86382902Y-61783158D01*
X86401901Y-61664828D01*
X86449554Y-61523649D01*
X86471479Y-61475689D01*
X86560056Y-61298329D01*
X86444609Y-61146970D01*
X86366526Y-61059631D01*
X86302078Y-61013158D01*
X86283163Y-61010805D01*
X86237319Y-61052322D01*
X86167651Y-61143310D01*
X86113300Y-61225895D01*
X86015595Y-61448749D01*
X85971372Y-61698587D01*
X85982870Y-61946210D01*
X86042971Y-62143598D01*
X86171716Y-62347076D01*
X86341226Y-62491679D01*
X86560538Y-62582139D01*
X86838691Y-62623189D01*
X86965966Y-62626829D01*
X87257625Y-62612261D01*
X87266109Y-62610472D01*
X87266109Y-62193559D01*
X87238758Y-62182077D01*
X87223676Y-62134884D01*
X87217212Y-62037549D01*
X87215715Y-61875636D01*
X87215688Y-61813290D01*
X87217948Y-61623603D01*
X87226156Y-61503311D01*
X87242450Y-61438616D01*
X87268973Y-61415720D01*
X87277490Y-61414910D01*
X87345175Y-61441040D01*
X87439995Y-61506437D01*
X87473195Y-61534552D01*
X87567094Y-61638926D01*
X87604012Y-61747725D01*
X87607098Y-61806343D01*
X87568507Y-61964926D01*
X87464845Y-62097913D01*
X87314283Y-62182272D01*
X87309377Y-62183767D01*
X87266109Y-62193559D01*
X87266109Y-62610472D01*
X87487278Y-62563816D01*
X87671017Y-62476545D01*
X87801443Y-62369811D01*
X87942869Y-62172480D01*
X88018444Y-61940515D01*
X88025276Y-61693788D01*
X87960474Y-61452175D01*
G37*
X87960474Y-61452175D02*
X87940939Y-61410681D01*
X87835737Y-61267066D01*
X87682207Y-61131264D01*
X87513155Y-61029862D01*
X87435433Y-61001020D01*
X87296602Y-60974706D01*
X87128823Y-60959015D01*
X87059541Y-60957109D01*
X86840934Y-60956877D01*
X86840934Y-62215085D01*
X86726426Y-62188266D01*
X86590996Y-62122434D01*
X86473954Y-62007339D01*
X86398558Y-61870413D01*
X86382902Y-61783158D01*
X86401901Y-61664828D01*
X86449554Y-61523649D01*
X86471479Y-61475689D01*
X86560056Y-61298329D01*
X86444609Y-61146970D01*
X86366526Y-61059631D01*
X86302078Y-61013158D01*
X86283163Y-61010805D01*
X86237319Y-61052322D01*
X86167651Y-61143310D01*
X86113300Y-61225895D01*
X86015595Y-61448749D01*
X85971372Y-61698587D01*
X85982870Y-61946210D01*
X86042971Y-62143598D01*
X86171716Y-62347076D01*
X86341226Y-62491679D01*
X86560538Y-62582139D01*
X86838691Y-62623189D01*
X86965966Y-62626829D01*
X87257625Y-62612261D01*
X87266109Y-62610472D01*
X87266109Y-62193559D01*
X87238758Y-62182077D01*
X87223676Y-62134884D01*
X87217212Y-62037549D01*
X87215715Y-61875636D01*
X87215688Y-61813290D01*
X87217948Y-61623603D01*
X87226156Y-61503311D01*
X87242450Y-61438616D01*
X87268973Y-61415720D01*
X87277490Y-61414910D01*
X87345175Y-61441040D01*
X87439995Y-61506437D01*
X87473195Y-61534552D01*
X87567094Y-61638926D01*
X87604012Y-61747725D01*
X87607098Y-61806343D01*
X87568507Y-61964926D01*
X87464845Y-62097913D01*
X87314283Y-62182272D01*
X87309377Y-62183767D01*
X87266109Y-62193559D01*
X87266109Y-62610472D01*
X87487278Y-62563816D01*
X87671017Y-62476545D01*
X87801443Y-62369811D01*
X87942869Y-62172480D01*
X88018444Y-61940515D01*
X88025276Y-61693788D01*
X87960474Y-61452175D01*
G36*
X87985198Y-65364890D02*
G01*
X87888892Y-65147053D01*
X87728081Y-64981684D01*
X87502518Y-64868543D01*
X87211958Y-64807388D01*
X87166592Y-64803005D01*
X86846744Y-64799570D01*
X86566386Y-64844102D01*
X86339153Y-64933891D01*
X86266059Y-64981971D01*
X86111357Y-65149445D01*
X86011162Y-65362732D01*
X85969582Y-65601346D01*
X85990728Y-65844803D01*
X86055855Y-66029870D01*
X86165607Y-66189021D01*
X86309504Y-66319096D01*
X86312870Y-66321346D01*
X86401686Y-66374170D01*
X86490995Y-66408499D01*
X86603706Y-66429288D01*
X86762727Y-66441491D01*
X86893132Y-66446867D01*
X87011389Y-66449105D01*
X87011389Y-66032794D01*
X86893665Y-66028725D01*
X86736951Y-66013955D01*
X86636379Y-65987898D01*
X86564827Y-65940907D01*
X86523029Y-65896897D01*
X86435516Y-65740877D01*
X86423821Y-65577631D01*
X86486788Y-65425596D01*
X86557347Y-65349580D01*
X86628450Y-65294803D01*
X86696488Y-65262763D01*
X86785033Y-65248700D01*
X86917661Y-65247858D01*
X87039805Y-65252191D01*
X87214290Y-65261511D01*
X87327462Y-65276288D01*
X87401279Y-65302920D01*
X87457702Y-65347809D01*
X87489950Y-65383380D01*
X87574660Y-65532171D01*
X87578883Y-65692687D01*
X87528708Y-65827280D01*
X87423925Y-65942100D01*
X87251802Y-66010504D01*
X87011389Y-66032794D01*
X87011389Y-66449105D01*
X87152452Y-66451776D01*
X87346390Y-66443393D01*
X87492255Y-66418272D01*
X87607359Y-66372968D01*
X87709014Y-66304036D01*
X87739198Y-66278478D01*
X87889588Y-66118675D01*
X87977434Y-65947269D01*
X88014238Y-65737651D01*
X88017246Y-65635436D01*
X87985198Y-65364890D01*
G37*
X87985198Y-65364890D02*
X87888892Y-65147053D01*
X87728081Y-64981684D01*
X87502518Y-64868543D01*
X87211958Y-64807388D01*
X87166592Y-64803005D01*
X86846744Y-64799570D01*
X86566386Y-64844102D01*
X86339153Y-64933891D01*
X86266059Y-64981971D01*
X86111357Y-65149445D01*
X86011162Y-65362732D01*
X85969582Y-65601346D01*
X85990728Y-65844803D01*
X86055855Y-66029870D01*
X86165607Y-66189021D01*
X86309504Y-66319096D01*
X86312870Y-66321346D01*
X86401686Y-66374170D01*
X86490995Y-66408499D01*
X86603706Y-66429288D01*
X86762727Y-66441491D01*
X86893132Y-66446867D01*
X87011389Y-66449105D01*
X87011389Y-66032794D01*
X86893665Y-66028725D01*
X86736951Y-66013955D01*
X86636379Y-65987898D01*
X86564827Y-65940907D01*
X86523029Y-65896897D01*
X86435516Y-65740877D01*
X86423821Y-65577631D01*
X86486788Y-65425596D01*
X86557347Y-65349580D01*
X86628450Y-65294803D01*
X86696488Y-65262763D01*
X86785033Y-65248700D01*
X86917661Y-65247858D01*
X87039805Y-65252191D01*
X87214290Y-65261511D01*
X87327462Y-65276288D01*
X87401279Y-65302920D01*
X87457702Y-65347809D01*
X87489950Y-65383380D01*
X87574660Y-65532171D01*
X87578883Y-65692687D01*
X87528708Y-65827280D01*
X87423925Y-65942100D01*
X87251802Y-66010504D01*
X87011389Y-66032794D01*
X87011389Y-66449105D01*
X87152452Y-66451776D01*
X87346390Y-66443393D01*
X87492255Y-66418272D01*
X87607359Y-66372968D01*
X87709014Y-66304036D01*
X87739198Y-66278478D01*
X87889588Y-66118675D01*
X87977434Y-65947269D01*
X88014238Y-65737651D01*
X88017246Y-65635436D01*
X87985198Y-65364890D01*
G36*
X84873001Y-50228658D02*
G01*
X84821254Y-50029624D01*
X84714456Y-49862939D01*
X84634674Y-49782231D01*
X84446069Y-49649932D01*
X84227280Y-49574110D01*
X83958332Y-49548062D01*
X83936590Y-49547929D01*
X83717983Y-49547697D01*
X83717983Y-50805905D01*
X83603475Y-50779085D01*
X83499768Y-50730659D01*
X83391710Y-50645904D01*
X83374459Y-50628177D01*
X83281096Y-50475820D01*
X83265262Y-50302076D01*
X83326687Y-50102089D01*
X83343229Y-50068189D01*
X83393516Y-49964212D01*
X83422166Y-49894569D01*
X83424816Y-49882417D01*
X83399087Y-49839999D01*
X83336139Y-49759101D01*
X83301741Y-49718035D01*
X83222724Y-49632940D01*
X83170549Y-49604997D01*
X83122554Y-49624390D01*
X83109430Y-49634757D01*
X83051992Y-49704969D01*
X82982187Y-49820826D01*
X82941436Y-49901631D01*
X82869638Y-50130999D01*
X82846375Y-50384936D01*
X82873941Y-50625426D01*
X82893679Y-50692779D01*
X83005388Y-50901238D01*
X83177279Y-51055754D01*
X83411021Y-51157222D01*
X83708284Y-51206535D01*
X83863721Y-51211949D01*
X84090027Y-51196141D01*
X84090027Y-50796877D01*
X84073298Y-50758260D01*
X84060171Y-50654458D01*
X84052425Y-50503544D01*
X84051098Y-50401303D01*
X84052377Y-50217399D01*
X84058362Y-50101326D01*
X84072276Y-50037648D01*
X84097345Y-50010933D01*
X84133720Y-50005730D01*
X84245771Y-50041427D01*
X84356512Y-50131304D01*
X84441511Y-50249534D01*
X84476282Y-50367810D01*
X84445437Y-50528456D01*
X84356268Y-50667522D01*
X84227737Y-50763943D01*
X84090027Y-50796877D01*
X84090027Y-51196141D01*
X84193267Y-51188928D01*
X84455825Y-51117876D01*
X84653475Y-50997290D01*
X84788298Y-50825666D01*
X84862374Y-50601502D01*
X84876640Y-50480062D01*
X84873001Y-50228658D01*
G37*
X84873001Y-50228658D02*
X84821254Y-50029624D01*
X84714456Y-49862939D01*
X84634674Y-49782231D01*
X84446069Y-49649932D01*
X84227280Y-49574110D01*
X83958332Y-49548062D01*
X83936590Y-49547929D01*
X83717983Y-49547697D01*
X83717983Y-50805905D01*
X83603475Y-50779085D01*
X83499768Y-50730659D01*
X83391710Y-50645904D01*
X83374459Y-50628177D01*
X83281096Y-50475820D01*
X83265262Y-50302076D01*
X83326687Y-50102089D01*
X83343229Y-50068189D01*
X83393516Y-49964212D01*
X83422166Y-49894569D01*
X83424816Y-49882417D01*
X83399087Y-49839999D01*
X83336139Y-49759101D01*
X83301741Y-49718035D01*
X83222724Y-49632940D01*
X83170549Y-49604997D01*
X83122554Y-49624390D01*
X83109430Y-49634757D01*
X83051992Y-49704969D01*
X82982187Y-49820826D01*
X82941436Y-49901631D01*
X82869638Y-50130999D01*
X82846375Y-50384936D01*
X82873941Y-50625426D01*
X82893679Y-50692779D01*
X83005388Y-50901238D01*
X83177279Y-51055754D01*
X83411021Y-51157222D01*
X83708284Y-51206535D01*
X83863721Y-51211949D01*
X84090027Y-51196141D01*
X84090027Y-50796877D01*
X84073298Y-50758260D01*
X84060171Y-50654458D01*
X84052425Y-50503544D01*
X84051098Y-50401303D01*
X84052377Y-50217399D01*
X84058362Y-50101326D01*
X84072276Y-50037648D01*
X84097345Y-50010933D01*
X84133720Y-50005730D01*
X84245771Y-50041427D01*
X84356512Y-50131304D01*
X84441511Y-50249534D01*
X84476282Y-50367810D01*
X84445437Y-50528456D01*
X84356268Y-50667522D01*
X84227737Y-50763943D01*
X84090027Y-50796877D01*
X84090027Y-51196141D01*
X84193267Y-51188928D01*
X84455825Y-51117876D01*
X84653475Y-50997290D01*
X84788298Y-50825666D01*
X84862374Y-50601502D01*
X84876640Y-50480062D01*
X84873001Y-50228658D01*
G36*
X84884540Y-51544393D02*
G01*
X84852983Y-51384318D01*
X84806257Y-51293188D01*
X84728630Y-51197321D01*
X84556421Y-51333713D01*
X84452133Y-51417806D01*
X84401254Y-51474908D01*
X84393481Y-51531656D01*
X84418512Y-51614689D01*
X84432673Y-51653667D01*
X84453567Y-51812574D01*
X84408780Y-51958101D01*
X84307601Y-52064940D01*
X84275341Y-52082295D01*
X84189885Y-52101197D01*
X84032394Y-52115784D01*
X83814031Y-52125374D01*
X83545962Y-52129281D01*
X83507828Y-52129336D01*
X82843557Y-52129336D01*
X82843557Y-52587369D01*
X84883885Y-52587369D01*
X84883885Y-52358352D01*
X84880437Y-52226301D01*
X84865093Y-52157508D01*
X84830352Y-52132070D01*
X84797584Y-52129336D01*
X84711283Y-52129336D01*
X84797584Y-52019622D01*
X84856462Y-51893820D01*
X84885574Y-51724819D01*
X84884540Y-51544393D01*
G37*
X84884540Y-51544393D02*
X84852983Y-51384318D01*
X84806257Y-51293188D01*
X84728630Y-51197321D01*
X84556421Y-51333713D01*
X84452133Y-51417806D01*
X84401254Y-51474908D01*
X84393481Y-51531656D01*
X84418512Y-51614689D01*
X84432673Y-51653667D01*
X84453567Y-51812574D01*
X84408780Y-51958101D01*
X84307601Y-52064940D01*
X84275341Y-52082295D01*
X84189885Y-52101197D01*
X84032394Y-52115784D01*
X83814031Y-52125374D01*
X83545962Y-52129281D01*
X83507828Y-52129336D01*
X82843557Y-52129336D01*
X82843557Y-52587369D01*
X84883885Y-52587369D01*
X84883885Y-52358352D01*
X84880437Y-52226301D01*
X84865093Y-52157508D01*
X84830352Y-52132070D01*
X84797584Y-52129336D01*
X84711283Y-52129336D01*
X84797584Y-52019622D01*
X84856462Y-51893820D01*
X84885574Y-51724819D01*
X84884540Y-51544393D01*
G36*
X84871520Y-53520830D02*
G01*
X84828891Y-53345321D01*
X84806307Y-53294588D01*
X84747153Y-53196246D01*
X84680528Y-53120773D01*
X84594865Y-53064929D01*
X84478595Y-53025474D01*
X84320152Y-52999168D01*
X84107966Y-52982771D01*
X83830471Y-52973043D01*
X83645115Y-52969349D01*
X82843557Y-52955755D01*
X82843557Y-53187956D01*
X82849464Y-53328823D01*
X82869650Y-53401398D01*
X82903547Y-53420156D01*
X82940201Y-53430059D01*
X82933193Y-53474334D01*
X82903803Y-53534664D01*
X82858754Y-53685697D01*
X82846615Y-53879807D01*
X82866471Y-54083969D01*
X82917408Y-54265160D01*
X82924478Y-54281411D01*
X83040812Y-54447009D01*
X83202533Y-54556176D01*
X83391570Y-54606409D01*
X83459485Y-54602572D01*
X83459485Y-54192737D01*
X83368086Y-54156625D01*
X83302589Y-54049558D01*
X83267437Y-53876816D01*
X83262769Y-53784500D01*
X83274718Y-53630650D01*
X83321156Y-53528385D01*
X83343229Y-53503434D01*
X83463319Y-53435839D01*
X83572246Y-53420156D01*
X83717983Y-53420156D01*
X83717983Y-53623148D01*
X83705957Y-53859113D01*
X83668129Y-54024619D01*
X83601879Y-54129195D01*
X83572344Y-54152609D01*
X83459485Y-54192737D01*
X83459485Y-54602572D01*
X83589852Y-54595205D01*
X83779308Y-54520060D01*
X83907344Y-54417532D01*
X83962698Y-54355435D01*
X83999076Y-54294645D01*
X84021256Y-54215548D01*
X84034018Y-54098529D01*
X84042143Y-53923973D01*
X84044479Y-53854737D01*
X84058679Y-53420156D01*
X84190216Y-53420793D01*
X84328481Y-53437624D01*
X84412083Y-53498474D01*
X84465493Y-53621405D01*
X84466445Y-53624703D01*
X84487445Y-53798996D01*
X84460015Y-53969548D01*
X84393311Y-54096300D01*
X84360375Y-54147158D01*
X84364932Y-54201935D01*
X84412651Y-54286228D01*
X84446329Y-54335727D01*
X84518284Y-54432545D01*
X84572221Y-54492518D01*
X84587663Y-54502141D01*
X84667576Y-54462515D01*
X84763011Y-54345436D01*
X84795211Y-54294582D01*
X84850668Y-54148387D01*
X84882087Y-53951363D01*
X84889145Y-53732511D01*
X84871520Y-53520830D01*
G37*
X84871520Y-53520830D02*
X84828891Y-53345321D01*
X84806307Y-53294588D01*
X84747153Y-53196246D01*
X84680528Y-53120773D01*
X84594865Y-53064929D01*
X84478595Y-53025474D01*
X84320152Y-52999168D01*
X84107966Y-52982771D01*
X83830471Y-52973043D01*
X83645115Y-52969349D01*
X82843557Y-52955755D01*
X82843557Y-53187956D01*
X82849464Y-53328823D01*
X82869650Y-53401398D01*
X82903547Y-53420156D01*
X82940201Y-53430059D01*
X82933193Y-53474334D01*
X82903803Y-53534664D01*
X82858754Y-53685697D01*
X82846615Y-53879807D01*
X82866471Y-54083969D01*
X82917408Y-54265160D01*
X82924478Y-54281411D01*
X83040812Y-54447009D01*
X83202533Y-54556176D01*
X83391570Y-54606409D01*
X83459485Y-54602572D01*
X83459485Y-54192737D01*
X83368086Y-54156625D01*
X83302589Y-54049558D01*
X83267437Y-53876816D01*
X83262769Y-53784500D01*
X83274718Y-53630650D01*
X83321156Y-53528385D01*
X83343229Y-53503434D01*
X83463319Y-53435839D01*
X83572246Y-53420156D01*
X83717983Y-53420156D01*
X83717983Y-53623148D01*
X83705957Y-53859113D01*
X83668129Y-54024619D01*
X83601879Y-54129195D01*
X83572344Y-54152609D01*
X83459485Y-54192737D01*
X83459485Y-54602572D01*
X83589852Y-54595205D01*
X83779308Y-54520060D01*
X83907344Y-54417532D01*
X83962698Y-54355435D01*
X83999076Y-54294645D01*
X84021256Y-54215548D01*
X84034018Y-54098529D01*
X84042143Y-53923973D01*
X84044479Y-53854737D01*
X84058679Y-53420156D01*
X84190216Y-53420793D01*
X84328481Y-53437624D01*
X84412083Y-53498474D01*
X84465493Y-53621405D01*
X84466445Y-53624703D01*
X84487445Y-53798996D01*
X84460015Y-53969548D01*
X84393311Y-54096300D01*
X84360375Y-54147158D01*
X84364932Y-54201935D01*
X84412651Y-54286228D01*
X84446329Y-54335727D01*
X84518284Y-54432545D01*
X84572221Y-54492518D01*
X84587663Y-54502141D01*
X84667576Y-54462515D01*
X84763011Y-54345436D01*
X84795211Y-54294582D01*
X84850668Y-54148387D01*
X84882087Y-53951363D01*
X84889145Y-53732511D01*
X84871520Y-53520830D01*
G36*
X84863065Y-55862558D02*
G01*
X84217656Y-55647252D01*
X83572246Y-55431945D01*
X83801262Y-55364436D01*
X83942796Y-55323809D01*
X84134064Y-55270367D01*
X84344307Y-55212658D01*
X84457082Y-55182145D01*
X84883885Y-55067364D01*
X84883885Y-54593813D01*
X84436262Y-54735361D01*
X84216097Y-54805067D01*
X83950529Y-54889277D01*
X83673508Y-54977219D01*
X83426508Y-55055728D01*
X82864377Y-55234548D01*
X82851815Y-55427618D01*
X82839254Y-55620689D01*
X83184930Y-55725382D01*
X83399665Y-55789947D01*
X83636396Y-55860408D01*
X83845474Y-55921989D01*
X83853795Y-55924419D01*
X83995463Y-55970415D01*
X84092126Y-56010997D01*
X84128679Y-56039420D01*
X84124451Y-56045261D01*
X84067783Y-56065762D01*
X83946395Y-56104715D01*
X83775552Y-56157378D01*
X83570518Y-56219009D01*
X83457738Y-56252357D01*
X82843557Y-56432954D01*
X82843557Y-56816233D01*
X83811672Y-57122633D01*
X84083241Y-57208709D01*
X84329862Y-57287120D01*
X84539952Y-57354161D01*
X84701924Y-57406131D01*
X84804192Y-57439326D01*
X84834072Y-57449416D01*
X84864666Y-57441428D01*
X84878065Y-57378708D01*
X84876725Y-57248185D01*
X84875712Y-57227753D01*
X84863065Y-56985708D01*
X84280115Y-56827183D01*
X84067514Y-56768915D01*
X83880623Y-56716845D01*
X83735669Y-56675556D01*
X83648880Y-56649634D01*
X83634731Y-56644844D01*
X83651002Y-56624996D01*
X83735303Y-56584970D01*
X83876158Y-56529362D01*
X84062089Y-56462769D01*
X84230044Y-56406476D01*
X84887791Y-56191922D01*
X84863065Y-55862558D01*
G37*
X84863065Y-55862558D02*
X84217656Y-55647252D01*
X83572246Y-55431945D01*
X83801262Y-55364436D01*
X83942796Y-55323809D01*
X84134064Y-55270367D01*
X84344307Y-55212658D01*
X84457082Y-55182145D01*
X84883885Y-55067364D01*
X84883885Y-54593813D01*
X84436262Y-54735361D01*
X84216097Y-54805067D01*
X83950529Y-54889277D01*
X83673508Y-54977219D01*
X83426508Y-55055728D01*
X82864377Y-55234548D01*
X82851815Y-55427618D01*
X82839254Y-55620689D01*
X83184930Y-55725382D01*
X83399665Y-55789947D01*
X83636396Y-55860408D01*
X83845474Y-55921989D01*
X83853795Y-55924419D01*
X83995463Y-55970415D01*
X84092126Y-56010997D01*
X84128679Y-56039420D01*
X84124451Y-56045261D01*
X84067783Y-56065762D01*
X83946395Y-56104715D01*
X83775552Y-56157378D01*
X83570518Y-56219009D01*
X83457738Y-56252357D01*
X82843557Y-56432954D01*
X82843557Y-56816233D01*
X83811672Y-57122633D01*
X84083241Y-57208709D01*
X84329862Y-57287120D01*
X84539952Y-57354161D01*
X84701924Y-57406131D01*
X84804192Y-57439326D01*
X84834072Y-57449416D01*
X84864666Y-57441428D01*
X84878065Y-57378708D01*
X84876725Y-57248185D01*
X84875712Y-57227753D01*
X84863065Y-56985708D01*
X84280115Y-56827183D01*
X84067514Y-56768915D01*
X83880623Y-56716845D01*
X83735669Y-56675556D01*
X83648880Y-56649634D01*
X83634731Y-56644844D01*
X83651002Y-56624996D01*
X83735303Y-56584970D01*
X83876158Y-56529362D01*
X84062089Y-56462769D01*
X84230044Y-56406476D01*
X84887791Y-56191922D01*
X84863065Y-55862558D01*
G36*
X82843557Y-57625730D02*
G01*
X82843557Y-57854746D01*
X82847454Y-57987675D01*
X82863593Y-58056905D01*
X82898646Y-58081832D01*
X82922347Y-58083762D01*
X82969877Y-58087966D01*
X82978992Y-58114474D01*
X82949692Y-58184133D01*
X82922347Y-58238304D01*
X82857549Y-58446277D01*
X82853799Y-58672353D01*
X82902127Y-58856155D01*
X83018882Y-59027313D01*
X83191219Y-59157784D01*
X83394494Y-59229227D01*
X83405859Y-59231046D01*
X83529864Y-59241661D01*
X83707883Y-59246940D01*
X83842520Y-59246516D01*
X83842520Y-58791672D01*
X83663572Y-58781135D01*
X83516076Y-58757166D01*
X83432783Y-58724717D01*
X83318959Y-58601956D01*
X83278155Y-58456201D01*
X83311152Y-58305893D01*
X83409578Y-58177451D01*
X83475776Y-58128808D01*
X83554769Y-58100366D01*
X83670074Y-58087044D01*
X83843264Y-58083762D01*
X84014771Y-58089635D01*
X84165460Y-58105147D01*
X84266302Y-58127138D01*
X84275341Y-58130803D01*
X84382805Y-58219488D01*
X84441805Y-58348928D01*
X84451331Y-58493757D01*
X84410374Y-58628609D01*
X84317924Y-58728117D01*
X84299527Y-58738440D01*
X84187354Y-58770750D01*
X84026066Y-58788352D01*
X83842520Y-58791672D01*
X83842520Y-59246516D01*
X83910788Y-59246300D01*
X84019990Y-59243306D01*
X84290144Y-59222942D01*
X84492976Y-59180617D01*
X84642923Y-59110206D01*
X84754421Y-59005588D01*
X84819873Y-58904021D01*
X84865883Y-58762116D01*
X84881664Y-58585621D01*
X84868810Y-58404893D01*
X84828919Y-58250287D01*
X84781199Y-58168601D01*
X84704421Y-58083762D01*
X85675033Y-58083762D01*
X85675033Y-57625730D01*
X82843557Y-57625730D01*
G37*
X82843557Y-57625730D02*
X82843557Y-57854746D01*
X82847454Y-57987675D01*
X82863593Y-58056905D01*
X82898646Y-58081832D01*
X82922347Y-58083762D01*
X82969877Y-58087966D01*
X82978992Y-58114474D01*
X82949692Y-58184133D01*
X82922347Y-58238304D01*
X82857549Y-58446277D01*
X82853799Y-58672353D01*
X82902127Y-58856155D01*
X83018882Y-59027313D01*
X83191219Y-59157784D01*
X83394494Y-59229227D01*
X83405859Y-59231046D01*
X83529864Y-59241661D01*
X83707883Y-59246940D01*
X83842520Y-59246516D01*
X83842520Y-58791672D01*
X83663572Y-58781135D01*
X83516076Y-58757166D01*
X83432783Y-58724717D01*
X83318959Y-58601956D01*
X83278155Y-58456201D01*
X83311152Y-58305893D01*
X83409578Y-58177451D01*
X83475776Y-58128808D01*
X83554769Y-58100366D01*
X83670074Y-58087044D01*
X83843264Y-58083762D01*
X84014771Y-58089635D01*
X84165460Y-58105147D01*
X84266302Y-58127138D01*
X84275341Y-58130803D01*
X84382805Y-58219488D01*
X84441805Y-58348928D01*
X84451331Y-58493757D01*
X84410374Y-58628609D01*
X84317924Y-58728117D01*
X84299527Y-58738440D01*
X84187354Y-58770750D01*
X84026066Y-58788352D01*
X83842520Y-58791672D01*
X83842520Y-59246516D01*
X83910788Y-59246300D01*
X84019990Y-59243306D01*
X84290144Y-59222942D01*
X84492976Y-59180617D01*
X84642923Y-59110206D01*
X84754421Y-59005588D01*
X84819873Y-58904021D01*
X84865883Y-58762116D01*
X84881664Y-58585621D01*
X84868810Y-58404893D01*
X84828919Y-58250287D01*
X84781199Y-58168601D01*
X84704421Y-58083762D01*
X85675033Y-58083762D01*
X85675033Y-57625730D01*
X82843557Y-57625730D01*
G36*
X84879460Y-60248975D02*
G01*
X84860782Y-60186663D01*
X84819745Y-60166575D01*
X84801218Y-60165730D01*
X84749617Y-60162125D01*
X84741516Y-60137300D01*
X84776892Y-60070237D01*
X84801063Y-60030402D01*
X84852825Y-59904727D01*
X84878419Y-59754623D01*
X84880387Y-59597237D01*
X84861271Y-59449714D01*
X84823613Y-59329200D01*
X84769956Y-59252840D01*
X84702842Y-59237781D01*
X84684667Y-59245381D01*
X84609223Y-59300782D01*
X84516432Y-59386690D01*
X84501432Y-59402228D01*
X84432460Y-59484112D01*
X84410175Y-59554763D01*
X84425728Y-59653568D01*
X84436062Y-59693152D01*
X84460884Y-59816328D01*
X84449722Y-59902936D01*
X84410354Y-59976076D01*
X84357521Y-60043074D01*
X84291076Y-60092418D01*
X84198348Y-60126709D01*
X84066666Y-60148548D01*
X83883359Y-60160534D01*
X83635754Y-60165269D01*
X83486256Y-60165730D01*
X82843557Y-60165730D01*
X82843557Y-60582123D01*
X84883885Y-60582123D01*
X84883885Y-60373926D01*
X84879460Y-60248975D01*
G37*
X84879460Y-60248975D02*
X84860782Y-60186663D01*
X84819745Y-60166575D01*
X84801218Y-60165730D01*
X84749617Y-60162125D01*
X84741516Y-60137300D01*
X84776892Y-60070237D01*
X84801063Y-60030402D01*
X84852825Y-59904727D01*
X84878419Y-59754623D01*
X84880387Y-59597237D01*
X84861271Y-59449714D01*
X84823613Y-59329200D01*
X84769956Y-59252840D01*
X84702842Y-59237781D01*
X84684667Y-59245381D01*
X84609223Y-59300782D01*
X84516432Y-59386690D01*
X84501432Y-59402228D01*
X84432460Y-59484112D01*
X84410175Y-59554763D01*
X84425728Y-59653568D01*
X84436062Y-59693152D01*
X84460884Y-59816328D01*
X84449722Y-59902936D01*
X84410354Y-59976076D01*
X84357521Y-60043074D01*
X84291076Y-60092418D01*
X84198348Y-60126709D01*
X84066666Y-60148548D01*
X83883359Y-60160534D01*
X83635754Y-60165269D01*
X83486256Y-60165730D01*
X82843557Y-60165730D01*
X82843557Y-60582123D01*
X84883885Y-60582123D01*
X84883885Y-60373926D01*
X84879460Y-60248975D01*
G36*
X84867753Y-61543279D02*
G01*
X84815486Y-61347389D01*
X84720747Y-61198267D01*
X84596662Y-61093035D01*
X84543704Y-61060321D01*
X84488232Y-61036169D01*
X84417270Y-61019284D01*
X84317846Y-61008373D01*
X84176984Y-61002140D01*
X83981711Y-60999291D01*
X83719052Y-60998532D01*
X83649367Y-60998516D01*
X82843557Y-60998516D01*
X82843557Y-61198385D01*
X82852485Y-61325870D01*
X82875104Y-61420134D01*
X82889054Y-61443751D01*
X82913130Y-61508315D01*
X82889054Y-61574259D01*
X82858997Y-61682832D01*
X82846900Y-61840542D01*
X82852149Y-62015344D01*
X82874131Y-62175193D01*
X82902337Y-62268516D01*
X83018269Y-62449109D01*
X83179153Y-62561970D01*
X83393064Y-62612709D01*
X83398557Y-62613180D01*
X83493453Y-62608727D01*
X83493453Y-62206057D01*
X83385516Y-62170854D01*
X83324771Y-62113514D01*
X83278828Y-61998413D01*
X83260488Y-61846486D01*
X83269515Y-61691561D01*
X83305668Y-61567464D01*
X83328863Y-61532697D01*
X83436040Y-61471944D01*
X83557880Y-61456549D01*
X83717983Y-61456549D01*
X83717983Y-61686903D01*
X83701137Y-61905741D01*
X83653407Y-62071637D01*
X83579014Y-62174838D01*
X83493453Y-62206057D01*
X83493453Y-62608727D01*
X83632269Y-62602213D01*
X83817054Y-62525131D01*
X83956794Y-62380214D01*
X83969505Y-62360183D01*
X84010895Y-62274110D01*
X84035959Y-62167573D01*
X84048142Y-62018641D01*
X84050943Y-61841713D01*
X84051098Y-61456549D01*
X84212557Y-61456549D01*
X84337832Y-61472887D01*
X84421759Y-61514578D01*
X84426227Y-61519459D01*
X84462941Y-61612236D01*
X84477172Y-61752284D01*
X84470179Y-61907055D01*
X84443220Y-62043999D01*
X84402788Y-62125259D01*
X84370399Y-62169290D01*
X84364216Y-62215785D01*
X84390752Y-62279951D01*
X84456521Y-62376995D01*
X84568037Y-62522126D01*
X84578484Y-62535447D01*
X84617138Y-62528621D01*
X84681428Y-62471678D01*
X84752869Y-62385130D01*
X84812979Y-62289492D01*
X84827173Y-62259444D01*
X84855497Y-62149841D01*
X84875700Y-61989235D01*
X84883804Y-61809802D01*
X84883820Y-61801411D01*
X84867753Y-61543279D01*
G37*
X84867753Y-61543279D02*
X84815486Y-61347389D01*
X84720747Y-61198267D01*
X84596662Y-61093035D01*
X84543704Y-61060321D01*
X84488232Y-61036169D01*
X84417270Y-61019284D01*
X84317846Y-61008373D01*
X84176984Y-61002140D01*
X83981711Y-60999291D01*
X83719052Y-60998532D01*
X83649367Y-60998516D01*
X82843557Y-60998516D01*
X82843557Y-61198385D01*
X82852485Y-61325870D01*
X82875104Y-61420134D01*
X82889054Y-61443751D01*
X82913130Y-61508315D01*
X82889054Y-61574259D01*
X82858997Y-61682832D01*
X82846900Y-61840542D01*
X82852149Y-62015344D01*
X82874131Y-62175193D01*
X82902337Y-62268516D01*
X83018269Y-62449109D01*
X83179153Y-62561970D01*
X83393064Y-62612709D01*
X83398557Y-62613180D01*
X83493453Y-62608727D01*
X83493453Y-62206057D01*
X83385516Y-62170854D01*
X83324771Y-62113514D01*
X83278828Y-61998413D01*
X83260488Y-61846486D01*
X83269515Y-61691561D01*
X83305668Y-61567464D01*
X83328863Y-61532697D01*
X83436040Y-61471944D01*
X83557880Y-61456549D01*
X83717983Y-61456549D01*
X83717983Y-61686903D01*
X83701137Y-61905741D01*
X83653407Y-62071637D01*
X83579014Y-62174838D01*
X83493453Y-62206057D01*
X83493453Y-62608727D01*
X83632269Y-62602213D01*
X83817054Y-62525131D01*
X83956794Y-62380214D01*
X83969505Y-62360183D01*
X84010895Y-62274110D01*
X84035959Y-62167573D01*
X84048142Y-62018641D01*
X84050943Y-61841713D01*
X84051098Y-61456549D01*
X84212557Y-61456549D01*
X84337832Y-61472887D01*
X84421759Y-61514578D01*
X84426227Y-61519459D01*
X84462941Y-61612236D01*
X84477172Y-61752284D01*
X84470179Y-61907055D01*
X84443220Y-62043999D01*
X84402788Y-62125259D01*
X84370399Y-62169290D01*
X84364216Y-62215785D01*
X84390752Y-62279951D01*
X84456521Y-62376995D01*
X84568037Y-62522126D01*
X84578484Y-62535447D01*
X84617138Y-62528621D01*
X84681428Y-62471678D01*
X84752869Y-62385130D01*
X84812979Y-62289492D01*
X84827173Y-62259444D01*
X84855497Y-62149841D01*
X84875700Y-61989235D01*
X84883804Y-61809802D01*
X84883820Y-61801411D01*
X84867753Y-61543279D01*
G36*
X87971834Y-63280308D02*
G01*
X87928460Y-63192515D01*
X87852878Y-63084251D01*
X87770458Y-63005345D01*
X87666963Y-62951305D01*
X87528157Y-62917641D01*
X87339806Y-62899863D01*
X87087672Y-62893480D01*
X86979276Y-62893107D01*
X86741713Y-62894196D01*
X86571932Y-62898722D01*
X86454450Y-62908568D01*
X86373785Y-62925618D01*
X86314455Y-62951759D01*
X86273980Y-62978958D01*
X86101775Y-63152580D01*
X85998194Y-63357038D01*
X85967040Y-63577604D01*
X86012115Y-63799546D01*
X86043991Y-63869860D01*
X86131729Y-64038189D01*
X84756828Y-64038189D01*
X84820357Y-63915338D01*
X84869509Y-63753467D01*
X84882100Y-63554505D01*
X84858853Y-63355828D01*
X84806630Y-63205790D01*
X84707174Y-63081341D01*
X84564857Y-62975008D01*
X84550245Y-62967013D01*
X84481418Y-62933293D01*
X84412044Y-62908666D01*
X84328004Y-62891714D01*
X84215184Y-62881019D01*
X84059467Y-62875162D01*
X83846735Y-62872727D01*
X83607336Y-62872287D01*
X82843557Y-62872287D01*
X82843557Y-63330320D01*
X84251892Y-63330320D01*
X84359692Y-63458433D01*
X84445921Y-63591518D01*
X84461599Y-63717548D01*
X84421253Y-63844278D01*
X84381746Y-63911817D01*
X84325473Y-63962086D01*
X84240428Y-63997838D01*
X84114606Y-64021828D01*
X83936002Y-64036811D01*
X83692609Y-64045540D01*
X83530606Y-64048614D01*
X82864377Y-64059008D01*
X82851791Y-64277615D01*
X82839205Y-64496221D01*
X86973536Y-64496221D01*
X86973536Y-64038189D01*
X86743047Y-64026511D01*
X86583050Y-63987162D01*
X86483503Y-63913666D01*
X86434361Y-63799549D01*
X86424541Y-63684254D01*
X86435825Y-63553738D01*
X86480236Y-63467117D01*
X86538919Y-63412951D01*
X86602038Y-63370310D01*
X86672355Y-63344926D01*
X86770877Y-63333631D01*
X86918613Y-63333260D01*
X87042317Y-63337060D01*
X87228672Y-63345788D01*
X87351018Y-63358780D01*
X87428623Y-63380659D01*
X87480755Y-63416046D01*
X87510889Y-63449441D01*
X87576601Y-63588975D01*
X87587213Y-63754119D01*
X87564577Y-63848946D01*
X87484119Y-63942834D01*
X87327608Y-64005026D01*
X87096148Y-64035169D01*
X86973536Y-64038189D01*
X86973536Y-64496221D01*
X88006836Y-64496221D01*
X88006836Y-64267205D01*
X88001398Y-64129706D01*
X87982091Y-64058767D01*
X87944424Y-64038197D01*
X87943308Y-64038189D01*
X87906419Y-64028645D01*
X87910607Y-63986551D01*
X87951141Y-63902861D01*
X88013150Y-63707854D01*
X88019668Y-63488454D01*
X87971834Y-63280308D01*
G37*
X87971834Y-63280308D02*
X87928460Y-63192515D01*
X87852878Y-63084251D01*
X87770458Y-63005345D01*
X87666963Y-62951305D01*
X87528157Y-62917641D01*
X87339806Y-62899863D01*
X87087672Y-62893480D01*
X86979276Y-62893107D01*
X86741713Y-62894196D01*
X86571932Y-62898722D01*
X86454450Y-62908568D01*
X86373785Y-62925618D01*
X86314455Y-62951759D01*
X86273980Y-62978958D01*
X86101775Y-63152580D01*
X85998194Y-63357038D01*
X85967040Y-63577604D01*
X86012115Y-63799546D01*
X86043991Y-63869860D01*
X86131729Y-64038189D01*
X84756828Y-64038189D01*
X84820357Y-63915338D01*
X84869509Y-63753467D01*
X84882100Y-63554505D01*
X84858853Y-63355828D01*
X84806630Y-63205790D01*
X84707174Y-63081341D01*
X84564857Y-62975008D01*
X84550245Y-62967013D01*
X84481418Y-62933293D01*
X84412044Y-62908666D01*
X84328004Y-62891714D01*
X84215184Y-62881019D01*
X84059467Y-62875162D01*
X83846735Y-62872727D01*
X83607336Y-62872287D01*
X82843557Y-62872287D01*
X82843557Y-63330320D01*
X84251892Y-63330320D01*
X84359692Y-63458433D01*
X84445921Y-63591518D01*
X84461599Y-63717548D01*
X84421253Y-63844278D01*
X84381746Y-63911817D01*
X84325473Y-63962086D01*
X84240428Y-63997838D01*
X84114606Y-64021828D01*
X83936002Y-64036811D01*
X83692609Y-64045540D01*
X83530606Y-64048614D01*
X82864377Y-64059008D01*
X82851791Y-64277615D01*
X82839205Y-64496221D01*
X86973536Y-64496221D01*
X86973536Y-64038189D01*
X86743047Y-64026511D01*
X86583050Y-63987162D01*
X86483503Y-63913666D01*
X86434361Y-63799549D01*
X86424541Y-63684254D01*
X86435825Y-63553738D01*
X86480236Y-63467117D01*
X86538919Y-63412951D01*
X86602038Y-63370310D01*
X86672355Y-63344926D01*
X86770877Y-63333631D01*
X86918613Y-63333260D01*
X87042317Y-63337060D01*
X87228672Y-63345788D01*
X87351018Y-63358780D01*
X87428623Y-63380659D01*
X87480755Y-63416046D01*
X87510889Y-63449441D01*
X87576601Y-63588975D01*
X87587213Y-63754119D01*
X87564577Y-63848946D01*
X87484119Y-63942834D01*
X87327608Y-64005026D01*
X87096148Y-64035169D01*
X86973536Y-64038189D01*
X86973536Y-64496221D01*
X88006836Y-64496221D01*
X88006836Y-64267205D01*
X88001398Y-64129706D01*
X87982091Y-64058767D01*
X87944424Y-64038197D01*
X87943308Y-64038189D01*
X87906419Y-64028645D01*
X87910607Y-63986551D01*
X87951141Y-63902861D01*
X88013150Y-63707854D01*
X88019668Y-63488454D01*
X87971834Y-63280308D01*
M02*
