%FSLAX45Y45*%
G04 Gerber Fmt 4.5, Leading zero omitted, Abs format (unit mm)*
G04 Created by KiCad (PCBNEW (5.1.5)-3) date 2020-09-28 21:35:31*
%MOMM*%
%LPD*%
G04 APERTURE LIST*
%TA.AperFunction,Profile*%
%ADD10C,0.050000*%
%TD*%
%ADD11C,0.200000*%
%ADD12C,0.300000*%
G04 APERTURE END LIST*
D10*
X7556500Y-10795000D02*
X7556500Y-5905500D01*
X18288000Y-10795000D02*
X7556500Y-10795000D01*
X18288000Y-5905500D02*
X18288000Y-10795000D01*
X7556500Y-5905500D02*
X18288000Y-5905500D01*
D11*
X9568500Y-7155500D02*
X9608500Y-7195500D01*
X9608500Y-7155500D02*
X9568500Y-7195500D01*
X10076500Y-10076500D02*
X10116500Y-10116500D01*
X10116500Y-10076500D02*
X10076500Y-10116500D01*
X11371900Y-9606600D02*
X11411900Y-9646600D01*
X11411900Y-9606600D02*
X11371900Y-9646600D01*
X13156250Y-9219250D02*
X13196250Y-9259250D01*
X13196250Y-9219250D02*
X13156250Y-9259250D01*
X13194350Y-8819200D02*
X13234350Y-8859200D01*
X13234350Y-8819200D02*
X13194350Y-8859200D01*
X13430200Y-8819200D02*
X13470200Y-8859200D01*
X13470200Y-8819200D02*
X13430200Y-8859200D01*
X13861100Y-8514400D02*
X13901100Y-8554400D01*
X13901100Y-8514400D02*
X13861100Y-8554400D01*
X13918250Y-8844600D02*
X13958250Y-8884600D01*
X13958250Y-8844600D02*
X13918250Y-8884600D01*
X13950000Y-9187500D02*
X13990000Y-9227500D01*
X13990000Y-9187500D02*
X13950000Y-9227500D01*
X15542350Y-9062000D02*
X15582350Y-9102000D01*
X15582350Y-9062000D02*
X15542350Y-9102000D01*
X15645450Y-9257350D02*
X15685450Y-9297350D01*
X15685450Y-9257350D02*
X15645450Y-9297350D01*
X15872575Y-9719425D02*
X15912575Y-9759425D01*
X15912575Y-9719425D02*
X15872575Y-9759425D01*
X15918500Y-10013000D02*
X15958500Y-10053000D01*
X15958500Y-10013000D02*
X15918500Y-10053000D01*
X16096300Y-9111300D02*
X16136300Y-9151300D01*
X16136300Y-9111300D02*
X16096300Y-9151300D01*
X16426500Y-10013000D02*
X16466500Y-10053000D01*
X16466500Y-10013000D02*
X16426500Y-10053000D01*
X16451000Y-8362000D02*
X16491000Y-8402000D01*
X16491000Y-8362000D02*
X16451000Y-8402000D01*
X16594500Y-8841700D02*
X16634500Y-8881700D01*
X16634500Y-8841700D02*
X16594500Y-8881700D01*
X16744000Y-9282750D02*
X16784000Y-9322750D01*
X16784000Y-9282750D02*
X16744000Y-9322750D01*
X16798500Y-8371000D02*
X16838500Y-8411000D01*
X16838500Y-8371000D02*
X16798500Y-8411000D01*
X16798500Y-8498000D02*
X16838500Y-8538000D01*
X16838500Y-8498000D02*
X16798500Y-8538000D01*
X16807500Y-8235000D02*
X16847500Y-8275000D01*
X16847500Y-8235000D02*
X16807500Y-8275000D01*
X8704500Y-7181500D02*
G75*
G03X8704500Y-7181500I-35000J0D01*
G01*
X8704500Y-7931500D02*
G75*
G03X8704500Y-7931500I-35000J0D01*
G01*
X9204500Y-7181500D02*
G75*
G03X9204500Y-7181500I-35000J0D01*
G01*
X9204500Y-7931500D02*
G75*
G03X9204500Y-7931500I-35000J0D01*
G01*
X11204500Y-7181500D02*
G75*
G03X11204500Y-7181500I-35000J0D01*
G01*
X11204500Y-7556500D02*
G75*
G03X11204500Y-7556500I-35000J0D01*
G01*
X11204500Y-7931500D02*
G75*
G03X11204500Y-7931500I-35000J0D01*
G01*
X8704500Y-8959500D02*
G75*
G03X8704500Y-8959500I-35000J0D01*
G01*
X8704500Y-9709500D02*
G75*
G03X8704500Y-9709500I-35000J0D01*
G01*
X9204500Y-8959500D02*
G75*
G03X9204500Y-8959500I-35000J0D01*
G01*
X9204500Y-9709500D02*
G75*
G03X9204500Y-9709500I-35000J0D01*
G01*
X11204500Y-8959500D02*
G75*
G03X11204500Y-8959500I-35000J0D01*
G01*
X11204500Y-9334500D02*
G75*
G03X11204500Y-9334500I-35000J0D01*
G01*
X11204500Y-9709500D02*
G75*
G03X11204500Y-9709500I-35000J0D01*
G01*
X16192500Y-7199000D02*
X16192500Y-7279000D01*
X16152500Y-7239000D02*
X16232500Y-7239000D01*
X16442500Y-7199000D02*
X16442500Y-7279000D01*
X16402500Y-7239000D02*
X16482500Y-7239000D01*
X11747500Y-9548500D02*
X11747500Y-9628500D01*
X11707500Y-9588500D02*
X11787500Y-9588500D01*
X11997500Y-9548500D02*
X11997500Y-9628500D01*
X11957500Y-9588500D02*
X12037500Y-9588500D01*
X15430500Y-9485000D02*
X15430500Y-9565000D01*
X15390500Y-9525000D02*
X15470500Y-9525000D01*
X15430500Y-9739000D02*
X15430500Y-9819000D01*
X15390500Y-9779000D02*
X15470500Y-9779000D01*
X15430500Y-9993000D02*
X15430500Y-10073000D01*
X15390500Y-10033000D02*
X15470500Y-10033000D01*
X12446000Y-9548500D02*
X12446000Y-9628500D01*
X12406000Y-9588500D02*
X12486000Y-9588500D01*
X12696000Y-9548500D02*
X12696000Y-9628500D01*
X12656000Y-9588500D02*
X12736000Y-9588500D01*
X14795500Y-9485000D02*
X14795500Y-9565000D01*
X14755500Y-9525000D02*
X14835500Y-9525000D01*
X14795500Y-9739000D02*
X14795500Y-9819000D01*
X14755500Y-9779000D02*
X14835500Y-9779000D01*
X14795500Y-9993000D02*
X14795500Y-10073000D01*
X14755500Y-10033000D02*
X14835500Y-10033000D01*
X13183391Y-9627391D02*
X13183391Y-9549609D01*
X13105609Y-9549609D01*
X13105609Y-9627391D01*
X13183391Y-9627391D01*
X14199391Y-9627391D02*
X14199391Y-9549609D01*
X14121609Y-9549609D01*
X14121609Y-9627391D01*
X14199391Y-9627391D01*
X13183391Y-10008391D02*
X13183391Y-9930609D01*
X13105609Y-9930609D01*
X13105609Y-10008391D01*
X13183391Y-10008391D01*
X14199391Y-10008391D02*
X14199391Y-9930609D01*
X14121609Y-9930609D01*
X14121609Y-10008391D01*
X14199391Y-10008391D01*
X10135391Y-8484391D02*
X10135391Y-8406609D01*
X10057609Y-8406609D01*
X10057609Y-8484391D01*
X10135391Y-8484391D01*
X11151391Y-8484391D02*
X11151391Y-8406609D01*
X11073609Y-8406609D01*
X11073609Y-8484391D01*
X11151391Y-8484391D01*
X8611391Y-8484391D02*
X8611391Y-8406609D01*
X8533609Y-8406609D01*
X8533609Y-8484391D01*
X8611391Y-8484391D01*
X9627391Y-8484391D02*
X9627391Y-8406609D01*
X9549609Y-8406609D01*
X9549609Y-8484391D01*
X9627391Y-8484391D01*
X12446000Y-7489500D02*
X12506000Y-7429500D01*
X12446000Y-7369500D01*
X12386000Y-7429500D01*
X12446000Y-7489500D01*
X12446000Y-8239500D02*
X12506000Y-8179500D01*
X12446000Y-8119500D01*
X12386000Y-8179500D01*
X12446000Y-8239500D01*
X10275443Y-6338443D02*
X10425557Y-6488557D01*
X10425557Y-6338443D02*
X10275443Y-6488557D01*
X10425557Y-6413500D02*
G75*
G03X10425557Y-6413500I-75057J0D01*
G01*
X10783443Y-6338443D02*
X10933557Y-6488557D01*
X10933557Y-6338443D02*
X10783443Y-6488557D01*
X10933557Y-6413500D02*
G75*
G03X10933557Y-6413500I-75057J0D01*
G01*
X11291443Y-6338443D02*
X11441557Y-6488557D01*
X11441557Y-6338443D02*
X11291443Y-6488557D01*
X11441557Y-6413500D02*
G75*
G03X11441557Y-6413500I-75057J0D01*
G01*
X11799443Y-6338443D02*
X11949557Y-6488557D01*
X11949557Y-6338443D02*
X11799443Y-6488557D01*
X11949557Y-6413500D02*
G75*
G03X11949557Y-6413500I-75057J0D01*
G01*
X7989443Y-7735443D02*
X8139557Y-7885557D01*
X8139557Y-7735443D02*
X7989443Y-7885557D01*
X8139557Y-7810500D02*
G75*
G03X8139557Y-7810500I-75057J0D01*
G01*
X7989443Y-7100443D02*
X8139557Y-7250557D01*
X8139557Y-7100443D02*
X7989443Y-7250557D01*
X8139557Y-7175500D02*
G75*
G03X8139557Y-7175500I-75057J0D01*
G01*
X17895443Y-8878443D02*
X18045557Y-9028557D01*
X18045557Y-8878443D02*
X17895443Y-9028557D01*
X18045557Y-8953500D02*
G75*
G03X18045557Y-8953500I-75057J0D01*
G01*
X17895443Y-9386443D02*
X18045557Y-9536557D01*
X18045557Y-9386443D02*
X17895443Y-9536557D01*
X18045557Y-9461500D02*
G75*
G03X18045557Y-9461500I-75057J0D01*
G01*
X17895443Y-9894443D02*
X18045557Y-10044557D01*
X18045557Y-9894443D02*
X17895443Y-10044557D01*
X18045557Y-9969500D02*
G75*
G03X18045557Y-9969500I-75057J0D01*
G01*
X17895443Y-10402443D02*
X18045557Y-10552557D01*
X18045557Y-10402443D02*
X17895443Y-10552557D01*
X18045557Y-10477500D02*
G75*
G03X18045557Y-10477500I-75057J0D01*
G01*
X7989443Y-6338443D02*
X8139557Y-6488557D01*
X8139557Y-6338443D02*
X7989443Y-6488557D01*
X8139557Y-6413500D02*
G75*
G03X8139557Y-6413500I-75057J0D01*
G01*
X8497443Y-6338443D02*
X8647557Y-6488557D01*
X8647557Y-6338443D02*
X8497443Y-6488557D01*
X8647557Y-6413500D02*
G75*
G03X8647557Y-6413500I-75057J0D01*
G01*
X9005443Y-6338443D02*
X9155557Y-6488557D01*
X9155557Y-6338443D02*
X9005443Y-6488557D01*
X9155557Y-6413500D02*
G75*
G03X9155557Y-6413500I-75057J0D01*
G01*
X9513443Y-6338443D02*
X9663557Y-6488557D01*
X9663557Y-6338443D02*
X9513443Y-6488557D01*
X9663557Y-6413500D02*
G75*
G03X9663557Y-6413500I-75057J0D01*
G01*
X14847443Y-6338443D02*
X14997557Y-6488557D01*
X14997557Y-6338443D02*
X14847443Y-6488557D01*
X14997557Y-6413500D02*
G75*
G03X14997557Y-6413500I-75057J0D01*
G01*
X15355443Y-6338443D02*
X15505557Y-6488557D01*
X15505557Y-6338443D02*
X15355443Y-6488557D01*
X15505557Y-6413500D02*
G75*
G03X15505557Y-6413500I-75057J0D01*
G01*
X10275443Y-10402443D02*
X10425557Y-10552557D01*
X10425557Y-10402443D02*
X10275443Y-10552557D01*
X10425557Y-10477500D02*
G75*
G03X10425557Y-10477500I-75057J0D01*
G01*
X10783443Y-10402443D02*
X10933557Y-10552557D01*
X10933557Y-10402443D02*
X10783443Y-10552557D01*
X10933557Y-10477500D02*
G75*
G03X10933557Y-10477500I-75057J0D01*
G01*
X11291443Y-10402443D02*
X11441557Y-10552557D01*
X11441557Y-10402443D02*
X11291443Y-10552557D01*
X11441557Y-10477500D02*
G75*
G03X11441557Y-10477500I-75057J0D01*
G01*
X11799443Y-10402443D02*
X11949557Y-10552557D01*
X11949557Y-10402443D02*
X11799443Y-10552557D01*
X11949557Y-10477500D02*
G75*
G03X11949557Y-10477500I-75057J0D01*
G01*
X12561443Y-6338443D02*
X12711557Y-6488557D01*
X12711557Y-6338443D02*
X12561443Y-6488557D01*
X12711557Y-6413500D02*
G75*
G03X12711557Y-6413500I-75057J0D01*
G01*
X13069443Y-6338443D02*
X13219557Y-6488557D01*
X13219557Y-6338443D02*
X13069443Y-6488557D01*
X13219557Y-6413500D02*
G75*
G03X13219557Y-6413500I-75057J0D01*
G01*
X13577443Y-6338443D02*
X13727557Y-6488557D01*
X13727557Y-6338443D02*
X13577443Y-6488557D01*
X13727557Y-6413500D02*
G75*
G03X13727557Y-6413500I-75057J0D01*
G01*
X14085443Y-6338443D02*
X14235557Y-6488557D01*
X14235557Y-6338443D02*
X14085443Y-6488557D01*
X14235557Y-6413500D02*
G75*
G03X14235557Y-6413500I-75057J0D01*
G01*
X7989443Y-8878443D02*
X8139557Y-9028557D01*
X8139557Y-8878443D02*
X7989443Y-9028557D01*
X8139557Y-8953500D02*
G75*
G03X8139557Y-8953500I-75057J0D01*
G01*
X7989443Y-9386443D02*
X8139557Y-9536557D01*
X8139557Y-9386443D02*
X7989443Y-9536557D01*
X8139557Y-9461500D02*
G75*
G03X8139557Y-9461500I-75057J0D01*
G01*
X7989443Y-10402443D02*
X8139557Y-10552557D01*
X8139557Y-10402443D02*
X7989443Y-10552557D01*
X8139557Y-10477500D02*
G75*
G03X8139557Y-10477500I-75057J0D01*
G01*
X8497443Y-10402443D02*
X8647557Y-10552557D01*
X8647557Y-10402443D02*
X8497443Y-10552557D01*
X8647557Y-10477500D02*
G75*
G03X8647557Y-10477500I-75057J0D01*
G01*
X9005443Y-10402443D02*
X9155557Y-10552557D01*
X9155557Y-10402443D02*
X9005443Y-10552557D01*
X9155557Y-10477500D02*
G75*
G03X9155557Y-10477500I-75057J0D01*
G01*
X9513443Y-10402443D02*
X9663557Y-10552557D01*
X9663557Y-10402443D02*
X9513443Y-10552557D01*
X9663557Y-10477500D02*
G75*
G03X9663557Y-10477500I-75057J0D01*
G01*
X16371443Y-6338443D02*
X16521557Y-6488557D01*
X16521557Y-6338443D02*
X16371443Y-6488557D01*
X16521557Y-6413500D02*
G75*
G03X16521557Y-6413500I-75057J0D01*
G01*
X16879443Y-6338443D02*
X17029557Y-6488557D01*
X17029557Y-6338443D02*
X16879443Y-6488557D01*
X17029557Y-6413500D02*
G75*
G03X17029557Y-6413500I-75057J0D01*
G01*
X17387443Y-6338443D02*
X17537557Y-6488557D01*
X17537557Y-6338443D02*
X17387443Y-6488557D01*
X17537557Y-6413500D02*
G75*
G03X17537557Y-6413500I-75057J0D01*
G01*
X17895443Y-6338443D02*
X18045557Y-6488557D01*
X18045557Y-6338443D02*
X17895443Y-6488557D01*
X18045557Y-6413500D02*
G75*
G03X18045557Y-6413500I-75057J0D01*
G01*
D12*
X7840428Y-11263214D02*
X7840428Y-10963214D01*
X7911857Y-10963214D01*
X7954714Y-10977500D01*
X7983286Y-11006072D01*
X7997571Y-11034643D01*
X8011857Y-11091786D01*
X8011857Y-11134643D01*
X7997571Y-11191786D01*
X7983286Y-11220357D01*
X7954714Y-11248929D01*
X7911857Y-11263214D01*
X7840428Y-11263214D01*
X8140428Y-11263214D02*
X8140428Y-11063214D01*
X8140428Y-11120357D02*
X8154714Y-11091786D01*
X8169000Y-11077500D01*
X8197571Y-11063214D01*
X8226143Y-11063214D01*
X8326143Y-11263214D02*
X8326143Y-11063214D01*
X8326143Y-10963214D02*
X8311857Y-10977500D01*
X8326143Y-10991786D01*
X8340428Y-10977500D01*
X8326143Y-10963214D01*
X8326143Y-10991786D01*
X8511857Y-11263214D02*
X8483286Y-11248929D01*
X8469000Y-11220357D01*
X8469000Y-10963214D01*
X8669000Y-11263214D02*
X8640428Y-11248929D01*
X8626143Y-11220357D01*
X8626143Y-10963214D01*
X9011857Y-11263214D02*
X9011857Y-10963214D01*
X9111857Y-11177500D01*
X9211857Y-10963214D01*
X9211857Y-11263214D01*
X9483286Y-11263214D02*
X9483286Y-11106072D01*
X9469000Y-11077500D01*
X9440428Y-11063214D01*
X9383286Y-11063214D01*
X9354714Y-11077500D01*
X9483286Y-11248929D02*
X9454714Y-11263214D01*
X9383286Y-11263214D01*
X9354714Y-11248929D01*
X9340428Y-11220357D01*
X9340428Y-11191786D01*
X9354714Y-11163214D01*
X9383286Y-11148929D01*
X9454714Y-11148929D01*
X9483286Y-11134643D01*
X9626143Y-11063214D02*
X9626143Y-11363214D01*
X9626143Y-11077500D02*
X9654714Y-11063214D01*
X9711857Y-11063214D01*
X9740428Y-11077500D01*
X9754714Y-11091786D01*
X9769000Y-11120357D01*
X9769000Y-11206071D01*
X9754714Y-11234643D01*
X9740428Y-11248929D01*
X9711857Y-11263214D01*
X9654714Y-11263214D01*
X9626143Y-11248929D01*
X9897571Y-11234643D02*
X9911857Y-11248929D01*
X9897571Y-11263214D01*
X9883286Y-11248929D01*
X9897571Y-11234643D01*
X9897571Y-11263214D01*
X9897571Y-11077500D02*
X9911857Y-11091786D01*
X9897571Y-11106072D01*
X9883286Y-11091786D01*
X9897571Y-11077500D01*
X9897571Y-11106072D01*
X7514000Y-11737500D02*
X7554000Y-11777500D01*
X7554000Y-11737500D02*
X7514000Y-11777500D01*
X7897571Y-11593214D02*
X7926143Y-11593214D01*
X7954714Y-11607500D01*
X7969000Y-11621786D01*
X7983286Y-11650357D01*
X7997571Y-11707500D01*
X7997571Y-11778929D01*
X7983286Y-11836071D01*
X7969000Y-11864643D01*
X7954714Y-11878929D01*
X7926143Y-11893214D01*
X7897571Y-11893214D01*
X7869000Y-11878929D01*
X7854714Y-11864643D01*
X7840428Y-11836071D01*
X7826143Y-11778929D01*
X7826143Y-11707500D01*
X7840428Y-11650357D01*
X7854714Y-11621786D01*
X7869000Y-11607500D01*
X7897571Y-11593214D01*
X8126143Y-11864643D02*
X8140428Y-11878929D01*
X8126143Y-11893214D01*
X8111857Y-11878929D01*
X8126143Y-11864643D01*
X8126143Y-11893214D01*
X8397571Y-11693214D02*
X8397571Y-11893214D01*
X8326143Y-11578929D02*
X8254714Y-11793214D01*
X8440428Y-11793214D01*
X8611857Y-11593214D02*
X8640428Y-11593214D01*
X8669000Y-11607500D01*
X8683286Y-11621786D01*
X8697571Y-11650357D01*
X8711857Y-11707500D01*
X8711857Y-11778929D01*
X8697571Y-11836071D01*
X8683286Y-11864643D01*
X8669000Y-11878929D01*
X8640428Y-11893214D01*
X8611857Y-11893214D01*
X8583286Y-11878929D01*
X8569000Y-11864643D01*
X8554714Y-11836071D01*
X8540428Y-11778929D01*
X8540428Y-11707500D01*
X8554714Y-11650357D01*
X8569000Y-11621786D01*
X8583286Y-11607500D01*
X8611857Y-11593214D01*
X8840428Y-11893214D02*
X8840428Y-11693214D01*
X8840428Y-11721786D02*
X8854714Y-11707500D01*
X8883286Y-11693214D01*
X8926143Y-11693214D01*
X8954714Y-11707500D01*
X8969000Y-11736071D01*
X8969000Y-11893214D01*
X8969000Y-11736071D02*
X8983286Y-11707500D01*
X9011857Y-11693214D01*
X9054714Y-11693214D01*
X9083286Y-11707500D01*
X9097571Y-11736071D01*
X9097571Y-11893214D01*
X9240428Y-11893214D02*
X9240428Y-11693214D01*
X9240428Y-11721786D02*
X9254714Y-11707500D01*
X9283286Y-11693214D01*
X9326143Y-11693214D01*
X9354714Y-11707500D01*
X9369000Y-11736071D01*
X9369000Y-11893214D01*
X9369000Y-11736071D02*
X9383286Y-11707500D01*
X9411857Y-11693214D01*
X9454714Y-11693214D01*
X9483286Y-11707500D01*
X9497571Y-11736071D01*
X9497571Y-11893214D01*
X10083286Y-11578929D02*
X9826143Y-11964643D01*
X10469000Y-11593214D02*
X10497571Y-11593214D01*
X10526143Y-11607500D01*
X10540428Y-11621786D01*
X10554714Y-11650357D01*
X10569000Y-11707500D01*
X10569000Y-11778929D01*
X10554714Y-11836071D01*
X10540428Y-11864643D01*
X10526143Y-11878929D01*
X10497571Y-11893214D01*
X10469000Y-11893214D01*
X10440428Y-11878929D01*
X10426143Y-11864643D01*
X10411857Y-11836071D01*
X10397571Y-11778929D01*
X10397571Y-11707500D01*
X10411857Y-11650357D01*
X10426143Y-11621786D01*
X10440428Y-11607500D01*
X10469000Y-11593214D01*
X10697571Y-11864643D02*
X10711857Y-11878929D01*
X10697571Y-11893214D01*
X10683286Y-11878929D01*
X10697571Y-11864643D01*
X10697571Y-11893214D01*
X10897571Y-11593214D02*
X10926143Y-11593214D01*
X10954714Y-11607500D01*
X10969000Y-11621786D01*
X10983286Y-11650357D01*
X10997571Y-11707500D01*
X10997571Y-11778929D01*
X10983286Y-11836071D01*
X10969000Y-11864643D01*
X10954714Y-11878929D01*
X10926143Y-11893214D01*
X10897571Y-11893214D01*
X10869000Y-11878929D01*
X10854714Y-11864643D01*
X10840428Y-11836071D01*
X10826143Y-11778929D01*
X10826143Y-11707500D01*
X10840428Y-11650357D01*
X10854714Y-11621786D01*
X10869000Y-11607500D01*
X10897571Y-11593214D01*
X11283286Y-11893214D02*
X11111857Y-11893214D01*
X11197571Y-11893214D02*
X11197571Y-11593214D01*
X11169000Y-11636071D01*
X11140428Y-11664643D01*
X11111857Y-11678929D01*
X11540428Y-11593214D02*
X11483286Y-11593214D01*
X11454714Y-11607500D01*
X11440428Y-11621786D01*
X11411857Y-11664643D01*
X11397571Y-11721786D01*
X11397571Y-11836071D01*
X11411857Y-11864643D01*
X11426143Y-11878929D01*
X11454714Y-11893214D01*
X11511857Y-11893214D01*
X11540428Y-11878929D01*
X11554714Y-11864643D01*
X11569000Y-11836071D01*
X11569000Y-11764643D01*
X11554714Y-11736071D01*
X11540428Y-11721786D01*
X11511857Y-11707500D01*
X11454714Y-11707500D01*
X11426143Y-11721786D01*
X11411857Y-11736071D01*
X11397571Y-11764643D01*
X11683286Y-11593214D02*
X11683286Y-11650357D01*
X11797571Y-11593214D02*
X11797571Y-11650357D01*
X12240428Y-12007500D02*
X12226143Y-11993214D01*
X12197571Y-11950357D01*
X12183286Y-11921786D01*
X12169000Y-11878929D01*
X12154714Y-11807500D01*
X12154714Y-11750357D01*
X12169000Y-11678929D01*
X12183286Y-11636071D01*
X12197571Y-11607500D01*
X12226143Y-11564643D01*
X12240428Y-11550357D01*
X12340428Y-11621786D02*
X12354714Y-11607500D01*
X12383286Y-11593214D01*
X12454714Y-11593214D01*
X12483286Y-11607500D01*
X12497571Y-11621786D01*
X12511857Y-11650357D01*
X12511857Y-11678929D01*
X12497571Y-11721786D01*
X12326143Y-11893214D01*
X12511857Y-11893214D01*
X12797571Y-11893214D02*
X12626143Y-11893214D01*
X12711857Y-11893214D02*
X12711857Y-11593214D01*
X12683286Y-11636071D01*
X12654714Y-11664643D01*
X12626143Y-11678929D01*
X13154714Y-11893214D02*
X13154714Y-11593214D01*
X13283286Y-11893214D02*
X13283286Y-11736071D01*
X13269000Y-11707500D01*
X13240428Y-11693214D01*
X13197571Y-11693214D01*
X13169000Y-11707500D01*
X13154714Y-11721786D01*
X13469000Y-11893214D02*
X13440428Y-11878929D01*
X13426143Y-11864643D01*
X13411857Y-11836071D01*
X13411857Y-11750357D01*
X13426143Y-11721786D01*
X13440428Y-11707500D01*
X13469000Y-11693214D01*
X13511857Y-11693214D01*
X13540428Y-11707500D01*
X13554714Y-11721786D01*
X13569000Y-11750357D01*
X13569000Y-11836071D01*
X13554714Y-11864643D01*
X13540428Y-11878929D01*
X13511857Y-11893214D01*
X13469000Y-11893214D01*
X13740428Y-11893214D02*
X13711857Y-11878929D01*
X13697571Y-11850357D01*
X13697571Y-11593214D01*
X13969000Y-11878929D02*
X13940428Y-11893214D01*
X13883286Y-11893214D01*
X13854714Y-11878929D01*
X13840428Y-11850357D01*
X13840428Y-11736071D01*
X13854714Y-11707500D01*
X13883286Y-11693214D01*
X13940428Y-11693214D01*
X13969000Y-11707500D01*
X13983286Y-11736071D01*
X13983286Y-11764643D01*
X13840428Y-11793214D01*
X14097571Y-11878929D02*
X14126143Y-11893214D01*
X14183286Y-11893214D01*
X14211857Y-11878929D01*
X14226143Y-11850357D01*
X14226143Y-11836071D01*
X14211857Y-11807500D01*
X14183286Y-11793214D01*
X14140428Y-11793214D01*
X14111857Y-11778929D01*
X14097571Y-11750357D01*
X14097571Y-11736071D01*
X14111857Y-11707500D01*
X14140428Y-11693214D01*
X14183286Y-11693214D01*
X14211857Y-11707500D01*
X14326143Y-12007500D02*
X14340428Y-11993214D01*
X14369000Y-11950357D01*
X14383286Y-11921786D01*
X14397571Y-11878929D01*
X14411857Y-11807500D01*
X14411857Y-11750357D01*
X14397571Y-11678929D01*
X14383286Y-11636071D01*
X14369000Y-11607500D01*
X14340428Y-11564643D01*
X14326143Y-11550357D01*
X7554000Y-12153500D02*
G75*
G03X7554000Y-12153500I-35000J0D01*
G01*
X7897571Y-11989214D02*
X7926143Y-11989214D01*
X7954714Y-12003500D01*
X7969000Y-12017786D01*
X7983286Y-12046357D01*
X7997571Y-12103500D01*
X7997571Y-12174929D01*
X7983286Y-12232071D01*
X7969000Y-12260643D01*
X7954714Y-12274929D01*
X7926143Y-12289214D01*
X7897571Y-12289214D01*
X7869000Y-12274929D01*
X7854714Y-12260643D01*
X7840428Y-12232071D01*
X7826143Y-12174929D01*
X7826143Y-12103500D01*
X7840428Y-12046357D01*
X7854714Y-12017786D01*
X7869000Y-12003500D01*
X7897571Y-11989214D01*
X8126143Y-12260643D02*
X8140428Y-12274929D01*
X8126143Y-12289214D01*
X8111857Y-12274929D01*
X8126143Y-12260643D01*
X8126143Y-12289214D01*
X8240428Y-11989214D02*
X8440428Y-11989214D01*
X8311857Y-12289214D01*
X8611857Y-11989214D02*
X8640428Y-11989214D01*
X8669000Y-12003500D01*
X8683286Y-12017786D01*
X8697571Y-12046357D01*
X8711857Y-12103500D01*
X8711857Y-12174929D01*
X8697571Y-12232071D01*
X8683286Y-12260643D01*
X8669000Y-12274929D01*
X8640428Y-12289214D01*
X8611857Y-12289214D01*
X8583286Y-12274929D01*
X8569000Y-12260643D01*
X8554714Y-12232071D01*
X8540428Y-12174929D01*
X8540428Y-12103500D01*
X8554714Y-12046357D01*
X8569000Y-12017786D01*
X8583286Y-12003500D01*
X8611857Y-11989214D01*
X8840428Y-12289214D02*
X8840428Y-12089214D01*
X8840428Y-12117786D02*
X8854714Y-12103500D01*
X8883286Y-12089214D01*
X8926143Y-12089214D01*
X8954714Y-12103500D01*
X8969000Y-12132071D01*
X8969000Y-12289214D01*
X8969000Y-12132071D02*
X8983286Y-12103500D01*
X9011857Y-12089214D01*
X9054714Y-12089214D01*
X9083286Y-12103500D01*
X9097571Y-12132071D01*
X9097571Y-12289214D01*
X9240428Y-12289214D02*
X9240428Y-12089214D01*
X9240428Y-12117786D02*
X9254714Y-12103500D01*
X9283286Y-12089214D01*
X9326143Y-12089214D01*
X9354714Y-12103500D01*
X9369000Y-12132071D01*
X9369000Y-12289214D01*
X9369000Y-12132071D02*
X9383286Y-12103500D01*
X9411857Y-12089214D01*
X9454714Y-12089214D01*
X9483286Y-12103500D01*
X9497571Y-12132071D01*
X9497571Y-12289214D01*
X10083286Y-11974929D02*
X9826143Y-12360643D01*
X10469000Y-11989214D02*
X10497571Y-11989214D01*
X10526143Y-12003500D01*
X10540428Y-12017786D01*
X10554714Y-12046357D01*
X10569000Y-12103500D01*
X10569000Y-12174929D01*
X10554714Y-12232071D01*
X10540428Y-12260643D01*
X10526143Y-12274929D01*
X10497571Y-12289214D01*
X10469000Y-12289214D01*
X10440428Y-12274929D01*
X10426143Y-12260643D01*
X10411857Y-12232071D01*
X10397571Y-12174929D01*
X10397571Y-12103500D01*
X10411857Y-12046357D01*
X10426143Y-12017786D01*
X10440428Y-12003500D01*
X10469000Y-11989214D01*
X10697571Y-12260643D02*
X10711857Y-12274929D01*
X10697571Y-12289214D01*
X10683286Y-12274929D01*
X10697571Y-12260643D01*
X10697571Y-12289214D01*
X10897571Y-11989214D02*
X10926143Y-11989214D01*
X10954714Y-12003500D01*
X10969000Y-12017786D01*
X10983286Y-12046357D01*
X10997571Y-12103500D01*
X10997571Y-12174929D01*
X10983286Y-12232071D01*
X10969000Y-12260643D01*
X10954714Y-12274929D01*
X10926143Y-12289214D01*
X10897571Y-12289214D01*
X10869000Y-12274929D01*
X10854714Y-12260643D01*
X10840428Y-12232071D01*
X10826143Y-12174929D01*
X10826143Y-12103500D01*
X10840428Y-12046357D01*
X10854714Y-12017786D01*
X10869000Y-12003500D01*
X10897571Y-11989214D01*
X11111857Y-12017786D02*
X11126143Y-12003500D01*
X11154714Y-11989214D01*
X11226143Y-11989214D01*
X11254714Y-12003500D01*
X11269000Y-12017786D01*
X11283286Y-12046357D01*
X11283286Y-12074929D01*
X11269000Y-12117786D01*
X11097571Y-12289214D01*
X11283286Y-12289214D01*
X11454714Y-12117786D02*
X11426143Y-12103500D01*
X11411857Y-12089214D01*
X11397571Y-12060643D01*
X11397571Y-12046357D01*
X11411857Y-12017786D01*
X11426143Y-12003500D01*
X11454714Y-11989214D01*
X11511857Y-11989214D01*
X11540428Y-12003500D01*
X11554714Y-12017786D01*
X11569000Y-12046357D01*
X11569000Y-12060643D01*
X11554714Y-12089214D01*
X11540428Y-12103500D01*
X11511857Y-12117786D01*
X11454714Y-12117786D01*
X11426143Y-12132071D01*
X11411857Y-12146357D01*
X11397571Y-12174929D01*
X11397571Y-12232071D01*
X11411857Y-12260643D01*
X11426143Y-12274929D01*
X11454714Y-12289214D01*
X11511857Y-12289214D01*
X11540428Y-12274929D01*
X11554714Y-12260643D01*
X11569000Y-12232071D01*
X11569000Y-12174929D01*
X11554714Y-12146357D01*
X11540428Y-12132071D01*
X11511857Y-12117786D01*
X11683286Y-11989214D02*
X11683286Y-12046357D01*
X11797571Y-11989214D02*
X11797571Y-12046357D01*
X12240428Y-12403500D02*
X12226143Y-12389214D01*
X12197571Y-12346357D01*
X12183286Y-12317786D01*
X12169000Y-12274929D01*
X12154714Y-12203500D01*
X12154714Y-12146357D01*
X12169000Y-12074929D01*
X12183286Y-12032071D01*
X12197571Y-12003500D01*
X12226143Y-11960643D01*
X12240428Y-11946357D01*
X12511857Y-12289214D02*
X12340428Y-12289214D01*
X12426143Y-12289214D02*
X12426143Y-11989214D01*
X12397571Y-12032071D01*
X12369000Y-12060643D01*
X12340428Y-12074929D01*
X12769000Y-12089214D02*
X12769000Y-12289214D01*
X12697571Y-11974929D02*
X12626143Y-12189214D01*
X12811857Y-12189214D01*
X13154714Y-12289214D02*
X13154714Y-11989214D01*
X13283286Y-12289214D02*
X13283286Y-12132071D01*
X13269000Y-12103500D01*
X13240428Y-12089214D01*
X13197571Y-12089214D01*
X13169000Y-12103500D01*
X13154714Y-12117786D01*
X13469000Y-12289214D02*
X13440428Y-12274929D01*
X13426143Y-12260643D01*
X13411857Y-12232071D01*
X13411857Y-12146357D01*
X13426143Y-12117786D01*
X13440428Y-12103500D01*
X13469000Y-12089214D01*
X13511857Y-12089214D01*
X13540428Y-12103500D01*
X13554714Y-12117786D01*
X13569000Y-12146357D01*
X13569000Y-12232071D01*
X13554714Y-12260643D01*
X13540428Y-12274929D01*
X13511857Y-12289214D01*
X13469000Y-12289214D01*
X13740428Y-12289214D02*
X13711857Y-12274929D01*
X13697571Y-12246357D01*
X13697571Y-11989214D01*
X13969000Y-12274929D02*
X13940428Y-12289214D01*
X13883286Y-12289214D01*
X13854714Y-12274929D01*
X13840428Y-12246357D01*
X13840428Y-12132071D01*
X13854714Y-12103500D01*
X13883286Y-12089214D01*
X13940428Y-12089214D01*
X13969000Y-12103500D01*
X13983286Y-12132071D01*
X13983286Y-12160643D01*
X13840428Y-12189214D01*
X14097571Y-12274929D02*
X14126143Y-12289214D01*
X14183286Y-12289214D01*
X14211857Y-12274929D01*
X14226143Y-12246357D01*
X14226143Y-12232071D01*
X14211857Y-12203500D01*
X14183286Y-12189214D01*
X14140428Y-12189214D01*
X14111857Y-12174929D01*
X14097571Y-12146357D01*
X14097571Y-12132071D01*
X14111857Y-12103500D01*
X14140428Y-12089214D01*
X14183286Y-12089214D01*
X14211857Y-12103500D01*
X14326143Y-12403500D02*
X14340428Y-12389214D01*
X14369000Y-12346357D01*
X14383286Y-12317786D01*
X14397571Y-12274929D01*
X14411857Y-12203500D01*
X14411857Y-12146357D01*
X14397571Y-12074929D01*
X14383286Y-12032071D01*
X14369000Y-12003500D01*
X14340428Y-11960643D01*
X14326143Y-11946357D01*
X7514000Y-12509500D02*
X7514000Y-12589500D01*
X7474000Y-12549500D02*
X7554000Y-12549500D01*
X7897571Y-12385214D02*
X7926143Y-12385214D01*
X7954714Y-12399500D01*
X7969000Y-12413786D01*
X7983286Y-12442357D01*
X7997571Y-12499500D01*
X7997571Y-12570929D01*
X7983286Y-12628071D01*
X7969000Y-12656643D01*
X7954714Y-12670929D01*
X7926143Y-12685214D01*
X7897571Y-12685214D01*
X7869000Y-12670929D01*
X7854714Y-12656643D01*
X7840428Y-12628071D01*
X7826143Y-12570929D01*
X7826143Y-12499500D01*
X7840428Y-12442357D01*
X7854714Y-12413786D01*
X7869000Y-12399500D01*
X7897571Y-12385214D01*
X8126143Y-12656643D02*
X8140428Y-12670929D01*
X8126143Y-12685214D01*
X8111857Y-12670929D01*
X8126143Y-12656643D01*
X8126143Y-12685214D01*
X8311857Y-12513786D02*
X8283286Y-12499500D01*
X8269000Y-12485214D01*
X8254714Y-12456643D01*
X8254714Y-12442357D01*
X8269000Y-12413786D01*
X8283286Y-12399500D01*
X8311857Y-12385214D01*
X8369000Y-12385214D01*
X8397571Y-12399500D01*
X8411857Y-12413786D01*
X8426143Y-12442357D01*
X8426143Y-12456643D01*
X8411857Y-12485214D01*
X8397571Y-12499500D01*
X8369000Y-12513786D01*
X8311857Y-12513786D01*
X8283286Y-12528071D01*
X8269000Y-12542357D01*
X8254714Y-12570929D01*
X8254714Y-12628071D01*
X8269000Y-12656643D01*
X8283286Y-12670929D01*
X8311857Y-12685214D01*
X8369000Y-12685214D01*
X8397571Y-12670929D01*
X8411857Y-12656643D01*
X8426143Y-12628071D01*
X8426143Y-12570929D01*
X8411857Y-12542357D01*
X8397571Y-12528071D01*
X8369000Y-12513786D01*
X8611857Y-12385214D02*
X8640428Y-12385214D01*
X8669000Y-12399500D01*
X8683286Y-12413786D01*
X8697571Y-12442357D01*
X8711857Y-12499500D01*
X8711857Y-12570929D01*
X8697571Y-12628071D01*
X8683286Y-12656643D01*
X8669000Y-12670929D01*
X8640428Y-12685214D01*
X8611857Y-12685214D01*
X8583286Y-12670929D01*
X8569000Y-12656643D01*
X8554714Y-12628071D01*
X8540428Y-12570929D01*
X8540428Y-12499500D01*
X8554714Y-12442357D01*
X8569000Y-12413786D01*
X8583286Y-12399500D01*
X8611857Y-12385214D01*
X8840428Y-12685214D02*
X8840428Y-12485214D01*
X8840428Y-12513786D02*
X8854714Y-12499500D01*
X8883286Y-12485214D01*
X8926143Y-12485214D01*
X8954714Y-12499500D01*
X8969000Y-12528071D01*
X8969000Y-12685214D01*
X8969000Y-12528071D02*
X8983286Y-12499500D01*
X9011857Y-12485214D01*
X9054714Y-12485214D01*
X9083286Y-12499500D01*
X9097571Y-12528071D01*
X9097571Y-12685214D01*
X9240428Y-12685214D02*
X9240428Y-12485214D01*
X9240428Y-12513786D02*
X9254714Y-12499500D01*
X9283286Y-12485214D01*
X9326143Y-12485214D01*
X9354714Y-12499500D01*
X9369000Y-12528071D01*
X9369000Y-12685214D01*
X9369000Y-12528071D02*
X9383286Y-12499500D01*
X9411857Y-12485214D01*
X9454714Y-12485214D01*
X9483286Y-12499500D01*
X9497571Y-12528071D01*
X9497571Y-12685214D01*
X10083286Y-12370929D02*
X9826143Y-12756643D01*
X10469000Y-12385214D02*
X10497571Y-12385214D01*
X10526143Y-12399500D01*
X10540428Y-12413786D01*
X10554714Y-12442357D01*
X10569000Y-12499500D01*
X10569000Y-12570929D01*
X10554714Y-12628071D01*
X10540428Y-12656643D01*
X10526143Y-12670929D01*
X10497571Y-12685214D01*
X10469000Y-12685214D01*
X10440428Y-12670929D01*
X10426143Y-12656643D01*
X10411857Y-12628071D01*
X10397571Y-12570929D01*
X10397571Y-12499500D01*
X10411857Y-12442357D01*
X10426143Y-12413786D01*
X10440428Y-12399500D01*
X10469000Y-12385214D01*
X10697571Y-12656643D02*
X10711857Y-12670929D01*
X10697571Y-12685214D01*
X10683286Y-12670929D01*
X10697571Y-12656643D01*
X10697571Y-12685214D01*
X10897571Y-12385214D02*
X10926143Y-12385214D01*
X10954714Y-12399500D01*
X10969000Y-12413786D01*
X10983286Y-12442357D01*
X10997571Y-12499500D01*
X10997571Y-12570929D01*
X10983286Y-12628071D01*
X10969000Y-12656643D01*
X10954714Y-12670929D01*
X10926143Y-12685214D01*
X10897571Y-12685214D01*
X10869000Y-12670929D01*
X10854714Y-12656643D01*
X10840428Y-12628071D01*
X10826143Y-12570929D01*
X10826143Y-12499500D01*
X10840428Y-12442357D01*
X10854714Y-12413786D01*
X10869000Y-12399500D01*
X10897571Y-12385214D01*
X11097571Y-12385214D02*
X11283286Y-12385214D01*
X11183286Y-12499500D01*
X11226143Y-12499500D01*
X11254714Y-12513786D01*
X11269000Y-12528071D01*
X11283286Y-12556643D01*
X11283286Y-12628071D01*
X11269000Y-12656643D01*
X11254714Y-12670929D01*
X11226143Y-12685214D01*
X11140428Y-12685214D01*
X11111857Y-12670929D01*
X11097571Y-12656643D01*
X11569000Y-12685214D02*
X11397571Y-12685214D01*
X11483286Y-12685214D02*
X11483286Y-12385214D01*
X11454714Y-12428071D01*
X11426143Y-12456643D01*
X11397571Y-12470929D01*
X11683286Y-12385214D02*
X11683286Y-12442357D01*
X11797571Y-12385214D02*
X11797571Y-12442357D01*
X12240428Y-12799500D02*
X12226143Y-12785214D01*
X12197571Y-12742357D01*
X12183286Y-12713786D01*
X12169000Y-12670929D01*
X12154714Y-12599500D01*
X12154714Y-12542357D01*
X12169000Y-12470929D01*
X12183286Y-12428071D01*
X12197571Y-12399500D01*
X12226143Y-12356643D01*
X12240428Y-12342357D01*
X12511857Y-12685214D02*
X12340428Y-12685214D01*
X12426143Y-12685214D02*
X12426143Y-12385214D01*
X12397571Y-12428071D01*
X12369000Y-12456643D01*
X12340428Y-12470929D01*
X12626143Y-12413786D02*
X12640428Y-12399500D01*
X12669000Y-12385214D01*
X12740428Y-12385214D01*
X12769000Y-12399500D01*
X12783286Y-12413786D01*
X12797571Y-12442357D01*
X12797571Y-12470929D01*
X12783286Y-12513786D01*
X12611857Y-12685214D01*
X12797571Y-12685214D01*
X13154714Y-12685214D02*
X13154714Y-12385214D01*
X13283286Y-12685214D02*
X13283286Y-12528071D01*
X13269000Y-12499500D01*
X13240428Y-12485214D01*
X13197571Y-12485214D01*
X13169000Y-12499500D01*
X13154714Y-12513786D01*
X13469000Y-12685214D02*
X13440428Y-12670929D01*
X13426143Y-12656643D01*
X13411857Y-12628071D01*
X13411857Y-12542357D01*
X13426143Y-12513786D01*
X13440428Y-12499500D01*
X13469000Y-12485214D01*
X13511857Y-12485214D01*
X13540428Y-12499500D01*
X13554714Y-12513786D01*
X13569000Y-12542357D01*
X13569000Y-12628071D01*
X13554714Y-12656643D01*
X13540428Y-12670929D01*
X13511857Y-12685214D01*
X13469000Y-12685214D01*
X13740428Y-12685214D02*
X13711857Y-12670929D01*
X13697571Y-12642357D01*
X13697571Y-12385214D01*
X13969000Y-12670929D02*
X13940428Y-12685214D01*
X13883286Y-12685214D01*
X13854714Y-12670929D01*
X13840428Y-12642357D01*
X13840428Y-12528071D01*
X13854714Y-12499500D01*
X13883286Y-12485214D01*
X13940428Y-12485214D01*
X13969000Y-12499500D01*
X13983286Y-12528071D01*
X13983286Y-12556643D01*
X13840428Y-12585214D01*
X14097571Y-12670929D02*
X14126143Y-12685214D01*
X14183286Y-12685214D01*
X14211857Y-12670929D01*
X14226143Y-12642357D01*
X14226143Y-12628071D01*
X14211857Y-12599500D01*
X14183286Y-12585214D01*
X14140428Y-12585214D01*
X14111857Y-12570929D01*
X14097571Y-12542357D01*
X14097571Y-12528071D01*
X14111857Y-12499500D01*
X14140428Y-12485214D01*
X14183286Y-12485214D01*
X14211857Y-12499500D01*
X14326143Y-12799500D02*
X14340428Y-12785214D01*
X14369000Y-12742357D01*
X14383286Y-12713786D01*
X14397571Y-12670929D01*
X14411857Y-12599500D01*
X14411857Y-12542357D01*
X14397571Y-12470929D01*
X14383286Y-12428071D01*
X14369000Y-12399500D01*
X14340428Y-12356643D01*
X14326143Y-12342357D01*
X7537891Y-12984391D02*
X7537891Y-12906609D01*
X7460109Y-12906609D01*
X7460109Y-12984391D01*
X7537891Y-12984391D01*
X7997571Y-13081214D02*
X7826143Y-13081214D01*
X7911857Y-13081214D02*
X7911857Y-12781214D01*
X7883286Y-12824071D01*
X7854714Y-12852643D01*
X7826143Y-12866929D01*
X8126143Y-13052643D02*
X8140428Y-13066929D01*
X8126143Y-13081214D01*
X8111857Y-13066929D01*
X8126143Y-13052643D01*
X8126143Y-13081214D01*
X8426143Y-13081214D02*
X8254714Y-13081214D01*
X8340428Y-13081214D02*
X8340428Y-12781214D01*
X8311857Y-12824071D01*
X8283286Y-12852643D01*
X8254714Y-12866929D01*
X8611857Y-12781214D02*
X8640428Y-12781214D01*
X8669000Y-12795500D01*
X8683286Y-12809786D01*
X8697571Y-12838357D01*
X8711857Y-12895500D01*
X8711857Y-12966929D01*
X8697571Y-13024071D01*
X8683286Y-13052643D01*
X8669000Y-13066929D01*
X8640428Y-13081214D01*
X8611857Y-13081214D01*
X8583286Y-13066929D01*
X8569000Y-13052643D01*
X8554714Y-13024071D01*
X8540428Y-12966929D01*
X8540428Y-12895500D01*
X8554714Y-12838357D01*
X8569000Y-12809786D01*
X8583286Y-12795500D01*
X8611857Y-12781214D01*
X8840428Y-13081214D02*
X8840428Y-12881214D01*
X8840428Y-12909786D02*
X8854714Y-12895500D01*
X8883286Y-12881214D01*
X8926143Y-12881214D01*
X8954714Y-12895500D01*
X8969000Y-12924071D01*
X8969000Y-13081214D01*
X8969000Y-12924071D02*
X8983286Y-12895500D01*
X9011857Y-12881214D01*
X9054714Y-12881214D01*
X9083286Y-12895500D01*
X9097571Y-12924071D01*
X9097571Y-13081214D01*
X9240428Y-13081214D02*
X9240428Y-12881214D01*
X9240428Y-12909786D02*
X9254714Y-12895500D01*
X9283286Y-12881214D01*
X9326143Y-12881214D01*
X9354714Y-12895500D01*
X9369000Y-12924071D01*
X9369000Y-13081214D01*
X9369000Y-12924071D02*
X9383286Y-12895500D01*
X9411857Y-12881214D01*
X9454714Y-12881214D01*
X9483286Y-12895500D01*
X9497571Y-12924071D01*
X9497571Y-13081214D01*
X10083286Y-12766929D02*
X9826143Y-13152643D01*
X10469000Y-12781214D02*
X10497571Y-12781214D01*
X10526143Y-12795500D01*
X10540428Y-12809786D01*
X10554714Y-12838357D01*
X10569000Y-12895500D01*
X10569000Y-12966929D01*
X10554714Y-13024071D01*
X10540428Y-13052643D01*
X10526143Y-13066929D01*
X10497571Y-13081214D01*
X10469000Y-13081214D01*
X10440428Y-13066929D01*
X10426143Y-13052643D01*
X10411857Y-13024071D01*
X10397571Y-12966929D01*
X10397571Y-12895500D01*
X10411857Y-12838357D01*
X10426143Y-12809786D01*
X10440428Y-12795500D01*
X10469000Y-12781214D01*
X10697571Y-13052643D02*
X10711857Y-13066929D01*
X10697571Y-13081214D01*
X10683286Y-13066929D01*
X10697571Y-13052643D01*
X10697571Y-13081214D01*
X10897571Y-12781214D02*
X10926143Y-12781214D01*
X10954714Y-12795500D01*
X10969000Y-12809786D01*
X10983286Y-12838357D01*
X10997571Y-12895500D01*
X10997571Y-12966929D01*
X10983286Y-13024071D01*
X10969000Y-13052643D01*
X10954714Y-13066929D01*
X10926143Y-13081214D01*
X10897571Y-13081214D01*
X10869000Y-13066929D01*
X10854714Y-13052643D01*
X10840428Y-13024071D01*
X10826143Y-12966929D01*
X10826143Y-12895500D01*
X10840428Y-12838357D01*
X10854714Y-12809786D01*
X10869000Y-12795500D01*
X10897571Y-12781214D01*
X11254714Y-12881214D02*
X11254714Y-13081214D01*
X11183286Y-12766929D02*
X11111857Y-12981214D01*
X11297571Y-12981214D01*
X11383286Y-12781214D02*
X11569000Y-12781214D01*
X11469000Y-12895500D01*
X11511857Y-12895500D01*
X11540428Y-12909786D01*
X11554714Y-12924071D01*
X11569000Y-12952643D01*
X11569000Y-13024071D01*
X11554714Y-13052643D01*
X11540428Y-13066929D01*
X11511857Y-13081214D01*
X11426143Y-13081214D01*
X11397571Y-13066929D01*
X11383286Y-13052643D01*
X11683286Y-12781214D02*
X11683286Y-12838357D01*
X11797571Y-12781214D02*
X11797571Y-12838357D01*
X12240428Y-13195500D02*
X12226143Y-13181214D01*
X12197571Y-13138357D01*
X12183286Y-13109786D01*
X12169000Y-13066929D01*
X12154714Y-12995500D01*
X12154714Y-12938357D01*
X12169000Y-12866929D01*
X12183286Y-12824071D01*
X12197571Y-12795500D01*
X12226143Y-12752643D01*
X12240428Y-12738357D01*
X12397571Y-12909786D02*
X12369000Y-12895500D01*
X12354714Y-12881214D01*
X12340428Y-12852643D01*
X12340428Y-12838357D01*
X12354714Y-12809786D01*
X12369000Y-12795500D01*
X12397571Y-12781214D01*
X12454714Y-12781214D01*
X12483286Y-12795500D01*
X12497571Y-12809786D01*
X12511857Y-12838357D01*
X12511857Y-12852643D01*
X12497571Y-12881214D01*
X12483286Y-12895500D01*
X12454714Y-12909786D01*
X12397571Y-12909786D01*
X12369000Y-12924071D01*
X12354714Y-12938357D01*
X12340428Y-12966929D01*
X12340428Y-13024071D01*
X12354714Y-13052643D01*
X12369000Y-13066929D01*
X12397571Y-13081214D01*
X12454714Y-13081214D01*
X12483286Y-13066929D01*
X12497571Y-13052643D01*
X12511857Y-13024071D01*
X12511857Y-12966929D01*
X12497571Y-12938357D01*
X12483286Y-12924071D01*
X12454714Y-12909786D01*
X12869000Y-13081214D02*
X12869000Y-12781214D01*
X12997571Y-13081214D02*
X12997571Y-12924071D01*
X12983286Y-12895500D01*
X12954714Y-12881214D01*
X12911857Y-12881214D01*
X12883286Y-12895500D01*
X12869000Y-12909786D01*
X13183286Y-13081214D02*
X13154714Y-13066929D01*
X13140428Y-13052643D01*
X13126143Y-13024071D01*
X13126143Y-12938357D01*
X13140428Y-12909786D01*
X13154714Y-12895500D01*
X13183286Y-12881214D01*
X13226143Y-12881214D01*
X13254714Y-12895500D01*
X13269000Y-12909786D01*
X13283286Y-12938357D01*
X13283286Y-13024071D01*
X13269000Y-13052643D01*
X13254714Y-13066929D01*
X13226143Y-13081214D01*
X13183286Y-13081214D01*
X13454714Y-13081214D02*
X13426143Y-13066929D01*
X13411857Y-13038357D01*
X13411857Y-12781214D01*
X13683286Y-13066929D02*
X13654714Y-13081214D01*
X13597571Y-13081214D01*
X13569000Y-13066929D01*
X13554714Y-13038357D01*
X13554714Y-12924071D01*
X13569000Y-12895500D01*
X13597571Y-12881214D01*
X13654714Y-12881214D01*
X13683286Y-12895500D01*
X13697571Y-12924071D01*
X13697571Y-12952643D01*
X13554714Y-12981214D01*
X13811857Y-13066929D02*
X13840428Y-13081214D01*
X13897571Y-13081214D01*
X13926143Y-13066929D01*
X13940428Y-13038357D01*
X13940428Y-13024071D01*
X13926143Y-12995500D01*
X13897571Y-12981214D01*
X13854714Y-12981214D01*
X13826143Y-12966929D01*
X13811857Y-12938357D01*
X13811857Y-12924071D01*
X13826143Y-12895500D01*
X13854714Y-12881214D01*
X13897571Y-12881214D01*
X13926143Y-12895500D01*
X14040428Y-13195500D02*
X14054714Y-13181214D01*
X14083286Y-13138357D01*
X14097571Y-13109786D01*
X14111857Y-13066929D01*
X14126143Y-12995500D01*
X14126143Y-12938357D01*
X14111857Y-12866929D01*
X14097571Y-12824071D01*
X14083286Y-12795500D01*
X14054714Y-12752643D01*
X14040428Y-12738357D01*
X7494000Y-13401500D02*
X7554000Y-13341500D01*
X7494000Y-13281500D01*
X7434000Y-13341500D01*
X7494000Y-13401500D01*
X7997571Y-13477214D02*
X7826143Y-13477214D01*
X7911857Y-13477214D02*
X7911857Y-13177214D01*
X7883286Y-13220071D01*
X7854714Y-13248643D01*
X7826143Y-13262929D01*
X8126143Y-13448643D02*
X8140428Y-13462929D01*
X8126143Y-13477214D01*
X8111857Y-13462929D01*
X8126143Y-13448643D01*
X8126143Y-13477214D01*
X8254714Y-13205786D02*
X8269000Y-13191500D01*
X8297571Y-13177214D01*
X8369000Y-13177214D01*
X8397571Y-13191500D01*
X8411857Y-13205786D01*
X8426143Y-13234357D01*
X8426143Y-13262929D01*
X8411857Y-13305786D01*
X8240428Y-13477214D01*
X8426143Y-13477214D01*
X8611857Y-13177214D02*
X8640428Y-13177214D01*
X8669000Y-13191500D01*
X8683286Y-13205786D01*
X8697571Y-13234357D01*
X8711857Y-13291500D01*
X8711857Y-13362929D01*
X8697571Y-13420071D01*
X8683286Y-13448643D01*
X8669000Y-13462929D01*
X8640428Y-13477214D01*
X8611857Y-13477214D01*
X8583286Y-13462929D01*
X8569000Y-13448643D01*
X8554714Y-13420071D01*
X8540428Y-13362929D01*
X8540428Y-13291500D01*
X8554714Y-13234357D01*
X8569000Y-13205786D01*
X8583286Y-13191500D01*
X8611857Y-13177214D01*
X8840428Y-13477214D02*
X8840428Y-13277214D01*
X8840428Y-13305786D02*
X8854714Y-13291500D01*
X8883286Y-13277214D01*
X8926143Y-13277214D01*
X8954714Y-13291500D01*
X8969000Y-13320071D01*
X8969000Y-13477214D01*
X8969000Y-13320071D02*
X8983286Y-13291500D01*
X9011857Y-13277214D01*
X9054714Y-13277214D01*
X9083286Y-13291500D01*
X9097571Y-13320071D01*
X9097571Y-13477214D01*
X9240428Y-13477214D02*
X9240428Y-13277214D01*
X9240428Y-13305786D02*
X9254714Y-13291500D01*
X9283286Y-13277214D01*
X9326143Y-13277214D01*
X9354714Y-13291500D01*
X9369000Y-13320071D01*
X9369000Y-13477214D01*
X9369000Y-13320071D02*
X9383286Y-13291500D01*
X9411857Y-13277214D01*
X9454714Y-13277214D01*
X9483286Y-13291500D01*
X9497571Y-13320071D01*
X9497571Y-13477214D01*
X10083286Y-13162929D02*
X9826143Y-13548643D01*
X10469000Y-13177214D02*
X10497571Y-13177214D01*
X10526143Y-13191500D01*
X10540428Y-13205786D01*
X10554714Y-13234357D01*
X10569000Y-13291500D01*
X10569000Y-13362929D01*
X10554714Y-13420071D01*
X10540428Y-13448643D01*
X10526143Y-13462929D01*
X10497571Y-13477214D01*
X10469000Y-13477214D01*
X10440428Y-13462929D01*
X10426143Y-13448643D01*
X10411857Y-13420071D01*
X10397571Y-13362929D01*
X10397571Y-13291500D01*
X10411857Y-13234357D01*
X10426143Y-13205786D01*
X10440428Y-13191500D01*
X10469000Y-13177214D01*
X10697571Y-13448643D02*
X10711857Y-13462929D01*
X10697571Y-13477214D01*
X10683286Y-13462929D01*
X10697571Y-13448643D01*
X10697571Y-13477214D01*
X10897571Y-13177214D02*
X10926143Y-13177214D01*
X10954714Y-13191500D01*
X10969000Y-13205786D01*
X10983286Y-13234357D01*
X10997571Y-13291500D01*
X10997571Y-13362929D01*
X10983286Y-13420071D01*
X10969000Y-13448643D01*
X10954714Y-13462929D01*
X10926143Y-13477214D01*
X10897571Y-13477214D01*
X10869000Y-13462929D01*
X10854714Y-13448643D01*
X10840428Y-13420071D01*
X10826143Y-13362929D01*
X10826143Y-13291500D01*
X10840428Y-13234357D01*
X10854714Y-13205786D01*
X10869000Y-13191500D01*
X10897571Y-13177214D01*
X11254714Y-13277214D02*
X11254714Y-13477214D01*
X11183286Y-13162929D02*
X11111857Y-13377214D01*
X11297571Y-13377214D01*
X11383286Y-13177214D02*
X11583286Y-13177214D01*
X11454714Y-13477214D01*
X11683286Y-13177214D02*
X11683286Y-13234357D01*
X11797571Y-13177214D02*
X11797571Y-13234357D01*
X12240428Y-13591500D02*
X12226143Y-13577214D01*
X12197571Y-13534357D01*
X12183286Y-13505786D01*
X12169000Y-13462929D01*
X12154714Y-13391500D01*
X12154714Y-13334357D01*
X12169000Y-13262929D01*
X12183286Y-13220071D01*
X12197571Y-13191500D01*
X12226143Y-13148643D01*
X12240428Y-13134357D01*
X12340428Y-13205786D02*
X12354714Y-13191500D01*
X12383286Y-13177214D01*
X12454714Y-13177214D01*
X12483286Y-13191500D01*
X12497571Y-13205786D01*
X12511857Y-13234357D01*
X12511857Y-13262929D01*
X12497571Y-13305786D01*
X12326143Y-13477214D01*
X12511857Y-13477214D01*
X12869000Y-13477214D02*
X12869000Y-13177214D01*
X12997571Y-13477214D02*
X12997571Y-13320071D01*
X12983286Y-13291500D01*
X12954714Y-13277214D01*
X12911857Y-13277214D01*
X12883286Y-13291500D01*
X12869000Y-13305786D01*
X13183286Y-13477214D02*
X13154714Y-13462929D01*
X13140428Y-13448643D01*
X13126143Y-13420071D01*
X13126143Y-13334357D01*
X13140428Y-13305786D01*
X13154714Y-13291500D01*
X13183286Y-13277214D01*
X13226143Y-13277214D01*
X13254714Y-13291500D01*
X13269000Y-13305786D01*
X13283286Y-13334357D01*
X13283286Y-13420071D01*
X13269000Y-13448643D01*
X13254714Y-13462929D01*
X13226143Y-13477214D01*
X13183286Y-13477214D01*
X13454714Y-13477214D02*
X13426143Y-13462929D01*
X13411857Y-13434357D01*
X13411857Y-13177214D01*
X13683286Y-13462929D02*
X13654714Y-13477214D01*
X13597571Y-13477214D01*
X13569000Y-13462929D01*
X13554714Y-13434357D01*
X13554714Y-13320071D01*
X13569000Y-13291500D01*
X13597571Y-13277214D01*
X13654714Y-13277214D01*
X13683286Y-13291500D01*
X13697571Y-13320071D01*
X13697571Y-13348643D01*
X13554714Y-13377214D01*
X13811857Y-13462929D02*
X13840428Y-13477214D01*
X13897571Y-13477214D01*
X13926143Y-13462929D01*
X13940428Y-13434357D01*
X13940428Y-13420071D01*
X13926143Y-13391500D01*
X13897571Y-13377214D01*
X13854714Y-13377214D01*
X13826143Y-13362929D01*
X13811857Y-13334357D01*
X13811857Y-13320071D01*
X13826143Y-13291500D01*
X13854714Y-13277214D01*
X13897571Y-13277214D01*
X13926143Y-13291500D01*
X14040428Y-13591500D02*
X14054714Y-13577214D01*
X14083286Y-13534357D01*
X14097571Y-13505786D01*
X14111857Y-13462929D01*
X14126143Y-13391500D01*
X14126143Y-13334357D01*
X14111857Y-13262929D01*
X14097571Y-13220071D01*
X14083286Y-13191500D01*
X14054714Y-13148643D01*
X14040428Y-13134357D01*
X7403886Y-13662443D02*
X7554000Y-13812557D01*
X7554000Y-13662443D02*
X7403886Y-13812557D01*
X7554000Y-13737500D02*
G75*
G03X7554000Y-13737500I-75057J0D01*
G01*
X7997571Y-13873214D02*
X7826143Y-13873214D01*
X7911857Y-13873214D02*
X7911857Y-13573214D01*
X7883286Y-13616071D01*
X7854714Y-13644643D01*
X7826143Y-13658929D01*
X8126143Y-13844643D02*
X8140428Y-13858929D01*
X8126143Y-13873214D01*
X8111857Y-13858929D01*
X8126143Y-13844643D01*
X8126143Y-13873214D01*
X8411857Y-13573214D02*
X8269000Y-13573214D01*
X8254714Y-13716071D01*
X8269000Y-13701786D01*
X8297571Y-13687500D01*
X8369000Y-13687500D01*
X8397571Y-13701786D01*
X8411857Y-13716071D01*
X8426143Y-13744643D01*
X8426143Y-13816071D01*
X8411857Y-13844643D01*
X8397571Y-13858929D01*
X8369000Y-13873214D01*
X8297571Y-13873214D01*
X8269000Y-13858929D01*
X8254714Y-13844643D01*
X8611857Y-13573214D02*
X8640428Y-13573214D01*
X8669000Y-13587500D01*
X8683286Y-13601786D01*
X8697571Y-13630357D01*
X8711857Y-13687500D01*
X8711857Y-13758929D01*
X8697571Y-13816071D01*
X8683286Y-13844643D01*
X8669000Y-13858929D01*
X8640428Y-13873214D01*
X8611857Y-13873214D01*
X8583286Y-13858929D01*
X8569000Y-13844643D01*
X8554714Y-13816071D01*
X8540428Y-13758929D01*
X8540428Y-13687500D01*
X8554714Y-13630357D01*
X8569000Y-13601786D01*
X8583286Y-13587500D01*
X8611857Y-13573214D01*
X8840428Y-13873214D02*
X8840428Y-13673214D01*
X8840428Y-13701786D02*
X8854714Y-13687500D01*
X8883286Y-13673214D01*
X8926143Y-13673214D01*
X8954714Y-13687500D01*
X8969000Y-13716071D01*
X8969000Y-13873214D01*
X8969000Y-13716071D02*
X8983286Y-13687500D01*
X9011857Y-13673214D01*
X9054714Y-13673214D01*
X9083286Y-13687500D01*
X9097571Y-13716071D01*
X9097571Y-13873214D01*
X9240428Y-13873214D02*
X9240428Y-13673214D01*
X9240428Y-13701786D02*
X9254714Y-13687500D01*
X9283286Y-13673214D01*
X9326143Y-13673214D01*
X9354714Y-13687500D01*
X9369000Y-13716071D01*
X9369000Y-13873214D01*
X9369000Y-13716071D02*
X9383286Y-13687500D01*
X9411857Y-13673214D01*
X9454714Y-13673214D01*
X9483286Y-13687500D01*
X9497571Y-13716071D01*
X9497571Y-13873214D01*
X10083286Y-13558929D02*
X9826143Y-13944643D01*
X10469000Y-13573214D02*
X10497571Y-13573214D01*
X10526143Y-13587500D01*
X10540428Y-13601786D01*
X10554714Y-13630357D01*
X10569000Y-13687500D01*
X10569000Y-13758929D01*
X10554714Y-13816071D01*
X10540428Y-13844643D01*
X10526143Y-13858929D01*
X10497571Y-13873214D01*
X10469000Y-13873214D01*
X10440428Y-13858929D01*
X10426143Y-13844643D01*
X10411857Y-13816071D01*
X10397571Y-13758929D01*
X10397571Y-13687500D01*
X10411857Y-13630357D01*
X10426143Y-13601786D01*
X10440428Y-13587500D01*
X10469000Y-13573214D01*
X10697571Y-13844643D02*
X10711857Y-13858929D01*
X10697571Y-13873214D01*
X10683286Y-13858929D01*
X10697571Y-13844643D01*
X10697571Y-13873214D01*
X10897571Y-13573214D02*
X10926143Y-13573214D01*
X10954714Y-13587500D01*
X10969000Y-13601786D01*
X10983286Y-13630357D01*
X10997571Y-13687500D01*
X10997571Y-13758929D01*
X10983286Y-13816071D01*
X10969000Y-13844643D01*
X10954714Y-13858929D01*
X10926143Y-13873214D01*
X10897571Y-13873214D01*
X10869000Y-13858929D01*
X10854714Y-13844643D01*
X10840428Y-13816071D01*
X10826143Y-13758929D01*
X10826143Y-13687500D01*
X10840428Y-13630357D01*
X10854714Y-13601786D01*
X10869000Y-13587500D01*
X10897571Y-13573214D01*
X11269000Y-13573214D02*
X11126143Y-13573214D01*
X11111857Y-13716071D01*
X11126143Y-13701786D01*
X11154714Y-13687500D01*
X11226143Y-13687500D01*
X11254714Y-13701786D01*
X11269000Y-13716071D01*
X11283286Y-13744643D01*
X11283286Y-13816071D01*
X11269000Y-13844643D01*
X11254714Y-13858929D01*
X11226143Y-13873214D01*
X11154714Y-13873214D01*
X11126143Y-13858929D01*
X11111857Y-13844643D01*
X11426143Y-13873214D02*
X11483286Y-13873214D01*
X11511857Y-13858929D01*
X11526143Y-13844643D01*
X11554714Y-13801786D01*
X11569000Y-13744643D01*
X11569000Y-13630357D01*
X11554714Y-13601786D01*
X11540428Y-13587500D01*
X11511857Y-13573214D01*
X11454714Y-13573214D01*
X11426143Y-13587500D01*
X11411857Y-13601786D01*
X11397571Y-13630357D01*
X11397571Y-13701786D01*
X11411857Y-13730357D01*
X11426143Y-13744643D01*
X11454714Y-13758929D01*
X11511857Y-13758929D01*
X11540428Y-13744643D01*
X11554714Y-13730357D01*
X11569000Y-13701786D01*
X11683286Y-13573214D02*
X11683286Y-13630357D01*
X11797571Y-13573214D02*
X11797571Y-13630357D01*
X12240428Y-13987500D02*
X12226143Y-13973214D01*
X12197571Y-13930357D01*
X12183286Y-13901786D01*
X12169000Y-13858929D01*
X12154714Y-13787500D01*
X12154714Y-13730357D01*
X12169000Y-13658929D01*
X12183286Y-13616071D01*
X12197571Y-13587500D01*
X12226143Y-13544643D01*
X12240428Y-13530357D01*
X12326143Y-13573214D02*
X12511857Y-13573214D01*
X12411857Y-13687500D01*
X12454714Y-13687500D01*
X12483286Y-13701786D01*
X12497571Y-13716071D01*
X12511857Y-13744643D01*
X12511857Y-13816071D01*
X12497571Y-13844643D01*
X12483286Y-13858929D01*
X12454714Y-13873214D01*
X12369000Y-13873214D01*
X12340428Y-13858929D01*
X12326143Y-13844643D01*
X12769000Y-13673214D02*
X12769000Y-13873214D01*
X12697571Y-13558929D02*
X12626143Y-13773214D01*
X12811857Y-13773214D01*
X13154714Y-13873214D02*
X13154714Y-13573214D01*
X13283286Y-13873214D02*
X13283286Y-13716071D01*
X13269000Y-13687500D01*
X13240428Y-13673214D01*
X13197571Y-13673214D01*
X13169000Y-13687500D01*
X13154714Y-13701786D01*
X13469000Y-13873214D02*
X13440428Y-13858929D01*
X13426143Y-13844643D01*
X13411857Y-13816071D01*
X13411857Y-13730357D01*
X13426143Y-13701786D01*
X13440428Y-13687500D01*
X13469000Y-13673214D01*
X13511857Y-13673214D01*
X13540428Y-13687500D01*
X13554714Y-13701786D01*
X13569000Y-13730357D01*
X13569000Y-13816071D01*
X13554714Y-13844643D01*
X13540428Y-13858929D01*
X13511857Y-13873214D01*
X13469000Y-13873214D01*
X13740428Y-13873214D02*
X13711857Y-13858929D01*
X13697571Y-13830357D01*
X13697571Y-13573214D01*
X13969000Y-13858929D02*
X13940428Y-13873214D01*
X13883286Y-13873214D01*
X13854714Y-13858929D01*
X13840428Y-13830357D01*
X13840428Y-13716071D01*
X13854714Y-13687500D01*
X13883286Y-13673214D01*
X13940428Y-13673214D01*
X13969000Y-13687500D01*
X13983286Y-13716071D01*
X13983286Y-13744643D01*
X13840428Y-13773214D01*
X14097571Y-13858929D02*
X14126143Y-13873214D01*
X14183286Y-13873214D01*
X14211857Y-13858929D01*
X14226143Y-13830357D01*
X14226143Y-13816071D01*
X14211857Y-13787500D01*
X14183286Y-13773214D01*
X14140428Y-13773214D01*
X14111857Y-13758929D01*
X14097571Y-13730357D01*
X14097571Y-13716071D01*
X14111857Y-13687500D01*
X14140428Y-13673214D01*
X14183286Y-13673214D01*
X14211857Y-13687500D01*
X14326143Y-13987500D02*
X14340428Y-13973214D01*
X14369000Y-13930357D01*
X14383286Y-13901786D01*
X14397571Y-13858929D01*
X14411857Y-13787500D01*
X14411857Y-13730357D01*
X14397571Y-13658929D01*
X14383286Y-13616071D01*
X14369000Y-13587500D01*
X14340428Y-13544643D01*
X14326143Y-13530357D01*
M02*
